<?xml version="1.0" encoding="UTF-8" standalone="no"?>
<!-- Created with PhysiCell (http://PhysiCell.MathCancer.org/) -->
<svg 
 xmlns:dc="http://purl.org/dc/elements/1.1/" 
 xmlns:cc="http://creativecommons.org/ns#" 
 xmlns:rdf="http://www.w3.org/1999/02/22-rdf-syntax-ns#" 
 xmlns:svg="http://www.w3.org/2000/svg" 
 xmlns="http://www.w3.org/2000/svg" 
 version="1.1" 
 width="400" 
 height="428" 
 id="svg2">
  <rect x="0" y="0" width="400" height="428" stroke-width="0.8" stroke="white" fill="white"/>
  <text x="5" y="12"
   font-family="Arial" font-size="10" fill="black" >
   Current time: 3 days, 0 hours, and 0.00 minutes, z = 0.00 &#956;m
  </text>
  <text x="5" y="23"
   font-family="Arial" font-size="9.5" fill="black" >
   171 agents
  </text>
 <g id="tissue" 
    transform="translate(0,428) scale(1,-1)">
  <g id="ECM">
  </g>
  <g id="cells">
   <g id="cell0" type="Blue Bacteria" dead="false" >
  <circle cx="63.6876" cy="400.061" r="0.750869" stroke-width="0.5" stroke="black" fill="grey"/>
  <circle cx="63.6876" cy="400.061" r="2.88283e-34" stroke-width="0.5" stroke="grey" fill="grey"/>
   </g>
   <g id="cell1" type="Blue Bacteria" dead="false" >
  <circle cx="236.375" cy="281.181" r="0.00119059" stroke-width="0.5" stroke="black" fill="grey"/>
  <circle cx="236.375" cy="281.181" r="3.11176e-34" stroke-width="0.5" stroke="grey" fill="grey"/>
   </g>
   <g id="cell2" type="Blue Bacteria" dead="false" >
  <circle cx="362.668" cy="106.541" r="0.00119059" stroke-width="0.5" stroke="black" fill="grey"/>
  <circle cx="362.668" cy="106.541" r="3.11176e-34" stroke-width="0.5" stroke="grey" fill="grey"/>
   </g>
   <g id="cell173" type="Red Bacteria" dead="false" >
  <circle cx="300.01" cy="319.893" r="0.8947" stroke-width="0.5" stroke="black" fill="red"/>
  <circle cx="300.01" cy="319.893" r="0.62035" stroke-width="0.5" stroke="red" fill="red"/>
   </g>
   <g id="cell4" type="Blue Bacteria" dead="false" >
  <circle cx="313.647" cy="185.243" r="0.00119059" stroke-width="0.5" stroke="black" fill="grey"/>
  <circle cx="313.647" cy="185.243" r="3.11176e-34" stroke-width="0.5" stroke="grey" fill="grey"/>
   </g>
   <g id="cell188" type="Red Bacteria" dead="false" >
  <circle cx="282.612" cy="116.247" r="0.8947" stroke-width="0.5" stroke="black" fill="red"/>
  <circle cx="282.612" cy="116.247" r="0.62035" stroke-width="0.5" stroke="red" fill="red"/>
   </g>
   <g id="cell6" type="Blue Bacteria" dead="false" >
  <circle cx="312.817" cy="116.852" r="0.00119059" stroke-width="0.5" stroke="black" fill="grey"/>
  <circle cx="312.817" cy="116.852" r="3.11176e-34" stroke-width="0.5" stroke="grey" fill="grey"/>
   </g>
   <g id="cell7" type="Blue Bacteria" dead="false" >
  <circle cx="240.808" cy="122.691" r="0.00119059" stroke-width="0.5" stroke="black" fill="grey"/>
  <circle cx="240.808" cy="122.691" r="3.11176e-34" stroke-width="0.5" stroke="grey" fill="grey"/>
   </g>
   <g id="cell8" type="Blue Bacteria" dead="false" >
  <circle cx="52.7816" cy="-0.0470055" r="0.725309" stroke-width="0.5" stroke="black" fill="grey"/>
  <circle cx="52.7816" cy="-0.0470055" r="2.94685e-34" stroke-width="0.5" stroke="grey" fill="grey"/>
   </g>
   <g id="cell9" type="Blue Bacteria" dead="false" >
  <circle cx="268.42" cy="291.665" r="0.00119059" stroke-width="0.5" stroke="black" fill="grey"/>
  <circle cx="268.42" cy="291.665" r="3.11176e-34" stroke-width="0.5" stroke="grey" fill="grey"/>
   </g>
   <g id="cell196" type="Red Bacteria" dead="false" >
  <circle cx="-0.0120496" cy="397.267" r="0.8947" stroke-width="0.5" stroke="black" fill="red"/>
  <circle cx="-0.0120496" cy="397.267" r="0.62035" stroke-width="0.5" stroke="red" fill="red"/>
   </g>
   <g id="cell11" type="Blue Bacteria" dead="false" >
  <circle cx="120.492" cy="400.039" r="0.725309" stroke-width="0.5" stroke="black" fill="grey"/>
  <circle cx="120.492" cy="400.039" r="2.94685e-34" stroke-width="0.5" stroke="grey" fill="grey"/>
   </g>
   <g id="cell12" type="Blue Bacteria" dead="false" >
  <circle cx="-0.00127546" cy="232.941" r="0.0635864" stroke-width="0.5" stroke="black" fill="grey"/>
  <circle cx="-0.00127546" cy="232.941" r="3.11176e-34" stroke-width="0.5" stroke="grey" fill="grey"/>
   </g>
   <g id="cell13" type="Blue Bacteria" dead="false" >
  <circle cx="327.2" cy="-0.0490897" r="0.0290134" stroke-width="0.5" stroke="black" fill="grey"/>
  <circle cx="327.2" cy="-0.0490897" r="3.11176e-34" stroke-width="0.5" stroke="grey" fill="grey"/>
   </g>
   <g id="cell14" type="Blue Bacteria" dead="false" >
  <circle cx="84.9255" cy="307.185" r="0.00119059" stroke-width="0.5" stroke="black" fill="grey"/>
  <circle cx="84.9255" cy="307.185" r="3.11176e-34" stroke-width="0.5" stroke="grey" fill="grey"/>
   </g>
   <g id="cell15" type="Blue Bacteria" dead="false" >
  <circle cx="246.34" cy="215.954" r="0.00119059" stroke-width="0.5" stroke="black" fill="grey"/>
  <circle cx="246.34" cy="215.954" r="3.11176e-34" stroke-width="0.5" stroke="grey" fill="grey"/>
   </g>
   <g id="cell16" type="Blue Bacteria" dead="false" >
  <circle cx="-0.0698037" cy="347.364" r="0.240898" stroke-width="0.5" stroke="black" fill="grey"/>
  <circle cx="-0.0698037" cy="347.364" r="3.11152e-34" stroke-width="0.5" stroke="grey" fill="grey"/>
   </g>
   <g id="cell17" type="Blue Bacteria" dead="false" >
  <circle cx="93.4667" cy="-0.0503879" r="0.112978" stroke-width="0.5" stroke="black" fill="grey"/>
  <circle cx="93.4667" cy="-0.0503879" r="3.11175e-34" stroke-width="0.5" stroke="grey" fill="grey"/>
   </g>
   <g id="cell18" type="Blue Bacteria" dead="false" >
  <circle cx="282.138" cy="367.445" r="0.00119059" stroke-width="0.5" stroke="black" fill="grey"/>
  <circle cx="282.138" cy="367.445" r="3.11176e-34" stroke-width="0.5" stroke="grey" fill="grey"/>
   </g>
   <g id="cell19" type="Blue Bacteria" dead="false" >
  <circle cx="292.043" cy="234.414" r="0.00119059" stroke-width="0.5" stroke="black" fill="grey"/>
  <circle cx="292.043" cy="234.414" r="3.11176e-34" stroke-width="0.5" stroke="grey" fill="grey"/>
   </g>
   <g id="cell20" type="Blue Bacteria" dead="false" >
  <circle cx="400.009" cy="298.833" r="0.147198" stroke-width="0.5" stroke="black" fill="grey"/>
  <circle cx="400.009" cy="298.833" r="3.11174e-34" stroke-width="0.5" stroke="grey" fill="grey"/>
   </g>
   <g id="cell21" type="Blue Bacteria" dead="false" >
  <circle cx="276.492" cy="108.985" r="0.00119059" stroke-width="0.5" stroke="black" fill="grey"/>
  <circle cx="276.492" cy="108.985" r="3.11176e-34" stroke-width="0.5" stroke="grey" fill="grey"/>
   </g>
   <g id="cell22" type="Blue Bacteria" dead="false" >
  <circle cx="89.0696" cy="117.346" r="0.00119059" stroke-width="0.5" stroke="black" fill="grey"/>
  <circle cx="89.0696" cy="117.346" r="3.11176e-34" stroke-width="0.5" stroke="grey" fill="grey"/>
   </g>
   <g id="cell174" type="Red Bacteria" dead="false" >
  <circle cx="298.768" cy="107.123" r="0.8947" stroke-width="0.5" stroke="black" fill="red"/>
  <circle cx="298.768" cy="107.123" r="0.62035" stroke-width="0.5" stroke="red" fill="red"/>
   </g>
   <g id="cell24" type="Blue Bacteria" dead="false" >
  <circle cx="303.386" cy="166.665" r="0.00119059" stroke-width="0.5" stroke="black" fill="grey"/>
  <circle cx="303.386" cy="166.665" r="3.11176e-34" stroke-width="0.5" stroke="grey" fill="grey"/>
   </g>
   <g id="cell25" type="Blue Bacteria" dead="false" >
  <circle cx="-0.00622777" cy="110.777" r="0.736455" stroke-width="0.5" stroke="black" fill="grey"/>
  <circle cx="-0.00622777" cy="110.777" r="2.92102e-34" stroke-width="0.5" stroke="grey" fill="grey"/>
   </g>
   <g id="cell26" type="Blue Bacteria" dead="false" >
  <circle cx="301.236" cy="140.49" r="0.00119059" stroke-width="0.5" stroke="black" fill="grey"/>
  <circle cx="301.236" cy="140.49" r="3.11176e-34" stroke-width="0.5" stroke="grey" fill="grey"/>
   </g>
   <g id="cell27" type="Blue Bacteria" dead="false" >
  <circle cx="280.699" cy="108.546" r="0.00119059" stroke-width="0.5" stroke="black" fill="grey"/>
  <circle cx="280.699" cy="108.546" r="3.11176e-34" stroke-width="0.5" stroke="grey" fill="grey"/>
   </g>
   <g id="cell199" type="Red Bacteria" dead="false" >
  <circle cx="100.858" cy="161.187" r="0.8947" stroke-width="0.5" stroke="black" fill="red"/>
  <circle cx="100.858" cy="161.187" r="0.62035" stroke-width="0.5" stroke="red" fill="red"/>
   </g>
   <g id="cell29" type="Blue Bacteria" dead="false" >
  <circle cx="242.834" cy="-0.074935" r="0.566679" stroke-width="0.5" stroke="black" fill="grey"/>
  <circle cx="242.834" cy="-0.074935" r="3.08232e-34" stroke-width="0.5" stroke="grey" fill="grey"/>
   </g>
   <g id="cell30" type="Blue Bacteria" dead="false" >
  <circle cx="241.258" cy="223.849" r="0.00119059" stroke-width="0.5" stroke="black" fill="grey"/>
  <circle cx="241.258" cy="223.849" r="3.11176e-34" stroke-width="0.5" stroke="grey" fill="grey"/>
   </g>
   <g id="cell31" type="Blue Bacteria" dead="false" >
  <circle cx="136.536" cy="400.035" r="0.750869" stroke-width="0.5" stroke="black" fill="grey"/>
  <circle cx="136.536" cy="400.035" r="2.88283e-34" stroke-width="0.5" stroke="grey" fill="grey"/>
   </g>
   <g id="cell32" type="Blue Bacteria" dead="false" >
  <circle cx="400.011" cy="299.63" r="0.00393402" stroke-width="0.5" stroke="black" fill="grey"/>
  <circle cx="400.011" cy="299.63" r="3.11176e-34" stroke-width="0.5" stroke="grey" fill="grey"/>
   </g>
   <g id="cell33" type="Blue Bacteria" dead="false" >
  <circle cx="400.03" cy="163.985" r="0.0470549" stroke-width="0.5" stroke="black" fill="grey"/>
  <circle cx="400.03" cy="163.985" r="3.11176e-34" stroke-width="0.5" stroke="grey" fill="grey"/>
   </g>
   <g id="cell194" type="Red Bacteria" dead="false" >
  <circle cx="245.128" cy="400.041" r="0.8947" stroke-width="0.5" stroke="black" fill="red"/>
  <circle cx="245.128" cy="400.041" r="0.62035" stroke-width="0.5" stroke="red" fill="red"/>
   </g>
   <g id="cell35" type="Blue Bacteria" dead="false" >
  <circle cx="255.11" cy="227.597" r="0.00119059" stroke-width="0.5" stroke="black" fill="grey"/>
  <circle cx="255.11" cy="227.597" r="3.11176e-34" stroke-width="0.5" stroke="grey" fill="grey"/>
   </g>
   <g id="cell36" type="Blue Bacteria" dead="false" >
  <circle cx="294.452" cy="215.767" r="0.00119059" stroke-width="0.5" stroke="black" fill="grey"/>
  <circle cx="294.452" cy="215.767" r="3.11176e-34" stroke-width="0.5" stroke="grey" fill="grey"/>
   </g>
   <g id="cell37" type="Blue Bacteria" dead="false" >
  <circle cx="256.346" cy="400.025" r="0.463055" stroke-width="0.5" stroke="black" fill="grey"/>
  <circle cx="256.346" cy="400.025" r="3.10267e-34" stroke-width="0.5" stroke="grey" fill="grey"/>
   </g>
   <g id="cell38" type="Blue Bacteria" dead="false" >
  <circle cx="160.998" cy="247.336" r="0.00119059" stroke-width="0.5" stroke="black" fill="grey"/>
  <circle cx="160.998" cy="247.336" r="3.11176e-34" stroke-width="0.5" stroke="grey" fill="grey"/>
   </g>
   <g id="cell39" type="Blue Bacteria" dead="false" >
  <circle cx="352.176" cy="69.2318" r="0.00119059" stroke-width="0.5" stroke="black" fill="grey"/>
  <circle cx="352.176" cy="69.2318" r="3.11176e-34" stroke-width="0.5" stroke="grey" fill="grey"/>
   </g>
   <g id="cell40" type="Blue Bacteria" dead="false" >
  <circle cx="400.004" cy="292.824" r="0.254444" stroke-width="0.5" stroke="black" fill="grey"/>
  <circle cx="400.004" cy="292.824" r="3.11144e-34" stroke-width="0.5" stroke="grey" fill="grey"/>
   </g>
   <g id="cell41" type="Blue Bacteria" dead="false" >
  <circle cx="400.014" cy="58.5333" r="0.656082" stroke-width="0.5" stroke="black" fill="grey"/>
  <circle cx="400.014" cy="58.5333" r="3.03669e-34" stroke-width="0.5" stroke="grey" fill="grey"/>
   </g>
   <g id="cell42" type="Blue Bacteria" dead="false" >
  <circle cx="246.382" cy="133.129" r="0.00119059" stroke-width="0.5" stroke="black" fill="grey"/>
  <circle cx="246.382" cy="133.129" r="3.11176e-34" stroke-width="0.5" stroke="grey" fill="grey"/>
   </g>
   <g id="cell43" type="Blue Bacteria" dead="false" >
  <circle cx="221.744" cy="282.286" r="0.00119059" stroke-width="0.5" stroke="black" fill="grey"/>
  <circle cx="221.744" cy="282.286" r="3.11176e-34" stroke-width="0.5" stroke="grey" fill="grey"/>
   </g>
   <g id="cell191" type="Red Bacteria" dead="false" >
  <circle cx="117.897" cy="-0.0331363" r="0.8947" stroke-width="0.5" stroke="black" fill="red"/>
  <circle cx="117.897" cy="-0.0331363" r="0.62035" stroke-width="0.5" stroke="red" fill="red"/>
   </g>
   <g id="cell45" type="Blue Bacteria" dead="false" >
  <circle cx="249.7" cy="199.806" r="0.00119059" stroke-width="0.5" stroke="black" fill="grey"/>
  <circle cx="249.7" cy="199.806" r="3.11176e-34" stroke-width="0.5" stroke="grey" fill="grey"/>
   </g>
   <g id="cell46" type="Blue Bacteria" dead="false" >
  <circle cx="305.629" cy="305.319" r="0.00119059" stroke-width="0.5" stroke="black" fill="grey"/>
  <circle cx="305.629" cy="305.319" r="3.11176e-34" stroke-width="0.5" stroke="grey" fill="grey"/>
   </g>
   <g id="cell47" type="Blue Bacteria" dead="false" >
  <circle cx="269.958" cy="324.342" r="0.00119059" stroke-width="0.5" stroke="black" fill="grey"/>
  <circle cx="269.958" cy="324.342" r="3.11176e-34" stroke-width="0.5" stroke="grey" fill="grey"/>
   </g>
   <g id="cell48" type="Blue Bacteria" dead="false" >
  <circle cx="329.21" cy="180.117" r="0.00119059" stroke-width="0.5" stroke="black" fill="grey"/>
  <circle cx="329.21" cy="180.117" r="3.11176e-34" stroke-width="0.5" stroke="grey" fill="grey"/>
   </g>
   <g id="cell49" type="Blue Bacteria" dead="false" >
  <circle cx="288.622" cy="173.546" r="0.00119059" stroke-width="0.5" stroke="black" fill="grey"/>
  <circle cx="288.622" cy="173.546" r="3.11176e-34" stroke-width="0.5" stroke="grey" fill="grey"/>
   </g>
   <g id="cell50" type="Blue Bacteria" dead="false" >
  <circle cx="346.952" cy="373.797" r="0.00119059" stroke-width="0.5" stroke="black" fill="grey"/>
  <circle cx="346.952" cy="373.797" r="3.11176e-34" stroke-width="0.5" stroke="grey" fill="grey"/>
   </g>
   <g id="cell51" type="Blue Bacteria" dead="false" >
  <circle cx="-0.0318599" cy="181.594" r="0.745857" stroke-width="0.5" stroke="black" fill="grey"/>
  <circle cx="-0.0318599" cy="181.594" r="2.89569e-34" stroke-width="0.5" stroke="grey" fill="grey"/>
   </g>
   <g id="cell52" type="Blue Bacteria" dead="false" >
  <circle cx="400.018" cy="50.0485" r="0.745857" stroke-width="0.5" stroke="black" fill="grey"/>
  <circle cx="400.018" cy="50.0485" r="2.89569e-34" stroke-width="0.5" stroke="grey" fill="grey"/>
   </g>
   <g id="cell53" type="Blue Bacteria" dead="false" >
  <circle cx="30.0692" cy="205.709" r="0.00119059" stroke-width="0.5" stroke="black" fill="grey"/>
  <circle cx="30.0692" cy="205.709" r="3.11176e-34" stroke-width="0.5" stroke="grey" fill="grey"/>
   </g>
   <g id="cell197" type="Red Bacteria" dead="false" >
  <circle cx="393.155" cy="239.169" r="0.8947" stroke-width="0.5" stroke="black" fill="red"/>
  <circle cx="393.155" cy="239.169" r="0.62035" stroke-width="0.5" stroke="red" fill="red"/>
   </g>
   <g id="cell55" type="Blue Bacteria" dead="false" >
  <circle cx="258.222" cy="114.981" r="0.00119059" stroke-width="0.5" stroke="black" fill="grey"/>
  <circle cx="258.222" cy="114.981" r="3.11176e-34" stroke-width="0.5" stroke="grey" fill="grey"/>
   </g>
   <g id="cell56" type="Blue Bacteria" dead="false" >
  <circle cx="-0.0153719" cy="149.368" r="0.0214704" stroke-width="0.5" stroke="black" fill="grey"/>
  <circle cx="-0.0153719" cy="149.368" r="3.11176e-34" stroke-width="0.5" stroke="grey" fill="grey"/>
   </g>
   <g id="cell57" type="Blue Bacteria" dead="false" >
  <circle cx="-0.0801403" cy="196.411" r="0.0220662" stroke-width="0.5" stroke="black" fill="grey"/>
  <circle cx="-0.0801403" cy="196.411" r="3.11176e-34" stroke-width="0.5" stroke="grey" fill="grey"/>
   </g>
   <g id="cell58" type="Blue Bacteria" dead="false" >
  <circle cx="260.468" cy="223.839" r="0.00119059" stroke-width="0.5" stroke="black" fill="grey"/>
  <circle cx="260.468" cy="223.839" r="3.11176e-34" stroke-width="0.5" stroke="grey" fill="grey"/>
   </g>
   <g id="cell59" type="Blue Bacteria" dead="false" >
  <circle cx="304.082" cy="314.381" r="0.00119059" stroke-width="0.5" stroke="black" fill="grey"/>
  <circle cx="304.082" cy="314.381" r="3.11176e-34" stroke-width="0.5" stroke="grey" fill="grey"/>
   </g>
   <g id="cell60" type="Blue Bacteria" dead="false" >
  <circle cx="224.61" cy="400.019" r="0.366212" stroke-width="0.5" stroke="black" fill="grey"/>
  <circle cx="224.61" cy="400.019" r="3.10933e-34" stroke-width="0.5" stroke="grey" fill="grey"/>
   </g>
   <g id="cell61" type="Blue Bacteria" dead="false" >
  <circle cx="35.6938" cy="349.404" r="0.00119059" stroke-width="0.5" stroke="black" fill="grey"/>
  <circle cx="35.6938" cy="349.404" r="3.11176e-34" stroke-width="0.5" stroke="grey" fill="grey"/>
   </g>
   <g id="cell62" type="Blue Bacteria" dead="false" >
  <circle cx="400.057" cy="313.142" r="0.0167825" stroke-width="0.5" stroke="black" fill="grey"/>
  <circle cx="400.057" cy="313.142" r="3.11176e-34" stroke-width="0.5" stroke="grey" fill="grey"/>
   </g>
   <g id="cell63" type="Blue Bacteria" dead="false" >
  <circle cx="281.577" cy="226.662" r="0.00119059" stroke-width="0.5" stroke="black" fill="grey"/>
  <circle cx="281.577" cy="226.662" r="3.11176e-34" stroke-width="0.5" stroke="grey" fill="grey"/>
   </g>
   <g id="cell64" type="Blue Bacteria" dead="false" >
  <circle cx="360.957" cy="66.913" r="0.00119059" stroke-width="0.5" stroke="black" fill="grey"/>
  <circle cx="360.957" cy="66.913" r="3.11176e-34" stroke-width="0.5" stroke="grey" fill="grey"/>
   </g>
   <g id="cell65" type="Blue Bacteria" dead="false" >
  <circle cx="243.411" cy="284.423" r="0.00119059" stroke-width="0.5" stroke="black" fill="grey"/>
  <circle cx="243.411" cy="284.423" r="3.11176e-34" stroke-width="0.5" stroke="grey" fill="grey"/>
   </g>
   <g id="cell66" type="Blue Bacteria" dead="false" >
  <circle cx="400.065" cy="234.298" r="0.0338812" stroke-width="0.5" stroke="black" fill="grey"/>
  <circle cx="400.065" cy="234.298" r="3.11176e-34" stroke-width="0.5" stroke="grey" fill="grey"/>
   </g>
   <g id="cell67" type="Blue Bacteria" dead="false" >
  <circle cx="376.093" cy="174.592" r="0.00119059" stroke-width="0.5" stroke="black" fill="grey"/>
  <circle cx="376.093" cy="174.592" r="3.11176e-34" stroke-width="0.5" stroke="grey" fill="grey"/>
   </g>
   <g id="cell176" type="Red Bacteria" dead="false" >
  <circle cx="-0.0568013" cy="295.467" r="0.8947" stroke-width="0.5" stroke="black" fill="red"/>
  <circle cx="-0.0568013" cy="295.467" r="0.62035" stroke-width="0.5" stroke="red" fill="red"/>
   </g>
   <g id="cell69" type="Blue Bacteria" dead="false" >
  <circle cx="400.01" cy="175.446" r="0.488494" stroke-width="0.5" stroke="black" fill="grey"/>
  <circle cx="400.01" cy="175.446" r="3.09943e-34" stroke-width="0.5" stroke="grey" fill="grey"/>
   </g>
   <g id="cell70" type="Blue Bacteria" dead="false" >
  <circle cx="400.019" cy="141.188" r="0.581292" stroke-width="0.5" stroke="black" fill="grey"/>
  <circle cx="400.019" cy="141.188" r="3.0774e-34" stroke-width="0.5" stroke="grey" fill="grey"/>
   </g>
   <g id="cell186" type="Red Bacteria" dead="false" >
  <circle cx="319.104" cy="17.9072" r="0.8947" stroke-width="0.5" stroke="black" fill="red"/>
  <circle cx="319.104" cy="17.9072" r="0.62035" stroke-width="0.5" stroke="red" fill="red"/>
   </g>
   <g id="cell72" type="Blue Bacteria" dead="false" >
  <circle cx="351.525" cy="400.04" r="0.411966" stroke-width="0.5" stroke="black" fill="grey"/>
  <circle cx="351.525" cy="400.04" r="3.10706e-34" stroke-width="0.5" stroke="grey" fill="grey"/>
   </g>
   <g id="cell73" type="Blue Bacteria" dead="false" >
  <circle cx="76.1053" cy="207.024" r="0.00119059" stroke-width="0.5" stroke="black" fill="grey"/>
  <circle cx="76.1053" cy="207.024" r="3.11176e-34" stroke-width="0.5" stroke="grey" fill="grey"/>
   </g>
   <g id="cell74" type="Blue Bacteria" dead="false" >
  <circle cx="-0.044204" cy="18.1092" r="0.717137" stroke-width="0.5" stroke="black" fill="grey"/>
  <circle cx="-0.044204" cy="18.1092" r="2.96287e-34" stroke-width="0.5" stroke="grey" fill="grey"/>
   </g>
   <g id="cell75" type="Blue Bacteria" dead="false" >
  <circle cx="329.405" cy="257.595" r="0.00119059" stroke-width="0.5" stroke="black" fill="grey"/>
  <circle cx="329.405" cy="257.595" r="3.11176e-34" stroke-width="0.5" stroke="grey" fill="grey"/>
   </g>
   <g id="cell76" type="Blue Bacteria" dead="false" >
  <circle cx="273.098" cy="400.015" r="0.0437428" stroke-width="0.5" stroke="black" fill="grey"/>
  <circle cx="273.098" cy="400.015" r="3.11176e-34" stroke-width="0.5" stroke="grey" fill="grey"/>
   </g>
   <g id="cell185" type="Red Bacteria" dead="false" >
  <circle cx="19.7991" cy="400.077" r="0.8947" stroke-width="0.5" stroke="black" fill="red"/>
  <circle cx="19.7991" cy="400.077" r="0.62035" stroke-width="0.5" stroke="red" fill="red"/>
   </g>
   <g id="cell78" type="Blue Bacteria" dead="false" >
  <circle cx="249.322" cy="350.678" r="0.00119059" stroke-width="0.5" stroke="black" fill="grey"/>
  <circle cx="249.322" cy="350.678" r="3.11176e-34" stroke-width="0.5" stroke="grey" fill="grey"/>
   </g>
   <g id="cell79" type="Blue Bacteria" dead="false" >
  <circle cx="259.514" cy="53.9288" r="0.00119059" stroke-width="0.5" stroke="black" fill="grey"/>
  <circle cx="259.514" cy="53.9288" r="3.11176e-34" stroke-width="0.5" stroke="grey" fill="grey"/>
   </g>
   <g id="cell80" type="Blue Bacteria" dead="false" >
  <circle cx="304.867" cy="258.46" r="0.00119059" stroke-width="0.5" stroke="black" fill="grey"/>
  <circle cx="304.867" cy="258.46" r="3.11176e-34" stroke-width="0.5" stroke="grey" fill="grey"/>
   </g>
   <g id="cell81" type="Blue Bacteria" dead="false" >
  <circle cx="290.178" cy="142.288" r="0.00119059" stroke-width="0.5" stroke="black" fill="grey"/>
  <circle cx="290.178" cy="142.288" r="3.11176e-34" stroke-width="0.5" stroke="grey" fill="grey"/>
   </g>
   <g id="cell82" type="Blue Bacteria" dead="false" >
  <circle cx="235.833" cy="233.142" r="0.00119059" stroke-width="0.5" stroke="black" fill="grey"/>
  <circle cx="235.833" cy="233.142" r="3.11176e-34" stroke-width="0.5" stroke="grey" fill="grey"/>
   </g>
   <g id="cell83" type="Blue Bacteria" dead="false" >
  <circle cx="288.2" cy="400.025" r="0.601053" stroke-width="0.5" stroke="black" fill="grey"/>
  <circle cx="288.2" cy="400.025" r="3.0695e-34" stroke-width="0.5" stroke="grey" fill="grey"/>
   </g>
   <g id="cell84" type="Blue Bacteria" dead="false" >
  <circle cx="268.919" cy="261.043" r="0.00119059" stroke-width="0.5" stroke="black" fill="grey"/>
  <circle cx="268.919" cy="261.043" r="3.11176e-34" stroke-width="0.5" stroke="grey" fill="grey"/>
   </g>
   <g id="cell85" type="Blue Bacteria" dead="false" >
  <circle cx="93.6108" cy="59.9905" r="0.00119059" stroke-width="0.5" stroke="black" fill="grey"/>
  <circle cx="93.6108" cy="59.9905" r="3.11176e-34" stroke-width="0.5" stroke="grey" fill="grey"/>
   </g>
   <g id="cell86" type="Blue Bacteria" dead="true" >
  <circle cx="275.935" cy="203.035" r="0.000340065" stroke-width="0.5" stroke="black" fill="grey"/>
  <circle cx="275.935" cy="203.035" r="1.33486e-34" stroke-width="0.5" stroke="black" fill="black"/>
   </g>
   <g id="cell87" type="Blue Bacteria" dead="false" >
  <circle cx="400.045" cy="259.479" r="0.74295" stroke-width="0.5" stroke="black" fill="grey"/>
  <circle cx="400.045" cy="259.479" r="2.90374e-34" stroke-width="0.5" stroke="grey" fill="grey"/>
   </g>
   <g id="cell88" type="Blue Bacteria" dead="false" >
  <circle cx="238.525" cy="317.758" r="0.00119059" stroke-width="0.5" stroke="black" fill="grey"/>
  <circle cx="238.525" cy="317.758" r="3.11176e-34" stroke-width="0.5" stroke="grey" fill="grey"/>
   </g>
   <g id="cell177" type="Red Bacteria" dead="false" >
  <circle cx="120.556" cy="-0.0800605" r="0.8947" stroke-width="0.5" stroke="black" fill="red"/>
  <circle cx="120.556" cy="-0.0800605" r="0.62035" stroke-width="0.5" stroke="red" fill="red"/>
   </g>
   <g id="cell90" type="Blue Bacteria" dead="false" >
  <circle cx="309.818" cy="185.032" r="0.00119059" stroke-width="0.5" stroke="black" fill="grey"/>
  <circle cx="309.818" cy="185.032" r="3.11176e-34" stroke-width="0.5" stroke="grey" fill="grey"/>
   </g>
   <g id="cell91" type="Blue Bacteria" dead="false" >
  <circle cx="228.288" cy="-0.091678" r="0.152669" stroke-width="0.5" stroke="black" fill="grey"/>
  <circle cx="228.288" cy="-0.091678" r="3.11174e-34" stroke-width="0.5" stroke="grey" fill="grey"/>
   </g>
   <g id="cell184" type="Red Bacteria" dead="false" >
  <circle cx="359.358" cy="-0.0333103" r="0.8947" stroke-width="0.5" stroke="black" fill="red"/>
  <circle cx="359.358" cy="-0.0333103" r="0.62035" stroke-width="0.5" stroke="red" fill="red"/>
   </g>
   <g id="cell190" type="Red Bacteria" dead="false" >
  <circle cx="322.468" cy="15.3822" r="0.8947" stroke-width="0.5" stroke="black" fill="red"/>
  <circle cx="322.468" cy="15.3822" r="0.62035" stroke-width="0.5" stroke="red" fill="red"/>
   </g>
   <g id="cell94" type="Blue Bacteria" dead="false" >
  <circle cx="400.029" cy="191.842" r="0.0137304" stroke-width="0.5" stroke="black" fill="grey"/>
  <circle cx="400.029" cy="191.842" r="3.11176e-34" stroke-width="0.5" stroke="grey" fill="grey"/>
   </g>
   <g id="cell198" type="Red Bacteria" dead="false" >
  <circle cx="98.68" cy="160.921" r="0.8947" stroke-width="0.5" stroke="black" fill="red"/>
  <circle cx="98.68" cy="160.921" r="0.62035" stroke-width="0.5" stroke="red" fill="red"/>
   </g>
   <g id="cell96" type="Blue Bacteria" dead="false" >
  <circle cx="296.64" cy="400.072" r="0.105988" stroke-width="0.5" stroke="black" fill="grey"/>
  <circle cx="296.64" cy="400.072" r="3.11176e-34" stroke-width="0.5" stroke="grey" fill="grey"/>
   </g>
   <g id="cell97" type="Blue Bacteria" dead="false" >
  <circle cx="222.187" cy="299.915" r="0.00119059" stroke-width="0.5" stroke="black" fill="grey"/>
  <circle cx="222.187" cy="299.915" r="3.11176e-34" stroke-width="0.5" stroke="grey" fill="grey"/>
   </g>
   <g id="cell98" type="Blue Bacteria" dead="false" >
  <circle cx="286.068" cy="362.455" r="0.00119059" stroke-width="0.5" stroke="black" fill="grey"/>
  <circle cx="286.068" cy="362.455" r="3.11176e-34" stroke-width="0.5" stroke="grey" fill="grey"/>
   </g>
   <g id="cell99" type="Blue Bacteria" dead="false" >
  <circle cx="400.042" cy="67.7778" r="0.366212" stroke-width="0.5" stroke="black" fill="grey"/>
  <circle cx="400.042" cy="67.7778" r="3.10933e-34" stroke-width="0.5" stroke="grey" fill="grey"/>
   </g>
   <g id="cell100" type="Red Bacteria" dead="false" >
  <circle cx="298.475" cy="319.768" r="0.8947" stroke-width="0.5" stroke="black" fill="red"/>
  <circle cx="298.475" cy="319.768" r="0.62035" stroke-width="0.5" stroke="red" fill="red"/>
   </g>
   <g id="cell101" type="Red Bacteria" dead="true" >
  <circle cx="96.3991" cy="146.54" r="0.294601" stroke-width="0.5" stroke="black" fill="red"/>
  <circle cx="96.3991" cy="146.54" r="0.27371" stroke-width="0.5" stroke="black" fill="black"/>
   </g>
   <g id="cell102" type="Red Bacteria" dead="false" >
  <circle cx="284.141" cy="99.9105" r="0.8947" stroke-width="0.5" stroke="black" fill="red"/>
  <circle cx="284.141" cy="99.9105" r="0.62035" stroke-width="0.5" stroke="red" fill="red"/>
   </g>
   <g id="cell103" type="Red Bacteria" dead="false" >
  <circle cx="306.431" cy="317.451" r="0.8947" stroke-width="0.5" stroke="black" fill="red"/>
  <circle cx="306.431" cy="317.451" r="0.62035" stroke-width="0.5" stroke="red" fill="red"/>
   </g>
   <g id="cell104" type="Red Bacteria" dead="false" >
  <circle cx="400.021" cy="381.964" r="0.8947" stroke-width="0.5" stroke="black" fill="red"/>
  <circle cx="400.021" cy="381.964" r="0.62035" stroke-width="0.5" stroke="red" fill="red"/>
   </g>
   <g id="cell105" type="Red Bacteria" dead="false" >
  <circle cx="18.0945" cy="400.013" r="0.8947" stroke-width="0.5" stroke="black" fill="red"/>
  <circle cx="18.0945" cy="400.013" r="0.62035" stroke-width="0.5" stroke="red" fill="red"/>
   </g>
   <g id="cell106" type="Red Bacteria" dead="false" >
  <circle cx="99.4738" cy="154.054" r="0.8947" stroke-width="0.5" stroke="black" fill="red"/>
  <circle cx="99.4738" cy="154.054" r="0.62035" stroke-width="0.5" stroke="red" fill="red"/>
   </g>
   <g id="cell107" type="Red Bacteria" dead="false" >
  <circle cx="296.814" cy="324.722" r="0.8947" stroke-width="0.5" stroke="black" fill="red"/>
  <circle cx="296.814" cy="324.722" r="0.62035" stroke-width="0.5" stroke="red" fill="red"/>
   </g>
   <g id="cell108" type="Red Bacteria" dead="false" >
  <circle cx="138.776" cy="400.047" r="0.8947" stroke-width="0.5" stroke="black" fill="red"/>
  <circle cx="138.776" cy="400.047" r="0.62035" stroke-width="0.5" stroke="red" fill="red"/>
   </g>
   <g id="cell109" type="Red Bacteria" dead="false" >
  <circle cx="400.01" cy="238.719" r="0.8947" stroke-width="0.5" stroke="black" fill="red"/>
  <circle cx="400.01" cy="238.719" r="0.62035" stroke-width="0.5" stroke="red" fill="red"/>
   </g>
   <g id="cell110" type="Red Bacteria" dead="false" >
  <circle cx="307.247" cy="319.956" r="0.8947" stroke-width="0.5" stroke="black" fill="red"/>
  <circle cx="307.247" cy="319.956" r="0.62035" stroke-width="0.5" stroke="red" fill="red"/>
   </g>
   <g id="cell111" type="Red Bacteria" dead="false" >
  <circle cx="99.6536" cy="161.96" r="0.8947" stroke-width="0.5" stroke="black" fill="red"/>
  <circle cx="99.6536" cy="161.96" r="0.62035" stroke-width="0.5" stroke="red" fill="red"/>
   </g>
   <g id="cell181" type="Red Bacteria" dead="false" >
  <circle cx="100.292" cy="142.87" r="0.8947" stroke-width="0.5" stroke="black" fill="red"/>
  <circle cx="100.292" cy="142.87" r="0.62035" stroke-width="0.5" stroke="red" fill="red"/>
   </g>
   <g id="cell113" type="Red Bacteria" dead="false" >
  <circle cx="16.4774" cy="400.077" r="0.8947" stroke-width="0.5" stroke="black" fill="red"/>
  <circle cx="16.4774" cy="400.077" r="0.62035" stroke-width="0.5" stroke="red" fill="red"/>
   </g>
   <g id="cell114" type="Red Bacteria" dead="false" >
  <circle cx="-0.0170762" cy="31.3223" r="0.8947" stroke-width="0.5" stroke="black" fill="red"/>
  <circle cx="-0.0170762" cy="31.3223" r="0.62035" stroke-width="0.5" stroke="red" fill="red"/>
   </g>
   <g id="cell115" type="Red Bacteria" dead="false" >
  <circle cx="119.15" cy="-0.0288166" r="0.8947" stroke-width="0.5" stroke="black" fill="red"/>
  <circle cx="119.15" cy="-0.0288166" r="0.62035" stroke-width="0.5" stroke="red" fill="red"/>
   </g>
   <g id="cell116" type="Red Bacteria" dead="false" >
  <circle cx="-0.00300193" cy="385.883" r="0.8947" stroke-width="0.5" stroke="black" fill="red"/>
  <circle cx="-0.00300193" cy="385.883" r="0.62035" stroke-width="0.5" stroke="red" fill="red"/>
   </g>
   <g id="cell117" type="Red Bacteria" dead="false" >
  <circle cx="99.9935" cy="149.433" r="0.8947" stroke-width="0.5" stroke="black" fill="red"/>
  <circle cx="99.9935" cy="149.433" r="0.62035" stroke-width="0.5" stroke="red" fill="red"/>
   </g>
   <g id="cell118" type="Red Bacteria" dead="false" >
  <circle cx="294.339" cy="101.904" r="0.8947" stroke-width="0.5" stroke="black" fill="red"/>
  <circle cx="294.339" cy="101.904" r="0.62035" stroke-width="0.5" stroke="red" fill="red"/>
   </g>
   <g id="cell119" type="Red Bacteria" dead="false" >
  <circle cx="400.08" cy="240.025" r="0.8947" stroke-width="0.5" stroke="black" fill="red"/>
  <circle cx="400.08" cy="240.025" r="0.62035" stroke-width="0.5" stroke="red" fill="red"/>
   </g>
   <g id="cell120" type="Red Bacteria" dead="false" >
  <circle cx="100.241" cy="146.534" r="0.8947" stroke-width="0.5" stroke="black" fill="red"/>
  <circle cx="100.241" cy="146.534" r="0.62035" stroke-width="0.5" stroke="red" fill="red"/>
   </g>
   <g id="cell121" type="Red Bacteria" dead="false" >
  <circle cx="-0.0143164" cy="259.705" r="0.8947" stroke-width="0.5" stroke="black" fill="red"/>
  <circle cx="-0.0143164" cy="259.705" r="0.62035" stroke-width="0.5" stroke="red" fill="red"/>
   </g>
   <g id="cell180" type="Red Bacteria" dead="false" >
  <circle cx="390.014" cy="240.101" r="0.8947" stroke-width="0.5" stroke="black" fill="red"/>
  <circle cx="390.014" cy="240.101" r="0.62035" stroke-width="0.5" stroke="red" fill="red"/>
   </g>
   <g id="cell123" type="Red Bacteria" dead="false" >
  <circle cx="339.86" cy="400.045" r="0.8947" stroke-width="0.5" stroke="black" fill="red"/>
  <circle cx="339.86" cy="400.045" r="0.62035" stroke-width="0.5" stroke="red" fill="red"/>
   </g>
   <g id="cell124" type="Red Bacteria" dead="false" >
  <circle cx="298.836" cy="98.2225" r="0.8947" stroke-width="0.5" stroke="black" fill="red"/>
  <circle cx="298.836" cy="98.2225" r="0.62035" stroke-width="0.5" stroke="red" fill="red"/>
   </g>
   <g id="cell125" type="Red Bacteria" dead="false" >
  <circle cx="100.566" cy="157.509" r="0.8947" stroke-width="0.5" stroke="black" fill="red"/>
  <circle cx="100.566" cy="157.509" r="0.62035" stroke-width="0.5" stroke="red" fill="red"/>
   </g>
   <g id="cell126" type="Red Bacteria" dead="false" >
  <circle cx="342.04" cy="400.082" r="0.8947" stroke-width="0.5" stroke="black" fill="red"/>
  <circle cx="342.04" cy="400.082" r="0.62035" stroke-width="0.5" stroke="red" fill="red"/>
   </g>
   <g id="cell127" type="Red Bacteria" dead="false" >
  <circle cx="-0.0142861" cy="258.407" r="0.8947" stroke-width="0.5" stroke="black" fill="red"/>
  <circle cx="-0.0142861" cy="258.407" r="0.62035" stroke-width="0.5" stroke="red" fill="red"/>
   </g>
   <g id="cell128" type="Red Bacteria" dead="false" >
  <circle cx="318.242" cy="-0.0308594" r="0.8947" stroke-width="0.5" stroke="black" fill="red"/>
  <circle cx="318.242" cy="-0.0308594" r="0.62035" stroke-width="0.5" stroke="red" fill="red"/>
   </g>
   <g id="cell129" type="Red Bacteria" dead="false" >
  <circle cx="394.087" cy="240.348" r="0.8947" stroke-width="0.5" stroke="black" fill="red"/>
  <circle cx="394.087" cy="240.348" r="0.62035" stroke-width="0.5" stroke="red" fill="red"/>
   </g>
   <g id="cell130" type="Red Bacteria" dead="false" >
  <circle cx="116.503" cy="-0.0689856" r="0.8947" stroke-width="0.5" stroke="black" fill="red"/>
  <circle cx="116.503" cy="-0.0689856" r="0.62035" stroke-width="0.5" stroke="red" fill="red"/>
   </g>
   <g id="cell131" type="Red Bacteria" dead="false" >
  <circle cx="400.06" cy="157.761" r="0.8947" stroke-width="0.5" stroke="black" fill="red"/>
  <circle cx="400.06" cy="157.761" r="0.62035" stroke-width="0.5" stroke="red" fill="red"/>
   </g>
   <g id="cell132" type="Red Bacteria" dead="false" >
  <circle cx="-0.0158622" cy="257.098" r="0.8947" stroke-width="0.5" stroke="black" fill="red"/>
  <circle cx="-0.0158622" cy="257.098" r="0.62035" stroke-width="0.5" stroke="red" fill="red"/>
   </g>
   <g id="cell133" type="Red Bacteria" dead="false" >
  <circle cx="400.033" cy="281.167" r="0.8947" stroke-width="0.5" stroke="black" fill="red"/>
  <circle cx="400.033" cy="281.167" r="0.62035" stroke-width="0.5" stroke="red" fill="red"/>
   </g>
   <g id="cell134" type="Red Bacteria" dead="false" >
  <circle cx="99.7745" cy="158.957" r="0.8947" stroke-width="0.5" stroke="black" fill="red"/>
  <circle cx="99.7745" cy="158.957" r="0.62035" stroke-width="0.5" stroke="red" fill="red"/>
   </g>
   <g id="cell135" type="Red Bacteria" dead="false" >
  <circle cx="400.043" cy="380.353" r="0.8947" stroke-width="0.5" stroke="black" fill="red"/>
  <circle cx="400.043" cy="380.353" r="0.62035" stroke-width="0.5" stroke="red" fill="red"/>
   </g>
   <g id="cell136" type="Red Bacteria" dead="false" >
  <circle cx="12.5283" cy="400.023" r="0.8947" stroke-width="0.5" stroke="black" fill="red"/>
  <circle cx="12.5283" cy="400.023" r="0.62035" stroke-width="0.5" stroke="red" fill="red"/>
   </g>
   <g id="cell137" type="Red Bacteria" dead="false" >
  <circle cx="97.5408" cy="159.18" r="0.8947" stroke-width="0.5" stroke="black" fill="red"/>
  <circle cx="97.5408" cy="159.18" r="0.62035" stroke-width="0.5" stroke="red" fill="red"/>
   </g>
   <g id="cell138" type="Red Bacteria" dead="false" >
  <circle cx="362.795" cy="-0.00578141" r="0.8947" stroke-width="0.5" stroke="black" fill="red"/>
  <circle cx="362.795" cy="-0.00578141" r="0.62035" stroke-width="0.5" stroke="red" fill="red"/>
   </g>
   <g id="cell139" type="Red Bacteria" dead="false" >
  <circle cx="303.278" cy="319.893" r="0.8947" stroke-width="0.5" stroke="black" fill="red"/>
  <circle cx="303.278" cy="319.893" r="0.62035" stroke-width="0.5" stroke="red" fill="red"/>
   </g>
   <g id="cell192" type="Red Bacteria" dead="false" >
  <circle cx="101.277" cy="162.665" r="0.8947" stroke-width="0.5" stroke="black" fill="red"/>
  <circle cx="101.277" cy="162.665" r="0.62035" stroke-width="0.5" stroke="red" fill="red"/>
   </g>
   <g id="cell141" type="Red Bacteria" dead="false" >
  <circle cx="140.257" cy="400.042" r="0.8947" stroke-width="0.5" stroke="black" fill="red"/>
  <circle cx="140.257" cy="400.042" r="0.62035" stroke-width="0.5" stroke="red" fill="red"/>
   </g>
   <g id="cell182" type="Red Bacteria" dead="false" >
  <circle cx="-0.0676062" cy="261.071" r="0.8947" stroke-width="0.5" stroke="black" fill="red"/>
  <circle cx="-0.0676062" cy="261.071" r="0.62035" stroke-width="0.5" stroke="red" fill="red"/>
   </g>
   <g id="cell187" type="Red Bacteria" dead="false" >
  <circle cx="100.948" cy="151.186" r="0.8947" stroke-width="0.5" stroke="black" fill="red"/>
  <circle cx="100.948" cy="151.186" r="0.62035" stroke-width="0.5" stroke="red" fill="red"/>
   </g>
   <g id="cell144" type="Red Bacteria" dead="false" >
  <circle cx="316.868" cy="-0.00345203" r="0.8947" stroke-width="0.5" stroke="black" fill="red"/>
  <circle cx="316.868" cy="-0.00345203" r="0.62035" stroke-width="0.5" stroke="red" fill="red"/>
   </g>
   <g id="cell145" type="Red Bacteria" dead="false" >
  <circle cx="-0.0386183" cy="255.589" r="0.8947" stroke-width="0.5" stroke="black" fill="red"/>
  <circle cx="-0.0386183" cy="255.589" r="0.62035" stroke-width="0.5" stroke="red" fill="red"/>
   </g>
   <g id="cell146" type="Red Bacteria" dead="false" >
  <circle cx="120.009" cy="18.4844" r="0.8947" stroke-width="0.5" stroke="black" fill="red"/>
  <circle cx="120.009" cy="18.4844" r="0.62035" stroke-width="0.5" stroke="red" fill="red"/>
   </g>
   <g id="cell183" type="Red Bacteria" dead="false" >
  <circle cx="400.037" cy="244.907" r="0.8947" stroke-width="0.5" stroke="black" fill="red"/>
  <circle cx="400.037" cy="244.907" r="0.62035" stroke-width="0.5" stroke="red" fill="red"/>
   </g>
   <g id="cell148" type="Red Bacteria" dead="false" >
  <circle cx="-0.0787209" cy="362.055" r="0.8947" stroke-width="0.5" stroke="black" fill="red"/>
  <circle cx="-0.0787209" cy="362.055" r="0.62035" stroke-width="0.5" stroke="red" fill="red"/>
   </g>
   <g id="cell149" type="Red Bacteria" dead="false" >
  <circle cx="120.266" cy="3.8135" r="0.8947" stroke-width="0.5" stroke="black" fill="red"/>
  <circle cx="120.266" cy="3.8135" r="0.62035" stroke-width="0.5" stroke="red" fill="red"/>
   </g>
   <g id="cell150" type="Red Bacteria" dead="true" >
  <circle cx="96.186" cy="151.52" r="0.168965" stroke-width="0.5" stroke="black" fill="red"/>
  <circle cx="96.186" cy="151.52" r="0.168176" stroke-width="0.5" stroke="black" fill="black"/>
   </g>
   <g id="cell151" type="Red Bacteria" dead="false" >
  <circle cx="400.01" cy="241.472" r="0.8947" stroke-width="0.5" stroke="black" fill="red"/>
  <circle cx="400.01" cy="241.472" r="0.62035" stroke-width="0.5" stroke="red" fill="red"/>
   </g>
   <g id="cell152" type="Red Bacteria" dead="false" >
  <circle cx="-0.0246997" cy="380.191" r="0.8947" stroke-width="0.5" stroke="black" fill="red"/>
  <circle cx="-0.0246997" cy="380.191" r="0.62035" stroke-width="0.5" stroke="red" fill="red"/>
   </g>
   <g id="cell153" type="Red Bacteria" dead="false" >
  <circle cx="99.0564" cy="157.101" r="0.8947" stroke-width="0.5" stroke="black" fill="red"/>
  <circle cx="99.0564" cy="157.101" r="0.62035" stroke-width="0.5" stroke="red" fill="red"/>
   </g>
   <g id="cell154" type="Red Bacteria" dead="false" >
  <circle cx="14.5399" cy="400.017" r="0.8947" stroke-width="0.5" stroke="black" fill="red"/>
  <circle cx="14.5399" cy="400.017" r="0.62035" stroke-width="0.5" stroke="red" fill="red"/>
   </g>
   <g id="cell155" type="Red Bacteria" dead="false" >
  <circle cx="10.8995" cy="400.032" r="0.8947" stroke-width="0.5" stroke="black" fill="red"/>
  <circle cx="10.8995" cy="400.032" r="0.62035" stroke-width="0.5" stroke="red" fill="red"/>
   </g>
   <g id="cell156" type="Red Bacteria" dead="false" >
  <circle cx="100.449" cy="152.728" r="0.8947" stroke-width="0.5" stroke="black" fill="red"/>
  <circle cx="100.449" cy="152.728" r="0.62035" stroke-width="0.5" stroke="red" fill="red"/>
   </g>
   <g id="cell157" type="Red Bacteria" dead="false" >
  <circle cx="298.997" cy="117.336" r="0.8947" stroke-width="0.5" stroke="black" fill="red"/>
  <circle cx="298.997" cy="117.336" r="0.62035" stroke-width="0.5" stroke="red" fill="red"/>
   </g>
   <g id="cell158" type="Red Bacteria" dead="false" >
  <circle cx="319.923" cy="-0.0712449" r="0.8947" stroke-width="0.5" stroke="black" fill="red"/>
  <circle cx="319.923" cy="-0.0712449" r="0.62035" stroke-width="0.5" stroke="red" fill="red"/>
   </g>
   <g id="cell159" type="Red Bacteria" dead="false" >
  <circle cx="299.873" cy="321.401" r="0.8947" stroke-width="0.5" stroke="black" fill="red"/>
  <circle cx="299.873" cy="321.401" r="0.62035" stroke-width="0.5" stroke="red" fill="red"/>
   </g>
   <g id="cell160" type="Red Bacteria" dead="true" >
  <circle cx="96.256" cy="151.869" r="0.149694" stroke-width="0.5" stroke="black" fill="red"/>
  <circle cx="96.256" cy="151.869" r="0.149344" stroke-width="0.5" stroke="black" fill="black"/>
   </g>
   <g id="cell161" type="Red Bacteria" dead="false" >
  <circle cx="321.851" cy="-0.00462734" r="0.8947" stroke-width="0.5" stroke="black" fill="red"/>
  <circle cx="321.851" cy="-0.00462734" r="0.62035" stroke-width="0.5" stroke="red" fill="red"/>
   </g>
   <g id="cell162" type="Red Bacteria" dead="false" >
  <circle cx="119.838" cy="5.3973" r="0.8947" stroke-width="0.5" stroke="black" fill="red"/>
  <circle cx="119.838" cy="5.3973" r="0.62035" stroke-width="0.5" stroke="red" fill="red"/>
   </g>
   <g id="cell163" type="Red Bacteria" dead="false" >
  <circle cx="100.655" cy="163.891" r="0.8947" stroke-width="0.5" stroke="black" fill="red"/>
  <circle cx="100.655" cy="163.891" r="0.62035" stroke-width="0.5" stroke="red" fill="red"/>
   </g>
   <g id="cell164" type="Red Bacteria" dead="false" >
  <circle cx="305.553" cy="319.025" r="0.8947" stroke-width="0.5" stroke="black" fill="red"/>
  <circle cx="305.553" cy="319.025" r="0.62035" stroke-width="0.5" stroke="red" fill="red"/>
   </g>
   <g id="cell165" type="Red Bacteria" dead="false" >
  <circle cx="99.9933" cy="160.134" r="0.8947" stroke-width="0.5" stroke="black" fill="red"/>
  <circle cx="99.9933" cy="160.134" r="0.62035" stroke-width="0.5" stroke="red" fill="red"/>
   </g>
   <g id="cell189" type="Red Bacteria" dead="false" >
  <circle cx="-0.00916459" cy="89.4231" r="0.8947" stroke-width="0.5" stroke="black" fill="red"/>
  <circle cx="-0.00916459" cy="89.4231" r="0.62035" stroke-width="0.5" stroke="red" fill="red"/>
   </g>
   <g id="cell167" type="Red Bacteria" dead="true" >
  <circle cx="95.8862" cy="152.696" r="0.19116" stroke-width="0.5" stroke="black" fill="red"/>
  <circle cx="95.8862" cy="152.696" r="0.189382" stroke-width="0.5" stroke="black" fill="black"/>
   </g>
   <g id="cell168" type="Red Bacteria" dead="false" >
  <circle cx="121.834" cy="15.2062" r="0.8947" stroke-width="0.5" stroke="black" fill="red"/>
  <circle cx="121.834" cy="15.2062" r="0.62035" stroke-width="0.5" stroke="red" fill="red"/>
   </g>
   <g id="cell169" type="Red Bacteria" dead="false" >
  <circle cx="122.587" cy="-0.0409396" r="0.8947" stroke-width="0.5" stroke="black" fill="red"/>
  <circle cx="122.587" cy="-0.0409396" r="0.62035" stroke-width="0.5" stroke="red" fill="red"/>
   </g>
   <g id="cell195" type="Red Bacteria" dead="false" >
  <circle cx="101.843" cy="156.989" r="0.8947" stroke-width="0.5" stroke="black" fill="red"/>
  <circle cx="101.843" cy="156.989" r="0.62035" stroke-width="0.5" stroke="red" fill="red"/>
   </g>
  </g>
 </g>
  <rect x="190" y="414" width="200" height="4" stroke-width="0.8" stroke="rgb(255,255,255)" fill="rgb(0,0,0)"/>
  <text x="192.5" y="411.5"
   font-family="Arial" font-size="10" fill="black" >
   200 &#956;m
  </text>
  <text x="10" y="418"
   font-family="Arial" font-size="7.5" fill="black" >
   0 days, 0 hours, 0 minutes, and 6.5167 seconds
  </text>
  <rect x="0" y="28" width="400" height="400" stroke-width="0.8" stroke="rgb(0,0,0)" fill="none"/>
</svg>
