<?xml version="1.0" encoding="UTF-8" standalone="no"?>
<!-- Created with PhysiCell (http://PhysiCell.MathCancer.org/) -->
<svg 
 xmlns:dc="http://purl.org/dc/elements/1.1/" 
 xmlns:cc="http://creativecommons.org/ns#" 
 xmlns:rdf="http://www.w3.org/1999/02/22-rdf-syntax-ns#" 
 xmlns:svg="http://www.w3.org/2000/svg" 
 xmlns="http://www.w3.org/2000/svg" 
 version="1.1" 
 width="400" 
 height="428" 
 id="svg2">
  <rect x="0" y="0" width="400" height="428" stroke-width="0.8" stroke="white" fill="white"/>
  <text x="5" y="12"
   font-family="Arial" font-size="10" fill="black" >
   Current time: 2 days, 0 hours, and 0.00 minutes, z = 0.00 &#956;m
  </text>
  <text x="5" y="23"
   font-family="Arial" font-size="9.5" fill="black" >
   188 agents
  </text>
 <g id="tissue" 
    transform="translate(0,428) scale(1,-1)">
  <g id="ECM">
  </g>
  <g id="cells">
   <g id="cell0" type="Blue Bacteria" dead="false" >
  <circle cx="400.047" cy="133.012" r="0.463055" stroke-width="0.5" stroke="black" fill="grey"/>
  <circle cx="400.047" cy="133.012" r="3.10267e-34" stroke-width="0.5" stroke="grey" fill="grey"/>
   </g>
   <g id="cell1" type="Blue Bacteria" dead="false" >
  <circle cx="41.2175" cy="320.248" r="0.010635" stroke-width="0.5" stroke="black" fill="grey"/>
  <circle cx="41.2175" cy="320.248" r="3.11176e-34" stroke-width="0.5" stroke="grey" fill="grey"/>
   </g>
   <g id="cell2" type="Blue Bacteria" dead="false" >
  <circle cx="400.001" cy="322.966" r="0.215925" stroke-width="0.5" stroke="black" fill="grey"/>
  <circle cx="400.001" cy="322.966" r="3.11163e-34" stroke-width="0.5" stroke="grey" fill="grey"/>
   </g>
   <g id="cell3" type="Blue Bacteria" dead="false" >
  <circle cx="362.446" cy="400.068" r="0.74295" stroke-width="0.5" stroke="black" fill="grey"/>
  <circle cx="362.446" cy="400.068" r="2.90374e-34" stroke-width="0.5" stroke="grey" fill="grey"/>
   </g>
   <g id="cell4" type="Blue Bacteria" dead="false" >
  <circle cx="139.95" cy="179.739" r="0.010635" stroke-width="0.5" stroke="black" fill="grey"/>
  <circle cx="139.95" cy="179.739" r="3.11176e-34" stroke-width="0.5" stroke="grey" fill="grey"/>
   </g>
   <g id="cell5" type="Blue Bacteria" dead="false" >
  <circle cx="259.353" cy="68.5559" r="0.010635" stroke-width="0.5" stroke="black" fill="grey"/>
  <circle cx="259.353" cy="68.5559" r="3.11176e-34" stroke-width="0.5" stroke="grey" fill="grey"/>
   </g>
   <g id="cell6" type="Blue Bacteria" dead="false" >
  <circle cx="356.64" cy="-0.0534006" r="0.343651" stroke-width="0.5" stroke="black" fill="grey"/>
  <circle cx="356.64" cy="-0.0534006" r="3.11006e-34" stroke-width="0.5" stroke="grey" fill="grey"/>
   </g>
   <g id="cell7" type="Blue Bacteria" dead="false" >
  <circle cx="245.313" cy="400.074" r="0.519642" stroke-width="0.5" stroke="black" fill="grey"/>
  <circle cx="245.313" cy="400.074" r="3.09413e-34" stroke-width="0.5" stroke="grey" fill="grey"/>
   </g>
   <g id="cell8" type="Blue Bacteria" dead="false" >
  <circle cx="285.746" cy="185.535" r="0.010635" stroke-width="0.5" stroke="black" fill="grey"/>
  <circle cx="285.746" cy="185.535" r="3.11176e-34" stroke-width="0.5" stroke="grey" fill="grey"/>
   </g>
   <g id="cell9" type="Blue Bacteria" dead="false" >
  <circle cx="179.428" cy="102.26" r="0.010635" stroke-width="0.5" stroke="black" fill="grey"/>
  <circle cx="179.428" cy="102.26" r="3.11176e-34" stroke-width="0.5" stroke="grey" fill="grey"/>
   </g>
   <g id="cell10" type="Blue Bacteria" dead="false" >
  <circle cx="26.8363" cy="335.912" r="0.010635" stroke-width="0.5" stroke="black" fill="grey"/>
  <circle cx="26.8363" cy="335.912" r="3.11176e-34" stroke-width="0.5" stroke="grey" fill="grey"/>
   </g>
   <g id="cell11" type="Blue Bacteria" dead="false" >
  <circle cx="-0.0300773" cy="299.753" r="0.752918" stroke-width="0.5" stroke="black" fill="grey"/>
  <circle cx="-0.0300773" cy="299.753" r="2.87941e-34" stroke-width="0.5" stroke="grey" fill="grey"/>
   </g>
   <g id="cell12" type="Blue Bacteria" dead="false" >
  <circle cx="146.118" cy="400.046" r="0.442756" stroke-width="0.5" stroke="black" fill="grey"/>
  <circle cx="146.118" cy="400.046" r="3.10471e-34" stroke-width="0.5" stroke="grey" fill="grey"/>
   </g>
   <g id="cell191" type="Red Bacteria" dead="false" >
  <circle cx="202.806" cy="-0.00225161" r="0.8947" stroke-width="0.5" stroke="black" fill="red"/>
  <circle cx="202.806" cy="-0.00225161" r="0.62035" stroke-width="0.5" stroke="red" fill="red"/>
   </g>
   <g id="cell14" type="Blue Bacteria" dead="false" >
  <circle cx="346.646" cy="-0.0894073" r="0.538119" stroke-width="0.5" stroke="black" fill="grey"/>
  <circle cx="346.646" cy="-0.0894073" r="3.09013e-34" stroke-width="0.5" stroke="grey" fill="grey"/>
   </g>
   <g id="cell15" type="Blue Bacteria" dead="false" >
  <circle cx="-0.0668275" cy="321.309" r="0.121533" stroke-width="0.5" stroke="black" fill="grey"/>
  <circle cx="-0.0668275" cy="321.309" r="3.11175e-34" stroke-width="0.5" stroke="grey" fill="grey"/>
   </g>
   <g id="cell16" type="Blue Bacteria" dead="false" >
  <circle cx="266.305" cy="400.054" r="0.299803" stroke-width="0.5" stroke="black" fill="grey"/>
  <circle cx="266.305" cy="400.054" r="3.11096e-34" stroke-width="0.5" stroke="grey" fill="grey"/>
   </g>
   <g id="cell17" type="Blue Bacteria" dead="false" >
  <circle cx="-0.0857811" cy="86.2801" r="0.712871" stroke-width="0.5" stroke="black" fill="grey"/>
  <circle cx="-0.0857811" cy="86.2801" r="2.97041e-34" stroke-width="0.5" stroke="grey" fill="grey"/>
   </g>
   <g id="cell18" type="Blue Bacteria" dead="false" >
  <circle cx="400.025" cy="327.452" r="0.0549498" stroke-width="0.5" stroke="black" fill="grey"/>
  <circle cx="400.025" cy="327.452" r="3.11176e-34" stroke-width="0.5" stroke="grey" fill="grey"/>
   </g>
   <g id="cell19" type="Blue Bacteria" dead="false" >
  <circle cx="140.237" cy="177.369" r="0.010635" stroke-width="0.5" stroke="black" fill="grey"/>
  <circle cx="140.237" cy="177.369" r="3.11176e-34" stroke-width="0.5" stroke="grey" fill="grey"/>
   </g>
   <g id="cell20" type="Blue Bacteria" dead="false" >
  <circle cx="39.92" cy="200.591" r="0.010635" stroke-width="0.5" stroke="black" fill="grey"/>
  <circle cx="39.92" cy="200.591" r="3.11176e-34" stroke-width="0.5" stroke="grey" fill="grey"/>
   </g>
   <g id="cell21" type="Blue Bacteria" dead="false" >
  <circle cx="166.608" cy="259.68" r="0.010635" stroke-width="0.5" stroke="black" fill="grey"/>
  <circle cx="166.608" cy="259.68" r="3.11176e-34" stroke-width="0.5" stroke="grey" fill="grey"/>
   </g>
   <g id="cell22" type="Blue Bacteria" dead="false" >
  <circle cx="300.761" cy="220.71" r="0.010635" stroke-width="0.5" stroke="black" fill="grey"/>
  <circle cx="300.761" cy="220.71" r="3.11176e-34" stroke-width="0.5" stroke="grey" fill="grey"/>
   </g>
   <g id="cell23" type="Blue Bacteria" dead="false" >
  <circle cx="400.016" cy="319.737" r="0.0851452" stroke-width="0.5" stroke="black" fill="grey"/>
  <circle cx="400.016" cy="319.737" r="3.11176e-34" stroke-width="0.5" stroke="grey" fill="grey"/>
   </g>
   <g id="cell24" type="Blue Bacteria" dead="false" >
  <circle cx="-0.066509" cy="135.464" r="0.690175" stroke-width="0.5" stroke="black" fill="grey"/>
  <circle cx="-0.066509" cy="135.464" r="3.00312e-34" stroke-width="0.5" stroke="grey" fill="grey"/>
   </g>
   <g id="cell25" type="Blue Bacteria" dead="false" >
  <circle cx="179.798" cy="101.973" r="0.010635" stroke-width="0.5" stroke="black" fill="grey"/>
  <circle cx="179.798" cy="101.973" r="3.11176e-34" stroke-width="0.5" stroke="grey" fill="grey"/>
   </g>
   <g id="cell26" type="Blue Bacteria" dead="false" >
  <circle cx="400.054" cy="326.979" r="0.0119742" stroke-width="0.5" stroke="black" fill="grey"/>
  <circle cx="400.054" cy="326.979" r="3.11176e-34" stroke-width="0.5" stroke="grey" fill="grey"/>
   </g>
   <g id="cell27" type="Blue Bacteria" dead="false" >
  <circle cx="168.173" cy="261.068" r="0.010635" stroke-width="0.5" stroke="black" fill="grey"/>
  <circle cx="168.173" cy="261.068" r="3.11176e-34" stroke-width="0.5" stroke="grey" fill="grey"/>
   </g>
   <g id="cell28" type="Blue Bacteria" dead="false" >
  <circle cx="122.983" cy="41.772" r="0.010635" stroke-width="0.5" stroke="black" fill="grey"/>
  <circle cx="122.983" cy="41.772" r="3.11176e-34" stroke-width="0.5" stroke="grey" fill="grey"/>
   </g>
   <g id="cell29" type="Blue Bacteria" dead="false" >
  <circle cx="57.3161" cy="60.0851" r="0.010635" stroke-width="0.5" stroke="black" fill="grey"/>
  <circle cx="57.3161" cy="60.0851" r="3.11176e-34" stroke-width="0.5" stroke="grey" fill="grey"/>
   </g>
   <g id="cell30" type="Blue Bacteria" dead="true" >
  <circle cx="370.559" cy="319.823" r="0.00538323" stroke-width="0.5" stroke="black" fill="grey"/>
  <circle cx="370.559" cy="319.823" r="1.83768e-34" stroke-width="0.5" stroke="black" fill="black"/>
   </g>
   <g id="cell31" type="Blue Bacteria" dead="false" >
  <circle cx="299.451" cy="221.067" r="0.010635" stroke-width="0.5" stroke="black" fill="grey"/>
  <circle cx="299.451" cy="221.067" r="3.11176e-34" stroke-width="0.5" stroke="grey" fill="grey"/>
   </g>
   <g id="cell192" type="Red Bacteria" dead="false" >
  <circle cx="-0.0160366" cy="161.403" r="0.8947" stroke-width="0.5" stroke="black" fill="red"/>
  <circle cx="-0.0160366" cy="161.403" r="0.62035" stroke-width="0.5" stroke="red" fill="red"/>
   </g>
   <g id="cell33" type="Blue Bacteria" dead="false" >
  <circle cx="294.411" cy="59.3853" r="0.010635" stroke-width="0.5" stroke="black" fill="grey"/>
  <circle cx="294.411" cy="59.3853" r="3.11176e-34" stroke-width="0.5" stroke="grey" fill="grey"/>
   </g>
   <g id="cell34" type="Blue Bacteria" dead="false" >
  <circle cx="180.821" cy="100.199" r="0.010635" stroke-width="0.5" stroke="black" fill="grey"/>
  <circle cx="180.821" cy="100.199" r="3.11176e-34" stroke-width="0.5" stroke="grey" fill="grey"/>
   </g>
   <g id="cell35" type="Blue Bacteria" dead="false" >
  <circle cx="358.321" cy="400.027" r="0.44675" stroke-width="0.5" stroke="black" fill="grey"/>
  <circle cx="358.321" cy="400.027" r="3.10435e-34" stroke-width="0.5" stroke="grey" fill="grey"/>
   </g>
   <g id="cell36" type="Blue Bacteria" dead="false" >
  <circle cx="400.065" cy="337.576" r="0.217903" stroke-width="0.5" stroke="black" fill="grey"/>
  <circle cx="400.065" cy="337.576" r="3.11162e-34" stroke-width="0.5" stroke="grey" fill="grey"/>
   </g>
   <g id="cell188" type="Red Bacteria" dead="false" >
  <circle cx="280.019" cy="130.308" r="0.8947" stroke-width="0.5" stroke="black" fill="red"/>
  <circle cx="280.019" cy="130.308" r="0.62035" stroke-width="0.5" stroke="red" fill="red"/>
   </g>
   <g id="cell38" type="Blue Bacteria" dead="false" >
  <circle cx="40.2137" cy="199.175" r="0.010635" stroke-width="0.5" stroke="black" fill="grey"/>
  <circle cx="40.2137" cy="199.175" r="3.11176e-34" stroke-width="0.5" stroke="grey" fill="grey"/>
   </g>
   <g id="cell39" type="Blue Bacteria" dead="false" >
  <circle cx="-0.0390843" cy="280.222" r="0.717137" stroke-width="0.5" stroke="black" fill="grey"/>
  <circle cx="-0.0390843" cy="280.222" r="2.96287e-34" stroke-width="0.5" stroke="grey" fill="grey"/>
   </g>
   <g id="cell40" type="Blue Bacteria" dead="false" >
  <circle cx="178.52" cy="260.101" r="0.010635" stroke-width="0.5" stroke="black" fill="grey"/>
  <circle cx="178.52" cy="260.101" r="3.11176e-34" stroke-width="0.5" stroke="grey" fill="grey"/>
   </g>
   <g id="cell41" type="Blue Bacteria" dead="false" >
  <circle cx="163.13" cy="260.799" r="0.010635" stroke-width="0.5" stroke="black" fill="grey"/>
  <circle cx="163.13" cy="260.799" r="3.11176e-34" stroke-width="0.5" stroke="grey" fill="grey"/>
   </g>
   <g id="cell42" type="Blue Bacteria" dead="false" >
  <circle cx="259.977" cy="60.2308" r="0.010635" stroke-width="0.5" stroke="black" fill="grey"/>
  <circle cx="259.977" cy="60.2308" r="3.11176e-34" stroke-width="0.5" stroke="grey" fill="grey"/>
   </g>
   <g id="cell43" type="Blue Bacteria" dead="false" >
  <circle cx="258.381" cy="60.2328" r="0.010635" stroke-width="0.5" stroke="black" fill="grey"/>
  <circle cx="258.381" cy="60.2328" r="3.11176e-34" stroke-width="0.5" stroke="grey" fill="grey"/>
   </g>
   <g id="cell44" type="Blue Bacteria" dead="false" >
  <circle cx="176.875" cy="259.852" r="0.010635" stroke-width="0.5" stroke="black" fill="grey"/>
  <circle cx="176.875" cy="259.852" r="3.11176e-34" stroke-width="0.5" stroke="grey" fill="grey"/>
   </g>
   <g id="cell45" type="Blue Bacteria" dead="false" >
  <circle cx="400.062" cy="94.7222" r="0.748505" stroke-width="0.5" stroke="black" fill="grey"/>
  <circle cx="400.062" cy="94.7222" r="2.88853e-34" stroke-width="0.5" stroke="grey" fill="grey"/>
   </g>
   <g id="cell46" type="Blue Bacteria" dead="false" >
  <circle cx="176.509" cy="105.769" r="0.010635" stroke-width="0.5" stroke="black" fill="grey"/>
  <circle cx="176.509" cy="105.769" r="3.11176e-34" stroke-width="0.5" stroke="grey" fill="grey"/>
   </g>
   <g id="cell47" type="Blue Bacteria" dead="false" >
  <circle cx="358.293" cy="-0.0287002" r="0.158343" stroke-width="0.5" stroke="black" fill="grey"/>
  <circle cx="358.293" cy="-0.0287002" r="3.11174e-34" stroke-width="0.5" stroke="grey" fill="grey"/>
   </g>
   <g id="cell48" type="Blue Bacteria" dead="false" >
  <circle cx="231.98" cy="279.965" r="0.010635" stroke-width="0.5" stroke="black" fill="grey"/>
  <circle cx="231.98" cy="279.965" r="3.11176e-34" stroke-width="0.5" stroke="grey" fill="grey"/>
   </g>
   <g id="cell49" type="Blue Bacteria" dead="false" >
  <circle cx="180.643" cy="100.93" r="0.010635" stroke-width="0.5" stroke="black" fill="grey"/>
  <circle cx="180.643" cy="100.93" r="3.11176e-34" stroke-width="0.5" stroke="grey" fill="grey"/>
   </g>
   <g id="cell50" type="Blue Bacteria" dead="false" >
  <circle cx="162.375" cy="261.119" r="0.010635" stroke-width="0.5" stroke="black" fill="grey"/>
  <circle cx="162.375" cy="261.119" r="3.11176e-34" stroke-width="0.5" stroke="grey" fill="grey"/>
   </g>
   <g id="cell51" type="Blue Bacteria" dead="false" >
  <circle cx="349.467" cy="-0.0401457" r="0.471404" stroke-width="0.5" stroke="black" fill="grey"/>
  <circle cx="349.467" cy="-0.0401457" r="3.1017e-34" stroke-width="0.5" stroke="grey" fill="grey"/>
   </g>
   <g id="cell52" type="Blue Bacteria" dead="false" >
  <circle cx="400.088" cy="110.825" r="0.557054" stroke-width="0.5" stroke="black" fill="grey"/>
  <circle cx="400.088" cy="110.825" r="3.0852e-34" stroke-width="0.5" stroke="grey" fill="grey"/>
   </g>
   <g id="cell53" type="Blue Bacteria" dead="false" >
  <circle cx="40.0433" cy="81.3008" r="0.010635" stroke-width="0.5" stroke="black" fill="grey"/>
  <circle cx="40.0433" cy="81.3008" r="3.11176e-34" stroke-width="0.5" stroke="grey" fill="grey"/>
   </g>
   <g id="cell54" type="Blue Bacteria" dead="false" >
  <circle cx="301.72" cy="225.235" r="0.010635" stroke-width="0.5" stroke="black" fill="grey"/>
  <circle cx="301.72" cy="225.235" r="3.11176e-34" stroke-width="0.5" stroke="grey" fill="grey"/>
   </g>
   <g id="cell55" type="Blue Bacteria" dead="false" >
  <circle cx="299.992" cy="59.5084" r="0.010635" stroke-width="0.5" stroke="black" fill="grey"/>
  <circle cx="299.992" cy="59.5084" r="3.11176e-34" stroke-width="0.5" stroke="grey" fill="grey"/>
   </g>
   <g id="cell56" type="Blue Bacteria" dead="false" >
  <circle cx="301.011" cy="55.5671" r="0.010635" stroke-width="0.5" stroke="black" fill="grey"/>
  <circle cx="301.011" cy="55.5671" r="3.11176e-34" stroke-width="0.5" stroke="grey" fill="grey"/>
   </g>
   <g id="cell57" type="Blue Bacteria" dead="false" >
  <circle cx="41.2757" cy="201.716" r="0.010635" stroke-width="0.5" stroke="black" fill="grey"/>
  <circle cx="41.2757" cy="201.716" r="3.11176e-34" stroke-width="0.5" stroke="grey" fill="grey"/>
   </g>
   <g id="cell197" type="Red Bacteria" dead="false" >
  <circle cx="240.567" cy="239.535" r="0.8947" stroke-width="0.5" stroke="black" fill="red"/>
  <circle cx="240.567" cy="239.535" r="0.62035" stroke-width="0.5" stroke="red" fill="red"/>
   </g>
   <g id="cell59" type="Blue Bacteria" dead="false" >
  <circle cx="179.387" cy="100.358" r="0.010635" stroke-width="0.5" stroke="black" fill="grey"/>
  <circle cx="179.387" cy="100.358" r="3.11176e-34" stroke-width="0.5" stroke="grey" fill="grey"/>
   </g>
   <g id="cell60" type="Blue Bacteria" dead="false" >
  <circle cx="361.023" cy="400.039" r="0.533455" stroke-width="0.5" stroke="black" fill="grey"/>
  <circle cx="361.023" cy="400.039" r="3.09121e-34" stroke-width="0.5" stroke="grey" fill="grey"/>
   </g>
   <g id="cell61" type="Blue Bacteria" dead="false" >
  <circle cx="264.124" cy="400.075" r="0.291721" stroke-width="0.5" stroke="black" fill="grey"/>
  <circle cx="264.124" cy="400.075" r="3.11107e-34" stroke-width="0.5" stroke="grey" fill="grey"/>
   </g>
   <g id="cell62" type="Blue Bacteria" dead="false" >
  <circle cx="400.006" cy="326.52" r="0.168785" stroke-width="0.5" stroke="black" fill="grey"/>
  <circle cx="400.006" cy="326.52" r="3.11173e-34" stroke-width="0.5" stroke="grey" fill="grey"/>
   </g>
   <g id="cell63" type="Blue Bacteria" dead="false" >
  <circle cx="181.019" cy="259.22" r="0.010635" stroke-width="0.5" stroke="black" fill="grey"/>
  <circle cx="181.019" cy="259.22" r="3.11176e-34" stroke-width="0.5" stroke="grey" fill="grey"/>
   </g>
   <g id="cell64" type="Blue Bacteria" dead="false" >
  <circle cx="179.577" cy="101.843" r="0.010635" stroke-width="0.5" stroke="black" fill="grey"/>
  <circle cx="179.577" cy="101.843" r="3.11176e-34" stroke-width="0.5" stroke="grey" fill="grey"/>
   </g>
   <g id="cell65" type="Blue Bacteria" dead="false" >
  <circle cx="165.231" cy="260.668" r="0.010635" stroke-width="0.5" stroke="black" fill="grey"/>
  <circle cx="165.231" cy="260.668" r="3.11176e-34" stroke-width="0.5" stroke="grey" fill="grey"/>
   </g>
   <g id="cell66" type="Blue Bacteria" dead="false" >
  <circle cx="54.5" cy="75.4814" r="0.010635" stroke-width="0.5" stroke="black" fill="grey"/>
  <circle cx="54.5" cy="75.4814" r="3.11176e-34" stroke-width="0.5" stroke="grey" fill="grey"/>
   </g>
   <g id="cell190" type="Red Bacteria" dead="false" >
  <circle cx="73.3929" cy="117.936" r="0.8947" stroke-width="0.5" stroke="black" fill="red"/>
  <circle cx="73.3929" cy="117.936" r="0.62035" stroke-width="0.5" stroke="red" fill="red"/>
   </g>
   <g id="cell68" type="Blue Bacteria" dead="false" >
  <circle cx="-0.049439" cy="266.229" r="0.750869" stroke-width="0.5" stroke="black" fill="grey"/>
  <circle cx="-0.049439" cy="266.229" r="2.88283e-34" stroke-width="0.5" stroke="grey" fill="grey"/>
   </g>
   <g id="cell69" type="Blue Bacteria" dead="false" >
  <circle cx="299.856" cy="51.8094" r="0.010635" stroke-width="0.5" stroke="black" fill="grey"/>
  <circle cx="299.856" cy="51.8094" r="3.11176e-34" stroke-width="0.5" stroke="grey" fill="grey"/>
   </g>
   <g id="cell70" type="Blue Bacteria" dead="false" >
  <circle cx="139.514" cy="182.768" r="0.010635" stroke-width="0.5" stroke="black" fill="grey"/>
  <circle cx="139.514" cy="182.768" r="3.11176e-34" stroke-width="0.5" stroke="grey" fill="grey"/>
   </g>
   <g id="cell71" type="Blue Bacteria" dead="false" >
  <circle cx="301.289" cy="219.747" r="0.010635" stroke-width="0.5" stroke="black" fill="grey"/>
  <circle cx="301.289" cy="219.747" r="3.11176e-34" stroke-width="0.5" stroke="grey" fill="grey"/>
   </g>
   <g id="cell72" type="Blue Bacteria" dead="false" >
  <circle cx="138.4" cy="180.126" r="0.010635" stroke-width="0.5" stroke="black" fill="grey"/>
  <circle cx="138.4" cy="180.126" r="3.11176e-34" stroke-width="0.5" stroke="grey" fill="grey"/>
   </g>
   <g id="cell73" type="Blue Bacteria" dead="false" >
  <circle cx="3.74905" cy="-0.0271192" r="0.748505" stroke-width="0.5" stroke="black" fill="grey"/>
  <circle cx="3.74905" cy="-0.0271192" r="2.88853e-34" stroke-width="0.5" stroke="grey" fill="grey"/>
   </g>
   <g id="cell74" type="Blue Bacteria" dead="false" >
  <circle cx="180.04" cy="102.404" r="0.010635" stroke-width="0.5" stroke="black" fill="grey"/>
  <circle cx="180.04" cy="102.404" r="3.11176e-34" stroke-width="0.5" stroke="grey" fill="grey"/>
   </g>
   <g id="cell75" type="Blue Bacteria" dead="false" >
  <circle cx="400.081" cy="330.928" r="0.0433455" stroke-width="0.5" stroke="black" fill="grey"/>
  <circle cx="400.081" cy="330.928" r="3.11176e-34" stroke-width="0.5" stroke="grey" fill="grey"/>
   </g>
   <g id="cell76" type="Blue Bacteria" dead="false" >
  <circle cx="299.554" cy="224.215" r="0.010635" stroke-width="0.5" stroke="black" fill="grey"/>
  <circle cx="299.554" cy="224.215" r="3.11176e-34" stroke-width="0.5" stroke="grey" fill="grey"/>
   </g>
   <g id="cell77" type="Blue Bacteria" dead="false" >
  <circle cx="160.341" cy="260.42" r="0.010635" stroke-width="0.5" stroke="black" fill="grey"/>
  <circle cx="160.341" cy="260.42" r="3.11176e-34" stroke-width="0.5" stroke="grey" fill="grey"/>
   </g>
   <g id="cell78" type="Blue Bacteria" dead="false" >
  <circle cx="141.392" cy="168.03" r="0.010635" stroke-width="0.5" stroke="black" fill="grey"/>
  <circle cx="141.392" cy="168.03" r="3.11176e-34" stroke-width="0.5" stroke="grey" fill="grey"/>
   </g>
   <g id="cell79" type="Blue Bacteria" dead="false" >
  <circle cx="298.83" cy="217.659" r="0.010635" stroke-width="0.5" stroke="black" fill="grey"/>
  <circle cx="298.83" cy="217.659" r="3.11176e-34" stroke-width="0.5" stroke="grey" fill="grey"/>
   </g>
   <g id="cell80" type="Blue Bacteria" dead="false" >
  <circle cx="400.085" cy="140.302" r="0.641096" stroke-width="0.5" stroke="black" fill="grey"/>
  <circle cx="400.085" cy="140.302" r="3.04763e-34" stroke-width="0.5" stroke="grey" fill="grey"/>
   </g>
   <g id="cell81" type="Blue Bacteria" dead="false" >
  <circle cx="58.3239" cy="69.7455" r="0.010635" stroke-width="0.5" stroke="black" fill="grey"/>
  <circle cx="58.3239" cy="69.7455" r="3.11176e-34" stroke-width="0.5" stroke="grey" fill="grey"/>
   </g>
   <g id="cell82" type="Blue Bacteria" dead="false" >
  <circle cx="140.658" cy="180.489" r="0.010635" stroke-width="0.5" stroke="black" fill="grey"/>
  <circle cx="140.658" cy="180.489" r="3.11176e-34" stroke-width="0.5" stroke="grey" fill="grey"/>
   </g>
   <g id="cell83" type="Blue Bacteria" dead="false" >
  <circle cx="263.482" cy="400.003" r="0.488494" stroke-width="0.5" stroke="black" fill="grey"/>
  <circle cx="263.482" cy="400.003" r="3.09943e-34" stroke-width="0.5" stroke="grey" fill="grey"/>
   </g>
   <g id="cell84" type="Blue Bacteria" dead="false" >
  <circle cx="119.465" cy="42.7682" r="0.010635" stroke-width="0.5" stroke="black" fill="grey"/>
  <circle cx="119.465" cy="42.7682" r="3.11176e-34" stroke-width="0.5" stroke="grey" fill="grey"/>
   </g>
   <g id="cell85" type="Blue Bacteria" dead="false" >
  <circle cx="177.22" cy="259.513" r="0.010635" stroke-width="0.5" stroke="black" fill="grey"/>
  <circle cx="177.22" cy="259.513" r="3.11176e-34" stroke-width="0.5" stroke="grey" fill="grey"/>
   </g>
   <g id="cell86" type="Blue Bacteria" dead="false" >
  <circle cx="258.75" cy="60.2279" r="0.010635" stroke-width="0.5" stroke="black" fill="grey"/>
  <circle cx="258.75" cy="60.2279" r="3.11176e-34" stroke-width="0.5" stroke="grey" fill="grey"/>
   </g>
   <g id="cell87" type="Blue Bacteria" dead="false" >
  <circle cx="120.401" cy="39.842" r="0.010635" stroke-width="0.5" stroke="black" fill="grey"/>
  <circle cx="120.401" cy="39.842" r="3.11176e-34" stroke-width="0.5" stroke="grey" fill="grey"/>
   </g>
   <g id="cell88" type="Blue Bacteria" dead="false" >
  <circle cx="151.051" cy="400.072" r="0.497235" stroke-width="0.5" stroke="black" fill="grey"/>
  <circle cx="151.051" cy="400.072" r="3.0981e-34" stroke-width="0.5" stroke="grey" fill="grey"/>
   </g>
   <g id="cell89" type="Blue Bacteria" dead="false" >
  <circle cx="348.677" cy="-0.0401721" r="0.0378014" stroke-width="0.5" stroke="black" fill="grey"/>
  <circle cx="348.677" cy="-0.0401721" r="3.11176e-34" stroke-width="0.5" stroke="grey" fill="grey"/>
   </g>
   <g id="cell90" type="Blue Bacteria" dead="false" >
  <circle cx="180.495" cy="107.892" r="0.010635" stroke-width="0.5" stroke="black" fill="grey"/>
  <circle cx="180.495" cy="107.892" r="3.11176e-34" stroke-width="0.5" stroke="grey" fill="grey"/>
   </g>
   <g id="cell193" type="Red Bacteria" dead="false" >
  <circle cx="240.414" cy="222.139" r="0.8947" stroke-width="0.5" stroke="black" fill="red"/>
  <circle cx="240.414" cy="222.139" r="0.62035" stroke-width="0.5" stroke="red" fill="red"/>
   </g>
   <g id="cell92" type="Blue Bacteria" dead="false" >
  <circle cx="359.805" cy="336.968" r="0.010635" stroke-width="0.5" stroke="black" fill="grey"/>
  <circle cx="359.805" cy="336.968" r="3.11176e-34" stroke-width="0.5" stroke="grey" fill="grey"/>
   </g>
   <g id="cell93" type="Blue Bacteria" dead="false" >
  <circle cx="161.954" cy="261.465" r="0.010635" stroke-width="0.5" stroke="black" fill="grey"/>
  <circle cx="161.954" cy="261.465" r="3.11176e-34" stroke-width="0.5" stroke="grey" fill="grey"/>
   </g>
   <g id="cell94" type="Blue Bacteria" dead="false" >
  <circle cx="89.2064" cy="400.019" r="0.750869" stroke-width="0.5" stroke="black" fill="grey"/>
  <circle cx="89.2064" cy="400.019" r="2.88283e-34" stroke-width="0.5" stroke="grey" fill="grey"/>
   </g>
   <g id="cell95" type="Blue Bacteria" dead="false" >
  <circle cx="299.744" cy="219.001" r="0.010635" stroke-width="0.5" stroke="black" fill="grey"/>
  <circle cx="299.744" cy="219.001" r="3.11176e-34" stroke-width="0.5" stroke="grey" fill="grey"/>
   </g>
   <g id="cell96" type="Blue Bacteria" dead="false" >
  <circle cx="52.9632" cy="74.0074" r="0.010635" stroke-width="0.5" stroke="black" fill="grey"/>
  <circle cx="52.9632" cy="74.0074" r="3.11176e-34" stroke-width="0.5" stroke="grey" fill="grey"/>
   </g>
   <g id="cell97" type="Blue Bacteria" dead="false" >
  <circle cx="177.304" cy="259.539" r="0.010635" stroke-width="0.5" stroke="black" fill="grey"/>
  <circle cx="177.304" cy="259.539" r="3.11176e-34" stroke-width="0.5" stroke="grey" fill="grey"/>
   </g>
   <g id="cell98" type="Blue Bacteria" dead="false" >
  <circle cx="179.73" cy="99.7297" r="0.010635" stroke-width="0.5" stroke="black" fill="grey"/>
  <circle cx="179.73" cy="99.7297" r="3.11176e-34" stroke-width="0.5" stroke="grey" fill="grey"/>
   </g>
   <g id="cell99" type="Blue Bacteria" dead="false" >
  <circle cx="144.023" cy="177.853" r="0.010635" stroke-width="0.5" stroke="black" fill="grey"/>
  <circle cx="144.023" cy="177.853" r="3.11176e-34" stroke-width="0.5" stroke="grey" fill="grey"/>
   </g>
   <g id="cell100" type="Red Bacteria" dead="false" >
  <circle cx="239.089" cy="226.748" r="0.8947" stroke-width="0.5" stroke="black" fill="red"/>
  <circle cx="239.089" cy="226.748" r="0.62035" stroke-width="0.5" stroke="red" fill="red"/>
   </g>
   <g id="cell101" type="Red Bacteria" dead="false" >
  <circle cx="82.4322" cy="259.244" r="0.8947" stroke-width="0.5" stroke="black" fill="red"/>
  <circle cx="82.4322" cy="259.244" r="0.62035" stroke-width="0.5" stroke="red" fill="red"/>
   </g>
   <g id="cell102" type="Red Bacteria" dead="false" >
  <circle cx="240.432" cy="227.067" r="0.8947" stroke-width="0.5" stroke="black" fill="red"/>
  <circle cx="240.432" cy="227.067" r="0.62035" stroke-width="0.5" stroke="red" fill="red"/>
   </g>
   <g id="cell103" type="Red Bacteria" dead="false" >
  <circle cx="321.147" cy="400.062" r="0.8947" stroke-width="0.5" stroke="black" fill="red"/>
  <circle cx="321.147" cy="400.062" r="0.62035" stroke-width="0.5" stroke="red" fill="red"/>
   </g>
   <g id="cell104" type="Red Bacteria" dead="false" >
  <circle cx="240.885" cy="237.527" r="0.8947" stroke-width="0.5" stroke="black" fill="red"/>
  <circle cx="240.885" cy="237.527" r="0.62035" stroke-width="0.5" stroke="red" fill="red"/>
   </g>
   <g id="cell105" type="Red Bacteria" dead="false" >
  <circle cx="79.5163" cy="362.4" r="0.8947" stroke-width="0.5" stroke="black" fill="red"/>
  <circle cx="79.5163" cy="362.4" r="0.62035" stroke-width="0.5" stroke="red" fill="red"/>
   </g>
   <g id="cell106" type="Red Bacteria" dead="false" >
  <circle cx="78.9296" cy="259.714" r="0.8947" stroke-width="0.5" stroke="black" fill="red"/>
  <circle cx="78.9296" cy="259.714" r="0.62035" stroke-width="0.5" stroke="red" fill="red"/>
   </g>
   <g id="cell107" type="Red Bacteria" dead="false" >
  <circle cx="81.4465" cy="255.571" r="0.8947" stroke-width="0.5" stroke="black" fill="red"/>
  <circle cx="81.4465" cy="255.571" r="0.62035" stroke-width="0.5" stroke="red" fill="red"/>
   </g>
   <g id="cell108" type="Red Bacteria" dead="false" >
  <circle cx="239.585" cy="225.576" r="0.8947" stroke-width="0.5" stroke="black" fill="red"/>
  <circle cx="239.585" cy="225.576" r="0.62035" stroke-width="0.5" stroke="red" fill="red"/>
   </g>
   <g id="cell109" type="Red Bacteria" dead="false" >
  <circle cx="214.512" cy="400.009" r="0.8947" stroke-width="0.5" stroke="black" fill="red"/>
  <circle cx="214.512" cy="400.009" r="0.62035" stroke-width="0.5" stroke="red" fill="red"/>
   </g>
   <g id="cell110" type="Red Bacteria" dead="false" >
  <circle cx="15.6467" cy="-0.062863" r="0.8947" stroke-width="0.5" stroke="black" fill="red"/>
  <circle cx="15.6467" cy="-0.062863" r="0.62035" stroke-width="0.5" stroke="red" fill="red"/>
   </g>
   <g id="cell111" type="Red Bacteria" dead="false" >
  <circle cx="400.059" cy="220.423" r="0.8947" stroke-width="0.5" stroke="black" fill="red"/>
  <circle cx="400.059" cy="220.423" r="0.62035" stroke-width="0.5" stroke="red" fill="red"/>
   </g>
   <g id="cell112" type="Red Bacteria" dead="false" >
  <circle cx="242.343" cy="340.165" r="0.8947" stroke-width="0.5" stroke="black" fill="red"/>
  <circle cx="242.343" cy="340.165" r="0.62035" stroke-width="0.5" stroke="red" fill="red"/>
   </g>
   <g id="cell113" type="Red Bacteria" dead="false" >
  <circle cx="279.511" cy="139.281" r="0.8947" stroke-width="0.5" stroke="black" fill="red"/>
  <circle cx="279.511" cy="139.281" r="0.62035" stroke-width="0.5" stroke="red" fill="red"/>
   </g>
   <g id="cell114" type="Red Bacteria" dead="false" >
  <circle cx="241.072" cy="230.954" r="0.8947" stroke-width="0.5" stroke="black" fill="red"/>
  <circle cx="241.072" cy="230.954" r="0.62035" stroke-width="0.5" stroke="red" fill="red"/>
   </g>
   <g id="cell115" type="Red Bacteria" dead="false" >
  <circle cx="238.641" cy="340.055" r="0.8947" stroke-width="0.5" stroke="black" fill="red"/>
  <circle cx="238.641" cy="340.055" r="0.62035" stroke-width="0.5" stroke="red" fill="red"/>
   </g>
   <g id="cell116" type="Red Bacteria" dead="false" >
  <circle cx="80.9554" cy="260.21" r="0.8947" stroke-width="0.5" stroke="black" fill="red"/>
  <circle cx="80.9554" cy="260.21" r="0.62035" stroke-width="0.5" stroke="red" fill="red"/>
   </g>
   <g id="cell117" type="Red Bacteria" dead="false" >
  <circle cx="65.4273" cy="120.467" r="0.8947" stroke-width="0.5" stroke="black" fill="red"/>
  <circle cx="65.4273" cy="120.467" r="0.62035" stroke-width="0.5" stroke="red" fill="red"/>
   </g>
   <g id="cell196" type="Red Bacteria" dead="false" >
  <circle cx="240.509" cy="241.554" r="0.8947" stroke-width="0.5" stroke="black" fill="red"/>
  <circle cx="240.509" cy="241.554" r="0.62035" stroke-width="0.5" stroke="red" fill="red"/>
   </g>
   <g id="cell119" type="Red Bacteria" dead="false" >
  <circle cx="80.258" cy="263.714" r="0.8947" stroke-width="0.5" stroke="black" fill="red"/>
  <circle cx="80.258" cy="263.714" r="0.62035" stroke-width="0.5" stroke="red" fill="red"/>
   </g>
   <g id="cell120" type="Red Bacteria" dead="false" >
  <circle cx="272.642" cy="400.062" r="0.8947" stroke-width="0.5" stroke="black" fill="red"/>
  <circle cx="272.642" cy="400.062" r="0.62035" stroke-width="0.5" stroke="red" fill="red"/>
   </g>
   <g id="cell121" type="Red Bacteria" dead="false" >
  <circle cx="79.4763" cy="247.718" r="0.8947" stroke-width="0.5" stroke="black" fill="red"/>
  <circle cx="79.4763" cy="247.718" r="0.62035" stroke-width="0.5" stroke="red" fill="red"/>
   </g>
   <g id="cell122" type="Red Bacteria" dead="false" >
  <circle cx="198.219" cy="-0.0892484" r="0.8947" stroke-width="0.5" stroke="black" fill="red"/>
  <circle cx="198.219" cy="-0.0892484" r="0.62035" stroke-width="0.5" stroke="red" fill="red"/>
   </g>
   <g id="cell123" type="Red Bacteria" dead="false" >
  <circle cx="199.663" cy="-0.0793725" r="0.8947" stroke-width="0.5" stroke="black" fill="red"/>
  <circle cx="199.663" cy="-0.0793725" r="0.62035" stroke-width="0.5" stroke="red" fill="red"/>
   </g>
   <g id="cell189" type="Red Bacteria" dead="false" >
  <circle cx="240.451" cy="340.379" r="0.8947" stroke-width="0.5" stroke="black" fill="red"/>
  <circle cx="240.451" cy="340.379" r="0.62035" stroke-width="0.5" stroke="red" fill="red"/>
   </g>
   <g id="cell125" type="Red Bacteria" dead="false" >
  <circle cx="17.1032" cy="-0.039632" r="0.8947" stroke-width="0.5" stroke="black" fill="red"/>
  <circle cx="17.1032" cy="-0.039632" r="0.62035" stroke-width="0.5" stroke="red" fill="red"/>
   </g>
   <g id="cell126" type="Red Bacteria" dead="false" >
  <circle cx="241.48" cy="339.136" r="0.8947" stroke-width="0.5" stroke="black" fill="red"/>
  <circle cx="241.48" cy="339.136" r="0.62035" stroke-width="0.5" stroke="red" fill="red"/>
   </g>
   <g id="cell127" type="Red Bacteria" dead="false" >
  <circle cx="-0.0532024" cy="380.357" r="0.8947" stroke-width="0.5" stroke="black" fill="red"/>
  <circle cx="-0.0532024" cy="380.357" r="0.62035" stroke-width="0.5" stroke="red" fill="red"/>
   </g>
   <g id="cell128" type="Red Bacteria" dead="false" >
  <circle cx="60.1635" cy="120.198" r="0.8947" stroke-width="0.5" stroke="black" fill="red"/>
  <circle cx="60.1635" cy="120.198" r="0.62035" stroke-width="0.5" stroke="red" fill="red"/>
   </g>
   <g id="cell129" type="Red Bacteria" dead="false" >
  <circle cx="339.689" cy="111.949" r="0.8947" stroke-width="0.5" stroke="black" fill="red"/>
  <circle cx="339.689" cy="111.949" r="0.62035" stroke-width="0.5" stroke="red" fill="red"/>
   </g>
   <g id="cell130" type="Red Bacteria" dead="false" >
  <circle cx="240.082" cy="231.783" r="0.8947" stroke-width="0.5" stroke="black" fill="red"/>
  <circle cx="240.082" cy="231.783" r="0.62035" stroke-width="0.5" stroke="red" fill="red"/>
   </g>
   <g id="cell131" type="Red Bacteria" dead="false" >
  <circle cx="79.4798" cy="258.265" r="0.8947" stroke-width="0.5" stroke="black" fill="red"/>
  <circle cx="79.4798" cy="258.265" r="0.62035" stroke-width="0.5" stroke="red" fill="red"/>
   </g>
   <g id="cell132" type="Red Bacteria" dead="false" >
  <circle cx="8.61393" cy="400.098" r="0.8947" stroke-width="0.5" stroke="black" fill="red"/>
  <circle cx="8.61393" cy="400.098" r="0.62035" stroke-width="0.5" stroke="red" fill="red"/>
   </g>
   <g id="cell133" type="Red Bacteria" dead="false" >
  <circle cx="279.435" cy="135.297" r="0.8947" stroke-width="0.5" stroke="black" fill="red"/>
  <circle cx="279.435" cy="135.297" r="0.62035" stroke-width="0.5" stroke="red" fill="red"/>
   </g>
   <g id="cell134" type="Red Bacteria" dead="false" >
  <circle cx="-0.0494409" cy="203.246" r="0.8947" stroke-width="0.5" stroke="black" fill="red"/>
  <circle cx="-0.0494409" cy="203.246" r="0.62035" stroke-width="0.5" stroke="red" fill="red"/>
   </g>
   <g id="cell135" type="Red Bacteria" dead="false" >
  <circle cx="80.7808" cy="258.745" r="0.8947" stroke-width="0.5" stroke="black" fill="red"/>
  <circle cx="80.7808" cy="258.745" r="0.62035" stroke-width="0.5" stroke="red" fill="red"/>
   </g>
   <g id="cell195" type="Red Bacteria" dead="false" >
  <circle cx="400.047" cy="216.069" r="0.8947" stroke-width="0.5" stroke="black" fill="red"/>
  <circle cx="400.047" cy="216.069" r="0.62035" stroke-width="0.5" stroke="red" fill="red"/>
   </g>
   <g id="cell137" type="Red Bacteria" dead="false" >
  <circle cx="77.8135" cy="260.576" r="0.8947" stroke-width="0.5" stroke="black" fill="red"/>
  <circle cx="77.8135" cy="260.576" r="0.62035" stroke-width="0.5" stroke="red" fill="red"/>
   </g>
   <g id="cell138" type="Red Bacteria" dead="false" >
  <circle cx="80.036" cy="261.001" r="0.8947" stroke-width="0.5" stroke="black" fill="red"/>
  <circle cx="80.036" cy="261.001" r="0.62035" stroke-width="0.5" stroke="red" fill="red"/>
   </g>
   <g id="cell139" type="Red Bacteria" dead="false" >
  <circle cx="201.113" cy="-0.0213042" r="0.8947" stroke-width="0.5" stroke="black" fill="red"/>
  <circle cx="201.113" cy="-0.0213042" r="0.62035" stroke-width="0.5" stroke="red" fill="red"/>
   </g>
   <g id="cell140" type="Red Bacteria" dead="false" >
  <circle cx="384.724" cy="220.025" r="0.8947" stroke-width="0.5" stroke="black" fill="red"/>
  <circle cx="384.724" cy="220.025" r="0.62035" stroke-width="0.5" stroke="red" fill="red"/>
   </g>
   <g id="cell141" type="Red Bacteria" dead="false" >
  <circle cx="400.07" cy="219.042" r="0.8947" stroke-width="0.5" stroke="black" fill="red"/>
  <circle cx="400.07" cy="219.042" r="0.62035" stroke-width="0.5" stroke="red" fill="red"/>
   </g>
   <g id="cell142" type="Red Bacteria" dead="false" >
  <circle cx="19.6135" cy="400.017" r="0.8947" stroke-width="0.5" stroke="black" fill="red"/>
  <circle cx="19.6135" cy="400.017" r="0.62035" stroke-width="0.5" stroke="red" fill="red"/>
   </g>
   <g id="cell143" type="Red Bacteria" dead="false" >
  <circle cx="240.197" cy="220.814" r="0.8947" stroke-width="0.5" stroke="black" fill="red"/>
  <circle cx="240.197" cy="220.814" r="0.62035" stroke-width="0.5" stroke="red" fill="red"/>
   </g>
   <g id="cell144" type="Red Bacteria" dead="false" >
  <circle cx="80.0213" cy="256.984" r="0.8947" stroke-width="0.5" stroke="black" fill="red"/>
  <circle cx="80.0213" cy="256.984" r="0.62035" stroke-width="0.5" stroke="red" fill="red"/>
   </g>
   <g id="cell145" type="Red Bacteria" dead="false" >
  <circle cx="380.333" cy="-0.0151305" r="0.8947" stroke-width="0.5" stroke="black" fill="red"/>
  <circle cx="380.333" cy="-0.0151305" r="0.62035" stroke-width="0.5" stroke="red" fill="red"/>
   </g>
   <g id="cell146" type="Red Bacteria" dead="true" >
  <circle cx="198.232" cy="16.8381" r="0.289811" stroke-width="0.5" stroke="black" fill="red"/>
  <circle cx="198.232" cy="16.8381" r="0.270468" stroke-width="0.5" stroke="black" fill="black"/>
   </g>
   <g id="cell147" type="Red Bacteria" dead="false" >
  <circle cx="280.819" cy="138.489" r="0.8947" stroke-width="0.5" stroke="black" fill="red"/>
  <circle cx="280.819" cy="138.489" r="0.62035" stroke-width="0.5" stroke="red" fill="red"/>
   </g>
   <g id="cell148" type="Red Bacteria" dead="false" >
  <circle cx="340.859" cy="101.688" r="0.8947" stroke-width="0.5" stroke="black" fill="red"/>
  <circle cx="340.859" cy="101.688" r="0.62035" stroke-width="0.5" stroke="red" fill="red"/>
   </g>
   <g id="cell149" type="Red Bacteria" dead="false" >
  <circle cx="-0.0977774" cy="390.274" r="0.8947" stroke-width="0.5" stroke="black" fill="red"/>
  <circle cx="-0.0977774" cy="390.274" r="0.62035" stroke-width="0.5" stroke="red" fill="red"/>
   </g>
   <g id="cell150" type="Red Bacteria" dead="false" >
  <circle cx="400.011" cy="100.739" r="0.8947" stroke-width="0.5" stroke="black" fill="red"/>
  <circle cx="400.011" cy="100.739" r="0.62035" stroke-width="0.5" stroke="red" fill="red"/>
   </g>
   <g id="cell151" type="Red Bacteria" dead="false" >
  <circle cx="66.6875" cy="119.991" r="0.8947" stroke-width="0.5" stroke="black" fill="red"/>
  <circle cx="66.6875" cy="119.991" r="0.62035" stroke-width="0.5" stroke="red" fill="red"/>
   </g>
   <g id="cell152" type="Red Bacteria" dead="false" >
  <circle cx="85.1257" cy="400.049" r="0.8947" stroke-width="0.5" stroke="black" fill="red"/>
  <circle cx="85.1257" cy="400.049" r="0.62035" stroke-width="0.5" stroke="red" fill="red"/>
   </g>
   <g id="cell153" type="Red Bacteria" dead="false" >
  <circle cx="83.2153" cy="368.694" r="0.8947" stroke-width="0.5" stroke="black" fill="red"/>
  <circle cx="83.2153" cy="368.694" r="0.62035" stroke-width="0.5" stroke="red" fill="red"/>
   </g>
   <g id="cell194" type="Red Bacteria" dead="false" >
  <circle cx="400.047" cy="224.564" r="0.8947" stroke-width="0.5" stroke="black" fill="red"/>
  <circle cx="400.047" cy="224.564" r="0.62035" stroke-width="0.5" stroke="red" fill="red"/>
   </g>
   <g id="cell155" type="Red Bacteria" dead="false" >
  <circle cx="240.089" cy="338.326" r="0.8947" stroke-width="0.5" stroke="black" fill="red"/>
  <circle cx="240.089" cy="338.326" r="0.62035" stroke-width="0.5" stroke="red" fill="red"/>
   </g>
   <g id="cell156" type="Red Bacteria" dead="false" >
  <circle cx="240.061" cy="233.525" r="0.8947" stroke-width="0.5" stroke="black" fill="red"/>
  <circle cx="240.061" cy="233.525" r="0.62035" stroke-width="0.5" stroke="red" fill="red"/>
   </g>
   <g id="cell157" type="Red Bacteria" dead="false" >
  <circle cx="239.573" cy="223.422" r="0.8947" stroke-width="0.5" stroke="black" fill="red"/>
  <circle cx="239.573" cy="223.422" r="0.62035" stroke-width="0.5" stroke="red" fill="red"/>
   </g>
   <g id="cell158" type="Red Bacteria" dead="false" >
  <circle cx="18.5262" cy="-0.0255818" r="0.8947" stroke-width="0.5" stroke="black" fill="red"/>
  <circle cx="18.5262" cy="-0.0255818" r="0.62035" stroke-width="0.5" stroke="red" fill="red"/>
   </g>
   <g id="cell159" type="Red Bacteria" dead="false" >
  <circle cx="79.1229" cy="262.129" r="0.8947" stroke-width="0.5" stroke="black" fill="red"/>
  <circle cx="79.1229" cy="262.129" r="0.62035" stroke-width="0.5" stroke="red" fill="red"/>
   </g>
   <g id="cell160" type="Red Bacteria" dead="false" >
  <circle cx="80.0167" cy="253.993" r="0.8947" stroke-width="0.5" stroke="black" fill="red"/>
  <circle cx="80.0167" cy="253.993" r="0.62035" stroke-width="0.5" stroke="red" fill="red"/>
   </g>
   <g id="cell161" type="Red Bacteria" dead="false" >
  <circle cx="400.082" cy="217.538" r="0.8947" stroke-width="0.5" stroke="black" fill="red"/>
  <circle cx="400.082" cy="217.538" r="0.62035" stroke-width="0.5" stroke="red" fill="red"/>
   </g>
   <g id="cell162" type="Red Bacteria" dead="false" >
  <circle cx="81.3665" cy="362.514" r="0.8947" stroke-width="0.5" stroke="black" fill="red"/>
  <circle cx="81.3665" cy="362.514" r="0.62035" stroke-width="0.5" stroke="red" fill="red"/>
   </g>
   <g id="cell163" type="Red Bacteria" dead="false" >
  <circle cx="400.063" cy="58.9431" r="0.8947" stroke-width="0.5" stroke="black" fill="red"/>
  <circle cx="400.063" cy="58.9431" r="0.62035" stroke-width="0.5" stroke="red" fill="red"/>
   </g>
   <g id="cell164" type="Red Bacteria" dead="false" >
  <circle cx="240.229" cy="229.562" r="0.8947" stroke-width="0.5" stroke="black" fill="red"/>
  <circle cx="240.229" cy="229.562" r="0.62035" stroke-width="0.5" stroke="red" fill="red"/>
   </g>
   <g id="cell165" type="Red Bacteria" dead="false" >
  <circle cx="-0.0220231" cy="391.816" r="0.8947" stroke-width="0.5" stroke="black" fill="red"/>
  <circle cx="-0.0220231" cy="391.816" r="0.62035" stroke-width="0.5" stroke="red" fill="red"/>
   </g>
   <g id="cell166" type="Red Bacteria" dead="false" >
  <circle cx="400.072" cy="221.946" r="0.8947" stroke-width="0.5" stroke="black" fill="red"/>
  <circle cx="400.072" cy="221.946" r="0.62035" stroke-width="0.5" stroke="red" fill="red"/>
   </g>
   <g id="cell167" type="Red Bacteria" dead="false" >
  <circle cx="400.024" cy="223.302" r="0.8947" stroke-width="0.5" stroke="black" fill="red"/>
  <circle cx="400.024" cy="223.302" r="0.62035" stroke-width="0.5" stroke="red" fill="red"/>
   </g>
   <g id="cell168" type="Red Bacteria" dead="false" >
  <circle cx="239.2" cy="228.55" r="0.8947" stroke-width="0.5" stroke="black" fill="red"/>
  <circle cx="239.2" cy="228.55" r="0.62035" stroke-width="0.5" stroke="red" fill="red"/>
   </g>
   <g id="cell169" type="Red Bacteria" dead="false" >
  <circle cx="241.914" cy="222.253" r="0.8947" stroke-width="0.5" stroke="black" fill="red"/>
  <circle cx="241.914" cy="222.253" r="0.62035" stroke-width="0.5" stroke="red" fill="red"/>
   </g>
   <g id="cell170" type="Red Bacteria" dead="false" >
  <circle cx="-0.00199784" cy="38.7476" r="0.8947" stroke-width="0.5" stroke="black" fill="red"/>
  <circle cx="-0.00199784" cy="38.7476" r="0.62035" stroke-width="0.5" stroke="red" fill="red"/>
   </g>
   <g id="cell198" type="Red Bacteria" dead="false" >
  <circle cx="396" cy="218.748" r="0.8947" stroke-width="0.5" stroke="black" fill="red"/>
  <circle cx="396" cy="218.748" r="0.62035" stroke-width="0.5" stroke="red" fill="red"/>
   </g>
   <g id="cell172" type="Red Bacteria" dead="false" >
  <circle cx="340.091" cy="105.705" r="0.8947" stroke-width="0.5" stroke="black" fill="red"/>
  <circle cx="340.091" cy="105.705" r="0.62035" stroke-width="0.5" stroke="red" fill="red"/>
   </g>
   <g id="cell173" type="Red Bacteria" dead="false" >
  <circle cx="4.50502" cy="400.06" r="0.8947" stroke-width="0.5" stroke="black" fill="red"/>
  <circle cx="4.50502" cy="400.06" r="0.62035" stroke-width="0.5" stroke="red" fill="red"/>
   </g>
   <g id="cell174" type="Red Bacteria" dead="false" >
  <circle cx="339.778" cy="107.484" r="0.8947" stroke-width="0.5" stroke="black" fill="red"/>
  <circle cx="339.778" cy="107.484" r="0.62035" stroke-width="0.5" stroke="red" fill="red"/>
   </g>
   <g id="cell175" type="Red Bacteria" dead="false" >
  <circle cx="73.0629" cy="120.256" r="0.8947" stroke-width="0.5" stroke="black" fill="red"/>
  <circle cx="73.0629" cy="120.256" r="0.62035" stroke-width="0.5" stroke="red" fill="red"/>
   </g>
   <g id="cell176" type="Red Bacteria" dead="false" >
  <circle cx="80.0926" cy="255.765" r="0.8947" stroke-width="0.5" stroke="black" fill="red"/>
  <circle cx="80.0926" cy="255.765" r="0.62035" stroke-width="0.5" stroke="red" fill="red"/>
   </g>
   <g id="cell177" type="Red Bacteria" dead="false" >
  <circle cx="-0.0437571" cy="387.424" r="0.8947" stroke-width="0.5" stroke="black" fill="red"/>
  <circle cx="-0.0437571" cy="387.424" r="0.62035" stroke-width="0.5" stroke="red" fill="red"/>
   </g>
   <g id="cell178" type="Red Bacteria" dead="false" >
  <circle cx="82.2019" cy="260.652" r="0.8947" stroke-width="0.5" stroke="black" fill="red"/>
  <circle cx="82.2019" cy="260.652" r="0.62035" stroke-width="0.5" stroke="red" fill="red"/>
   </g>
   <g id="cell179" type="Red Bacteria" dead="false" >
  <circle cx="400.029" cy="277.136" r="0.8947" stroke-width="0.5" stroke="black" fill="red"/>
  <circle cx="400.029" cy="277.136" r="0.62035" stroke-width="0.5" stroke="red" fill="red"/>
   </g>
   <g id="cell180" type="Red Bacteria" dead="false" >
  <circle cx="381.81" cy="220.031" r="0.8947" stroke-width="0.5" stroke="black" fill="red"/>
  <circle cx="381.81" cy="220.031" r="0.62035" stroke-width="0.5" stroke="red" fill="red"/>
   </g>
   <g id="cell181" type="Red Bacteria" dead="false" >
  <circle cx="276.469" cy="139.999" r="0.8947" stroke-width="0.5" stroke="black" fill="red"/>
  <circle cx="276.469" cy="139.999" r="0.62035" stroke-width="0.5" stroke="red" fill="red"/>
   </g>
   <g id="cell182" type="Red Bacteria" dead="false" >
  <circle cx="72.0936" cy="380.518" r="0.8947" stroke-width="0.5" stroke="black" fill="red"/>
  <circle cx="72.0936" cy="380.518" r="0.62035" stroke-width="0.5" stroke="red" fill="red"/>
   </g>
   <g id="cell183" type="Red Bacteria" dead="false" >
  <circle cx="340.791" cy="121.311" r="0.8947" stroke-width="0.5" stroke="black" fill="red"/>
  <circle cx="340.791" cy="121.311" r="0.62035" stroke-width="0.5" stroke="red" fill="red"/>
   </g>
   <g id="cell184" type="Red Bacteria" dead="false" >
  <circle cx="-0.0567725" cy="40.0386" r="0.8947" stroke-width="0.5" stroke="black" fill="red"/>
  <circle cx="-0.0567725" cy="40.0386" r="0.62035" stroke-width="0.5" stroke="red" fill="red"/>
   </g>
   <g id="cell185" type="Red Bacteria" dead="false" >
  <circle cx="-0.00915274" cy="388.82" r="0.8947" stroke-width="0.5" stroke="black" fill="red"/>
  <circle cx="-0.00915274" cy="388.82" r="0.62035" stroke-width="0.5" stroke="red" fill="red"/>
   </g>
   <g id="cell186" type="Red Bacteria" dead="false" >
  <circle cx="200.032" cy="16.5277" r="0.8947" stroke-width="0.5" stroke="black" fill="red"/>
  <circle cx="200.032" cy="16.5277" r="0.62035" stroke-width="0.5" stroke="red" fill="red"/>
   </g>
   <g id="cell187" type="Red Bacteria" dead="false" >
  <circle cx="42.8785" cy="400.077" r="0.8947" stroke-width="0.5" stroke="black" fill="red"/>
  <circle cx="42.8785" cy="400.077" r="0.62035" stroke-width="0.5" stroke="red" fill="red"/>
   </g>
  </g>
 </g>
  <rect x="190" y="414" width="200" height="4" stroke-width="0.8" stroke="rgb(255,255,255)" fill="rgb(0,0,0)"/>
  <text x="192.5" y="411.5"
   font-family="Arial" font-size="10" fill="black" >
   200 &#956;m
  </text>
  <text x="10" y="418"
   font-family="Arial" font-size="7.5" fill="black" >
   0 days, 0 hours, 0 minutes, and 6.0500 seconds
  </text>
  <rect x="0" y="28" width="400" height="400" stroke-width="0.8" stroke="rgb(0,0,0)" fill="none"/>
</svg>
