<?xml version="1.0" encoding="UTF-8" standalone="no"?>
<!-- Created with PhysiCell (http://PhysiCell.MathCancer.org/) -->
<svg 
 xmlns:dc="http://purl.org/dc/elements/1.1/" 
 xmlns:cc="http://creativecommons.org/ns#" 
 xmlns:rdf="http://www.w3.org/1999/02/22-rdf-syntax-ns#" 
 xmlns:svg="http://www.w3.org/2000/svg" 
 xmlns="http://www.w3.org/2000/svg" 
 version="1.1" 
 width="400" 
 height="428" 
 id="svg2">
  <rect x="0" y="0" width="400" height="428" stroke-width="0.8" stroke="white" fill="white"/>
  <text x="5" y="12"
   font-family="Arial" font-size="10" fill="black" >
   Current time: 2 days, 4 hours, and 0.00 minutes, z = 0.00 &#956;m
  </text>
  <text x="5" y="23"
   font-family="Arial" font-size="9.5" fill="black" >
   188 agents
  </text>
 <g id="tissue" 
    transform="translate(0,428) scale(1,-1)">
  <g id="ECM">
  </g>
  <g id="cells">
   <g id="cell0" type="Blue Bacteria" dead="false" >
  <circle cx="400.047" cy="133.012" r="0.463055" stroke-width="0.5" stroke="black" fill="grey"/>
  <circle cx="400.047" cy="133.012" r="3.10267e-34" stroke-width="0.5" stroke="grey" fill="grey"/>
   </g>
   <g id="cell1" type="Blue Bacteria" dead="false" >
  <circle cx="48.9944" cy="314.01" r="0.00738313" stroke-width="0.5" stroke="black" fill="grey"/>
  <circle cx="48.9944" cy="314.01" r="3.11176e-34" stroke-width="0.5" stroke="grey" fill="grey"/>
   </g>
   <g id="cell2" type="Blue Bacteria" dead="false" >
  <circle cx="400.001" cy="322.966" r="0.215925" stroke-width="0.5" stroke="black" fill="grey"/>
  <circle cx="400.001" cy="322.966" r="3.11163e-34" stroke-width="0.5" stroke="grey" fill="grey"/>
   </g>
   <g id="cell3" type="Blue Bacteria" dead="false" >
  <circle cx="362.446" cy="400.068" r="0.74295" stroke-width="0.5" stroke="black" fill="grey"/>
  <circle cx="362.446" cy="400.068" r="2.90374e-34" stroke-width="0.5" stroke="grey" fill="grey"/>
   </g>
   <g id="cell4" type="Blue Bacteria" dead="false" >
  <circle cx="142.118" cy="180.149" r="0.00738313" stroke-width="0.5" stroke="black" fill="grey"/>
  <circle cx="142.118" cy="180.149" r="3.11176e-34" stroke-width="0.5" stroke="grey" fill="grey"/>
   </g>
   <g id="cell5" type="Blue Bacteria" dead="false" >
  <circle cx="258.931" cy="59.1751" r="0.00738313" stroke-width="0.5" stroke="black" fill="grey"/>
  <circle cx="258.931" cy="59.1751" r="3.11176e-34" stroke-width="0.5" stroke="grey" fill="grey"/>
   </g>
   <g id="cell6" type="Blue Bacteria" dead="false" >
  <circle cx="356.64" cy="-0.0534006" r="0.343651" stroke-width="0.5" stroke="black" fill="grey"/>
  <circle cx="356.64" cy="-0.0534006" r="3.11006e-34" stroke-width="0.5" stroke="grey" fill="grey"/>
   </g>
   <g id="cell7" type="Blue Bacteria" dead="false" >
  <circle cx="245.313" cy="400.074" r="0.519642" stroke-width="0.5" stroke="black" fill="grey"/>
  <circle cx="245.313" cy="400.074" r="3.09413e-34" stroke-width="0.5" stroke="grey" fill="grey"/>
   </g>
   <g id="cell8" type="Blue Bacteria" dead="false" >
  <circle cx="300.575" cy="197.132" r="0.00738313" stroke-width="0.5" stroke="black" fill="grey"/>
  <circle cx="300.575" cy="197.132" r="3.11176e-34" stroke-width="0.5" stroke="grey" fill="grey"/>
   </g>
   <g id="cell9" type="Blue Bacteria" dead="false" >
  <circle cx="180.795" cy="97.3685" r="0.00738313" stroke-width="0.5" stroke="black" fill="grey"/>
  <circle cx="180.795" cy="97.3685" r="3.11176e-34" stroke-width="0.5" stroke="grey" fill="grey"/>
   </g>
   <g id="cell10" type="Blue Bacteria" dead="false" >
  <circle cx="27.5564" cy="321.28" r="0.00738313" stroke-width="0.5" stroke="black" fill="grey"/>
  <circle cx="27.5564" cy="321.28" r="3.11176e-34" stroke-width="0.5" stroke="grey" fill="grey"/>
   </g>
   <g id="cell11" type="Blue Bacteria" dead="false" >
  <circle cx="-0.0300773" cy="299.753" r="0.752918" stroke-width="0.5" stroke="black" fill="grey"/>
  <circle cx="-0.0300773" cy="299.753" r="2.87941e-34" stroke-width="0.5" stroke="grey" fill="grey"/>
   </g>
   <g id="cell12" type="Blue Bacteria" dead="false" >
  <circle cx="146.118" cy="400.046" r="0.442756" stroke-width="0.5" stroke="black" fill="grey"/>
  <circle cx="146.118" cy="400.046" r="3.10471e-34" stroke-width="0.5" stroke="grey" fill="grey"/>
   </g>
   <g id="cell191" type="Red Bacteria" dead="false" >
  <circle cx="202.806" cy="-0.00225161" r="0.8947" stroke-width="0.5" stroke="black" fill="red"/>
  <circle cx="202.806" cy="-0.00225161" r="0.62035" stroke-width="0.5" stroke="red" fill="red"/>
   </g>
   <g id="cell14" type="Blue Bacteria" dead="false" >
  <circle cx="346.646" cy="-0.0894073" r="0.538119" stroke-width="0.5" stroke="black" fill="grey"/>
  <circle cx="346.646" cy="-0.0894073" r="3.09013e-34" stroke-width="0.5" stroke="grey" fill="grey"/>
   </g>
   <g id="cell15" type="Blue Bacteria" dead="false" >
  <circle cx="-0.0668275" cy="321.309" r="0.121533" stroke-width="0.5" stroke="black" fill="grey"/>
  <circle cx="-0.0668275" cy="321.309" r="3.11175e-34" stroke-width="0.5" stroke="grey" fill="grey"/>
   </g>
   <g id="cell16" type="Blue Bacteria" dead="false" >
  <circle cx="266.305" cy="400.054" r="0.299803" stroke-width="0.5" stroke="black" fill="grey"/>
  <circle cx="266.305" cy="400.054" r="3.11096e-34" stroke-width="0.5" stroke="grey" fill="grey"/>
   </g>
   <g id="cell17" type="Blue Bacteria" dead="false" >
  <circle cx="-0.0857811" cy="86.2801" r="0.712871" stroke-width="0.5" stroke="black" fill="grey"/>
  <circle cx="-0.0857811" cy="86.2801" r="2.97041e-34" stroke-width="0.5" stroke="grey" fill="grey"/>
   </g>
   <g id="cell18" type="Blue Bacteria" dead="false" >
  <circle cx="400.025" cy="327.452" r="0.0549498" stroke-width="0.5" stroke="black" fill="grey"/>
  <circle cx="400.025" cy="327.452" r="3.11176e-34" stroke-width="0.5" stroke="grey" fill="grey"/>
   </g>
   <g id="cell19" type="Blue Bacteria" dead="false" >
  <circle cx="140.163" cy="178.361" r="0.00738313" stroke-width="0.5" stroke="black" fill="grey"/>
  <circle cx="140.163" cy="178.361" r="3.11176e-34" stroke-width="0.5" stroke="grey" fill="grey"/>
   </g>
   <g id="cell20" type="Blue Bacteria" dead="false" >
  <circle cx="40.6819" cy="199.91" r="0.00738313" stroke-width="0.5" stroke="black" fill="grey"/>
  <circle cx="40.6819" cy="199.91" r="3.11176e-34" stroke-width="0.5" stroke="grey" fill="grey"/>
   </g>
   <g id="cell21" type="Blue Bacteria" dead="false" >
  <circle cx="161.628" cy="259.781" r="0.00738313" stroke-width="0.5" stroke="black" fill="grey"/>
  <circle cx="161.628" cy="259.781" r="3.11176e-34" stroke-width="0.5" stroke="grey" fill="grey"/>
   </g>
   <g id="cell22" type="Blue Bacteria" dead="false" >
  <circle cx="299.407" cy="227.308" r="0.00738313" stroke-width="0.5" stroke="black" fill="grey"/>
  <circle cx="299.407" cy="227.308" r="3.11176e-34" stroke-width="0.5" stroke="grey" fill="grey"/>
   </g>
   <g id="cell23" type="Blue Bacteria" dead="false" >
  <circle cx="400.016" cy="319.737" r="0.0851452" stroke-width="0.5" stroke="black" fill="grey"/>
  <circle cx="400.016" cy="319.737" r="3.11176e-34" stroke-width="0.5" stroke="grey" fill="grey"/>
   </g>
   <g id="cell24" type="Blue Bacteria" dead="false" >
  <circle cx="-0.066509" cy="135.464" r="0.690175" stroke-width="0.5" stroke="black" fill="grey"/>
  <circle cx="-0.066509" cy="135.464" r="3.00312e-34" stroke-width="0.5" stroke="grey" fill="grey"/>
   </g>
   <g id="cell25" type="Blue Bacteria" dead="false" >
  <circle cx="181.26" cy="103.543" r="0.00738313" stroke-width="0.5" stroke="black" fill="grey"/>
  <circle cx="181.26" cy="103.543" r="3.11176e-34" stroke-width="0.5" stroke="grey" fill="grey"/>
   </g>
   <g id="cell26" type="Blue Bacteria" dead="false" >
  <circle cx="400.054" cy="326.979" r="0.0119742" stroke-width="0.5" stroke="black" fill="grey"/>
  <circle cx="400.054" cy="326.979" r="3.11176e-34" stroke-width="0.5" stroke="grey" fill="grey"/>
   </g>
   <g id="cell27" type="Blue Bacteria" dead="false" >
  <circle cx="168.733" cy="261.73" r="0.00738313" stroke-width="0.5" stroke="black" fill="grey"/>
  <circle cx="168.733" cy="261.73" r="3.11176e-34" stroke-width="0.5" stroke="grey" fill="grey"/>
   </g>
   <g id="cell28" type="Blue Bacteria" dead="false" >
  <circle cx="120.062" cy="39.2549" r="0.00738313" stroke-width="0.5" stroke="black" fill="grey"/>
  <circle cx="120.062" cy="39.2549" r="3.11176e-34" stroke-width="0.5" stroke="grey" fill="grey"/>
   </g>
   <g id="cell29" type="Blue Bacteria" dead="false" >
  <circle cx="50.3789" cy="63.8612" r="0.00738313" stroke-width="0.5" stroke="black" fill="grey"/>
  <circle cx="50.3789" cy="63.8612" r="3.11176e-34" stroke-width="0.5" stroke="grey" fill="grey"/>
   </g>
   <g id="cell30" type="Blue Bacteria" dead="true" >
  <circle cx="370.559" cy="319.823" r="0.00115714" stroke-width="0.5" stroke="black" fill="grey"/>
  <circle cx="370.559" cy="319.823" r="1.01368e-34" stroke-width="0.5" stroke="black" fill="black"/>
   </g>
   <g id="cell31" type="Blue Bacteria" dead="false" >
  <circle cx="301.225" cy="218.721" r="0.00738313" stroke-width="0.5" stroke="black" fill="grey"/>
  <circle cx="301.225" cy="218.721" r="3.11176e-34" stroke-width="0.5" stroke="grey" fill="grey"/>
   </g>
   <g id="cell192" type="Red Bacteria" dead="false" >
  <circle cx="-0.0160366" cy="161.403" r="0.8947" stroke-width="0.5" stroke="black" fill="red"/>
  <circle cx="-0.0160366" cy="161.403" r="0.62035" stroke-width="0.5" stroke="red" fill="red"/>
   </g>
   <g id="cell33" type="Blue Bacteria" dead="false" >
  <circle cx="301.071" cy="58.9604" r="0.00738313" stroke-width="0.5" stroke="black" fill="grey"/>
  <circle cx="301.071" cy="58.9604" r="3.11176e-34" stroke-width="0.5" stroke="grey" fill="grey"/>
   </g>
   <g id="cell34" type="Blue Bacteria" dead="false" >
  <circle cx="178.907" cy="104.012" r="0.00738313" stroke-width="0.5" stroke="black" fill="grey"/>
  <circle cx="178.907" cy="104.012" r="3.11176e-34" stroke-width="0.5" stroke="grey" fill="grey"/>
   </g>
   <g id="cell35" type="Blue Bacteria" dead="false" >
  <circle cx="358.321" cy="400.027" r="0.44675" stroke-width="0.5" stroke="black" fill="grey"/>
  <circle cx="358.321" cy="400.027" r="3.10435e-34" stroke-width="0.5" stroke="grey" fill="grey"/>
   </g>
   <g id="cell36" type="Blue Bacteria" dead="false" >
  <circle cx="400.065" cy="337.576" r="0.217903" stroke-width="0.5" stroke="black" fill="grey"/>
  <circle cx="400.065" cy="337.576" r="3.11162e-34" stroke-width="0.5" stroke="grey" fill="grey"/>
   </g>
   <g id="cell188" type="Red Bacteria" dead="false" >
  <circle cx="279.883" cy="137.499" r="0.8947" stroke-width="0.5" stroke="black" fill="red"/>
  <circle cx="279.883" cy="137.499" r="0.62035" stroke-width="0.5" stroke="red" fill="red"/>
   </g>
   <g id="cell38" type="Blue Bacteria" dead="false" >
  <circle cx="40.2677" cy="200.296" r="0.00738313" stroke-width="0.5" stroke="black" fill="grey"/>
  <circle cx="40.2677" cy="200.296" r="3.11176e-34" stroke-width="0.5" stroke="grey" fill="grey"/>
   </g>
   <g id="cell39" type="Blue Bacteria" dead="false" >
  <circle cx="-0.0390843" cy="280.222" r="0.717137" stroke-width="0.5" stroke="black" fill="grey"/>
  <circle cx="-0.0390843" cy="280.222" r="2.96287e-34" stroke-width="0.5" stroke="grey" fill="grey"/>
   </g>
   <g id="cell40" type="Blue Bacteria" dead="false" >
  <circle cx="179.126" cy="260.737" r="0.00738313" stroke-width="0.5" stroke="black" fill="grey"/>
  <circle cx="179.126" cy="260.737" r="3.11176e-34" stroke-width="0.5" stroke="grey" fill="grey"/>
   </g>
   <g id="cell41" type="Blue Bacteria" dead="false" >
  <circle cx="176.551" cy="259.755" r="0.00738313" stroke-width="0.5" stroke="black" fill="grey"/>
  <circle cx="176.551" cy="259.755" r="3.11176e-34" stroke-width="0.5" stroke="grey" fill="grey"/>
   </g>
   <g id="cell42" type="Blue Bacteria" dead="false" >
  <circle cx="259.511" cy="66.3561" r="0.00738313" stroke-width="0.5" stroke="black" fill="grey"/>
  <circle cx="259.511" cy="66.3561" r="3.11176e-34" stroke-width="0.5" stroke="grey" fill="grey"/>
   </g>
   <g id="cell43" type="Blue Bacteria" dead="false" >
  <circle cx="256.27" cy="60.5671" r="0.00738313" stroke-width="0.5" stroke="black" fill="grey"/>
  <circle cx="256.27" cy="60.5671" r="3.11176e-34" stroke-width="0.5" stroke="grey" fill="grey"/>
   </g>
   <g id="cell44" type="Blue Bacteria" dead="false" >
  <circle cx="180.38" cy="259.995" r="0.00738313" stroke-width="0.5" stroke="black" fill="grey"/>
  <circle cx="180.38" cy="259.995" r="3.11176e-34" stroke-width="0.5" stroke="grey" fill="grey"/>
   </g>
   <g id="cell45" type="Blue Bacteria" dead="false" >
  <circle cx="400.062" cy="94.7222" r="0.748505" stroke-width="0.5" stroke="black" fill="grey"/>
  <circle cx="400.062" cy="94.7222" r="2.88853e-34" stroke-width="0.5" stroke="grey" fill="grey"/>
   </g>
   <g id="cell46" type="Blue Bacteria" dead="false" >
  <circle cx="180.387" cy="103.916" r="0.00738313" stroke-width="0.5" stroke="black" fill="grey"/>
  <circle cx="180.387" cy="103.916" r="3.11176e-34" stroke-width="0.5" stroke="grey" fill="grey"/>
   </g>
   <g id="cell47" type="Blue Bacteria" dead="false" >
  <circle cx="358.293" cy="-0.0287002" r="0.158343" stroke-width="0.5" stroke="black" fill="grey"/>
  <circle cx="358.293" cy="-0.0287002" r="3.11174e-34" stroke-width="0.5" stroke="grey" fill="grey"/>
   </g>
   <g id="cell48" type="Blue Bacteria" dead="false" >
  <circle cx="234.424" cy="292.78" r="0.00738313" stroke-width="0.5" stroke="black" fill="grey"/>
  <circle cx="234.424" cy="292.78" r="3.11176e-34" stroke-width="0.5" stroke="grey" fill="grey"/>
   </g>
   <g id="cell49" type="Blue Bacteria" dead="false" >
  <circle cx="180.568" cy="104.944" r="0.00738313" stroke-width="0.5" stroke="black" fill="grey"/>
  <circle cx="180.568" cy="104.944" r="3.11176e-34" stroke-width="0.5" stroke="grey" fill="grey"/>
   </g>
   <g id="cell50" type="Blue Bacteria" dead="false" >
  <circle cx="177.138" cy="260.615" r="0.00738313" stroke-width="0.5" stroke="black" fill="grey"/>
  <circle cx="177.138" cy="260.615" r="3.11176e-34" stroke-width="0.5" stroke="grey" fill="grey"/>
   </g>
   <g id="cell51" type="Blue Bacteria" dead="false" >
  <circle cx="349.467" cy="-0.0401457" r="0.471404" stroke-width="0.5" stroke="black" fill="grey"/>
  <circle cx="349.467" cy="-0.0401457" r="3.1017e-34" stroke-width="0.5" stroke="grey" fill="grey"/>
   </g>
   <g id="cell52" type="Blue Bacteria" dead="false" >
  <circle cx="400.088" cy="110.825" r="0.557054" stroke-width="0.5" stroke="black" fill="grey"/>
  <circle cx="400.088" cy="110.825" r="3.0852e-34" stroke-width="0.5" stroke="grey" fill="grey"/>
   </g>
   <g id="cell53" type="Blue Bacteria" dead="false" >
  <circle cx="51.1255" cy="69.5614" r="0.00738313" stroke-width="0.5" stroke="black" fill="grey"/>
  <circle cx="51.1255" cy="69.5614" r="3.11176e-34" stroke-width="0.5" stroke="grey" fill="grey"/>
   </g>
   <g id="cell54" type="Blue Bacteria" dead="false" >
  <circle cx="304.044" cy="220.976" r="0.00738313" stroke-width="0.5" stroke="black" fill="grey"/>
  <circle cx="304.044" cy="220.976" r="3.11176e-34" stroke-width="0.5" stroke="grey" fill="grey"/>
   </g>
   <g id="cell55" type="Blue Bacteria" dead="false" >
  <circle cx="299.51" cy="59.787" r="0.00738313" stroke-width="0.5" stroke="black" fill="grey"/>
  <circle cx="299.51" cy="59.787" r="3.11176e-34" stroke-width="0.5" stroke="grey" fill="grey"/>
   </g>
   <g id="cell56" type="Blue Bacteria" dead="false" >
  <circle cx="299.994" cy="56.1274" r="0.00738313" stroke-width="0.5" stroke="black" fill="grey"/>
  <circle cx="299.994" cy="56.1274" r="3.11176e-34" stroke-width="0.5" stroke="grey" fill="grey"/>
   </g>
   <g id="cell57" type="Blue Bacteria" dead="false" >
  <circle cx="37.3096" cy="195.627" r="0.00738313" stroke-width="0.5" stroke="black" fill="grey"/>
  <circle cx="37.3096" cy="195.627" r="3.11176e-34" stroke-width="0.5" stroke="grey" fill="grey"/>
   </g>
   <g id="cell197" type="Red Bacteria" dead="false" >
  <circle cx="239.249" cy="233.995" r="0.8947" stroke-width="0.5" stroke="black" fill="red"/>
  <circle cx="239.249" cy="233.995" r="0.62035" stroke-width="0.5" stroke="red" fill="red"/>
   </g>
   <g id="cell59" type="Blue Bacteria" dead="false" >
  <circle cx="180.123" cy="101.841" r="0.00738313" stroke-width="0.5" stroke="black" fill="grey"/>
  <circle cx="180.123" cy="101.841" r="3.11176e-34" stroke-width="0.5" stroke="grey" fill="grey"/>
   </g>
   <g id="cell60" type="Blue Bacteria" dead="false" >
  <circle cx="361.023" cy="400.039" r="0.533455" stroke-width="0.5" stroke="black" fill="grey"/>
  <circle cx="361.023" cy="400.039" r="3.09121e-34" stroke-width="0.5" stroke="grey" fill="grey"/>
   </g>
   <g id="cell61" type="Blue Bacteria" dead="false" >
  <circle cx="264.124" cy="400.075" r="0.291721" stroke-width="0.5" stroke="black" fill="grey"/>
  <circle cx="264.124" cy="400.075" r="3.11107e-34" stroke-width="0.5" stroke="grey" fill="grey"/>
   </g>
   <g id="cell62" type="Blue Bacteria" dead="false" >
  <circle cx="400.006" cy="326.52" r="0.168785" stroke-width="0.5" stroke="black" fill="grey"/>
  <circle cx="400.006" cy="326.52" r="3.11173e-34" stroke-width="0.5" stroke="grey" fill="grey"/>
   </g>
   <g id="cell63" type="Blue Bacteria" dead="false" >
  <circle cx="177.095" cy="256.929" r="0.00738313" stroke-width="0.5" stroke="black" fill="grey"/>
  <circle cx="177.095" cy="256.929" r="3.11176e-34" stroke-width="0.5" stroke="grey" fill="grey"/>
   </g>
   <g id="cell64" type="Blue Bacteria" dead="false" >
  <circle cx="179.064" cy="103.295" r="0.00738313" stroke-width="0.5" stroke="black" fill="grey"/>
  <circle cx="179.064" cy="103.295" r="3.11176e-34" stroke-width="0.5" stroke="grey" fill="grey"/>
   </g>
   <g id="cell65" type="Blue Bacteria" dead="false" >
  <circle cx="168.882" cy="260.188" r="0.00738313" stroke-width="0.5" stroke="black" fill="grey"/>
  <circle cx="168.882" cy="260.188" r="3.11176e-34" stroke-width="0.5" stroke="grey" fill="grey"/>
   </g>
   <g id="cell66" type="Blue Bacteria" dead="false" >
  <circle cx="53.1969" cy="71.6268" r="0.00738313" stroke-width="0.5" stroke="black" fill="grey"/>
  <circle cx="53.1969" cy="71.6268" r="3.11176e-34" stroke-width="0.5" stroke="grey" fill="grey"/>
   </g>
   <g id="cell190" type="Red Bacteria" dead="false" >
  <circle cx="74.2807" cy="119.852" r="0.8947" stroke-width="0.5" stroke="black" fill="red"/>
  <circle cx="74.2807" cy="119.852" r="0.62035" stroke-width="0.5" stroke="red" fill="red"/>
   </g>
   <g id="cell68" type="Blue Bacteria" dead="false" >
  <circle cx="-0.049439" cy="266.229" r="0.750869" stroke-width="0.5" stroke="black" fill="grey"/>
  <circle cx="-0.049439" cy="266.229" r="2.88283e-34" stroke-width="0.5" stroke="grey" fill="grey"/>
   </g>
   <g id="cell69" type="Blue Bacteria" dead="false" >
  <circle cx="300.698" cy="59.6816" r="0.00738313" stroke-width="0.5" stroke="black" fill="grey"/>
  <circle cx="300.698" cy="59.6816" r="3.11176e-34" stroke-width="0.5" stroke="grey" fill="grey"/>
   </g>
   <g id="cell70" type="Blue Bacteria" dead="false" >
  <circle cx="140.389" cy="178.062" r="0.00738313" stroke-width="0.5" stroke="black" fill="grey"/>
  <circle cx="140.389" cy="178.062" r="3.11176e-34" stroke-width="0.5" stroke="grey" fill="grey"/>
   </g>
   <g id="cell71" type="Blue Bacteria" dead="false" >
  <circle cx="300.282" cy="222.268" r="0.00738313" stroke-width="0.5" stroke="black" fill="grey"/>
  <circle cx="300.282" cy="222.268" r="3.11176e-34" stroke-width="0.5" stroke="grey" fill="grey"/>
   </g>
   <g id="cell72" type="Blue Bacteria" dead="false" >
  <circle cx="141.714" cy="178.917" r="0.00738313" stroke-width="0.5" stroke="black" fill="grey"/>
  <circle cx="141.714" cy="178.917" r="3.11176e-34" stroke-width="0.5" stroke="grey" fill="grey"/>
   </g>
   <g id="cell73" type="Blue Bacteria" dead="false" >
  <circle cx="3.74905" cy="-0.0271192" r="0.748505" stroke-width="0.5" stroke="black" fill="grey"/>
  <circle cx="3.74905" cy="-0.0271192" r="2.88853e-34" stroke-width="0.5" stroke="grey" fill="grey"/>
   </g>
   <g id="cell74" type="Blue Bacteria" dead="false" >
  <circle cx="179.926" cy="101.25" r="0.00738313" stroke-width="0.5" stroke="black" fill="grey"/>
  <circle cx="179.926" cy="101.25" r="3.11176e-34" stroke-width="0.5" stroke="grey" fill="grey"/>
   </g>
   <g id="cell75" type="Blue Bacteria" dead="false" >
  <circle cx="400.081" cy="330.928" r="0.0433455" stroke-width="0.5" stroke="black" fill="grey"/>
  <circle cx="400.081" cy="330.928" r="3.11176e-34" stroke-width="0.5" stroke="grey" fill="grey"/>
   </g>
   <g id="cell76" type="Blue Bacteria" dead="false" >
  <circle cx="298.611" cy="220.931" r="0.00738313" stroke-width="0.5" stroke="black" fill="grey"/>
  <circle cx="298.611" cy="220.931" r="3.11176e-34" stroke-width="0.5" stroke="grey" fill="grey"/>
   </g>
   <g id="cell77" type="Blue Bacteria" dead="false" >
  <circle cx="182.649" cy="257.823" r="0.00738313" stroke-width="0.5" stroke="black" fill="grey"/>
  <circle cx="182.649" cy="257.823" r="3.11176e-34" stroke-width="0.5" stroke="grey" fill="grey"/>
   </g>
   <g id="cell78" type="Blue Bacteria" dead="false" >
  <circle cx="146.549" cy="179.568" r="0.00738313" stroke-width="0.5" stroke="black" fill="grey"/>
  <circle cx="146.549" cy="179.568" r="3.11176e-34" stroke-width="0.5" stroke="grey" fill="grey"/>
   </g>
   <g id="cell79" type="Blue Bacteria" dead="false" >
  <circle cx="304.177" cy="219.836" r="0.00738313" stroke-width="0.5" stroke="black" fill="grey"/>
  <circle cx="304.177" cy="219.836" r="3.11176e-34" stroke-width="0.5" stroke="grey" fill="grey"/>
   </g>
   <g id="cell80" type="Blue Bacteria" dead="false" >
  <circle cx="400.085" cy="140.302" r="0.641096" stroke-width="0.5" stroke="black" fill="grey"/>
  <circle cx="400.085" cy="140.302" r="3.04763e-34" stroke-width="0.5" stroke="grey" fill="grey"/>
   </g>
   <g id="cell81" type="Blue Bacteria" dead="false" >
  <circle cx="50.4641" cy="72.1308" r="0.00738313" stroke-width="0.5" stroke="black" fill="grey"/>
  <circle cx="50.4641" cy="72.1308" r="3.11176e-34" stroke-width="0.5" stroke="grey" fill="grey"/>
   </g>
   <g id="cell82" type="Blue Bacteria" dead="false" >
  <circle cx="138.182" cy="180.129" r="0.00738313" stroke-width="0.5" stroke="black" fill="grey"/>
  <circle cx="138.182" cy="180.129" r="3.11176e-34" stroke-width="0.5" stroke="grey" fill="grey"/>
   </g>
   <g id="cell83" type="Blue Bacteria" dead="false" >
  <circle cx="263.482" cy="400.003" r="0.488494" stroke-width="0.5" stroke="black" fill="grey"/>
  <circle cx="263.482" cy="400.003" r="3.09943e-34" stroke-width="0.5" stroke="grey" fill="grey"/>
   </g>
   <g id="cell84" type="Blue Bacteria" dead="false" >
  <circle cx="119.721" cy="41.5799" r="0.00738313" stroke-width="0.5" stroke="black" fill="grey"/>
  <circle cx="119.721" cy="41.5799" r="3.11176e-34" stroke-width="0.5" stroke="grey" fill="grey"/>
   </g>
   <g id="cell85" type="Blue Bacteria" dead="false" >
  <circle cx="176.74" cy="260.559" r="0.00738313" stroke-width="0.5" stroke="black" fill="grey"/>
  <circle cx="176.74" cy="260.559" r="3.11176e-34" stroke-width="0.5" stroke="grey" fill="grey"/>
   </g>
   <g id="cell86" type="Blue Bacteria" dead="false" >
  <circle cx="261.118" cy="60.3847" r="0.00738313" stroke-width="0.5" stroke="black" fill="grey"/>
  <circle cx="261.118" cy="60.3847" r="3.11176e-34" stroke-width="0.5" stroke="grey" fill="grey"/>
   </g>
   <g id="cell87" type="Blue Bacteria" dead="false" >
  <circle cx="119.287" cy="38.6491" r="0.00738313" stroke-width="0.5" stroke="black" fill="grey"/>
  <circle cx="119.287" cy="38.6491" r="3.11176e-34" stroke-width="0.5" stroke="grey" fill="grey"/>
   </g>
   <g id="cell88" type="Blue Bacteria" dead="false" >
  <circle cx="151.051" cy="400.072" r="0.497235" stroke-width="0.5" stroke="black" fill="grey"/>
  <circle cx="151.051" cy="400.072" r="3.0981e-34" stroke-width="0.5" stroke="grey" fill="grey"/>
   </g>
   <g id="cell89" type="Blue Bacteria" dead="false" >
  <circle cx="348.677" cy="-0.0401721" r="0.0378014" stroke-width="0.5" stroke="black" fill="grey"/>
  <circle cx="348.677" cy="-0.0401721" r="3.11176e-34" stroke-width="0.5" stroke="grey" fill="grey"/>
   </g>
   <g id="cell90" type="Blue Bacteria" dead="false" >
  <circle cx="178.434" cy="99.6277" r="0.00738313" stroke-width="0.5" stroke="black" fill="grey"/>
  <circle cx="178.434" cy="99.6277" r="3.11176e-34" stroke-width="0.5" stroke="grey" fill="grey"/>
   </g>
   <g id="cell193" type="Red Bacteria" dead="false" >
  <circle cx="238.713" cy="226.194" r="0.8947" stroke-width="0.5" stroke="black" fill="red"/>
  <circle cx="238.713" cy="226.194" r="0.62035" stroke-width="0.5" stroke="red" fill="red"/>
   </g>
   <g id="cell92" type="Blue Bacteria" dead="false" >
  <circle cx="378.825" cy="331.426" r="0.00738313" stroke-width="0.5" stroke="black" fill="grey"/>
  <circle cx="378.825" cy="331.426" r="3.11176e-34" stroke-width="0.5" stroke="grey" fill="grey"/>
   </g>
   <g id="cell93" type="Blue Bacteria" dead="false" >
  <circle cx="177.24" cy="257.215" r="0.00738313" stroke-width="0.5" stroke="black" fill="grey"/>
  <circle cx="177.24" cy="257.215" r="3.11176e-34" stroke-width="0.5" stroke="grey" fill="grey"/>
   </g>
   <g id="cell94" type="Blue Bacteria" dead="false" >
  <circle cx="89.2064" cy="400.019" r="0.750869" stroke-width="0.5" stroke="black" fill="grey"/>
  <circle cx="89.2064" cy="400.019" r="2.88283e-34" stroke-width="0.5" stroke="grey" fill="grey"/>
   </g>
   <g id="cell95" type="Blue Bacteria" dead="false" >
  <circle cx="300.178" cy="220.109" r="0.00738313" stroke-width="0.5" stroke="black" fill="grey"/>
  <circle cx="300.178" cy="220.109" r="3.11176e-34" stroke-width="0.5" stroke="grey" fill="grey"/>
   </g>
   <g id="cell96" type="Blue Bacteria" dead="false" >
  <circle cx="58.6944" cy="73.537" r="0.00738313" stroke-width="0.5" stroke="black" fill="grey"/>
  <circle cx="58.6944" cy="73.537" r="3.11176e-34" stroke-width="0.5" stroke="grey" fill="grey"/>
   </g>
   <g id="cell97" type="Blue Bacteria" dead="false" >
  <circle cx="172.777" cy="260.049" r="0.00738313" stroke-width="0.5" stroke="black" fill="grey"/>
  <circle cx="172.777" cy="260.049" r="3.11176e-34" stroke-width="0.5" stroke="grey" fill="grey"/>
   </g>
   <g id="cell98" type="Blue Bacteria" dead="false" >
  <circle cx="179.983" cy="100.987" r="0.00738313" stroke-width="0.5" stroke="black" fill="grey"/>
  <circle cx="179.983" cy="100.987" r="3.11176e-34" stroke-width="0.5" stroke="grey" fill="grey"/>
   </g>
   <g id="cell99" type="Blue Bacteria" dead="false" >
  <circle cx="140.942" cy="180.814" r="0.00738313" stroke-width="0.5" stroke="black" fill="grey"/>
  <circle cx="140.942" cy="180.814" r="3.11176e-34" stroke-width="0.5" stroke="grey" fill="grey"/>
   </g>
   <g id="cell100" type="Red Bacteria" dead="false" >
  <circle cx="239.046" cy="222.84" r="0.8947" stroke-width="0.5" stroke="black" fill="red"/>
  <circle cx="239.046" cy="222.84" r="0.62035" stroke-width="0.5" stroke="red" fill="red"/>
   </g>
   <g id="cell101" type="Red Bacteria" dead="false" >
  <circle cx="80.5897" cy="259.566" r="0.8947" stroke-width="0.5" stroke="black" fill="red"/>
  <circle cx="80.5897" cy="259.566" r="0.62035" stroke-width="0.5" stroke="red" fill="red"/>
   </g>
   <g id="cell102" type="Red Bacteria" dead="false" >
  <circle cx="240.266" cy="231.59" r="0.8947" stroke-width="0.5" stroke="black" fill="red"/>
  <circle cx="240.266" cy="231.59" r="0.62035" stroke-width="0.5" stroke="red" fill="red"/>
   </g>
   <g id="cell103" type="Red Bacteria" dead="false" >
  <circle cx="321.147" cy="400.062" r="0.8947" stroke-width="0.5" stroke="black" fill="red"/>
  <circle cx="321.147" cy="400.062" r="0.62035" stroke-width="0.5" stroke="red" fill="red"/>
   </g>
   <g id="cell104" type="Red Bacteria" dead="false" >
  <circle cx="240.267" cy="237.216" r="0.8947" stroke-width="0.5" stroke="black" fill="red"/>
  <circle cx="240.267" cy="237.216" r="0.62035" stroke-width="0.5" stroke="red" fill="red"/>
   </g>
   <g id="cell105" type="Red Bacteria" dead="false" >
  <circle cx="80.6774" cy="363.32" r="0.8947" stroke-width="0.5" stroke="black" fill="red"/>
  <circle cx="80.6774" cy="363.32" r="0.62035" stroke-width="0.5" stroke="red" fill="red"/>
   </g>
   <g id="cell106" type="Red Bacteria" dead="false" >
  <circle cx="80.8268" cy="256.455" r="0.8947" stroke-width="0.5" stroke="black" fill="red"/>
  <circle cx="80.8268" cy="256.455" r="0.62035" stroke-width="0.5" stroke="red" fill="red"/>
   </g>
   <g id="cell107" type="Red Bacteria" dead="false" >
  <circle cx="80.3495" cy="260.867" r="0.8947" stroke-width="0.5" stroke="black" fill="red"/>
  <circle cx="80.3495" cy="260.867" r="0.62035" stroke-width="0.5" stroke="red" fill="red"/>
   </g>
   <g id="cell108" type="Red Bacteria" dead="false" >
  <circle cx="241.728" cy="221.384" r="0.8947" stroke-width="0.5" stroke="black" fill="red"/>
  <circle cx="241.728" cy="221.384" r="0.62035" stroke-width="0.5" stroke="red" fill="red"/>
   </g>
   <g id="cell109" type="Red Bacteria" dead="false" >
  <circle cx="214.512" cy="400.009" r="0.8947" stroke-width="0.5" stroke="black" fill="red"/>
  <circle cx="214.512" cy="400.009" r="0.62035" stroke-width="0.5" stroke="red" fill="red"/>
   </g>
   <g id="cell110" type="Red Bacteria" dead="false" >
  <circle cx="15.6467" cy="-0.062863" r="0.8947" stroke-width="0.5" stroke="black" fill="red"/>
  <circle cx="15.6467" cy="-0.062863" r="0.62035" stroke-width="0.5" stroke="red" fill="red"/>
   </g>
   <g id="cell111" type="Red Bacteria" dead="false" >
  <circle cx="400.059" cy="220.423" r="0.8947" stroke-width="0.5" stroke="black" fill="red"/>
  <circle cx="400.059" cy="220.423" r="0.62035" stroke-width="0.5" stroke="red" fill="red"/>
   </g>
   <g id="cell112" type="Red Bacteria" dead="false" >
  <circle cx="240.834" cy="341.795" r="0.8947" stroke-width="0.5" stroke="black" fill="red"/>
  <circle cx="240.834" cy="341.795" r="0.62035" stroke-width="0.5" stroke="red" fill="red"/>
   </g>
   <g id="cell113" type="Red Bacteria" dead="false" >
  <circle cx="279.425" cy="139.402" r="0.8947" stroke-width="0.5" stroke="black" fill="red"/>
  <circle cx="279.425" cy="139.402" r="0.62035" stroke-width="0.5" stroke="red" fill="red"/>
   </g>
   <g id="cell114" type="Red Bacteria" dead="true" >
  <circle cx="236.243" cy="221.718" r="0.285172" stroke-width="0.5" stroke="black" fill="red"/>
  <circle cx="236.243" cy="221.718" r="0.267267" stroke-width="0.5" stroke="black" fill="black"/>
   </g>
   <g id="cell115" type="Red Bacteria" dead="false" >
  <circle cx="239.379" cy="340.457" r="0.8947" stroke-width="0.5" stroke="black" fill="red"/>
  <circle cx="239.379" cy="340.457" r="0.62035" stroke-width="0.5" stroke="red" fill="red"/>
   </g>
   <g id="cell116" type="Red Bacteria" dead="false" >
  <circle cx="80.6798" cy="254.662" r="0.8947" stroke-width="0.5" stroke="black" fill="red"/>
  <circle cx="80.6798" cy="254.662" r="0.62035" stroke-width="0.5" stroke="red" fill="red"/>
   </g>
   <g id="cell117" type="Red Bacteria" dead="false" >
  <circle cx="70.5247" cy="119.425" r="0.8947" stroke-width="0.5" stroke="black" fill="red"/>
  <circle cx="70.5247" cy="119.425" r="0.62035" stroke-width="0.5" stroke="red" fill="red"/>
   </g>
   <g id="cell196" type="Red Bacteria" dead="false" >
  <circle cx="238.964" cy="231.804" r="0.8947" stroke-width="0.5" stroke="black" fill="red"/>
  <circle cx="238.964" cy="231.804" r="0.62035" stroke-width="0.5" stroke="red" fill="red"/>
   </g>
   <g id="cell119" type="Red Bacteria" dead="false" >
  <circle cx="82.3296" cy="258.371" r="0.8947" stroke-width="0.5" stroke="black" fill="red"/>
  <circle cx="82.3296" cy="258.371" r="0.62035" stroke-width="0.5" stroke="red" fill="red"/>
   </g>
   <g id="cell120" type="Red Bacteria" dead="false" >
  <circle cx="272.642" cy="400.062" r="0.8947" stroke-width="0.5" stroke="black" fill="red"/>
  <circle cx="272.642" cy="400.062" r="0.62035" stroke-width="0.5" stroke="red" fill="red"/>
   </g>
   <g id="cell121" type="Red Bacteria" dead="false" >
  <circle cx="82.0959" cy="260.341" r="0.8947" stroke-width="0.5" stroke="black" fill="red"/>
  <circle cx="82.0959" cy="260.341" r="0.62035" stroke-width="0.5" stroke="red" fill="red"/>
   </g>
   <g id="cell122" type="Red Bacteria" dead="false" >
  <circle cx="198.219" cy="-0.0892484" r="0.8947" stroke-width="0.5" stroke="black" fill="red"/>
  <circle cx="198.219" cy="-0.0892484" r="0.62035" stroke-width="0.5" stroke="red" fill="red"/>
   </g>
   <g id="cell123" type="Red Bacteria" dead="false" >
  <circle cx="199.663" cy="-0.0793725" r="0.8947" stroke-width="0.5" stroke="black" fill="red"/>
  <circle cx="199.663" cy="-0.0793725" r="0.62035" stroke-width="0.5" stroke="red" fill="red"/>
   </g>
   <g id="cell189" type="Red Bacteria" dead="false" >
  <circle cx="243.061" cy="341.052" r="0.8947" stroke-width="0.5" stroke="black" fill="red"/>
  <circle cx="243.061" cy="341.052" r="0.62035" stroke-width="0.5" stroke="red" fill="red"/>
   </g>
   <g id="cell125" type="Red Bacteria" dead="false" >
  <circle cx="17.1032" cy="-0.039632" r="0.8947" stroke-width="0.5" stroke="black" fill="red"/>
  <circle cx="17.1032" cy="-0.039632" r="0.62035" stroke-width="0.5" stroke="red" fill="red"/>
   </g>
   <g id="cell126" type="Red Bacteria" dead="false" >
  <circle cx="241.745" cy="340.178" r="0.8947" stroke-width="0.5" stroke="black" fill="red"/>
  <circle cx="241.745" cy="340.178" r="0.62035" stroke-width="0.5" stroke="red" fill="red"/>
   </g>
   <g id="cell127" type="Red Bacteria" dead="false" >
  <circle cx="-0.0532024" cy="380.357" r="0.8947" stroke-width="0.5" stroke="black" fill="red"/>
  <circle cx="-0.0532024" cy="380.357" r="0.62035" stroke-width="0.5" stroke="red" fill="red"/>
   </g>
   <g id="cell128" type="Red Bacteria" dead="false" >
  <circle cx="61.2749" cy="119.792" r="0.8947" stroke-width="0.5" stroke="black" fill="red"/>
  <circle cx="61.2749" cy="119.792" r="0.62035" stroke-width="0.5" stroke="red" fill="red"/>
   </g>
   <g id="cell129" type="Red Bacteria" dead="false" >
  <circle cx="339.788" cy="100.311" r="0.8947" stroke-width="0.5" stroke="black" fill="red"/>
  <circle cx="339.788" cy="100.311" r="0.62035" stroke-width="0.5" stroke="red" fill="red"/>
   </g>
   <g id="cell130" type="Red Bacteria" dead="false" >
  <circle cx="243.151" cy="231.634" r="0.8947" stroke-width="0.5" stroke="black" fill="red"/>
  <circle cx="243.151" cy="231.634" r="0.62035" stroke-width="0.5" stroke="red" fill="red"/>
   </g>
   <g id="cell131" type="Red Bacteria" dead="false" >
  <circle cx="77.8456" cy="260.085" r="0.8947" stroke-width="0.5" stroke="black" fill="red"/>
  <circle cx="77.8456" cy="260.085" r="0.62035" stroke-width="0.5" stroke="red" fill="red"/>
   </g>
   <g id="cell132" type="Red Bacteria" dead="false" >
  <circle cx="8.61393" cy="400.098" r="0.8947" stroke-width="0.5" stroke="black" fill="red"/>
  <circle cx="8.61393" cy="400.098" r="0.62035" stroke-width="0.5" stroke="red" fill="red"/>
   </g>
   <g id="cell133" type="Red Bacteria" dead="false" >
  <circle cx="278.109" cy="140.421" r="0.8947" stroke-width="0.5" stroke="black" fill="red"/>
  <circle cx="278.109" cy="140.421" r="0.62035" stroke-width="0.5" stroke="red" fill="red"/>
   </g>
   <g id="cell134" type="Red Bacteria" dead="false" >
  <circle cx="-0.0494409" cy="203.246" r="0.8947" stroke-width="0.5" stroke="black" fill="red"/>
  <circle cx="-0.0494409" cy="203.246" r="0.62035" stroke-width="0.5" stroke="red" fill="red"/>
   </g>
   <g id="cell135" type="Red Bacteria" dead="false" >
  <circle cx="79.6394" cy="257.061" r="0.8947" stroke-width="0.5" stroke="black" fill="red"/>
  <circle cx="79.6394" cy="257.061" r="0.62035" stroke-width="0.5" stroke="red" fill="red"/>
   </g>
   <g id="cell195" type="Red Bacteria" dead="false" >
  <circle cx="400.047" cy="216.069" r="0.8947" stroke-width="0.5" stroke="black" fill="red"/>
  <circle cx="400.047" cy="216.069" r="0.62035" stroke-width="0.5" stroke="red" fill="red"/>
   </g>
   <g id="cell137" type="Red Bacteria" dead="false" >
  <circle cx="78.402" cy="257.968" r="0.8947" stroke-width="0.5" stroke="black" fill="red"/>
  <circle cx="78.402" cy="257.968" r="0.62035" stroke-width="0.5" stroke="red" fill="red"/>
   </g>
   <g id="cell138" type="Red Bacteria" dead="false" >
  <circle cx="80.6945" cy="263.631" r="0.8947" stroke-width="0.5" stroke="black" fill="red"/>
  <circle cx="80.6945" cy="263.631" r="0.62035" stroke-width="0.5" stroke="red" fill="red"/>
   </g>
   <g id="cell139" type="Red Bacteria" dead="false" >
  <circle cx="201.113" cy="-0.0213042" r="0.8947" stroke-width="0.5" stroke="black" fill="red"/>
  <circle cx="201.113" cy="-0.0213042" r="0.62035" stroke-width="0.5" stroke="red" fill="red"/>
   </g>
   <g id="cell140" type="Red Bacteria" dead="false" >
  <circle cx="386.811" cy="218.81" r="0.8947" stroke-width="0.5" stroke="black" fill="red"/>
  <circle cx="386.811" cy="218.81" r="0.62035" stroke-width="0.5" stroke="red" fill="red"/>
   </g>
   <g id="cell141" type="Red Bacteria" dead="false" >
  <circle cx="400.07" cy="219.042" r="0.8947" stroke-width="0.5" stroke="black" fill="red"/>
  <circle cx="400.07" cy="219.042" r="0.62035" stroke-width="0.5" stroke="red" fill="red"/>
   </g>
   <g id="cell142" type="Red Bacteria" dead="false" >
  <circle cx="19.6135" cy="400.017" r="0.8947" stroke-width="0.5" stroke="black" fill="red"/>
  <circle cx="19.6135" cy="400.017" r="0.62035" stroke-width="0.5" stroke="red" fill="red"/>
   </g>
   <g id="cell143" type="Red Bacteria" dead="false" >
  <circle cx="240.417" cy="222.351" r="0.8947" stroke-width="0.5" stroke="black" fill="red"/>
  <circle cx="240.417" cy="222.351" r="0.62035" stroke-width="0.5" stroke="red" fill="red"/>
   </g>
   <g id="cell144" type="Red Bacteria" dead="false" >
  <circle cx="80.7181" cy="257.822" r="0.8947" stroke-width="0.5" stroke="black" fill="red"/>
  <circle cx="80.7181" cy="257.822" r="0.62035" stroke-width="0.5" stroke="red" fill="red"/>
   </g>
   <g id="cell145" type="Red Bacteria" dead="false" >
  <circle cx="380.333" cy="-0.0151305" r="0.8947" stroke-width="0.5" stroke="black" fill="red"/>
  <circle cx="380.333" cy="-0.0151305" r="0.62035" stroke-width="0.5" stroke="red" fill="red"/>
   </g>
   <g id="cell146" type="Red Bacteria" dead="true" >
  <circle cx="197.672" cy="16.133" r="0.168965" stroke-width="0.5" stroke="black" fill="red"/>
  <circle cx="197.672" cy="16.133" r="0.168176" stroke-width="0.5" stroke="black" fill="black"/>
   </g>
   <g id="cell147" type="Red Bacteria" dead="false" >
  <circle cx="282.044" cy="137.48" r="0.8947" stroke-width="0.5" stroke="black" fill="red"/>
  <circle cx="282.044" cy="137.48" r="0.62035" stroke-width="0.5" stroke="red" fill="red"/>
   </g>
   <g id="cell148" type="Red Bacteria" dead="false" >
  <circle cx="339.731" cy="102.245" r="0.8947" stroke-width="0.5" stroke="black" fill="red"/>
  <circle cx="339.731" cy="102.245" r="0.62035" stroke-width="0.5" stroke="red" fill="red"/>
   </g>
   <g id="cell149" type="Red Bacteria" dead="false" >
  <circle cx="-0.0977774" cy="390.274" r="0.8947" stroke-width="0.5" stroke="black" fill="red"/>
  <circle cx="-0.0977774" cy="390.274" r="0.62035" stroke-width="0.5" stroke="red" fill="red"/>
   </g>
   <g id="cell150" type="Red Bacteria" dead="false" >
  <circle cx="400.011" cy="100.739" r="0.8947" stroke-width="0.5" stroke="black" fill="red"/>
  <circle cx="400.011" cy="100.739" r="0.62035" stroke-width="0.5" stroke="red" fill="red"/>
   </g>
   <g id="cell151" type="Red Bacteria" dead="false" >
  <circle cx="64.3704" cy="120.972" r="0.8947" stroke-width="0.5" stroke="black" fill="red"/>
  <circle cx="64.3704" cy="120.972" r="0.62035" stroke-width="0.5" stroke="red" fill="red"/>
   </g>
   <g id="cell152" type="Red Bacteria" dead="false" >
  <circle cx="85.1257" cy="400.049" r="0.8947" stroke-width="0.5" stroke="black" fill="red"/>
  <circle cx="85.1257" cy="400.049" r="0.62035" stroke-width="0.5" stroke="red" fill="red"/>
   </g>
   <g id="cell153" type="Red Bacteria" dead="false" >
  <circle cx="76.9474" cy="370.946" r="0.8947" stroke-width="0.5" stroke="black" fill="red"/>
  <circle cx="76.9474" cy="370.946" r="0.62035" stroke-width="0.5" stroke="red" fill="red"/>
   </g>
   <g id="cell194" type="Red Bacteria" dead="false" >
  <circle cx="400.047" cy="224.564" r="0.8947" stroke-width="0.5" stroke="black" fill="red"/>
  <circle cx="400.047" cy="224.564" r="0.62035" stroke-width="0.5" stroke="red" fill="red"/>
   </g>
   <g id="cell155" type="Red Bacteria" dead="false" >
  <circle cx="238.602" cy="341.67" r="0.8947" stroke-width="0.5" stroke="black" fill="red"/>
  <circle cx="238.602" cy="341.67" r="0.62035" stroke-width="0.5" stroke="red" fill="red"/>
   </g>
   <g id="cell156" type="Red Bacteria" dead="false" >
  <circle cx="240.939" cy="227.744" r="0.8947" stroke-width="0.5" stroke="black" fill="red"/>
  <circle cx="240.939" cy="227.744" r="0.62035" stroke-width="0.5" stroke="red" fill="red"/>
   </g>
   <g id="cell157" type="Red Bacteria" dead="false" >
  <circle cx="240.267" cy="228.983" r="0.8947" stroke-width="0.5" stroke="black" fill="red"/>
  <circle cx="240.267" cy="228.983" r="0.62035" stroke-width="0.5" stroke="red" fill="red"/>
   </g>
   <g id="cell158" type="Red Bacteria" dead="false" >
  <circle cx="18.5262" cy="-0.0255818" r="0.8947" stroke-width="0.5" stroke="black" fill="red"/>
  <circle cx="18.5262" cy="-0.0255818" r="0.62035" stroke-width="0.5" stroke="red" fill="red"/>
   </g>
   <g id="cell159" type="Red Bacteria" dead="false" >
  <circle cx="78.9348" cy="261.754" r="0.8947" stroke-width="0.5" stroke="black" fill="red"/>
  <circle cx="78.9348" cy="261.754" r="0.62035" stroke-width="0.5" stroke="red" fill="red"/>
   </g>
   <g id="cell160" type="Red Bacteria" dead="false" >
  <circle cx="79.2739" cy="260.142" r="0.8947" stroke-width="0.5" stroke="black" fill="red"/>
  <circle cx="79.2739" cy="260.142" r="0.62035" stroke-width="0.5" stroke="red" fill="red"/>
   </g>
   <g id="cell161" type="Red Bacteria" dead="false" >
  <circle cx="400.082" cy="217.538" r="0.8947" stroke-width="0.5" stroke="black" fill="red"/>
  <circle cx="400.082" cy="217.538" r="0.62035" stroke-width="0.5" stroke="red" fill="red"/>
   </g>
   <g id="cell162" type="Red Bacteria" dead="false" >
  <circle cx="79.4504" cy="366.616" r="0.8947" stroke-width="0.5" stroke="black" fill="red"/>
  <circle cx="79.4504" cy="366.616" r="0.62035" stroke-width="0.5" stroke="red" fill="red"/>
   </g>
   <g id="cell163" type="Red Bacteria" dead="false" >
  <circle cx="400.063" cy="58.9431" r="0.8947" stroke-width="0.5" stroke="black" fill="red"/>
  <circle cx="400.063" cy="58.9431" r="0.62035" stroke-width="0.5" stroke="red" fill="red"/>
   </g>
   <g id="cell164" type="Red Bacteria" dead="false" >
  <circle cx="239.289" cy="230.028" r="0.8947" stroke-width="0.5" stroke="black" fill="red"/>
  <circle cx="239.289" cy="230.028" r="0.62035" stroke-width="0.5" stroke="red" fill="red"/>
   </g>
   <g id="cell165" type="Red Bacteria" dead="false" >
  <circle cx="-0.0220231" cy="391.816" r="0.8947" stroke-width="0.5" stroke="black" fill="red"/>
  <circle cx="-0.0220231" cy="391.816" r="0.62035" stroke-width="0.5" stroke="red" fill="red"/>
   </g>
   <g id="cell166" type="Red Bacteria" dead="false" >
  <circle cx="400.072" cy="221.946" r="0.8947" stroke-width="0.5" stroke="black" fill="red"/>
  <circle cx="400.072" cy="221.946" r="0.62035" stroke-width="0.5" stroke="red" fill="red"/>
   </g>
   <g id="cell167" type="Red Bacteria" dead="false" >
  <circle cx="400.024" cy="223.302" r="0.8947" stroke-width="0.5" stroke="black" fill="red"/>
  <circle cx="400.024" cy="223.302" r="0.62035" stroke-width="0.5" stroke="red" fill="red"/>
   </g>
   <g id="cell168" type="Red Bacteria" dead="false" >
  <circle cx="237.857" cy="223.141" r="0.8947" stroke-width="0.5" stroke="black" fill="red"/>
  <circle cx="237.857" cy="223.141" r="0.62035" stroke-width="0.5" stroke="red" fill="red"/>
   </g>
   <g id="cell169" type="Red Bacteria" dead="false" >
  <circle cx="240.033" cy="220.493" r="0.8947" stroke-width="0.5" stroke="black" fill="red"/>
  <circle cx="240.033" cy="220.493" r="0.62035" stroke-width="0.5" stroke="red" fill="red"/>
   </g>
   <g id="cell170" type="Red Bacteria" dead="false" >
  <circle cx="-0.00199784" cy="38.7476" r="0.8947" stroke-width="0.5" stroke="black" fill="red"/>
  <circle cx="-0.00199784" cy="38.7476" r="0.62035" stroke-width="0.5" stroke="red" fill="red"/>
   </g>
   <g id="cell198" type="Red Bacteria" dead="false" >
  <circle cx="390.985" cy="222.045" r="0.8947" stroke-width="0.5" stroke="black" fill="red"/>
  <circle cx="390.985" cy="222.045" r="0.62035" stroke-width="0.5" stroke="red" fill="red"/>
   </g>
   <g id="cell172" type="Red Bacteria" dead="false" >
  <circle cx="342.328" cy="117.145" r="0.8947" stroke-width="0.5" stroke="black" fill="red"/>
  <circle cx="342.328" cy="117.145" r="0.62035" stroke-width="0.5" stroke="red" fill="red"/>
   </g>
   <g id="cell173" type="Red Bacteria" dead="false" >
  <circle cx="4.50502" cy="400.06" r="0.8947" stroke-width="0.5" stroke="black" fill="red"/>
  <circle cx="4.50502" cy="400.06" r="0.62035" stroke-width="0.5" stroke="red" fill="red"/>
   </g>
   <g id="cell174" type="Red Bacteria" dead="false" >
  <circle cx="341.83" cy="103.287" r="0.8947" stroke-width="0.5" stroke="black" fill="red"/>
  <circle cx="341.83" cy="103.287" r="0.62035" stroke-width="0.5" stroke="red" fill="red"/>
   </g>
   <g id="cell175" type="Red Bacteria" dead="false" >
  <circle cx="66.6847" cy="119.868" r="0.8947" stroke-width="0.5" stroke="black" fill="red"/>
  <circle cx="66.6847" cy="119.868" r="0.62035" stroke-width="0.5" stroke="red" fill="red"/>
   </g>
   <g id="cell176" type="Red Bacteria" dead="false" >
  <circle cx="79.3643" cy="258.901" r="0.8947" stroke-width="0.5" stroke="black" fill="red"/>
  <circle cx="79.3643" cy="258.901" r="0.62035" stroke-width="0.5" stroke="red" fill="red"/>
   </g>
   <g id="cell177" type="Red Bacteria" dead="false" >
  <circle cx="-0.0437571" cy="387.424" r="0.8947" stroke-width="0.5" stroke="black" fill="red"/>
  <circle cx="-0.0437571" cy="387.424" r="0.62035" stroke-width="0.5" stroke="red" fill="red"/>
   </g>
   <g id="cell178" type="Red Bacteria" dead="false" >
  <circle cx="83.9365" cy="260.122" r="0.8947" stroke-width="0.5" stroke="black" fill="red"/>
  <circle cx="83.9365" cy="260.122" r="0.62035" stroke-width="0.5" stroke="red" fill="red"/>
   </g>
   <g id="cell179" type="Red Bacteria" dead="false" >
  <circle cx="400.029" cy="277.136" r="0.8947" stroke-width="0.5" stroke="black" fill="red"/>
  <circle cx="400.029" cy="277.136" r="0.62035" stroke-width="0.5" stroke="red" fill="red"/>
   </g>
   <g id="cell180" type="Red Bacteria" dead="false" >
  <circle cx="392.09" cy="220.322" r="0.8947" stroke-width="0.5" stroke="black" fill="red"/>
  <circle cx="392.09" cy="220.322" r="0.62035" stroke-width="0.5" stroke="red" fill="red"/>
   </g>
   <g id="cell181" type="Red Bacteria" dead="false" >
  <circle cx="276.695" cy="140.252" r="0.8947" stroke-width="0.5" stroke="black" fill="red"/>
  <circle cx="276.695" cy="140.252" r="0.62035" stroke-width="0.5" stroke="red" fill="red"/>
   </g>
   <g id="cell182" type="Red Bacteria" dead="false" >
  <circle cx="19.8207" cy="381.046" r="0.8947" stroke-width="0.5" stroke="black" fill="red"/>
  <circle cx="19.8207" cy="381.046" r="0.62035" stroke-width="0.5" stroke="red" fill="red"/>
   </g>
   <g id="cell183" type="Red Bacteria" dead="false" >
  <circle cx="339.448" cy="112.305" r="0.8947" stroke-width="0.5" stroke="black" fill="red"/>
  <circle cx="339.448" cy="112.305" r="0.62035" stroke-width="0.5" stroke="red" fill="red"/>
   </g>
   <g id="cell184" type="Red Bacteria" dead="false" >
  <circle cx="-0.0567725" cy="40.0386" r="0.8947" stroke-width="0.5" stroke="black" fill="red"/>
  <circle cx="-0.0567725" cy="40.0386" r="0.62035" stroke-width="0.5" stroke="red" fill="red"/>
   </g>
   <g id="cell185" type="Red Bacteria" dead="false" >
  <circle cx="-0.00915274" cy="388.82" r="0.8947" stroke-width="0.5" stroke="black" fill="red"/>
  <circle cx="-0.00915274" cy="388.82" r="0.62035" stroke-width="0.5" stroke="red" fill="red"/>
   </g>
   <g id="cell186" type="Red Bacteria" dead="false" >
  <circle cx="200.451" cy="10.8754" r="0.8947" stroke-width="0.5" stroke="black" fill="red"/>
  <circle cx="200.451" cy="10.8754" r="0.62035" stroke-width="0.5" stroke="red" fill="red"/>
   </g>
   <g id="cell187" type="Red Bacteria" dead="false" >
  <circle cx="42.8785" cy="400.077" r="0.8947" stroke-width="0.5" stroke="black" fill="red"/>
  <circle cx="42.8785" cy="400.077" r="0.62035" stroke-width="0.5" stroke="red" fill="red"/>
   </g>
  </g>
 </g>
  <rect x="190" y="414" width="200" height="4" stroke-width="0.8" stroke="rgb(255,255,255)" fill="rgb(0,0,0)"/>
  <text x="192.5" y="411.5"
   font-family="Arial" font-size="10" fill="black" >
   200 &#956;m
  </text>
  <text x="10" y="418"
   font-family="Arial" font-size="7.5" fill="black" >
   0 days, 0 hours, 0 minutes, and 6.5439 seconds
  </text>
  <rect x="0" y="28" width="400" height="400" stroke-width="0.8" stroke="rgb(0,0,0)" fill="none"/>
</svg>
