<?xml version="1.0" encoding="UTF-8" standalone="no"?>
<!-- Created with PhysiCell (http://PhysiCell.MathCancer.org/) -->
<svg 
 xmlns:dc="http://purl.org/dc/elements/1.1/" 
 xmlns:cc="http://creativecommons.org/ns#" 
 xmlns:rdf="http://www.w3.org/1999/02/22-rdf-syntax-ns#" 
 xmlns:svg="http://www.w3.org/2000/svg" 
 xmlns="http://www.w3.org/2000/svg" 
 version="1.1" 
 width="400" 
 height="428" 
 id="svg2">
  <rect x="0" y="0" width="400" height="428" stroke-width="0.8" stroke="white" fill="white"/>
  <text x="5" y="12"
   font-family="Arial" font-size="10" fill="black" >
   Current time: 2 days, 20 hours, and 0.00 minutes, z = 0.00 &#956;m
  </text>
  <text x="5" y="23"
   font-family="Arial" font-size="9.5" fill="black" >
   180 agents
  </text>
 <g id="tissue" 
    transform="translate(0,428) scale(1,-1)">
  <g id="ECM">
  </g>
  <g id="cells">
   <g id="cell0" type="Blue Bacteria" dead="false" >
  <circle cx="62.7437" cy="400.041" r="0.750869" stroke-width="0.5" stroke="black" fill="grey"/>
  <circle cx="62.7437" cy="400.041" r="2.88283e-34" stroke-width="0.5" stroke="grey" fill="grey"/>
   </g>
   <g id="cell1" type="Blue Bacteria" dead="false" >
  <circle cx="285.947" cy="279.355" r="0.00171498" stroke-width="0.5" stroke="black" fill="grey"/>
  <circle cx="285.947" cy="279.355" r="3.11176e-34" stroke-width="0.5" stroke="grey" fill="grey"/>
   </g>
   <g id="cell190" type="Red Bacteria" dead="false" >
  <circle cx="320.032" cy="13.7495" r="0.8947" stroke-width="0.5" stroke="black" fill="red"/>
  <circle cx="320.032" cy="13.7495" r="0.62035" stroke-width="0.5" stroke="red" fill="red"/>
   </g>
   <g id="cell3" type="Blue Bacteria" dead="false" >
  <circle cx="400.001" cy="147.982" r="0.427104" stroke-width="0.5" stroke="black" fill="grey"/>
  <circle cx="400.001" cy="147.982" r="3.10601e-34" stroke-width="0.5" stroke="grey" fill="grey"/>
   </g>
   <g id="cell4" type="Blue Bacteria" dead="false" >
  <circle cx="362.929" cy="141.873" r="0.00171498" stroke-width="0.5" stroke="black" fill="grey"/>
  <circle cx="362.929" cy="141.873" r="3.11176e-34" stroke-width="0.5" stroke="grey" fill="grey"/>
   </g>
   <g id="cell5" type="Blue Bacteria" dead="false" >
  <circle cx="165.021" cy="290.951" r="0.00171498" stroke-width="0.5" stroke="black" fill="grey"/>
  <circle cx="165.021" cy="290.951" r="3.11176e-34" stroke-width="0.5" stroke="grey" fill="grey"/>
   </g>
   <g id="cell6" type="Blue Bacteria" dead="false" >
  <circle cx="306.705" cy="37.8447" r="0.00171498" stroke-width="0.5" stroke="black" fill="grey"/>
  <circle cx="306.705" cy="37.8447" r="3.11176e-34" stroke-width="0.5" stroke="grey" fill="grey"/>
   </g>
   <g id="cell7" type="Blue Bacteria" dead="false" >
  <circle cx="287.088" cy="290.712" r="0.00171498" stroke-width="0.5" stroke="black" fill="grey"/>
  <circle cx="287.088" cy="290.712" r="3.11176e-34" stroke-width="0.5" stroke="grey" fill="grey"/>
   </g>
   <g id="cell193" type="Red Bacteria" dead="false" >
  <circle cx="340.302" cy="220.557" r="0.8947" stroke-width="0.5" stroke="black" fill="red"/>
  <circle cx="340.302" cy="220.557" r="0.62035" stroke-width="0.5" stroke="red" fill="red"/>
   </g>
   <g id="cell9" type="Blue Bacteria" dead="false" >
  <circle cx="267.495" cy="72.5391" r="0.00171498" stroke-width="0.5" stroke="black" fill="grey"/>
  <circle cx="267.495" cy="72.5391" r="3.11176e-34" stroke-width="0.5" stroke="grey" fill="grey"/>
   </g>
   <g id="cell10" type="Blue Bacteria" dead="false" >
  <circle cx="-0.0807947" cy="41.6875" r="0.0323703" stroke-width="0.5" stroke="black" fill="grey"/>
  <circle cx="-0.0807947" cy="41.6875" r="3.11176e-34" stroke-width="0.5" stroke="grey" fill="grey"/>
   </g>
   <g id="cell11" type="Blue Bacteria" dead="false" >
  <circle cx="116.509" cy="400.074" r="0.393756" stroke-width="0.5" stroke="black" fill="grey"/>
  <circle cx="116.509" cy="400.074" r="3.10812e-34" stroke-width="0.5" stroke="grey" fill="grey"/>
   </g>
   <g id="cell12" type="Blue Bacteria" dead="false" >
  <circle cx="96.7582" cy="400.012" r="0.00419346" stroke-width="0.5" stroke="black" fill="grey"/>
  <circle cx="96.7582" cy="400.012" r="3.11176e-34" stroke-width="0.5" stroke="grey" fill="grey"/>
   </g>
   <g id="cell182" type="Red Bacteria" dead="false" >
  <circle cx="-0.00131308" cy="383.429" r="0.8947" stroke-width="0.5" stroke="black" fill="red"/>
  <circle cx="-0.00131308" cy="383.429" r="0.62035" stroke-width="0.5" stroke="red" fill="red"/>
   </g>
   <g id="cell14" type="Blue Bacteria" dead="false" >
  <circle cx="139.539" cy="400.062" r="0.213964" stroke-width="0.5" stroke="black" fill="grey"/>
  <circle cx="139.539" cy="400.062" r="3.11164e-34" stroke-width="0.5" stroke="grey" fill="grey"/>
   </g>
   <g id="cell15" type="Blue Bacteria" dead="false" >
  <circle cx="284.044" cy="151.704" r="0.00171498" stroke-width="0.5" stroke="black" fill="grey"/>
  <circle cx="284.044" cy="151.704" r="3.11176e-34" stroke-width="0.5" stroke="grey" fill="grey"/>
   </g>
   <g id="cell16" type="Blue Bacteria" dead="false" >
  <circle cx="41.1937" cy="241.486" r="0.00171498" stroke-width="0.5" stroke="black" fill="grey"/>
  <circle cx="41.1937" cy="241.486" r="3.11176e-34" stroke-width="0.5" stroke="grey" fill="grey"/>
   </g>
   <g id="cell17" type="Blue Bacteria" dead="false" >
  <circle cx="150.936" cy="-0.0356064" r="0.0433455" stroke-width="0.5" stroke="black" fill="grey"/>
  <circle cx="150.936" cy="-0.0356064" r="3.11176e-34" stroke-width="0.5" stroke="grey" fill="grey"/>
   </g>
   <g id="cell192" type="Red Bacteria" dead="false" >
  <circle cx="120.267" cy="125.228" r="0.8947" stroke-width="0.5" stroke="black" fill="red"/>
  <circle cx="120.267" cy="125.228" r="0.62035" stroke-width="0.5" stroke="red" fill="red"/>
   </g>
   <g id="cell19" type="Blue Bacteria" dead="false" >
  <circle cx="281.899" cy="98.0365" r="0.00171498" stroke-width="0.5" stroke="black" fill="grey"/>
  <circle cx="281.899" cy="98.0365" r="3.11176e-34" stroke-width="0.5" stroke="grey" fill="grey"/>
   </g>
   <g id="cell20" type="Blue Bacteria" dead="false" >
  <circle cx="400.021" cy="266.216" r="0.252135" stroke-width="0.5" stroke="black" fill="grey"/>
  <circle cx="400.021" cy="266.216" r="3.11145e-34" stroke-width="0.5" stroke="grey" fill="grey"/>
   </g>
   <g id="cell21" type="Blue Bacteria" dead="false" >
  <circle cx="280.934" cy="117.661" r="0.00171498" stroke-width="0.5" stroke="black" fill="grey"/>
  <circle cx="280.934" cy="117.661" r="3.11176e-34" stroke-width="0.5" stroke="grey" fill="grey"/>
   </g>
   <g id="cell22" type="Blue Bacteria" dead="false" >
  <circle cx="-0.038524" cy="50.8087" r="0.0859256" stroke-width="0.5" stroke="black" fill="grey"/>
  <circle cx="-0.038524" cy="50.8087" r="3.11176e-34" stroke-width="0.5" stroke="grey" fill="grey"/>
   </g>
   <g id="cell23" type="Blue Bacteria" dead="false" >
  <circle cx="168.94" cy="239.402" r="0.00171498" stroke-width="0.5" stroke="black" fill="grey"/>
  <circle cx="168.94" cy="239.402" r="3.11176e-34" stroke-width="0.5" stroke="grey" fill="grey"/>
   </g>
   <g id="cell24" type="Blue Bacteria" dead="false" >
  <circle cx="276.443" cy="384.908" r="0.00171498" stroke-width="0.5" stroke="black" fill="grey"/>
  <circle cx="276.443" cy="384.908" r="3.11176e-34" stroke-width="0.5" stroke="grey" fill="grey"/>
   </g>
   <g id="cell25" type="Blue Bacteria" dead="false" >
  <circle cx="-0.0424049" cy="84.7218" r="0.646103" stroke-width="0.5" stroke="black" fill="grey"/>
  <circle cx="-0.0424049" cy="84.7218" r="3.04418e-34" stroke-width="0.5" stroke="grey" fill="grey"/>
   </g>
   <g id="cell187" type="Red Bacteria" dead="false" >
  <circle cx="120.264" cy="130.331" r="0.8947" stroke-width="0.5" stroke="black" fill="red"/>
  <circle cx="120.264" cy="130.331" r="0.62035" stroke-width="0.5" stroke="red" fill="red"/>
   </g>
   <g id="cell27" type="Blue Bacteria" dead="false" >
  <circle cx="298.285" cy="346.847" r="0.00171498" stroke-width="0.5" stroke="black" fill="grey"/>
  <circle cx="298.285" cy="346.847" r="3.11176e-34" stroke-width="0.5" stroke="grey" fill="grey"/>
   </g>
   <g id="cell28" type="Blue Bacteria" dead="false" >
  <circle cx="321.112" cy="2.97155" r="0.00171498" stroke-width="0.5" stroke="black" fill="grey"/>
  <circle cx="321.112" cy="2.97155" r="3.11176e-34" stroke-width="0.5" stroke="grey" fill="grey"/>
   </g>
   <g id="cell29" type="Blue Bacteria" dead="false" >
  <circle cx="266.944" cy="74.8375" r="0.00171498" stroke-width="0.5" stroke="black" fill="grey"/>
  <circle cx="266.944" cy="74.8375" r="3.11176e-34" stroke-width="0.5" stroke="grey" fill="grey"/>
   </g>
   <g id="cell30" type="Blue Bacteria" dead="true" >
  <circle cx="286.745" cy="246.284" r="0.00142775" stroke-width="0.5" stroke="black" fill="grey"/>
  <circle cx="286.745" cy="246.284" r="2.63382e-34" stroke-width="0.5" stroke="black" fill="black"/>
   </g>
   <g id="cell31" type="Blue Bacteria" dead="false" >
  <circle cx="133.591" cy="400.077" r="0.750869" stroke-width="0.5" stroke="black" fill="grey"/>
  <circle cx="133.591" cy="400.077" r="2.88283e-34" stroke-width="0.5" stroke="grey" fill="grey"/>
   </g>
   <g id="cell32" type="Blue Bacteria" dead="false" >
  <circle cx="400.093" cy="222.591" r="0.0295477" stroke-width="0.5" stroke="black" fill="grey"/>
  <circle cx="400.093" cy="222.591" r="3.11176e-34" stroke-width="0.5" stroke="grey" fill="grey"/>
   </g>
   <g id="cell33" type="Blue Bacteria" dead="false" >
  <circle cx="349.088" cy="238.805" r="0.00171498" stroke-width="0.5" stroke="black" fill="grey"/>
  <circle cx="349.088" cy="238.805" r="3.11176e-34" stroke-width="0.5" stroke="grey" fill="grey"/>
   </g>
   <g id="cell34" type="Blue Bacteria" dead="false" >
  <circle cx="260.607" cy="-0.0639429" r="0.310924" stroke-width="0.5" stroke="black" fill="grey"/>
  <circle cx="260.607" cy="-0.0639429" r="3.11078e-34" stroke-width="0.5" stroke="grey" fill="grey"/>
   </g>
   <g id="cell35" type="Blue Bacteria" dead="false" >
  <circle cx="264.432" cy="381.244" r="0.00171498" stroke-width="0.5" stroke="black" fill="grey"/>
  <circle cx="264.432" cy="381.244" r="3.11176e-34" stroke-width="0.5" stroke="grey" fill="grey"/>
   </g>
   <g id="cell36" type="Blue Bacteria" dead="false" >
  <circle cx="290.239" cy="130.408" r="0.00171498" stroke-width="0.5" stroke="black" fill="grey"/>
  <circle cx="290.239" cy="130.408" r="3.11176e-34" stroke-width="0.5" stroke="grey" fill="grey"/>
   </g>
   <g id="cell37" type="Blue Bacteria" dead="false" >
  <circle cx="273.786" cy="400.032" r="0.704035" stroke-width="0.5" stroke="black" fill="grey"/>
  <circle cx="273.786" cy="400.032" r="2.98447e-34" stroke-width="0.5" stroke="grey" fill="grey"/>
   </g>
   <g id="cell38" type="Blue Bacteria" dead="false" >
  <circle cx="102.02" cy="261.19" r="0.00171498" stroke-width="0.5" stroke="black" fill="grey"/>
  <circle cx="102.02" cy="261.19" r="3.11176e-34" stroke-width="0.5" stroke="grey" fill="grey"/>
   </g>
   <g id="cell39" type="Blue Bacteria" dead="false" >
  <circle cx="284.119" cy="314.906" r="0.00171498" stroke-width="0.5" stroke="black" fill="grey"/>
  <circle cx="284.119" cy="314.906" r="3.11176e-34" stroke-width="0.5" stroke="grey" fill="grey"/>
   </g>
   <g id="cell40" type="Blue Bacteria" dead="false" >
  <circle cx="400.067" cy="302.273" r="0.366212" stroke-width="0.5" stroke="black" fill="grey"/>
  <circle cx="400.067" cy="302.273" r="3.10933e-34" stroke-width="0.5" stroke="grey" fill="grey"/>
   </g>
   <g id="cell183" type="Red Bacteria" dead="false" >
  <circle cx="360.076" cy="241.7" r="0.8947" stroke-width="0.5" stroke="black" fill="red"/>
  <circle cx="360.076" cy="241.7" r="0.62035" stroke-width="0.5" stroke="red" fill="red"/>
   </g>
   <g id="cell194" type="Red Bacteria" dead="false" >
  <circle cx="239.467" cy="400.017" r="0.8947" stroke-width="0.5" stroke="black" fill="red"/>
  <circle cx="239.467" cy="400.017" r="0.62035" stroke-width="0.5" stroke="red" fill="red"/>
   </g>
   <g id="cell43" type="Blue Bacteria" dead="false" >
  <circle cx="51.2685" cy="285.358" r="0.00171498" stroke-width="0.5" stroke="black" fill="grey"/>
  <circle cx="51.2685" cy="285.358" r="3.11176e-34" stroke-width="0.5" stroke="grey" fill="grey"/>
   </g>
   <g id="cell44" type="Blue Bacteria" dead="false" >
  <circle cx="168.804" cy="-0.0118758" r="0.236544" stroke-width="0.5" stroke="black" fill="grey"/>
  <circle cx="168.804" cy="-0.0118758" r="3.11154e-34" stroke-width="0.5" stroke="grey" fill="grey"/>
   </g>
   <g id="cell45" type="Blue Bacteria" dead="false" >
  <circle cx="327.248" cy="222.937" r="0.00171498" stroke-width="0.5" stroke="black" fill="grey"/>
  <circle cx="327.248" cy="222.937" r="3.11176e-34" stroke-width="0.5" stroke="grey" fill="grey"/>
   </g>
   <g id="cell46" type="Blue Bacteria" dead="false" >
  <circle cx="157.308" cy="261.298" r="0.00171498" stroke-width="0.5" stroke="black" fill="grey"/>
  <circle cx="157.308" cy="261.298" r="3.11176e-34" stroke-width="0.5" stroke="grey" fill="grey"/>
   </g>
   <g id="cell47" type="Blue Bacteria" dead="false" >
  <circle cx="275.45" cy="324.904" r="0.00171498" stroke-width="0.5" stroke="black" fill="grey"/>
  <circle cx="275.45" cy="324.904" r="3.11176e-34" stroke-width="0.5" stroke="grey" fill="grey"/>
   </g>
   <g id="cell48" type="Blue Bacteria" dead="false" >
  <circle cx="69.9233" cy="187.834" r="0.00171498" stroke-width="0.5" stroke="black" fill="grey"/>
  <circle cx="69.9233" cy="187.834" r="3.11176e-34" stroke-width="0.5" stroke="grey" fill="grey"/>
   </g>
   <g id="cell49" type="Blue Bacteria" dead="false" >
  <circle cx="291.501" cy="175.866" r="0.00171498" stroke-width="0.5" stroke="black" fill="grey"/>
  <circle cx="291.501" cy="175.866" r="3.11176e-34" stroke-width="0.5" stroke="grey" fill="grey"/>
   </g>
   <g id="cell188" type="Red Bacteria" dead="false" >
  <circle cx="260.505" cy="200.088" r="0.8947" stroke-width="0.5" stroke="black" fill="red"/>
  <circle cx="260.505" cy="200.088" r="0.62035" stroke-width="0.5" stroke="red" fill="red"/>
   </g>
   <g id="cell51" type="Blue Bacteria" dead="false" >
  <circle cx="-0.0790557" cy="177.301" r="0.533455" stroke-width="0.5" stroke="black" fill="grey"/>
  <circle cx="-0.0790557" cy="177.301" r="3.09121e-34" stroke-width="0.5" stroke="grey" fill="grey"/>
   </g>
   <g id="cell52" type="Blue Bacteria" dead="false" >
  <circle cx="400.024" cy="61.4948" r="0.675785" stroke-width="0.5" stroke="black" fill="grey"/>
  <circle cx="400.024" cy="61.4948" r="3.01906e-34" stroke-width="0.5" stroke="grey" fill="grey"/>
   </g>
   <g id="cell53" type="Blue Bacteria" dead="false" >
  <circle cx="110.901" cy="165.293" r="0.00171498" stroke-width="0.5" stroke="black" fill="grey"/>
  <circle cx="110.901" cy="165.293" r="3.11176e-34" stroke-width="0.5" stroke="grey" fill="grey"/>
   </g>
   <g id="cell54" type="Blue Bacteria" dead="false" >
  <circle cx="-0.0688068" cy="235.309" r="0.0105384" stroke-width="0.5" stroke="black" fill="grey"/>
  <circle cx="-0.0688068" cy="235.309" r="3.11176e-34" stroke-width="0.5" stroke="grey" fill="grey"/>
   </g>
   <g id="cell55" type="Blue Bacteria" dead="false" >
  <circle cx="332.537" cy="210.369" r="0.00171498" stroke-width="0.5" stroke="black" fill="grey"/>
  <circle cx="332.537" cy="210.369" r="3.11176e-34" stroke-width="0.5" stroke="grey" fill="grey"/>
   </g>
   <g id="cell56" type="Blue Bacteria" dead="false" >
  <circle cx="148.149" cy="141.291" r="0.00171498" stroke-width="0.5" stroke="black" fill="grey"/>
  <circle cx="148.149" cy="141.291" r="3.11176e-34" stroke-width="0.5" stroke="grey" fill="grey"/>
   </g>
   <g id="cell57" type="Blue Bacteria" dead="false" >
  <circle cx="-0.0234335" cy="145.483" r="0.00854356" stroke-width="0.5" stroke="black" fill="grey"/>
  <circle cx="-0.0234335" cy="145.483" r="3.11176e-34" stroke-width="0.5" stroke="grey" fill="grey"/>
   </g>
   <g id="cell58" type="Blue Bacteria" dead="false" >
  <circle cx="266.888" cy="211.377" r="0.00171498" stroke-width="0.5" stroke="black" fill="grey"/>
  <circle cx="266.888" cy="211.377" r="3.11176e-34" stroke-width="0.5" stroke="grey" fill="grey"/>
   </g>
   <g id="cell59" type="Blue Bacteria" dead="false" >
  <circle cx="334.835" cy="351.141" r="0.00171498" stroke-width="0.5" stroke="black" fill="grey"/>
  <circle cx="334.835" cy="351.141" r="3.11176e-34" stroke-width="0.5" stroke="grey" fill="grey"/>
   </g>
   <g id="cell60" type="Blue Bacteria" dead="false" >
  <circle cx="308.574" cy="400.002" r="0.322454" stroke-width="0.5" stroke="black" fill="grey"/>
  <circle cx="308.574" cy="400.002" r="3.11056e-34" stroke-width="0.5" stroke="grey" fill="grey"/>
   </g>
   <g id="cell61" type="Blue Bacteria" dead="false" >
  <circle cx="165.018" cy="400.002" r="0.22807" stroke-width="0.5" stroke="black" fill="grey"/>
  <circle cx="165.018" cy="400.002" r="3.11158e-34" stroke-width="0.5" stroke="grey" fill="grey"/>
   </g>
   <g id="cell62" type="Blue Bacteria" dead="false" >
  <circle cx="272.41" cy="263.907" r="0.00171498" stroke-width="0.5" stroke="black" fill="grey"/>
  <circle cx="272.41" cy="263.907" r="3.11176e-34" stroke-width="0.5" stroke="grey" fill="grey"/>
   </g>
   <g id="cell63" type="Blue Bacteria" dead="false" >
  <circle cx="353.24" cy="234.098" r="0.00171498" stroke-width="0.5" stroke="black" fill="grey"/>
  <circle cx="353.24" cy="234.098" r="3.11176e-34" stroke-width="0.5" stroke="grey" fill="grey"/>
   </g>
   <g id="cell64" type="Blue Bacteria" dead="false" >
  <circle cx="293.445" cy="81.1376" r="0.00171498" stroke-width="0.5" stroke="black" fill="grey"/>
  <circle cx="293.445" cy="81.1376" r="3.11176e-34" stroke-width="0.5" stroke="grey" fill="grey"/>
   </g>
   <g id="cell65" type="Blue Bacteria" dead="false" >
  <circle cx="323.464" cy="400.074" r="0.00186175" stroke-width="0.5" stroke="black" fill="grey"/>
  <circle cx="323.464" cy="400.074" r="3.11176e-34" stroke-width="0.5" stroke="grey" fill="grey"/>
   </g>
   <g id="cell66" type="Blue Bacteria" dead="false" >
  <circle cx="275.999" cy="284.979" r="0.00171498" stroke-width="0.5" stroke="black" fill="grey"/>
  <circle cx="275.999" cy="284.979" r="3.11176e-34" stroke-width="0.5" stroke="grey" fill="grey"/>
   </g>
   <g id="cell67" type="Blue Bacteria" dead="false" >
  <circle cx="292.826" cy="115.111" r="0.00171498" stroke-width="0.5" stroke="black" fill="grey"/>
  <circle cx="292.826" cy="115.111" r="3.11176e-34" stroke-width="0.5" stroke="grey" fill="grey"/>
   </g>
   <g id="cell68" type="Blue Bacteria" dead="false" >
  <circle cx="317.805" cy="351.248" r="0.00171498" stroke-width="0.5" stroke="black" fill="grey"/>
  <circle cx="317.805" cy="351.248" r="3.11176e-34" stroke-width="0.5" stroke="grey" fill="grey"/>
   </g>
   <g id="cell184" type="Red Bacteria" dead="false" >
  <circle cx="400.023" cy="7.65816" r="0.8947" stroke-width="0.5" stroke="black" fill="red"/>
  <circle cx="400.023" cy="7.65816" r="0.62035" stroke-width="0.5" stroke="red" fill="red"/>
   </g>
   <g id="cell70" type="Blue Bacteria" dead="false" >
  <circle cx="380.058" cy="100.825" r="0.00171498" stroke-width="0.5" stroke="black" fill="grey"/>
  <circle cx="380.058" cy="100.825" r="3.11176e-34" stroke-width="0.5" stroke="grey" fill="grey"/>
   </g>
   <g id="cell71" type="Blue Bacteria" dead="false" >
  <circle cx="101.515" cy="333.337" r="0.00171498" stroke-width="0.5" stroke="black" fill="grey"/>
  <circle cx="101.515" cy="333.337" r="3.11176e-34" stroke-width="0.5" stroke="grey" fill="grey"/>
   </g>
   <g id="cell72" type="Blue Bacteria" dead="false" >
  <circle cx="380.222" cy="400.005" r="0.591138" stroke-width="0.5" stroke="black" fill="grey"/>
  <circle cx="380.222" cy="400.005" r="3.07365e-34" stroke-width="0.5" stroke="grey" fill="grey"/>
   </g>
   <g id="cell73" type="Blue Bacteria" dead="false" >
  <circle cx="188.572" cy="304.442" r="0.00171498" stroke-width="0.5" stroke="black" fill="grey"/>
  <circle cx="188.572" cy="304.442" r="3.11176e-34" stroke-width="0.5" stroke="grey" fill="grey"/>
   </g>
   <g id="cell74" type="Blue Bacteria" dead="false" >
  <circle cx="-0.00554925" cy="3.07738" r="0.561854" stroke-width="0.5" stroke="black" fill="grey"/>
  <circle cx="-0.00554925" cy="3.07738" r="3.0838e-34" stroke-width="0.5" stroke="grey" fill="grey"/>
   </g>
   <g id="cell75" type="Blue Bacteria" dead="false" >
  <circle cx="283.475" cy="247.152" r="0.00171498" stroke-width="0.5" stroke="black" fill="grey"/>
  <circle cx="283.475" cy="247.152" r="3.11176e-34" stroke-width="0.5" stroke="grey" fill="grey"/>
   </g>
   <g id="cell76" type="Blue Bacteria" dead="false" >
  <circle cx="324.012" cy="330.106" r="0.00171498" stroke-width="0.5" stroke="black" fill="grey"/>
  <circle cx="324.012" cy="330.106" r="3.11176e-34" stroke-width="0.5" stroke="grey" fill="grey"/>
   </g>
   <g id="cell77" type="Blue Bacteria" dead="false" >
  <circle cx="303.458" cy="400.013" r="0.0146359" stroke-width="0.5" stroke="black" fill="grey"/>
  <circle cx="303.458" cy="400.013" r="3.11176e-34" stroke-width="0.5" stroke="grey" fill="grey"/>
   </g>
   <g id="cell78" type="Blue Bacteria" dead="false" >
  <circle cx="270.648" cy="400.005" r="0.221914" stroke-width="0.5" stroke="black" fill="grey"/>
  <circle cx="270.648" cy="400.005" r="3.11161e-34" stroke-width="0.5" stroke="grey" fill="grey"/>
   </g>
   <g id="cell79" type="Blue Bacteria" dead="false" >
  <circle cx="286.091" cy="83.079" r="0.00171498" stroke-width="0.5" stroke="black" fill="grey"/>
  <circle cx="286.091" cy="83.079" r="3.11176e-34" stroke-width="0.5" stroke="grey" fill="grey"/>
   </g>
   <g id="cell80" type="Blue Bacteria" dead="false" >
  <circle cx="312.117" cy="131.172" r="0.00171498" stroke-width="0.5" stroke="black" fill="grey"/>
  <circle cx="312.117" cy="131.172" r="3.11176e-34" stroke-width="0.5" stroke="grey" fill="grey"/>
   </g>
   <g id="cell198" type="Red Bacteria" dead="false" >
  <circle cx="121.115" cy="131.331" r="0.8947" stroke-width="0.5" stroke="black" fill="red"/>
  <circle cx="121.115" cy="131.331" r="0.62035" stroke-width="0.5" stroke="red" fill="red"/>
   </g>
   <g id="cell82" type="Blue Bacteria" dead="false" >
  <circle cx="333.489" cy="148.286" r="0.00171498" stroke-width="0.5" stroke="black" fill="grey"/>
  <circle cx="333.489" cy="148.286" r="3.11176e-34" stroke-width="0.5" stroke="grey" fill="grey"/>
   </g>
   <g id="cell83" type="Blue Bacteria" dead="false" >
  <circle cx="287.792" cy="400.001" r="0.02823" stroke-width="0.5" stroke="black" fill="grey"/>
  <circle cx="287.792" cy="400.001" r="3.11176e-34" stroke-width="0.5" stroke="grey" fill="grey"/>
   </g>
   <g id="cell84" type="Blue Bacteria" dead="false" >
  <circle cx="214.276" cy="400.038" r="0.164228" stroke-width="0.5" stroke="black" fill="grey"/>
  <circle cx="214.276" cy="400.038" r="3.11173e-34" stroke-width="0.5" stroke="grey" fill="grey"/>
   </g>
   <g id="cell85" type="Blue Bacteria" dead="false" >
  <circle cx="173.333" cy="131.353" r="0.00171498" stroke-width="0.5" stroke="black" fill="grey"/>
  <circle cx="173.333" cy="131.353" r="3.11176e-34" stroke-width="0.5" stroke="grey" fill="grey"/>
   </g>
   <g id="cell189" type="Red Bacteria" dead="false" >
  <circle cx="-0.0446946" cy="59.9989" r="0.8947" stroke-width="0.5" stroke="black" fill="red"/>
  <circle cx="-0.0446946" cy="59.9989" r="0.62035" stroke-width="0.5" stroke="red" fill="red"/>
   </g>
   <g id="cell87" type="Blue Bacteria" dead="false" >
  <circle cx="400.008" cy="251.694" r="0.74295" stroke-width="0.5" stroke="black" fill="grey"/>
  <circle cx="400.008" cy="251.694" r="2.90374e-34" stroke-width="0.5" stroke="grey" fill="grey"/>
   </g>
   <g id="cell88" type="Blue Bacteria" dead="false" >
  <circle cx="290.427" cy="318.918" r="0.00171498" stroke-width="0.5" stroke="black" fill="grey"/>
  <circle cx="290.427" cy="318.918" r="3.11176e-34" stroke-width="0.5" stroke="grey" fill="grey"/>
   </g>
   <g id="cell89" type="Blue Bacteria" dead="false" >
  <circle cx="131.734" cy="188.644" r="0.00171498" stroke-width="0.5" stroke="black" fill="grey"/>
  <circle cx="131.734" cy="188.644" r="3.11176e-34" stroke-width="0.5" stroke="grey" fill="grey"/>
   </g>
   <g id="cell185" type="Red Bacteria" dead="false" >
  <circle cx="17.3851" cy="400.084" r="0.8947" stroke-width="0.5" stroke="black" fill="red"/>
  <circle cx="17.3851" cy="400.084" r="0.62035" stroke-width="0.5" stroke="red" fill="red"/>
   </g>
   <g id="cell91" type="Blue Bacteria" dead="false" >
  <circle cx="269.712" cy="-0.0961623" r="0.626048" stroke-width="0.5" stroke="black" fill="grey"/>
  <circle cx="269.712" cy="-0.0961623" r="3.05694e-34" stroke-width="0.5" stroke="grey" fill="grey"/>
   </g>
   <g id="cell92" type="Blue Bacteria" dead="false" >
  <circle cx="60.495" cy="100.1" r="0.00171498" stroke-width="0.5" stroke="black" fill="grey"/>
  <circle cx="60.495" cy="100.1" r="3.11176e-34" stroke-width="0.5" stroke="grey" fill="grey"/>
   </g>
   <g id="cell93" type="Blue Bacteria" dead="false" >
  <circle cx="133.239" cy="214.136" r="0.00171498" stroke-width="0.5" stroke="black" fill="grey"/>
  <circle cx="133.239" cy="214.136" r="3.11176e-34" stroke-width="0.5" stroke="grey" fill="grey"/>
   </g>
   <g id="cell94" type="Blue Bacteria" dead="false" >
  <circle cx="400.034" cy="293.845" r="0.454837" stroke-width="0.5" stroke="black" fill="grey"/>
  <circle cx="400.034" cy="293.845" r="3.10355e-34" stroke-width="0.5" stroke="grey" fill="grey"/>
   </g>
   <g id="cell95" type="Blue Bacteria" dead="false" >
  <circle cx="374.922" cy="134.335" r="0.00171498" stroke-width="0.5" stroke="black" fill="grey"/>
  <circle cx="374.922" cy="134.335" r="3.11176e-34" stroke-width="0.5" stroke="grey" fill="grey"/>
   </g>
   <g id="cell96" type="Blue Bacteria" dead="false" >
  <circle cx="364.287" cy="400.053" r="0.0312103" stroke-width="0.5" stroke="black" fill="grey"/>
  <circle cx="364.287" cy="400.053" r="3.11176e-34" stroke-width="0.5" stroke="grey" fill="grey"/>
   </g>
   <g id="cell97" type="Blue Bacteria" dead="false" >
  <circle cx="344.464" cy="181.158" r="0.00171498" stroke-width="0.5" stroke="black" fill="grey"/>
  <circle cx="344.464" cy="181.158" r="3.11176e-34" stroke-width="0.5" stroke="grey" fill="grey"/>
   </g>
   <g id="cell98" type="Blue Bacteria" dead="false" >
  <circle cx="356.211" cy="400.103" r="0.103126" stroke-width="0.5" stroke="black" fill="grey"/>
  <circle cx="356.211" cy="400.103" r="3.11176e-34" stroke-width="0.5" stroke="grey" fill="grey"/>
   </g>
   <g id="cell99" type="Blue Bacteria" dead="false" >
  <circle cx="400.033" cy="95.4626" r="0.561854" stroke-width="0.5" stroke="black" fill="grey"/>
  <circle cx="400.033" cy="95.4626" r="3.0838e-34" stroke-width="0.5" stroke="grey" fill="grey"/>
   </g>
   <g id="cell100" type="Red Bacteria" dead="false" >
  <circle cx="341.858" cy="218.296" r="0.8947" stroke-width="0.5" stroke="black" fill="red"/>
  <circle cx="341.858" cy="218.296" r="0.62035" stroke-width="0.5" stroke="red" fill="red"/>
   </g>
   <g id="cell101" type="Red Bacteria" dead="false" >
  <circle cx="120.593" cy="139.496" r="0.8947" stroke-width="0.5" stroke="black" fill="red"/>
  <circle cx="120.593" cy="139.496" r="0.62035" stroke-width="0.5" stroke="red" fill="red"/>
   </g>
   <g id="cell186" type="Red Bacteria" dead="false" >
  <circle cx="321.01" cy="-0.0929578" r="0.8947" stroke-width="0.5" stroke="black" fill="red"/>
  <circle cx="321.01" cy="-0.0929578" r="0.62035" stroke-width="0.5" stroke="red" fill="red"/>
   </g>
   <g id="cell103" type="Red Bacteria" dead="false" >
  <circle cx="381.508" cy="400.032" r="0.8947" stroke-width="0.5" stroke="black" fill="red"/>
  <circle cx="381.508" cy="400.032" r="0.62035" stroke-width="0.5" stroke="red" fill="red"/>
   </g>
   <g id="cell104" type="Red Bacteria" dead="false" >
  <circle cx="400.004" cy="388.527" r="0.8947" stroke-width="0.5" stroke="black" fill="red"/>
  <circle cx="400.004" cy="388.527" r="0.62035" stroke-width="0.5" stroke="red" fill="red"/>
   </g>
   <g id="cell105" type="Red Bacteria" dead="false" >
  <circle cx="-0.057472" cy="386.491" r="0.8947" stroke-width="0.5" stroke="black" fill="red"/>
  <circle cx="-0.057472" cy="386.491" r="0.62035" stroke-width="0.5" stroke="red" fill="red"/>
   </g>
   <g id="cell106" type="Red Bacteria" dead="false" >
  <circle cx="120.477" cy="138.036" r="0.8947" stroke-width="0.5" stroke="black" fill="red"/>
  <circle cx="120.477" cy="138.036" r="0.62035" stroke-width="0.5" stroke="red" fill="red"/>
   </g>
   <g id="cell107" type="Red Bacteria" dead="false" >
  <circle cx="390.185" cy="400.023" r="0.8947" stroke-width="0.5" stroke="black" fill="red"/>
  <circle cx="390.185" cy="400.023" r="0.62035" stroke-width="0.5" stroke="red" fill="red"/>
   </g>
   <g id="cell108" type="Red Bacteria" dead="false" >
  <circle cx="160.705" cy="400.062" r="0.8947" stroke-width="0.5" stroke="black" fill="red"/>
  <circle cx="160.705" cy="400.062" r="0.62035" stroke-width="0.5" stroke="red" fill="red"/>
   </g>
   <g id="cell109" type="Red Bacteria" dead="false" >
  <circle cx="363.874" cy="239.254" r="0.8947" stroke-width="0.5" stroke="black" fill="red"/>
  <circle cx="363.874" cy="239.254" r="0.62035" stroke-width="0.5" stroke="red" fill="red"/>
   </g>
   <g id="cell110" type="Red Bacteria" dead="false" >
  <circle cx="400.052" cy="392.99" r="0.8947" stroke-width="0.5" stroke="black" fill="red"/>
  <circle cx="400.052" cy="392.99" r="0.62035" stroke-width="0.5" stroke="red" fill="red"/>
   </g>
   <g id="cell111" type="Red Bacteria" dead="false" >
  <circle cx="127.637" cy="121.372" r="0.8947" stroke-width="0.5" stroke="black" fill="red"/>
  <circle cx="127.637" cy="121.372" r="0.62035" stroke-width="0.5" stroke="red" fill="red"/>
   </g>
   <g id="cell112" type="Red Bacteria" dead="false" >
  <circle cx="262.1" cy="181.808" r="0.8947" stroke-width="0.5" stroke="black" fill="red"/>
  <circle cx="262.1" cy="181.808" r="0.62035" stroke-width="0.5" stroke="red" fill="red"/>
   </g>
   <g id="cell113" type="Red Bacteria" dead="false" >
  <circle cx="157.875" cy="400.036" r="0.8947" stroke-width="0.5" stroke="black" fill="red"/>
  <circle cx="157.875" cy="400.036" r="0.62035" stroke-width="0.5" stroke="red" fill="red"/>
   </g>
   <g id="cell114" type="Red Bacteria" dead="false" >
  <circle cx="-0.0170762" cy="31.3223" r="0.8947" stroke-width="0.5" stroke="black" fill="red"/>
  <circle cx="-0.0170762" cy="31.3223" r="0.62035" stroke-width="0.5" stroke="red" fill="red"/>
   </g>
   <g id="cell115" type="Red Bacteria" dead="false" >
  <circle cx="117.481" cy="-0.0584107" r="0.8947" stroke-width="0.5" stroke="black" fill="red"/>
  <circle cx="117.481" cy="-0.0584107" r="0.62035" stroke-width="0.5" stroke="red" fill="red"/>
   </g>
   <g id="cell116" type="Red Bacteria" dead="false" >
  <circle cx="15.9457" cy="400.02" r="0.8947" stroke-width="0.5" stroke="black" fill="red"/>
  <circle cx="15.9457" cy="400.02" r="0.62035" stroke-width="0.5" stroke="red" fill="red"/>
   </g>
   <g id="cell117" type="Red Bacteria" dead="false" >
  <circle cx="119.909" cy="128.746" r="0.8947" stroke-width="0.5" stroke="black" fill="red"/>
  <circle cx="119.909" cy="128.746" r="0.62035" stroke-width="0.5" stroke="red" fill="red"/>
   </g>
   <g id="cell118" type="Red Bacteria" dead="false" >
  <circle cx="259.086" cy="199.949" r="0.8947" stroke-width="0.5" stroke="black" fill="red"/>
  <circle cx="259.086" cy="199.949" r="0.62035" stroke-width="0.5" stroke="red" fill="red"/>
   </g>
   <g id="cell119" type="Red Bacteria" dead="false" >
  <circle cx="359.337" cy="234.012" r="0.8947" stroke-width="0.5" stroke="black" fill="red"/>
  <circle cx="359.337" cy="234.012" r="0.62035" stroke-width="0.5" stroke="red" fill="red"/>
   </g>
   <g id="cell120" type="Red Bacteria" dead="false" >
  <circle cx="119.707" cy="122.111" r="0.8947" stroke-width="0.5" stroke="black" fill="red"/>
  <circle cx="119.707" cy="122.111" r="0.62035" stroke-width="0.5" stroke="red" fill="red"/>
   </g>
   <g id="cell121" type="Red Bacteria" dead="false" >
  <circle cx="119.422" cy="132.677" r="0.8947" stroke-width="0.5" stroke="black" fill="red"/>
  <circle cx="119.422" cy="132.677" r="0.62035" stroke-width="0.5" stroke="red" fill="red"/>
   </g>
   <g id="cell122" type="Red Bacteria" dead="false" >
  <circle cx="160.45" cy="380.857" r="0.8947" stroke-width="0.5" stroke="black" fill="red"/>
  <circle cx="160.45" cy="380.857" r="0.62035" stroke-width="0.5" stroke="red" fill="red"/>
   </g>
   <g id="cell123" type="Red Bacteria" dead="false" >
  <circle cx="394.314" cy="400.098" r="0.8947" stroke-width="0.5" stroke="black" fill="red"/>
  <circle cx="394.314" cy="400.098" r="0.62035" stroke-width="0.5" stroke="red" fill="red"/>
   </g>
   <g id="cell124" type="Red Bacteria" dead="false" >
  <circle cx="256.771" cy="169.376" r="0.8947" stroke-width="0.5" stroke="black" fill="red"/>
  <circle cx="256.771" cy="169.376" r="0.62035" stroke-width="0.5" stroke="red" fill="red"/>
   </g>
   <g id="cell125" type="Red Bacteria" dead="false" >
  <circle cx="119.006" cy="127.234" r="0.8947" stroke-width="0.5" stroke="black" fill="red"/>
  <circle cx="119.006" cy="127.234" r="0.62035" stroke-width="0.5" stroke="red" fill="red"/>
   </g>
   <g id="cell126" type="Red Bacteria" dead="false" >
  <circle cx="361.374" cy="400.05" r="0.8947" stroke-width="0.5" stroke="black" fill="red"/>
  <circle cx="361.374" cy="400.05" r="0.62035" stroke-width="0.5" stroke="red" fill="red"/>
   </g>
   <g id="cell127" type="Red Bacteria" dead="false" >
  <circle cx="9.62878" cy="400.04" r="0.8947" stroke-width="0.5" stroke="black" fill="red"/>
  <circle cx="9.62878" cy="400.04" r="0.62035" stroke-width="0.5" stroke="red" fill="red"/>
   </g>
   <g id="cell128" type="Red Bacteria" dead="false" >
  <circle cx="319.782" cy="-0.0109649" r="0.8947" stroke-width="0.5" stroke="black" fill="red"/>
  <circle cx="319.782" cy="-0.0109649" r="0.62035" stroke-width="0.5" stroke="red" fill="red"/>
   </g>
   <g id="cell129" type="Red Bacteria" dead="false" >
  <circle cx="338.725" cy="219.771" r="0.8947" stroke-width="0.5" stroke="black" fill="red"/>
  <circle cx="338.725" cy="219.771" r="0.62035" stroke-width="0.5" stroke="red" fill="red"/>
   </g>
   <g id="cell130" type="Red Bacteria" dead="false" >
  <circle cx="121.712" cy="-0.0296209" r="0.8947" stroke-width="0.5" stroke="black" fill="red"/>
  <circle cx="121.712" cy="-0.0296209" r="0.62035" stroke-width="0.5" stroke="red" fill="red"/>
   </g>
   <g id="cell131" type="Red Bacteria" dead="false" >
  <circle cx="400.029" cy="200.223" r="0.8947" stroke-width="0.5" stroke="black" fill="red"/>
  <circle cx="400.029" cy="200.223" r="0.62035" stroke-width="0.5" stroke="red" fill="red"/>
   </g>
   <g id="cell132" type="Red Bacteria" dead="false" >
  <circle cx="-0.0032313" cy="380.059" r="0.8947" stroke-width="0.5" stroke="black" fill="red"/>
  <circle cx="-0.0032313" cy="380.059" r="0.62035" stroke-width="0.5" stroke="red" fill="red"/>
   </g>
   <g id="cell133" type="Red Bacteria" dead="false" >
  <circle cx="359.503" cy="240.323" r="0.8947" stroke-width="0.5" stroke="black" fill="red"/>
  <circle cx="359.503" cy="240.323" r="0.62035" stroke-width="0.5" stroke="red" fill="red"/>
   </g>
   <g id="cell134" type="Red Bacteria" dead="false" >
  <circle cx="119.197" cy="135.315" r="0.8947" stroke-width="0.5" stroke="black" fill="red"/>
  <circle cx="119.197" cy="135.315" r="0.62035" stroke-width="0.5" stroke="red" fill="red"/>
   </g>
   <g id="cell135" type="Red Bacteria" dead="false" >
  <circle cx="400.084" cy="385.317" r="0.8947" stroke-width="0.5" stroke="black" fill="red"/>
  <circle cx="400.084" cy="385.317" r="0.62035" stroke-width="0.5" stroke="red" fill="red"/>
   </g>
   <g id="cell136" type="Red Bacteria" dead="false" >
  <circle cx="163.634" cy="400.03" r="0.8947" stroke-width="0.5" stroke="black" fill="red"/>
  <circle cx="163.634" cy="400.03" r="0.62035" stroke-width="0.5" stroke="red" fill="red"/>
   </g>
   <g id="cell137" type="Red Bacteria" dead="false" >
  <circle cx="117.73" cy="128.056" r="0.8947" stroke-width="0.5" stroke="black" fill="red"/>
  <circle cx="117.73" cy="128.056" r="0.62035" stroke-width="0.5" stroke="red" fill="red"/>
   </g>
   <g id="cell138" type="Red Bacteria" dead="false" >
  <circle cx="387.306" cy="-0.0726748" r="0.8947" stroke-width="0.5" stroke="black" fill="red"/>
  <circle cx="387.306" cy="-0.0726748" r="0.62035" stroke-width="0.5" stroke="red" fill="red"/>
   </g>
   <g id="cell139" type="Red Bacteria" dead="false" >
  <circle cx="395.779" cy="400.011" r="0.8947" stroke-width="0.5" stroke="black" fill="red"/>
  <circle cx="395.779" cy="400.011" r="0.62035" stroke-width="0.5" stroke="red" fill="red"/>
   </g>
   <g id="cell140" type="Red Bacteria" dead="false" >
  <circle cx="118.737" cy="4.82827" r="0.8947" stroke-width="0.5" stroke="black" fill="red"/>
  <circle cx="118.737" cy="4.82827" r="0.62035" stroke-width="0.5" stroke="red" fill="red"/>
   </g>
   <g id="cell141" type="Red Bacteria" dead="false" >
  <circle cx="162.152" cy="400.082" r="0.8947" stroke-width="0.5" stroke="black" fill="red"/>
  <circle cx="162.152" cy="400.082" r="0.62035" stroke-width="0.5" stroke="red" fill="red"/>
   </g>
   <g id="cell142" type="Red Bacteria" dead="false" >
  <circle cx="120.32" cy="136.044" r="0.8947" stroke-width="0.5" stroke="black" fill="red"/>
  <circle cx="120.32" cy="136.044" r="0.62035" stroke-width="0.5" stroke="red" fill="red"/>
   </g>
   <g id="cell143" type="Red Bacteria" dead="false" >
  <circle cx="156.534" cy="400.053" r="0.8947" stroke-width="0.5" stroke="black" fill="red"/>
  <circle cx="156.534" cy="400.053" r="0.62035" stroke-width="0.5" stroke="red" fill="red"/>
   </g>
   <g id="cell144" type="Red Bacteria" dead="false" >
  <circle cx="318.658" cy="-0.0422299" r="0.8947" stroke-width="0.5" stroke="black" fill="red"/>
  <circle cx="318.658" cy="-0.0422299" r="0.62035" stroke-width="0.5" stroke="red" fill="red"/>
   </g>
   <g id="cell199" type="Red Bacteria" dead="false" >
  <circle cx="119.755" cy="120.64" r="0.8947" stroke-width="0.5" stroke="black" fill="red"/>
  <circle cx="119.755" cy="120.64" r="0.62035" stroke-width="0.5" stroke="red" fill="red"/>
   </g>
   <g id="cell146" type="Red Bacteria" dead="false" >
  <circle cx="123.266" cy="-0.0145849" r="0.8947" stroke-width="0.5" stroke="black" fill="red"/>
  <circle cx="123.266" cy="-0.0145849" r="0.62035" stroke-width="0.5" stroke="red" fill="red"/>
   </g>
   <g id="cell147" type="Red Bacteria" dead="false" >
  <circle cx="385.929" cy="400.017" r="0.8947" stroke-width="0.5" stroke="black" fill="red"/>
  <circle cx="385.929" cy="400.017" r="0.62035" stroke-width="0.5" stroke="red" fill="red"/>
   </g>
   <g id="cell148" type="Red Bacteria" dead="false" >
  <circle cx="-0.0983096" cy="391.835" r="0.8947" stroke-width="0.5" stroke="black" fill="red"/>
  <circle cx="-0.0983096" cy="391.835" r="0.62035" stroke-width="0.5" stroke="red" fill="red"/>
   </g>
   <g id="cell149" type="Red Bacteria" dead="false" >
  <circle cx="114.804" cy="-0.053258" r="0.8947" stroke-width="0.5" stroke="black" fill="red"/>
  <circle cx="114.804" cy="-0.053258" r="0.62035" stroke-width="0.5" stroke="red" fill="red"/>
   </g>
   <g id="cell150" type="Red Bacteria" dead="false" >
  <circle cx="119.528" cy="136.978" r="0.8947" stroke-width="0.5" stroke="black" fill="red"/>
  <circle cx="119.528" cy="136.978" r="0.62035" stroke-width="0.5" stroke="red" fill="red"/>
   </g>
   <g id="cell191" type="Red Bacteria" dead="false" >
  <circle cx="124.51" cy="3.5078" r="0.8947" stroke-width="0.5" stroke="black" fill="red"/>
  <circle cx="124.51" cy="3.5078" r="0.62035" stroke-width="0.5" stroke="red" fill="red"/>
   </g>
   <g id="cell152" type="Red Bacteria" dead="false" >
  <circle cx="7.82376" cy="400.047" r="0.8947" stroke-width="0.5" stroke="black" fill="red"/>
  <circle cx="7.82376" cy="400.047" r="0.62035" stroke-width="0.5" stroke="red" fill="red"/>
   </g>
   <g id="cell153" type="Red Bacteria" dead="false" >
  <circle cx="159.374" cy="400.063" r="0.8947" stroke-width="0.5" stroke="black" fill="red"/>
  <circle cx="159.374" cy="400.063" r="0.62035" stroke-width="0.5" stroke="red" fill="red"/>
   </g>
   <g id="cell196" type="Red Bacteria" dead="false" >
  <circle cx="-0.066081" cy="389.059" r="0.8947" stroke-width="0.5" stroke="black" fill="red"/>
  <circle cx="-0.066081" cy="389.059" r="0.62035" stroke-width="0.5" stroke="red" fill="red"/>
   </g>
   <g id="cell155" type="Red Bacteria" dead="false" >
  <circle cx="18.7074" cy="400.004" r="0.8947" stroke-width="0.5" stroke="black" fill="red"/>
  <circle cx="18.7074" cy="400.004" r="0.62035" stroke-width="0.5" stroke="red" fill="red"/>
   </g>
   <g id="cell156" type="Red Bacteria" dead="false" >
  <circle cx="112.071" cy="137.773" r="0.8947" stroke-width="0.5" stroke="black" fill="red"/>
  <circle cx="112.071" cy="137.773" r="0.62035" stroke-width="0.5" stroke="red" fill="red"/>
   </g>
   <g id="cell157" type="Red Bacteria" dead="false" >
  <circle cx="322.705" cy="-0.0515298" r="0.8947" stroke-width="0.5" stroke="black" fill="red"/>
  <circle cx="322.705" cy="-0.0515298" r="0.62035" stroke-width="0.5" stroke="red" fill="red"/>
   </g>
   <g id="cell158" type="Red Bacteria" dead="false" >
  <circle cx="314.99" cy="-0.0347149" r="0.8947" stroke-width="0.5" stroke="black" fill="red"/>
  <circle cx="314.99" cy="-0.0347149" r="0.62035" stroke-width="0.5" stroke="red" fill="red"/>
   </g>
   <g id="cell159" type="Red Bacteria" dead="false" >
  <circle cx="400.009" cy="396.458" r="0.8947" stroke-width="0.5" stroke="black" fill="red"/>
  <circle cx="400.009" cy="396.458" r="0.62035" stroke-width="0.5" stroke="red" fill="red"/>
   </g>
   <g id="cell160" type="Red Bacteria" dead="false" >
  <circle cx="118.24" cy="139.915" r="0.8947" stroke-width="0.5" stroke="black" fill="red"/>
  <circle cx="118.24" cy="139.915" r="0.62035" stroke-width="0.5" stroke="red" fill="red"/>
   </g>
   <g id="cell161" type="Red Bacteria" dead="false" >
  <circle cx="320.116" cy="3.69482" r="0.8947" stroke-width="0.5" stroke="black" fill="red"/>
  <circle cx="320.116" cy="3.69482" r="0.62035" stroke-width="0.5" stroke="red" fill="red"/>
   </g>
   <g id="cell162" type="Red Bacteria" dead="false" >
  <circle cx="116.201" cy="-0.0476963" r="0.8947" stroke-width="0.5" stroke="black" fill="red"/>
  <circle cx="116.201" cy="-0.0476963" r="0.62035" stroke-width="0.5" stroke="red" fill="red"/>
   </g>
   <g id="cell163" type="Red Bacteria" dead="false" >
  <circle cx="119.735" cy="134.073" r="0.8947" stroke-width="0.5" stroke="black" fill="red"/>
  <circle cx="119.735" cy="134.073" r="0.62035" stroke-width="0.5" stroke="red" fill="red"/>
   </g>
   <g id="cell164" type="Red Bacteria" dead="false" >
  <circle cx="400.018" cy="383.818" r="0.8947" stroke-width="0.5" stroke="black" fill="red"/>
  <circle cx="400.018" cy="383.818" r="0.62035" stroke-width="0.5" stroke="red" fill="red"/>
   </g>
   <g id="cell165" type="Red Bacteria" dead="false" >
  <circle cx="121.614" cy="135.472" r="0.8947" stroke-width="0.5" stroke="black" fill="red"/>
  <circle cx="121.614" cy="135.472" r="0.62035" stroke-width="0.5" stroke="red" fill="red"/>
   </g>
   <g id="cell166" type="Red Bacteria" dead="false" >
  <circle cx="319.609" cy="12.5549" r="0.8947" stroke-width="0.5" stroke="black" fill="red"/>
  <circle cx="319.609" cy="12.5549" r="0.62035" stroke-width="0.5" stroke="red" fill="red"/>
   </g>
   <g id="cell167" type="Red Bacteria" dead="true" >
  <circle cx="123.015" cy="124.322" r="0.386319" stroke-width="0.5" stroke="black" fill="red"/>
  <circle cx="123.015" cy="124.322" r="0.326477" stroke-width="0.5" stroke="black" fill="black"/>
   </g>
   <g id="cell168" type="Red Bacteria" dead="false" >
  <circle cx="119.665" cy="6.04543" r="0.8947" stroke-width="0.5" stroke="black" fill="red"/>
  <circle cx="119.665" cy="6.04543" r="0.62035" stroke-width="0.5" stroke="red" fill="red"/>
   </g>
   <g id="cell169" type="Red Bacteria" dead="false" >
  <circle cx="120.245" cy="-0.028037" r="0.8947" stroke-width="0.5" stroke="black" fill="red"/>
  <circle cx="120.245" cy="-0.028037" r="0.62035" stroke-width="0.5" stroke="red" fill="red"/>
   </g>
   <g id="cell170" type="Red Bacteria" dead="false" >
  <circle cx="119.408" cy="138.809" r="0.8947" stroke-width="0.5" stroke="black" fill="red"/>
  <circle cx="119.408" cy="138.809" r="0.62035" stroke-width="0.5" stroke="red" fill="red"/>
   </g>
   <g id="cell171" type="Red Bacteria" dead="false" >
  <circle cx="119.16" cy="124.007" r="0.8947" stroke-width="0.5" stroke="black" fill="red"/>
  <circle cx="119.16" cy="124.007" r="0.62035" stroke-width="0.5" stroke="red" fill="red"/>
   </g>
   <g id="cell172" type="Red Bacteria" dead="false" >
  <circle cx="4.65962" cy="400.024" r="0.8947" stroke-width="0.5" stroke="black" fill="red"/>
  <circle cx="4.65962" cy="400.024" r="0.62035" stroke-width="0.5" stroke="red" fill="red"/>
   </g>
   <g id="cell173" type="Red Bacteria" dead="false" >
  <circle cx="392.372" cy="400.035" r="0.8947" stroke-width="0.5" stroke="black" fill="red"/>
  <circle cx="392.372" cy="400.035" r="0.62035" stroke-width="0.5" stroke="red" fill="red"/>
   </g>
   <g id="cell174" type="Red Bacteria" dead="false" >
  <circle cx="322.113" cy="20.4098" r="0.8947" stroke-width="0.5" stroke="black" fill="red"/>
  <circle cx="322.113" cy="20.4098" r="0.62035" stroke-width="0.5" stroke="red" fill="red"/>
   </g>
   <g id="cell175" type="Red Bacteria" dead="false" >
  <circle cx="317.16" cy="-0.0310332" r="0.8947" stroke-width="0.5" stroke="black" fill="red"/>
  <circle cx="317.16" cy="-0.0310332" r="0.62035" stroke-width="0.5" stroke="red" fill="red"/>
   </g>
   <g id="cell176" type="Red Bacteria" dead="false" >
  <circle cx="-0.0568013" cy="295.467" r="0.8947" stroke-width="0.5" stroke="black" fill="red"/>
  <circle cx="-0.0568013" cy="295.467" r="0.62035" stroke-width="0.5" stroke="red" fill="red"/>
   </g>
   <g id="cell177" type="Red Bacteria" dead="false" >
  <circle cx="118.764" cy="-0.0035018" r="0.8947" stroke-width="0.5" stroke="black" fill="red"/>
  <circle cx="118.764" cy="-0.0035018" r="0.62035" stroke-width="0.5" stroke="red" fill="red"/>
   </g>
   <g id="cell178" type="Red Bacteria" dead="false" >
  <circle cx="120.354" cy="126.541" r="0.8947" stroke-width="0.5" stroke="black" fill="red"/>
  <circle cx="120.354" cy="126.541" r="0.62035" stroke-width="0.5" stroke="red" fill="red"/>
   </g>
   <g id="cell179" type="Red Bacteria" dead="false" >
  <circle cx="120.676" cy="132.752" r="0.8947" stroke-width="0.5" stroke="black" fill="red"/>
  <circle cx="120.676" cy="132.752" r="0.62035" stroke-width="0.5" stroke="red" fill="red"/>
   </g>
  </g>
 </g>
  <rect x="190" y="414" width="200" height="4" stroke-width="0.8" stroke="rgb(255,255,255)" fill="rgb(0,0,0)"/>
  <text x="192.5" y="411.5"
   font-family="Arial" font-size="10" fill="black" >
   200 &#956;m
  </text>
  <text x="10" y="418"
   font-family="Arial" font-size="7.5" fill="black" >
   0 days, 0 hours, 0 minutes, and 5.9052 seconds
  </text>
  <rect x="0" y="28" width="400" height="400" stroke-width="0.8" stroke="rgb(0,0,0)" fill="none"/>
</svg>
