<?xml version="1.0" encoding="UTF-8" standalone="no"?>
<!-- Created with PhysiCell (http://PhysiCell.MathCancer.org/) -->
<svg 
 xmlns:dc="http://purl.org/dc/elements/1.1/" 
 xmlns:cc="http://creativecommons.org/ns#" 
 xmlns:rdf="http://www.w3.org/1999/02/22-rdf-syntax-ns#" 
 xmlns:svg="http://www.w3.org/2000/svg" 
 xmlns="http://www.w3.org/2000/svg" 
 version="1.1" 
 width="400" 
 height="428" 
 id="svg2">
  <rect x="0" y="0" width="400" height="428" stroke-width="0.8" stroke="white" fill="white"/>
  <text x="5" y="12"
   font-family="Arial" font-size="10" fill="black" >
   Current time: 3 days, 6 hours, and 0.00 minutes, z = 0.00 &#956;m
  </text>
  <text x="5" y="23"
   font-family="Arial" font-size="9.5" fill="black" >
   166 agents
  </text>
 <g id="tissue" 
    transform="translate(0,428) scale(1,-1)">
  <g id="ECM">
  </g>
  <g id="cells">
   <g id="cell0" type="Blue Bacteria" dead="false" >
  <circle cx="63.6876" cy="400.061" r="0.750869" stroke-width="0.5" stroke="black" fill="grey"/>
  <circle cx="63.6876" cy="400.061" r="2.88283e-34" stroke-width="0.5" stroke="grey" fill="grey"/>
   </g>
   <g id="cell1" type="Blue Bacteria" dead="false" >
  <circle cx="219.209" cy="266.29" r="0.000688684" stroke-width="0.5" stroke="black" fill="grey"/>
  <circle cx="219.209" cy="266.29" r="3.11176e-34" stroke-width="0.5" stroke="grey" fill="grey"/>
   </g>
   <g id="cell2" type="Blue Bacteria" dead="false" >
  <circle cx="366.761" cy="98.5539" r="0.000688684" stroke-width="0.5" stroke="black" fill="grey"/>
  <circle cx="366.761" cy="98.5539" r="3.11176e-34" stroke-width="0.5" stroke="grey" fill="grey"/>
   </g>
   <g id="cell173" type="Red Bacteria" dead="false" >
  <circle cx="302.505" cy="319.749" r="0.8947" stroke-width="0.5" stroke="black" fill="red"/>
  <circle cx="302.505" cy="319.749" r="0.62035" stroke-width="0.5" stroke="red" fill="red"/>
   </g>
   <g id="cell4" type="Blue Bacteria" dead="false" >
  <circle cx="317.222" cy="172.125" r="0.000688684" stroke-width="0.5" stroke="black" fill="grey"/>
  <circle cx="317.222" cy="172.125" r="3.11176e-34" stroke-width="0.5" stroke="grey" fill="grey"/>
   </g>
   <g id="cell188" type="Red Bacteria" dead="true" >
  <circle cx="279.987" cy="111.163" r="0.361053" stroke-width="0.5" stroke="black" fill="red"/>
  <circle cx="279.987" cy="111.163" r="0.313188" stroke-width="0.5" stroke="black" fill="black"/>
   </g>
   <g id="cell6" type="Blue Bacteria" dead="false" >
  <circle cx="316.728" cy="99.356" r="0.000688684" stroke-width="0.5" stroke="black" fill="grey"/>
  <circle cx="316.728" cy="99.356" r="3.11176e-34" stroke-width="0.5" stroke="grey" fill="grey"/>
   </g>
   <g id="cell7" type="Blue Bacteria" dead="false" >
  <circle cx="221.246" cy="125.752" r="0.000688684" stroke-width="0.5" stroke="black" fill="grey"/>
  <circle cx="221.246" cy="125.752" r="3.11176e-34" stroke-width="0.5" stroke="grey" fill="grey"/>
   </g>
   <g id="cell8" type="Blue Bacteria" dead="false" >
  <circle cx="52.7816" cy="-0.0470055" r="0.725309" stroke-width="0.5" stroke="black" fill="grey"/>
  <circle cx="52.7816" cy="-0.0470055" r="2.94685e-34" stroke-width="0.5" stroke="grey" fill="grey"/>
   </g>
   <g id="cell9" type="Blue Bacteria" dead="false" >
  <circle cx="249.338" cy="324.81" r="0.000688684" stroke-width="0.5" stroke="black" fill="grey"/>
  <circle cx="249.338" cy="324.81" r="3.11176e-34" stroke-width="0.5" stroke="grey" fill="grey"/>
   </g>
   <g id="cell196" type="Red Bacteria" dead="false" >
  <circle cx="-0.0120496" cy="397.267" r="0.8947" stroke-width="0.5" stroke="black" fill="red"/>
  <circle cx="-0.0120496" cy="397.267" r="0.62035" stroke-width="0.5" stroke="red" fill="red"/>
   </g>
   <g id="cell11" type="Blue Bacteria" dead="false" >
  <circle cx="120.492" cy="400.039" r="0.725309" stroke-width="0.5" stroke="black" fill="grey"/>
  <circle cx="120.492" cy="400.039" r="2.94685e-34" stroke-width="0.5" stroke="grey" fill="grey"/>
   </g>
   <g id="cell12" type="Blue Bacteria" dead="false" >
  <circle cx="-0.00127546" cy="232.941" r="0.0635864" stroke-width="0.5" stroke="black" fill="grey"/>
  <circle cx="-0.00127546" cy="232.941" r="3.11176e-34" stroke-width="0.5" stroke="grey" fill="grey"/>
   </g>
   <g id="cell13" type="Blue Bacteria" dead="false" >
  <circle cx="327.2" cy="-0.0490897" r="0.0290134" stroke-width="0.5" stroke="black" fill="grey"/>
  <circle cx="327.2" cy="-0.0490897" r="3.11176e-34" stroke-width="0.5" stroke="grey" fill="grey"/>
   </g>
   <g id="cell14" type="Blue Bacteria" dead="false" >
  <circle cx="105.362" cy="285.099" r="0.000688684" stroke-width="0.5" stroke="black" fill="grey"/>
  <circle cx="105.362" cy="285.099" r="3.11176e-34" stroke-width="0.5" stroke="grey" fill="grey"/>
   </g>
   <g id="cell15" type="Blue Bacteria" dead="false" >
  <circle cx="242.839" cy="205.65" r="0.000688684" stroke-width="0.5" stroke="black" fill="grey"/>
  <circle cx="242.839" cy="205.65" r="3.11176e-34" stroke-width="0.5" stroke="grey" fill="grey"/>
   </g>
   <g id="cell16" type="Blue Bacteria" dead="false" >
  <circle cx="-0.0698037" cy="347.364" r="0.240898" stroke-width="0.5" stroke="black" fill="grey"/>
  <circle cx="-0.0698037" cy="347.364" r="3.11152e-34" stroke-width="0.5" stroke="grey" fill="grey"/>
   </g>
   <g id="cell17" type="Blue Bacteria" dead="false" >
  <circle cx="93.4667" cy="-0.0503879" r="0.112978" stroke-width="0.5" stroke="black" fill="grey"/>
  <circle cx="93.4667" cy="-0.0503879" r="3.11175e-34" stroke-width="0.5" stroke="grey" fill="grey"/>
   </g>
   <g id="cell18" type="Blue Bacteria" dead="false" >
  <circle cx="266.202" cy="307.396" r="0.000688684" stroke-width="0.5" stroke="black" fill="grey"/>
  <circle cx="266.202" cy="307.396" r="3.11176e-34" stroke-width="0.5" stroke="grey" fill="grey"/>
   </g>
   <g id="cell19" type="Blue Bacteria" dead="false" >
  <circle cx="281.539" cy="243.018" r="0.000688684" stroke-width="0.5" stroke="black" fill="grey"/>
  <circle cx="281.539" cy="243.018" r="3.11176e-34" stroke-width="0.5" stroke="grey" fill="grey"/>
   </g>
   <g id="cell20" type="Blue Bacteria" dead="false" >
  <circle cx="400.009" cy="298.833" r="0.147198" stroke-width="0.5" stroke="black" fill="grey"/>
  <circle cx="400.009" cy="298.833" r="3.11174e-34" stroke-width="0.5" stroke="grey" fill="grey"/>
   </g>
   <g id="cell21" type="Blue Bacteria" dead="true" >
  <circle cx="274.912" cy="119.093" r="0.000132894" stroke-width="0.5" stroke="black" fill="grey"/>
  <circle cx="274.912" cy="119.093" r="1.11475e-34" stroke-width="0.5" stroke="black" fill="black"/>
   </g>
   <g id="cell22" type="Blue Bacteria" dead="false" >
  <circle cx="103.49" cy="140.159" r="0.000688684" stroke-width="0.5" stroke="black" fill="grey"/>
  <circle cx="103.49" cy="140.159" r="3.11176e-34" stroke-width="0.5" stroke="grey" fill="grey"/>
   </g>
   <g id="cell174" type="Red Bacteria" dead="false" >
  <circle cx="300.621" cy="100.699" r="0.8947" stroke-width="0.5" stroke="black" fill="red"/>
  <circle cx="300.621" cy="100.699" r="0.62035" stroke-width="0.5" stroke="red" fill="red"/>
   </g>
   <g id="cell24" type="Blue Bacteria" dead="false" >
  <circle cx="284.416" cy="141.58" r="0.000688684" stroke-width="0.5" stroke="black" fill="grey"/>
  <circle cx="284.416" cy="141.58" r="3.11176e-34" stroke-width="0.5" stroke="grey" fill="grey"/>
   </g>
   <g id="cell25" type="Blue Bacteria" dead="false" >
  <circle cx="-0.00622777" cy="110.777" r="0.736455" stroke-width="0.5" stroke="black" fill="grey"/>
  <circle cx="-0.00622777" cy="110.777" r="2.92102e-34" stroke-width="0.5" stroke="grey" fill="grey"/>
   </g>
   <g id="cell26" type="Blue Bacteria" dead="false" >
  <circle cx="345.549" cy="105.055" r="0.000688684" stroke-width="0.5" stroke="black" fill="grey"/>
  <circle cx="345.549" cy="105.055" r="3.11176e-34" stroke-width="0.5" stroke="grey" fill="grey"/>
   </g>
   <g id="cell27" type="Blue Bacteria" dead="false" >
  <circle cx="289.498" cy="108.247" r="0.000688684" stroke-width="0.5" stroke="black" fill="grey"/>
  <circle cx="289.498" cy="108.247" r="3.11176e-34" stroke-width="0.5" stroke="grey" fill="grey"/>
   </g>
   <g id="cell199" type="Red Bacteria" dead="false" >
  <circle cx="98.9703" cy="159.008" r="0.8947" stroke-width="0.5" stroke="black" fill="red"/>
  <circle cx="98.9703" cy="159.008" r="0.62035" stroke-width="0.5" stroke="red" fill="red"/>
   </g>
   <g id="cell29" type="Blue Bacteria" dead="false" >
  <circle cx="242.834" cy="-0.074935" r="0.566679" stroke-width="0.5" stroke="black" fill="grey"/>
  <circle cx="242.834" cy="-0.074935" r="3.08232e-34" stroke-width="0.5" stroke="grey" fill="grey"/>
   </g>
   <g id="cell30" type="Blue Bacteria" dead="false" >
  <circle cx="233.431" cy="225.596" r="0.000688684" stroke-width="0.5" stroke="black" fill="grey"/>
  <circle cx="233.431" cy="225.596" r="3.11176e-34" stroke-width="0.5" stroke="grey" fill="grey"/>
   </g>
   <g id="cell31" type="Blue Bacteria" dead="false" >
  <circle cx="136.536" cy="400.035" r="0.750869" stroke-width="0.5" stroke="black" fill="grey"/>
  <circle cx="136.536" cy="400.035" r="2.88283e-34" stroke-width="0.5" stroke="grey" fill="grey"/>
   </g>
   <g id="cell32" type="Blue Bacteria" dead="false" >
  <circle cx="400.011" cy="299.63" r="0.00393402" stroke-width="0.5" stroke="black" fill="grey"/>
  <circle cx="400.011" cy="299.63" r="3.11176e-34" stroke-width="0.5" stroke="grey" fill="grey"/>
   </g>
   <g id="cell33" type="Blue Bacteria" dead="false" >
  <circle cx="400.03" cy="163.985" r="0.0470549" stroke-width="0.5" stroke="black" fill="grey"/>
  <circle cx="400.03" cy="163.985" r="3.11176e-34" stroke-width="0.5" stroke="grey" fill="grey"/>
   </g>
   <g id="cell194" type="Red Bacteria" dead="false" >
  <circle cx="245.128" cy="400.041" r="0.8947" stroke-width="0.5" stroke="black" fill="red"/>
  <circle cx="245.128" cy="400.041" r="0.62035" stroke-width="0.5" stroke="red" fill="red"/>
   </g>
   <g id="cell35" type="Blue Bacteria" dead="false" >
  <circle cx="237.157" cy="227.635" r="0.000688684" stroke-width="0.5" stroke="black" fill="grey"/>
  <circle cx="237.157" cy="227.635" r="3.11176e-34" stroke-width="0.5" stroke="grey" fill="grey"/>
   </g>
   <g id="cell36" type="Blue Bacteria" dead="false" >
  <circle cx="311.817" cy="241.898" r="0.000688684" stroke-width="0.5" stroke="black" fill="grey"/>
  <circle cx="311.817" cy="241.898" r="3.11176e-34" stroke-width="0.5" stroke="grey" fill="grey"/>
   </g>
   <g id="cell37" type="Blue Bacteria" dead="false" >
  <circle cx="256.346" cy="400.025" r="0.463055" stroke-width="0.5" stroke="black" fill="grey"/>
  <circle cx="256.346" cy="400.025" r="3.10267e-34" stroke-width="0.5" stroke="grey" fill="grey"/>
   </g>
   <g id="cell38" type="Blue Bacteria" dead="false" >
  <circle cx="158.389" cy="254.621" r="0.000688684" stroke-width="0.5" stroke="black" fill="grey"/>
  <circle cx="158.389" cy="254.621" r="3.11176e-34" stroke-width="0.5" stroke="grey" fill="grey"/>
   </g>
   <g id="cell39" type="Blue Bacteria" dead="false" >
  <circle cx="332.746" cy="73.4589" r="0.000688684" stroke-width="0.5" stroke="black" fill="grey"/>
  <circle cx="332.746" cy="73.4589" r="3.11176e-34" stroke-width="0.5" stroke="grey" fill="grey"/>
   </g>
   <g id="cell40" type="Blue Bacteria" dead="false" >
  <circle cx="400.004" cy="292.824" r="0.254444" stroke-width="0.5" stroke="black" fill="grey"/>
  <circle cx="400.004" cy="292.824" r="3.11144e-34" stroke-width="0.5" stroke="grey" fill="grey"/>
   </g>
   <g id="cell41" type="Blue Bacteria" dead="false" >
  <circle cx="400.014" cy="58.5333" r="0.656082" stroke-width="0.5" stroke="black" fill="grey"/>
  <circle cx="400.014" cy="58.5333" r="3.03669e-34" stroke-width="0.5" stroke="grey" fill="grey"/>
   </g>
   <g id="cell42" type="Blue Bacteria" dead="false" >
  <circle cx="271.457" cy="146.368" r="0.000688684" stroke-width="0.5" stroke="black" fill="grey"/>
  <circle cx="271.457" cy="146.368" r="3.11176e-34" stroke-width="0.5" stroke="grey" fill="grey"/>
   </g>
   <g id="cell43" type="Blue Bacteria" dead="false" >
  <circle cx="278.865" cy="301.931" r="0.000688684" stroke-width="0.5" stroke="black" fill="grey"/>
  <circle cx="278.865" cy="301.931" r="3.11176e-34" stroke-width="0.5" stroke="grey" fill="grey"/>
   </g>
   <g id="cell191" type="Red Bacteria" dead="false" >
  <circle cx="117.897" cy="-0.0331363" r="0.8947" stroke-width="0.5" stroke="black" fill="red"/>
  <circle cx="117.897" cy="-0.0331363" r="0.62035" stroke-width="0.5" stroke="red" fill="red"/>
   </g>
   <g id="cell45" type="Blue Bacteria" dead="false" >
  <circle cx="236.466" cy="173.296" r="0.000688684" stroke-width="0.5" stroke="black" fill="grey"/>
  <circle cx="236.466" cy="173.296" r="3.11176e-34" stroke-width="0.5" stroke="grey" fill="grey"/>
   </g>
   <g id="cell46" type="Blue Bacteria" dead="false" >
  <circle cx="305.305" cy="312.179" r="0.000688684" stroke-width="0.5" stroke="black" fill="grey"/>
  <circle cx="305.305" cy="312.179" r="3.11176e-34" stroke-width="0.5" stroke="grey" fill="grey"/>
   </g>
   <g id="cell47" type="Blue Bacteria" dead="true" >
  <circle cx="273.826" cy="301.92" r="0.000225273" stroke-width="0.5" stroke="black" fill="grey"/>
  <circle cx="273.826" cy="301.92" r="1.42396e-34" stroke-width="0.5" stroke="black" fill="black"/>
   </g>
   <g id="cell48" type="Blue Bacteria" dead="false" >
  <circle cx="335.01" cy="164.762" r="0.000688684" stroke-width="0.5" stroke="black" fill="grey"/>
  <circle cx="335.01" cy="164.762" r="3.11176e-34" stroke-width="0.5" stroke="grey" fill="grey"/>
   </g>
   <g id="cell49" type="Blue Bacteria" dead="false" >
  <circle cx="271.9" cy="176.903" r="0.000688684" stroke-width="0.5" stroke="black" fill="grey"/>
  <circle cx="271.9" cy="176.903" r="3.11176e-34" stroke-width="0.5" stroke="grey" fill="grey"/>
   </g>
   <g id="cell50" type="Blue Bacteria" dead="false" >
  <circle cx="353.18" cy="388.612" r="0.000688684" stroke-width="0.5" stroke="black" fill="grey"/>
  <circle cx="353.18" cy="388.612" r="3.11176e-34" stroke-width="0.5" stroke="grey" fill="grey"/>
   </g>
   <g id="cell51" type="Blue Bacteria" dead="false" >
  <circle cx="-0.0318599" cy="181.594" r="0.745857" stroke-width="0.5" stroke="black" fill="grey"/>
  <circle cx="-0.0318599" cy="181.594" r="2.89569e-34" stroke-width="0.5" stroke="grey" fill="grey"/>
   </g>
   <g id="cell52" type="Blue Bacteria" dead="false" >
  <circle cx="400.018" cy="50.0485" r="0.745857" stroke-width="0.5" stroke="black" fill="grey"/>
  <circle cx="400.018" cy="50.0485" r="2.89569e-34" stroke-width="0.5" stroke="grey" fill="grey"/>
   </g>
   <g id="cell53" type="Blue Bacteria" dead="false" >
  <circle cx="48.8418" cy="186.124" r="0.000688684" stroke-width="0.5" stroke="black" fill="grey"/>
  <circle cx="48.8418" cy="186.124" r="3.11176e-34" stroke-width="0.5" stroke="grey" fill="grey"/>
   </g>
   <g id="cell197" type="Red Bacteria" dead="false" >
  <circle cx="386.294" cy="239.553" r="0.8947" stroke-width="0.5" stroke="black" fill="red"/>
  <circle cx="386.294" cy="239.553" r="0.62035" stroke-width="0.5" stroke="red" fill="red"/>
   </g>
   <g id="cell55" type="Blue Bacteria" dead="false" >
  <circle cx="272.96" cy="115.926" r="0.000688684" stroke-width="0.5" stroke="black" fill="grey"/>
  <circle cx="272.96" cy="115.926" r="3.11176e-34" stroke-width="0.5" stroke="grey" fill="grey"/>
   </g>
   <g id="cell56" type="Blue Bacteria" dead="false" >
  <circle cx="-0.0153719" cy="149.368" r="0.0214704" stroke-width="0.5" stroke="black" fill="grey"/>
  <circle cx="-0.0153719" cy="149.368" r="3.11176e-34" stroke-width="0.5" stroke="grey" fill="grey"/>
   </g>
   <g id="cell57" type="Blue Bacteria" dead="false" >
  <circle cx="-0.0801403" cy="196.411" r="0.0220662" stroke-width="0.5" stroke="black" fill="grey"/>
  <circle cx="-0.0801403" cy="196.411" r="3.11176e-34" stroke-width="0.5" stroke="grey" fill="grey"/>
   </g>
   <g id="cell58" type="Blue Bacteria" dead="false" >
  <circle cx="292.158" cy="236.861" r="0.000688684" stroke-width="0.5" stroke="black" fill="grey"/>
  <circle cx="292.158" cy="236.861" r="3.11176e-34" stroke-width="0.5" stroke="grey" fill="grey"/>
   </g>
   <g id="cell59" type="Blue Bacteria" dead="false" >
  <circle cx="305.204" cy="343.432" r="0.000688684" stroke-width="0.5" stroke="black" fill="grey"/>
  <circle cx="305.204" cy="343.432" r="3.11176e-34" stroke-width="0.5" stroke="grey" fill="grey"/>
   </g>
   <g id="cell60" type="Blue Bacteria" dead="false" >
  <circle cx="224.61" cy="400.019" r="0.366212" stroke-width="0.5" stroke="black" fill="grey"/>
  <circle cx="224.61" cy="400.019" r="3.10933e-34" stroke-width="0.5" stroke="grey" fill="grey"/>
   </g>
   <g id="cell61" type="Blue Bacteria" dead="false" >
  <circle cx="24.9034" cy="338.167" r="0.000688684" stroke-width="0.5" stroke="black" fill="grey"/>
  <circle cx="24.9034" cy="338.167" r="3.11176e-34" stroke-width="0.5" stroke="grey" fill="grey"/>
   </g>
   <g id="cell62" type="Blue Bacteria" dead="false" >
  <circle cx="400.057" cy="313.142" r="0.0167825" stroke-width="0.5" stroke="black" fill="grey"/>
  <circle cx="400.057" cy="313.142" r="3.11176e-34" stroke-width="0.5" stroke="grey" fill="grey"/>
   </g>
   <g id="cell63" type="Blue Bacteria" dead="false" >
  <circle cx="266.902" cy="227.846" r="0.000688684" stroke-width="0.5" stroke="black" fill="grey"/>
  <circle cx="266.902" cy="227.846" r="3.11176e-34" stroke-width="0.5" stroke="grey" fill="grey"/>
   </g>
   <g id="cell64" type="Blue Bacteria" dead="false" >
  <circle cx="329.946" cy="71.5992" r="0.000688684" stroke-width="0.5" stroke="black" fill="grey"/>
  <circle cx="329.946" cy="71.5992" r="3.11176e-34" stroke-width="0.5" stroke="grey" fill="grey"/>
   </g>
   <g id="cell65" type="Blue Bacteria" dead="false" >
  <circle cx="233.87" cy="320.154" r="0.000688684" stroke-width="0.5" stroke="black" fill="grey"/>
  <circle cx="233.87" cy="320.154" r="3.11176e-34" stroke-width="0.5" stroke="grey" fill="grey"/>
   </g>
   <g id="cell66" type="Blue Bacteria" dead="false" >
  <circle cx="400.065" cy="234.298" r="0.0338812" stroke-width="0.5" stroke="black" fill="grey"/>
  <circle cx="400.065" cy="234.298" r="3.11176e-34" stroke-width="0.5" stroke="grey" fill="grey"/>
   </g>
   <g id="cell67" type="Blue Bacteria" dead="false" >
  <circle cx="361.437" cy="142.166" r="0.000688684" stroke-width="0.5" stroke="black" fill="grey"/>
  <circle cx="361.437" cy="142.166" r="3.11176e-34" stroke-width="0.5" stroke="grey" fill="grey"/>
   </g>
   <g id="cell176" type="Red Bacteria" dead="false" >
  <circle cx="-0.0568013" cy="295.467" r="0.8947" stroke-width="0.5" stroke="black" fill="red"/>
  <circle cx="-0.0568013" cy="295.467" r="0.62035" stroke-width="0.5" stroke="red" fill="red"/>
   </g>
   <g id="cell69" type="Blue Bacteria" dead="false" >
  <circle cx="400.01" cy="175.446" r="0.488494" stroke-width="0.5" stroke="black" fill="grey"/>
  <circle cx="400.01" cy="175.446" r="3.09943e-34" stroke-width="0.5" stroke="grey" fill="grey"/>
   </g>
   <g id="cell70" type="Blue Bacteria" dead="false" >
  <circle cx="400.019" cy="141.188" r="0.581292" stroke-width="0.5" stroke="black" fill="grey"/>
  <circle cx="400.019" cy="141.188" r="3.0774e-34" stroke-width="0.5" stroke="grey" fill="grey"/>
   </g>
   <g id="cell186" type="Red Bacteria" dead="false" >
  <circle cx="321.034" cy="18.9739" r="0.8947" stroke-width="0.5" stroke="black" fill="red"/>
  <circle cx="321.034" cy="18.9739" r="0.62035" stroke-width="0.5" stroke="red" fill="red"/>
   </g>
   <g id="cell72" type="Blue Bacteria" dead="false" >
  <circle cx="351.525" cy="400.04" r="0.411966" stroke-width="0.5" stroke="black" fill="grey"/>
  <circle cx="351.525" cy="400.04" r="3.10706e-34" stroke-width="0.5" stroke="grey" fill="grey"/>
   </g>
   <g id="cell73" type="Blue Bacteria" dead="false" >
  <circle cx="56.1424" cy="214.824" r="0.000688684" stroke-width="0.5" stroke="black" fill="grey"/>
  <circle cx="56.1424" cy="214.824" r="3.11176e-34" stroke-width="0.5" stroke="grey" fill="grey"/>
   </g>
   <g id="cell74" type="Blue Bacteria" dead="false" >
  <circle cx="-0.044204" cy="18.1092" r="0.717137" stroke-width="0.5" stroke="black" fill="grey"/>
  <circle cx="-0.044204" cy="18.1092" r="2.96287e-34" stroke-width="0.5" stroke="grey" fill="grey"/>
   </g>
   <g id="cell75" type="Blue Bacteria" dead="false" >
  <circle cx="330.635" cy="278.844" r="0.000688684" stroke-width="0.5" stroke="black" fill="grey"/>
  <circle cx="330.635" cy="278.844" r="3.11176e-34" stroke-width="0.5" stroke="grey" fill="grey"/>
   </g>
   <g id="cell76" type="Blue Bacteria" dead="false" >
  <circle cx="273.098" cy="400.015" r="0.0437428" stroke-width="0.5" stroke="black" fill="grey"/>
  <circle cx="273.098" cy="400.015" r="3.11176e-34" stroke-width="0.5" stroke="grey" fill="grey"/>
   </g>
   <g id="cell185" type="Red Bacteria" dead="false" >
  <circle cx="19.7991" cy="400.077" r="0.8947" stroke-width="0.5" stroke="black" fill="red"/>
  <circle cx="19.7991" cy="400.077" r="0.62035" stroke-width="0.5" stroke="red" fill="red"/>
   </g>
   <g id="cell78" type="Blue Bacteria" dead="false" >
  <circle cx="234.501" cy="319.126" r="0.000688684" stroke-width="0.5" stroke="black" fill="grey"/>
  <circle cx="234.501" cy="319.126" r="3.11176e-34" stroke-width="0.5" stroke="grey" fill="grey"/>
   </g>
   <g id="cell79" type="Blue Bacteria" dead="false" >
  <circle cx="266.308" cy="45.2263" r="0.000688684" stroke-width="0.5" stroke="black" fill="grey"/>
  <circle cx="266.308" cy="45.2263" r="3.11176e-34" stroke-width="0.5" stroke="grey" fill="grey"/>
   </g>
   <g id="cell80" type="Blue Bacteria" dead="false" >
  <circle cx="281.059" cy="244.668" r="0.000688684" stroke-width="0.5" stroke="black" fill="grey"/>
  <circle cx="281.059" cy="244.668" r="3.11176e-34" stroke-width="0.5" stroke="grey" fill="grey"/>
   </g>
   <g id="cell81" type="Blue Bacteria" dead="false" >
  <circle cx="290.831" cy="127.771" r="0.000688684" stroke-width="0.5" stroke="black" fill="grey"/>
  <circle cx="290.831" cy="127.771" r="3.11176e-34" stroke-width="0.5" stroke="grey" fill="grey"/>
   </g>
   <g id="cell82" type="Blue Bacteria" dead="false" >
  <circle cx="220.77" cy="244.664" r="0.000688684" stroke-width="0.5" stroke="black" fill="grey"/>
  <circle cx="220.77" cy="244.664" r="3.11176e-34" stroke-width="0.5" stroke="grey" fill="grey"/>
   </g>
   <g id="cell83" type="Blue Bacteria" dead="false" >
  <circle cx="288.2" cy="400.025" r="0.601053" stroke-width="0.5" stroke="black" fill="grey"/>
  <circle cx="288.2" cy="400.025" r="3.0695e-34" stroke-width="0.5" stroke="grey" fill="grey"/>
   </g>
   <g id="cell84" type="Blue Bacteria" dead="false" >
  <circle cx="282.035" cy="247.804" r="0.000688684" stroke-width="0.5" stroke="black" fill="grey"/>
  <circle cx="282.035" cy="247.804" r="3.11176e-34" stroke-width="0.5" stroke="grey" fill="grey"/>
   </g>
   <g id="cell85" type="Blue Bacteria" dead="false" >
  <circle cx="78.3031" cy="24.7278" r="0.000688684" stroke-width="0.5" stroke="black" fill="grey"/>
  <circle cx="78.3031" cy="24.7278" r="3.11176e-34" stroke-width="0.5" stroke="grey" fill="grey"/>
   </g>
   <g id="cell189" type="Red Bacteria" dead="false" >
  <circle cx="-0.00916459" cy="89.4231" r="0.8947" stroke-width="0.5" stroke="black" fill="red"/>
  <circle cx="-0.00916459" cy="89.4231" r="0.62035" stroke-width="0.5" stroke="red" fill="red"/>
   </g>
   <g id="cell87" type="Blue Bacteria" dead="false" >
  <circle cx="400.045" cy="259.479" r="0.74295" stroke-width="0.5" stroke="black" fill="grey"/>
  <circle cx="400.045" cy="259.479" r="2.90374e-34" stroke-width="0.5" stroke="grey" fill="grey"/>
   </g>
   <g id="cell88" type="Blue Bacteria" dead="false" >
  <circle cx="222.448" cy="332.355" r="0.000688684" stroke-width="0.5" stroke="black" fill="grey"/>
  <circle cx="222.448" cy="332.355" r="3.11176e-34" stroke-width="0.5" stroke="grey" fill="grey"/>
   </g>
   <g id="cell177" type="Red Bacteria" dead="false" >
  <circle cx="120.556" cy="-0.0800605" r="0.8947" stroke-width="0.5" stroke="black" fill="red"/>
  <circle cx="120.556" cy="-0.0800605" r="0.62035" stroke-width="0.5" stroke="red" fill="red"/>
   </g>
   <g id="cell90" type="Blue Bacteria" dead="false" >
  <circle cx="295.206" cy="187.972" r="0.000688684" stroke-width="0.5" stroke="black" fill="grey"/>
  <circle cx="295.206" cy="187.972" r="3.11176e-34" stroke-width="0.5" stroke="grey" fill="grey"/>
   </g>
   <g id="cell91" type="Blue Bacteria" dead="false" >
  <circle cx="228.288" cy="-0.091678" r="0.152669" stroke-width="0.5" stroke="black" fill="grey"/>
  <circle cx="228.288" cy="-0.091678" r="3.11174e-34" stroke-width="0.5" stroke="grey" fill="grey"/>
   </g>
   <g id="cell184" type="Red Bacteria" dead="false" >
  <circle cx="359.358" cy="-0.0333103" r="0.8947" stroke-width="0.5" stroke="black" fill="red"/>
  <circle cx="359.358" cy="-0.0333103" r="0.62035" stroke-width="0.5" stroke="red" fill="red"/>
   </g>
   <g id="cell190" type="Red Bacteria" dead="false" >
  <circle cx="323.379" cy="-0.0761029" r="0.8947" stroke-width="0.5" stroke="black" fill="red"/>
  <circle cx="323.379" cy="-0.0761029" r="0.62035" stroke-width="0.5" stroke="red" fill="red"/>
   </g>
   <g id="cell94" type="Blue Bacteria" dead="false" >
  <circle cx="400.029" cy="191.842" r="0.0137304" stroke-width="0.5" stroke="black" fill="grey"/>
  <circle cx="400.029" cy="191.842" r="3.11176e-34" stroke-width="0.5" stroke="grey" fill="grey"/>
   </g>
   <g id="cell198" type="Red Bacteria" dead="false" >
  <circle cx="99.848" cy="146.837" r="0.8947" stroke-width="0.5" stroke="black" fill="red"/>
  <circle cx="99.848" cy="146.837" r="0.62035" stroke-width="0.5" stroke="red" fill="red"/>
   </g>
   <g id="cell96" type="Blue Bacteria" dead="false" >
  <circle cx="296.64" cy="400.072" r="0.105988" stroke-width="0.5" stroke="black" fill="grey"/>
  <circle cx="296.64" cy="400.072" r="3.11176e-34" stroke-width="0.5" stroke="grey" fill="grey"/>
   </g>
   <g id="cell97" type="Blue Bacteria" dead="false" >
  <circle cx="220.318" cy="299.297" r="0.000688684" stroke-width="0.5" stroke="black" fill="grey"/>
  <circle cx="220.318" cy="299.297" r="3.11176e-34" stroke-width="0.5" stroke="grey" fill="grey"/>
   </g>
   <g id="cell98" type="Blue Bacteria" dead="false" >
  <circle cx="287.185" cy="400.025" r="0.000747621" stroke-width="0.5" stroke="black" fill="grey"/>
  <circle cx="287.185" cy="400.025" r="3.11176e-34" stroke-width="0.5" stroke="grey" fill="grey"/>
   </g>
   <g id="cell99" type="Blue Bacteria" dead="false" >
  <circle cx="400.042" cy="67.7778" r="0.366212" stroke-width="0.5" stroke="black" fill="grey"/>
  <circle cx="400.042" cy="67.7778" r="3.10933e-34" stroke-width="0.5" stroke="grey" fill="grey"/>
   </g>
   <g id="cell100" type="Red Bacteria" dead="false" >
  <circle cx="307.689" cy="319.991" r="0.8947" stroke-width="0.5" stroke="black" fill="red"/>
  <circle cx="307.689" cy="319.991" r="0.62035" stroke-width="0.5" stroke="red" fill="red"/>
   </g>
   <g id="cell168" type="Red Bacteria" dead="false" >
  <circle cx="121.069" cy="1.40849" r="0.8947" stroke-width="0.5" stroke="black" fill="red"/>
  <circle cx="121.069" cy="1.40849" r="0.62035" stroke-width="0.5" stroke="red" fill="red"/>
   </g>
   <g id="cell102" type="Red Bacteria" dead="false" >
  <circle cx="292.14" cy="117.222" r="0.8947" stroke-width="0.5" stroke="black" fill="red"/>
  <circle cx="292.14" cy="117.222" r="0.62035" stroke-width="0.5" stroke="red" fill="red"/>
   </g>
   <g id="cell103" type="Red Bacteria" dead="false" >
  <circle cx="303.032" cy="321.56" r="0.8947" stroke-width="0.5" stroke="black" fill="red"/>
  <circle cx="303.032" cy="321.56" r="0.62035" stroke-width="0.5" stroke="red" fill="red"/>
   </g>
   <g id="cell104" type="Red Bacteria" dead="false" >
  <circle cx="400.021" cy="381.964" r="0.8947" stroke-width="0.5" stroke="black" fill="red"/>
  <circle cx="400.021" cy="381.964" r="0.62035" stroke-width="0.5" stroke="red" fill="red"/>
   </g>
   <g id="cell105" type="Red Bacteria" dead="false" >
  <circle cx="18.0945" cy="400.013" r="0.8947" stroke-width="0.5" stroke="black" fill="red"/>
  <circle cx="18.0945" cy="400.013" r="0.62035" stroke-width="0.5" stroke="red" fill="red"/>
   </g>
   <g id="cell106" type="Red Bacteria" dead="false" >
  <circle cx="99.3258" cy="155.139" r="0.8947" stroke-width="0.5" stroke="black" fill="red"/>
  <circle cx="99.3258" cy="155.139" r="0.62035" stroke-width="0.5" stroke="red" fill="red"/>
   </g>
   <g id="cell107" type="Red Bacteria" dead="true" >
  <circle cx="299.759" cy="316.576" r="0.256291" stroke-width="0.5" stroke="black" fill="red"/>
  <circle cx="299.759" cy="316.576" r="0.245929" stroke-width="0.5" stroke="black" fill="black"/>
   </g>
   <g id="cell108" type="Red Bacteria" dead="false" >
  <circle cx="138.776" cy="400.047" r="0.8947" stroke-width="0.5" stroke="black" fill="red"/>
  <circle cx="138.776" cy="400.047" r="0.62035" stroke-width="0.5" stroke="red" fill="red"/>
   </g>
   <g id="cell109" type="Red Bacteria" dead="false" >
  <circle cx="400.01" cy="238.719" r="0.8947" stroke-width="0.5" stroke="black" fill="red"/>
  <circle cx="400.01" cy="238.719" r="0.62035" stroke-width="0.5" stroke="red" fill="red"/>
   </g>
   <g id="cell110" type="Red Bacteria" dead="false" >
  <circle cx="311.159" cy="320.262" r="0.8947" stroke-width="0.5" stroke="black" fill="red"/>
  <circle cx="311.159" cy="320.262" r="0.62035" stroke-width="0.5" stroke="red" fill="red"/>
   </g>
   <g id="cell111" type="Red Bacteria" dead="false" >
  <circle cx="99.4507" cy="152.879" r="0.8947" stroke-width="0.5" stroke="black" fill="red"/>
  <circle cx="99.4507" cy="152.879" r="0.62035" stroke-width="0.5" stroke="red" fill="red"/>
   </g>
   <g id="cell181" type="Red Bacteria" dead="false" >
  <circle cx="101.625" cy="157.303" r="0.8947" stroke-width="0.5" stroke="black" fill="red"/>
  <circle cx="101.625" cy="157.303" r="0.62035" stroke-width="0.5" stroke="red" fill="red"/>
   </g>
   <g id="cell113" type="Red Bacteria" dead="false" >
  <circle cx="16.4774" cy="400.077" r="0.8947" stroke-width="0.5" stroke="black" fill="red"/>
  <circle cx="16.4774" cy="400.077" r="0.62035" stroke-width="0.5" stroke="red" fill="red"/>
   </g>
   <g id="cell114" type="Red Bacteria" dead="false" >
  <circle cx="-0.0170762" cy="31.3223" r="0.8947" stroke-width="0.5" stroke="black" fill="red"/>
  <circle cx="-0.0170762" cy="31.3223" r="0.62035" stroke-width="0.5" stroke="red" fill="red"/>
   </g>
   <g id="cell115" type="Red Bacteria" dead="false" >
  <circle cx="119.15" cy="-0.0288166" r="0.8947" stroke-width="0.5" stroke="black" fill="red"/>
  <circle cx="119.15" cy="-0.0288166" r="0.62035" stroke-width="0.5" stroke="red" fill="red"/>
   </g>
   <g id="cell116" type="Red Bacteria" dead="false" >
  <circle cx="-0.00300193" cy="385.883" r="0.8947" stroke-width="0.5" stroke="black" fill="red"/>
  <circle cx="-0.00300193" cy="385.883" r="0.62035" stroke-width="0.5" stroke="red" fill="red"/>
   </g>
   <g id="cell117" type="Red Bacteria" dead="false" >
  <circle cx="99.8682" cy="157.839" r="0.8947" stroke-width="0.5" stroke="black" fill="red"/>
  <circle cx="99.8682" cy="157.839" r="0.62035" stroke-width="0.5" stroke="red" fill="red"/>
   </g>
   <g id="cell118" type="Red Bacteria" dead="false" >
  <circle cx="279.28" cy="99.8259" r="0.8947" stroke-width="0.5" stroke="black" fill="red"/>
  <circle cx="279.28" cy="99.8259" r="0.62035" stroke-width="0.5" stroke="red" fill="red"/>
   </g>
   <g id="cell119" type="Red Bacteria" dead="false" >
  <circle cx="400.08" cy="240.025" r="0.8947" stroke-width="0.5" stroke="black" fill="red"/>
  <circle cx="400.08" cy="240.025" r="0.62035" stroke-width="0.5" stroke="red" fill="red"/>
   </g>
   <g id="cell120" type="Red Bacteria" dead="false" >
  <circle cx="99.5978" cy="160.235" r="0.8947" stroke-width="0.5" stroke="black" fill="red"/>
  <circle cx="99.5978" cy="160.235" r="0.62035" stroke-width="0.5" stroke="red" fill="red"/>
   </g>
   <g id="cell121" type="Red Bacteria" dead="false" >
  <circle cx="-0.0143164" cy="259.705" r="0.8947" stroke-width="0.5" stroke="black" fill="red"/>
  <circle cx="-0.0143164" cy="259.705" r="0.62035" stroke-width="0.5" stroke="red" fill="red"/>
   </g>
   <g id="cell180" type="Red Bacteria" dead="false" >
  <circle cx="393.724" cy="240.643" r="0.8947" stroke-width="0.5" stroke="black" fill="red"/>
  <circle cx="393.724" cy="240.643" r="0.62035" stroke-width="0.5" stroke="red" fill="red"/>
   </g>
   <g id="cell123" type="Red Bacteria" dead="false" >
  <circle cx="339.86" cy="400.045" r="0.8947" stroke-width="0.5" stroke="black" fill="red"/>
  <circle cx="339.86" cy="400.045" r="0.62035" stroke-width="0.5" stroke="red" fill="red"/>
   </g>
   <g id="cell124" type="Red Bacteria" dead="false" >
  <circle cx="296.329" cy="106.347" r="0.8947" stroke-width="0.5" stroke="black" fill="red"/>
  <circle cx="296.329" cy="106.347" r="0.62035" stroke-width="0.5" stroke="red" fill="red"/>
   </g>
   <g id="cell125" type="Red Bacteria" dead="false" >
  <circle cx="98.8749" cy="149.439" r="0.8947" stroke-width="0.5" stroke="black" fill="red"/>
  <circle cx="98.8749" cy="149.439" r="0.62035" stroke-width="0.5" stroke="red" fill="red"/>
   </g>
   <g id="cell126" type="Red Bacteria" dead="false" >
  <circle cx="342.04" cy="400.082" r="0.8947" stroke-width="0.5" stroke="black" fill="red"/>
  <circle cx="342.04" cy="400.082" r="0.62035" stroke-width="0.5" stroke="red" fill="red"/>
   </g>
   <g id="cell127" type="Red Bacteria" dead="false" >
  <circle cx="-0.0142861" cy="258.407" r="0.8947" stroke-width="0.5" stroke="black" fill="red"/>
  <circle cx="-0.0142861" cy="258.407" r="0.62035" stroke-width="0.5" stroke="red" fill="red"/>
   </g>
   <g id="cell128" type="Red Bacteria" dead="false" >
  <circle cx="318.242" cy="-0.0308594" r="0.8947" stroke-width="0.5" stroke="black" fill="red"/>
  <circle cx="318.242" cy="-0.0308594" r="0.62035" stroke-width="0.5" stroke="red" fill="red"/>
   </g>
   <g id="cell129" type="Red Bacteria" dead="false" >
  <circle cx="392.546" cy="241.39" r="0.8947" stroke-width="0.5" stroke="black" fill="red"/>
  <circle cx="392.546" cy="241.39" r="0.62035" stroke-width="0.5" stroke="red" fill="red"/>
   </g>
   <g id="cell130" type="Red Bacteria" dead="false" >
  <circle cx="116.503" cy="-0.0689856" r="0.8947" stroke-width="0.5" stroke="black" fill="red"/>
  <circle cx="116.503" cy="-0.0689856" r="0.62035" stroke-width="0.5" stroke="red" fill="red"/>
   </g>
   <g id="cell131" type="Red Bacteria" dead="false" >
  <circle cx="400.06" cy="157.761" r="0.8947" stroke-width="0.5" stroke="black" fill="red"/>
  <circle cx="400.06" cy="157.761" r="0.62035" stroke-width="0.5" stroke="red" fill="red"/>
   </g>
   <g id="cell132" type="Red Bacteria" dead="false" >
  <circle cx="-0.0158622" cy="257.098" r="0.8947" stroke-width="0.5" stroke="black" fill="red"/>
  <circle cx="-0.0158622" cy="257.098" r="0.62035" stroke-width="0.5" stroke="red" fill="red"/>
   </g>
   <g id="cell133" type="Red Bacteria" dead="false" >
  <circle cx="400.033" cy="281.167" r="0.8947" stroke-width="0.5" stroke="black" fill="red"/>
  <circle cx="400.033" cy="281.167" r="0.62035" stroke-width="0.5" stroke="red" fill="red"/>
   </g>
   <g id="cell134" type="Red Bacteria" dead="false" >
  <circle cx="100.827" cy="162.791" r="0.8947" stroke-width="0.5" stroke="black" fill="red"/>
  <circle cx="100.827" cy="162.791" r="0.62035" stroke-width="0.5" stroke="red" fill="red"/>
   </g>
   <g id="cell135" type="Red Bacteria" dead="false" >
  <circle cx="400.043" cy="380.353" r="0.8947" stroke-width="0.5" stroke="black" fill="red"/>
  <circle cx="400.043" cy="380.353" r="0.62035" stroke-width="0.5" stroke="red" fill="red"/>
   </g>
   <g id="cell136" type="Red Bacteria" dead="false" >
  <circle cx="12.5283" cy="400.023" r="0.8947" stroke-width="0.5" stroke="black" fill="red"/>
  <circle cx="12.5283" cy="400.023" r="0.62035" stroke-width="0.5" stroke="red" fill="red"/>
   </g>
   <g id="cell137" type="Red Bacteria" dead="false" >
  <circle cx="100.403" cy="159.185" r="0.8947" stroke-width="0.5" stroke="black" fill="red"/>
  <circle cx="100.403" cy="159.185" r="0.62035" stroke-width="0.5" stroke="red" fill="red"/>
   </g>
   <g id="cell138" type="Red Bacteria" dead="false" >
  <circle cx="362.795" cy="-0.00578141" r="0.8947" stroke-width="0.5" stroke="black" fill="red"/>
  <circle cx="362.795" cy="-0.00578141" r="0.62035" stroke-width="0.5" stroke="red" fill="red"/>
   </g>
   <g id="cell139" type="Red Bacteria" dead="false" >
  <circle cx="301.085" cy="320.165" r="0.8947" stroke-width="0.5" stroke="black" fill="red"/>
  <circle cx="301.085" cy="320.165" r="0.62035" stroke-width="0.5" stroke="red" fill="red"/>
   </g>
   <g id="cell192" type="Red Bacteria" dead="false" >
  <circle cx="99.8646" cy="164.162" r="0.8947" stroke-width="0.5" stroke="black" fill="red"/>
  <circle cx="99.8646" cy="164.162" r="0.62035" stroke-width="0.5" stroke="red" fill="red"/>
   </g>
   <g id="cell141" type="Red Bacteria" dead="false" >
  <circle cx="140.257" cy="400.042" r="0.8947" stroke-width="0.5" stroke="black" fill="red"/>
  <circle cx="140.257" cy="400.042" r="0.62035" stroke-width="0.5" stroke="red" fill="red"/>
   </g>
   <g id="cell182" type="Red Bacteria" dead="false" >
  <circle cx="-0.0676062" cy="261.071" r="0.8947" stroke-width="0.5" stroke="black" fill="red"/>
  <circle cx="-0.0676062" cy="261.071" r="0.62035" stroke-width="0.5" stroke="red" fill="red"/>
   </g>
   <g id="cell187" type="Red Bacteria" dead="false" >
  <circle cx="99.5838" cy="161.65" r="0.8947" stroke-width="0.5" stroke="black" fill="red"/>
  <circle cx="99.5838" cy="161.65" r="0.62035" stroke-width="0.5" stroke="red" fill="red"/>
   </g>
   <g id="cell144" type="Red Bacteria" dead="false" >
  <circle cx="316.868" cy="-0.00345203" r="0.8947" stroke-width="0.5" stroke="black" fill="red"/>
  <circle cx="316.868" cy="-0.00345203" r="0.62035" stroke-width="0.5" stroke="red" fill="red"/>
   </g>
   <g id="cell145" type="Red Bacteria" dead="false" >
  <circle cx="-0.0386183" cy="255.589" r="0.8947" stroke-width="0.5" stroke="black" fill="red"/>
  <circle cx="-0.0386183" cy="255.589" r="0.62035" stroke-width="0.5" stroke="red" fill="red"/>
   </g>
   <g id="cell146" type="Red Bacteria" dead="false" >
  <circle cx="119.281" cy="19.8729" r="0.8947" stroke-width="0.5" stroke="black" fill="red"/>
  <circle cx="119.281" cy="19.8729" r="0.62035" stroke-width="0.5" stroke="red" fill="red"/>
   </g>
   <g id="cell183" type="Red Bacteria" dead="false" >
  <circle cx="400.037" cy="244.907" r="0.8947" stroke-width="0.5" stroke="black" fill="red"/>
  <circle cx="400.037" cy="244.907" r="0.62035" stroke-width="0.5" stroke="red" fill="red"/>
   </g>
   <g id="cell148" type="Red Bacteria" dead="false" >
  <circle cx="-0.0787209" cy="362.055" r="0.8947" stroke-width="0.5" stroke="black" fill="red"/>
  <circle cx="-0.0787209" cy="362.055" r="0.62035" stroke-width="0.5" stroke="red" fill="red"/>
   </g>
   <g id="cell149" type="Red Bacteria" dead="false" >
  <circle cx="119.733" cy="1.09684" r="0.8947" stroke-width="0.5" stroke="black" fill="red"/>
  <circle cx="119.733" cy="1.09684" r="0.62035" stroke-width="0.5" stroke="red" fill="red"/>
   </g>
   <g id="cell169" type="Red Bacteria" dead="false" >
  <circle cx="122.587" cy="-0.0409396" r="0.8947" stroke-width="0.5" stroke="black" fill="red"/>
  <circle cx="122.587" cy="-0.0409396" r="0.62035" stroke-width="0.5" stroke="red" fill="red"/>
   </g>
   <g id="cell151" type="Red Bacteria" dead="false" >
  <circle cx="400.01" cy="241.472" r="0.8947" stroke-width="0.5" stroke="black" fill="red"/>
  <circle cx="400.01" cy="241.472" r="0.62035" stroke-width="0.5" stroke="red" fill="red"/>
   </g>
   <g id="cell152" type="Red Bacteria" dead="false" >
  <circle cx="-0.0246997" cy="380.191" r="0.8947" stroke-width="0.5" stroke="black" fill="red"/>
  <circle cx="-0.0246997" cy="380.191" r="0.62035" stroke-width="0.5" stroke="red" fill="red"/>
   </g>
   <g id="cell153" type="Red Bacteria" dead="false" >
  <circle cx="98.6668" cy="156.472" r="0.8947" stroke-width="0.5" stroke="black" fill="red"/>
  <circle cx="98.6668" cy="156.472" r="0.62035" stroke-width="0.5" stroke="red" fill="red"/>
   </g>
   <g id="cell154" type="Red Bacteria" dead="false" >
  <circle cx="14.5399" cy="400.017" r="0.8947" stroke-width="0.5" stroke="black" fill="red"/>
  <circle cx="14.5399" cy="400.017" r="0.62035" stroke-width="0.5" stroke="red" fill="red"/>
   </g>
   <g id="cell155" type="Red Bacteria" dead="false" >
  <circle cx="10.8995" cy="400.032" r="0.8947" stroke-width="0.5" stroke="black" fill="red"/>
  <circle cx="10.8995" cy="400.032" r="0.62035" stroke-width="0.5" stroke="red" fill="red"/>
   </g>
   <g id="cell156" type="Red Bacteria" dead="false" >
  <circle cx="100.85" cy="155.313" r="0.8947" stroke-width="0.5" stroke="black" fill="red"/>
  <circle cx="100.85" cy="155.313" r="0.62035" stroke-width="0.5" stroke="red" fill="red"/>
   </g>
   <g id="cell157" type="Red Bacteria" dead="false" >
  <circle cx="292.69" cy="103.844" r="0.8947" stroke-width="0.5" stroke="black" fill="red"/>
  <circle cx="292.69" cy="103.844" r="0.62035" stroke-width="0.5" stroke="red" fill="red"/>
   </g>
   <g id="cell158" type="Red Bacteria" dead="false" >
  <circle cx="319.923" cy="-0.0712449" r="0.8947" stroke-width="0.5" stroke="black" fill="red"/>
  <circle cx="319.923" cy="-0.0712449" r="0.62035" stroke-width="0.5" stroke="red" fill="red"/>
   </g>
   <g id="cell159" type="Red Bacteria" dead="false" >
  <circle cx="309.619" cy="319.985" r="0.8947" stroke-width="0.5" stroke="black" fill="red"/>
  <circle cx="309.619" cy="319.985" r="0.62035" stroke-width="0.5" stroke="red" fill="red"/>
   </g>
   <g id="cell195" type="Red Bacteria" dead="false" >
  <circle cx="99.7794" cy="151.411" r="0.8947" stroke-width="0.5" stroke="black" fill="red"/>
  <circle cx="99.7794" cy="151.411" r="0.62035" stroke-width="0.5" stroke="red" fill="red"/>
   </g>
   <g id="cell161" type="Red Bacteria" dead="false" >
  <circle cx="321.851" cy="-0.00462734" r="0.8947" stroke-width="0.5" stroke="black" fill="red"/>
  <circle cx="321.851" cy="-0.00462734" r="0.62035" stroke-width="0.5" stroke="red" fill="red"/>
   </g>
   <g id="cell162" type="Red Bacteria" dead="false" >
  <circle cx="121.416" cy="5.36795" r="0.8947" stroke-width="0.5" stroke="black" fill="red"/>
  <circle cx="121.416" cy="5.36795" r="0.62035" stroke-width="0.5" stroke="red" fill="red"/>
   </g>
   <g id="cell163" type="Red Bacteria" dead="false" >
  <circle cx="100.831" cy="160.528" r="0.8947" stroke-width="0.5" stroke="black" fill="red"/>
  <circle cx="100.831" cy="160.528" r="0.62035" stroke-width="0.5" stroke="red" fill="red"/>
   </g>
   <g id="cell164" type="Red Bacteria" dead="false" >
  <circle cx="300.32" cy="321.532" r="0.8947" stroke-width="0.5" stroke="black" fill="red"/>
  <circle cx="300.32" cy="321.532" r="0.62035" stroke-width="0.5" stroke="red" fill="red"/>
   </g>
   <g id="cell165" type="Red Bacteria" dead="false" >
  <circle cx="100.07" cy="156.635" r="0.8947" stroke-width="0.5" stroke="black" fill="red"/>
  <circle cx="100.07" cy="156.635" r="0.62035" stroke-width="0.5" stroke="red" fill="red"/>
   </g>
  </g>
 </g>
  <rect x="190" y="414" width="200" height="4" stroke-width="0.8" stroke="rgb(255,255,255)" fill="rgb(0,0,0)"/>
  <text x="192.5" y="411.5"
   font-family="Arial" font-size="10" fill="black" >
   200 &#956;m
  </text>
  <text x="10" y="418"
   font-family="Arial" font-size="7.5" fill="black" >
   0 days, 0 hours, 0 minutes, and 7.0042 seconds
  </text>
  <rect x="0" y="28" width="400" height="400" stroke-width="0.8" stroke="rgb(0,0,0)" fill="none"/>
</svg>
