<?xml version="1.0" encoding="UTF-8" standalone="no"?>
<!-- Created with PhysiCell (http://PhysiCell.MathCancer.org/) -->
<svg 
 xmlns:dc="http://purl.org/dc/elements/1.1/" 
 xmlns:cc="http://creativecommons.org/ns#" 
 xmlns:rdf="http://www.w3.org/1999/02/22-rdf-syntax-ns#" 
 xmlns:svg="http://www.w3.org/2000/svg" 
 xmlns="http://www.w3.org/2000/svg" 
 version="1.1" 
 width="400" 
 height="428" 
 id="svg2">
  <rect x="0" y="0" width="400" height="428" stroke-width="0.8" stroke="white" fill="white"/>
  <text x="5" y="12"
   font-family="Arial" font-size="10" fill="black" >
   Current time: 1 days, 7 hours, and 0.00 minutes, z = 0.00 &#956;m
  </text>
  <text x="5" y="23"
   font-family="Arial" font-size="9.5" fill="black" >
   191 agents
  </text>
 <g id="tissue" 
    transform="translate(0,428) scale(1,-1)">
  <g id="ECM">
  </g>
  <g id="cells">
   <g id="cell0" type="Blue Bacteria" dead="false" >
  <circle cx="63.6876" cy="400.061" r="0.750869" stroke-width="0.5" stroke="black" fill="grey"/>
  <circle cx="63.6876" cy="400.061" r="2.88283e-34" stroke-width="0.5" stroke="grey" fill="grey"/>
   </g>
   <g id="cell1" type="Blue Bacteria" dead="false" >
  <circle cx="231.548" cy="223.383" r="0.0501582" stroke-width="0.5" stroke="black" fill="grey"/>
  <circle cx="231.548" cy="223.383" r="3.11176e-34" stroke-width="0.5" stroke="grey" fill="grey"/>
   </g>
   <g id="cell2" type="Blue Bacteria" dead="false" >
  <circle cx="307.411" cy="136.919" r="0.0501582" stroke-width="0.5" stroke="black" fill="grey"/>
  <circle cx="307.411" cy="136.919" r="3.11176e-34" stroke-width="0.5" stroke="grey" fill="grey"/>
   </g>
   <g id="cell3" type="Blue Bacteria" dead="false" >
  <circle cx="312.816" cy="209.446" r="0.0501582" stroke-width="0.5" stroke="black" fill="grey"/>
  <circle cx="312.816" cy="209.446" r="3.11176e-34" stroke-width="0.5" stroke="grey" fill="grey"/>
   </g>
   <g id="cell4" type="Blue Bacteria" dead="false" >
  <circle cx="289.888" cy="130.816" r="0.0501582" stroke-width="0.5" stroke="black" fill="grey"/>
  <circle cx="289.888" cy="130.816" r="3.11176e-34" stroke-width="0.5" stroke="grey" fill="grey"/>
   </g>
   <g id="cell5" type="Blue Bacteria" dead="true" >
  <circle cx="223.696" cy="295.781" r="0.00421232" stroke-width="0.5" stroke="black" fill="grey"/>
  <circle cx="223.696" cy="295.781" r="7.62281e-35" stroke-width="0.5" stroke="black" fill="black"/>
   </g>
   <g id="cell6" type="Blue Bacteria" dead="false" >
  <circle cx="275.485" cy="136.919" r="0.0501582" stroke-width="0.5" stroke="black" fill="grey"/>
  <circle cx="275.485" cy="136.919" r="3.11176e-34" stroke-width="0.5" stroke="grey" fill="grey"/>
   </g>
   <g id="cell7" type="Blue Bacteria" dead="false" >
  <circle cx="273.908" cy="142.967" r="0.0501582" stroke-width="0.5" stroke="black" fill="grey"/>
  <circle cx="273.908" cy="142.967" r="3.11176e-34" stroke-width="0.5" stroke="grey" fill="grey"/>
   </g>
   <g id="cell8" type="Blue Bacteria" dead="false" >
  <circle cx="52.7816" cy="-0.0470055" r="0.725309" stroke-width="0.5" stroke="black" fill="grey"/>
  <circle cx="52.7816" cy="-0.0470055" r="2.94685e-34" stroke-width="0.5" stroke="grey" fill="grey"/>
   </g>
   <g id="cell9" type="Blue Bacteria" dead="false" >
  <circle cx="254.384" cy="165.143" r="0.0501582" stroke-width="0.5" stroke="black" fill="grey"/>
  <circle cx="254.384" cy="165.143" r="3.11176e-34" stroke-width="0.5" stroke="grey" fill="grey"/>
   </g>
   <g id="cell196" type="Red Bacteria" dead="false" >
  <circle cx="-0.0120496" cy="397.267" r="0.8947" stroke-width="0.5" stroke="black" fill="red"/>
  <circle cx="-0.0120496" cy="397.267" r="0.62035" stroke-width="0.5" stroke="red" fill="red"/>
   </g>
   <g id="cell11" type="Blue Bacteria" dead="false" >
  <circle cx="120.492" cy="400.039" r="0.725309" stroke-width="0.5" stroke="black" fill="grey"/>
  <circle cx="120.492" cy="400.039" r="2.94685e-34" stroke-width="0.5" stroke="grey" fill="grey"/>
   </g>
   <g id="cell12" type="Blue Bacteria" dead="false" >
  <circle cx="-0.00127546" cy="232.941" r="0.0635864" stroke-width="0.5" stroke="black" fill="grey"/>
  <circle cx="-0.00127546" cy="232.941" r="3.11176e-34" stroke-width="0.5" stroke="grey" fill="grey"/>
   </g>
   <g id="cell13" type="Blue Bacteria" dead="false" >
  <circle cx="340.784" cy="49.7525" r="0.0501582" stroke-width="0.5" stroke="black" fill="grey"/>
  <circle cx="340.784" cy="49.7525" r="3.11176e-34" stroke-width="0.5" stroke="grey" fill="grey"/>
   </g>
   <g id="cell14" type="Blue Bacteria" dead="false" >
  <circle cx="118.732" cy="303.851" r="0.0501582" stroke-width="0.5" stroke="black" fill="grey"/>
  <circle cx="118.732" cy="303.851" r="3.11176e-34" stroke-width="0.5" stroke="grey" fill="grey"/>
   </g>
   <g id="cell15" type="Blue Bacteria" dead="false" >
  <circle cx="237.325" cy="207.711" r="0.0501582" stroke-width="0.5" stroke="black" fill="grey"/>
  <circle cx="237.325" cy="207.711" r="3.11176e-34" stroke-width="0.5" stroke="grey" fill="grey"/>
   </g>
   <g id="cell16" type="Blue Bacteria" dead="false" >
  <circle cx="-0.0698037" cy="347.364" r="0.240898" stroke-width="0.5" stroke="black" fill="grey"/>
  <circle cx="-0.0698037" cy="347.364" r="3.11152e-34" stroke-width="0.5" stroke="grey" fill="grey"/>
   </g>
   <g id="cell17" type="Blue Bacteria" dead="false" >
  <circle cx="93.4667" cy="-0.0503879" r="0.112978" stroke-width="0.5" stroke="black" fill="grey"/>
  <circle cx="93.4667" cy="-0.0503879" r="3.11175e-34" stroke-width="0.5" stroke="grey" fill="grey"/>
   </g>
   <g id="cell18" type="Blue Bacteria" dead="false" >
  <circle cx="291.815" cy="348.887" r="0.0501582" stroke-width="0.5" stroke="black" fill="grey"/>
  <circle cx="291.815" cy="348.887" r="3.11176e-34" stroke-width="0.5" stroke="grey" fill="grey"/>
   </g>
   <g id="cell19" type="Blue Bacteria" dead="false" >
  <circle cx="304.677" cy="214.131" r="0.0501582" stroke-width="0.5" stroke="black" fill="grey"/>
  <circle cx="304.677" cy="214.131" r="3.11176e-34" stroke-width="0.5" stroke="grey" fill="grey"/>
   </g>
   <g id="cell20" type="Blue Bacteria" dead="false" >
  <circle cx="400.009" cy="298.833" r="0.147198" stroke-width="0.5" stroke="black" fill="grey"/>
  <circle cx="400.009" cy="298.833" r="3.11174e-34" stroke-width="0.5" stroke="grey" fill="grey"/>
   </g>
   <g id="cell21" type="Blue Bacteria" dead="false" >
  <circle cx="245.715" cy="75.9204" r="0.0501582" stroke-width="0.5" stroke="black" fill="grey"/>
  <circle cx="245.715" cy="75.9204" r="3.11176e-34" stroke-width="0.5" stroke="grey" fill="grey"/>
   </g>
   <g id="cell22" type="Blue Bacteria" dead="false" >
  <circle cx="100.916" cy="100.735" r="0.0501582" stroke-width="0.5" stroke="black" fill="grey"/>
  <circle cx="100.916" cy="100.735" r="3.11176e-34" stroke-width="0.5" stroke="grey" fill="grey"/>
   </g>
   <g id="cell23" type="Blue Bacteria" dead="false" >
  <circle cx="158.197" cy="332.333" r="0.0501582" stroke-width="0.5" stroke="black" fill="grey"/>
  <circle cx="158.197" cy="332.333" r="3.11176e-34" stroke-width="0.5" stroke="grey" fill="grey"/>
   </g>
   <g id="cell24" type="Blue Bacteria" dead="false" >
  <circle cx="296.208" cy="288.525" r="0.0501582" stroke-width="0.5" stroke="black" fill="grey"/>
  <circle cx="296.208" cy="288.525" r="3.11176e-34" stroke-width="0.5" stroke="grey" fill="grey"/>
   </g>
   <g id="cell25" type="Blue Bacteria" dead="false" >
  <circle cx="-0.00622777" cy="110.777" r="0.736455" stroke-width="0.5" stroke="black" fill="grey"/>
  <circle cx="-0.00622777" cy="110.777" r="2.92102e-34" stroke-width="0.5" stroke="grey" fill="grey"/>
   </g>
   <g id="cell26" type="Blue Bacteria" dead="false" >
  <circle cx="380.232" cy="166.136" r="0.0501582" stroke-width="0.5" stroke="black" fill="grey"/>
  <circle cx="380.232" cy="166.136" r="3.11176e-34" stroke-width="0.5" stroke="grey" fill="grey"/>
   </g>
   <g id="cell27" type="Blue Bacteria" dead="false" >
  <circle cx="305.281" cy="211.793" r="0.0501582" stroke-width="0.5" stroke="black" fill="grey"/>
  <circle cx="305.281" cy="211.793" r="3.11176e-34" stroke-width="0.5" stroke="grey" fill="grey"/>
   </g>
   <g id="cell28" type="Blue Bacteria" dead="false" >
  <circle cx="321.861" cy="101.75" r="0.0501582" stroke-width="0.5" stroke="black" fill="grey"/>
  <circle cx="321.861" cy="101.75" r="3.11176e-34" stroke-width="0.5" stroke="grey" fill="grey"/>
   </g>
   <g id="cell29" type="Blue Bacteria" dead="false" >
  <circle cx="242.834" cy="-0.074935" r="0.566679" stroke-width="0.5" stroke="black" fill="grey"/>
  <circle cx="242.834" cy="-0.074935" r="3.08232e-34" stroke-width="0.5" stroke="grey" fill="grey"/>
   </g>
   <g id="cell30" type="Blue Bacteria" dead="false" >
  <circle cx="284.758" cy="270.888" r="0.0501582" stroke-width="0.5" stroke="black" fill="grey"/>
  <circle cx="284.758" cy="270.888" r="3.11176e-34" stroke-width="0.5" stroke="grey" fill="grey"/>
   </g>
   <g id="cell31" type="Blue Bacteria" dead="false" >
  <circle cx="136.536" cy="400.035" r="0.750869" stroke-width="0.5" stroke="black" fill="grey"/>
  <circle cx="136.536" cy="400.035" r="2.88283e-34" stroke-width="0.5" stroke="grey" fill="grey"/>
   </g>
   <g id="cell32" type="Blue Bacteria" dead="false" >
  <circle cx="324.425" cy="300.919" r="0.0501582" stroke-width="0.5" stroke="black" fill="grey"/>
  <circle cx="324.425" cy="300.919" r="3.11176e-34" stroke-width="0.5" stroke="grey" fill="grey"/>
   </g>
   <g id="cell33" type="Blue Bacteria" dead="false" >
  <circle cx="394.081" cy="163.969" r="0.0501582" stroke-width="0.5" stroke="black" fill="grey"/>
  <circle cx="394.081" cy="163.969" r="3.11176e-34" stroke-width="0.5" stroke="grey" fill="grey"/>
   </g>
   <g id="cell194" type="Red Bacteria" dead="false" >
  <circle cx="245.128" cy="400.041" r="0.8947" stroke-width="0.5" stroke="black" fill="red"/>
  <circle cx="245.128" cy="400.041" r="0.62035" stroke-width="0.5" stroke="red" fill="red"/>
   </g>
   <g id="cell35" type="Blue Bacteria" dead="false" >
  <circle cx="260.089" cy="226.012" r="0.0501582" stroke-width="0.5" stroke="black" fill="grey"/>
  <circle cx="260.089" cy="226.012" r="3.11176e-34" stroke-width="0.5" stroke="grey" fill="grey"/>
   </g>
   <g id="cell36" type="Blue Bacteria" dead="false" >
  <circle cx="238.034" cy="189.896" r="0.0501582" stroke-width="0.5" stroke="black" fill="grey"/>
  <circle cx="238.034" cy="189.896" r="3.11176e-34" stroke-width="0.5" stroke="grey" fill="grey"/>
   </g>
   <g id="cell37" type="Blue Bacteria" dead="false" >
  <circle cx="256.346" cy="400.025" r="0.463055" stroke-width="0.5" stroke="black" fill="grey"/>
  <circle cx="256.346" cy="400.025" r="3.10267e-34" stroke-width="0.5" stroke="grey" fill="grey"/>
   </g>
   <g id="cell38" type="Blue Bacteria" dead="false" >
  <circle cx="150.742" cy="203.408" r="0.0501582" stroke-width="0.5" stroke="black" fill="grey"/>
  <circle cx="150.742" cy="203.408" r="3.11176e-34" stroke-width="0.5" stroke="grey" fill="grey"/>
   </g>
   <g id="cell39" type="Blue Bacteria" dead="false" >
  <circle cx="304.643" cy="217.534" r="0.0501582" stroke-width="0.5" stroke="black" fill="grey"/>
  <circle cx="304.643" cy="217.534" r="3.11176e-34" stroke-width="0.5" stroke="grey" fill="grey"/>
   </g>
   <g id="cell40" type="Blue Bacteria" dead="false" >
  <circle cx="400.004" cy="292.824" r="0.254444" stroke-width="0.5" stroke="black" fill="grey"/>
  <circle cx="400.004" cy="292.824" r="3.11144e-34" stroke-width="0.5" stroke="grey" fill="grey"/>
   </g>
   <g id="cell41" type="Blue Bacteria" dead="false" >
  <circle cx="400.014" cy="58.5333" r="0.656082" stroke-width="0.5" stroke="black" fill="grey"/>
  <circle cx="400.014" cy="58.5333" r="3.03669e-34" stroke-width="0.5" stroke="grey" fill="grey"/>
   </g>
   <g id="cell42" type="Blue Bacteria" dead="false" >
  <circle cx="299.483" cy="114.793" r="0.0501582" stroke-width="0.5" stroke="black" fill="grey"/>
  <circle cx="299.483" cy="114.793" r="3.11176e-34" stroke-width="0.5" stroke="grey" fill="grey"/>
   </g>
   <g id="cell43" type="Blue Bacteria" dead="false" >
  <circle cx="273.044" cy="300.956" r="0.0501582" stroke-width="0.5" stroke="black" fill="grey"/>
  <circle cx="273.044" cy="300.956" r="3.11176e-34" stroke-width="0.5" stroke="grey" fill="grey"/>
   </g>
   <g id="cell191" type="Red Bacteria" dead="false" >
  <circle cx="117.897" cy="-0.0331363" r="0.8947" stroke-width="0.5" stroke="black" fill="red"/>
  <circle cx="117.897" cy="-0.0331363" r="0.62035" stroke-width="0.5" stroke="red" fill="red"/>
   </g>
   <g id="cell45" type="Blue Bacteria" dead="false" >
  <circle cx="257.409" cy="207.633" r="0.0501582" stroke-width="0.5" stroke="black" fill="grey"/>
  <circle cx="257.409" cy="207.633" r="3.11176e-34" stroke-width="0.5" stroke="grey" fill="grey"/>
   </g>
   <g id="cell46" type="Blue Bacteria" dead="false" >
  <circle cx="222.707" cy="280.582" r="0.0501582" stroke-width="0.5" stroke="black" fill="grey"/>
  <circle cx="222.707" cy="280.582" r="3.11176e-34" stroke-width="0.5" stroke="grey" fill="grey"/>
   </g>
   <g id="cell47" type="Blue Bacteria" dead="false" >
  <circle cx="249.549" cy="352.698" r="0.0501582" stroke-width="0.5" stroke="black" fill="grey"/>
  <circle cx="249.549" cy="352.698" r="3.11176e-34" stroke-width="0.5" stroke="grey" fill="grey"/>
   </g>
   <g id="cell48" type="Blue Bacteria" dead="false" >
  <circle cx="221.283" cy="180.315" r="0.0501582" stroke-width="0.5" stroke="black" fill="grey"/>
  <circle cx="221.283" cy="180.315" r="3.11176e-34" stroke-width="0.5" stroke="grey" fill="grey"/>
   </g>
   <g id="cell49" type="Blue Bacteria" dead="false" >
  <circle cx="226.669" cy="150.637" r="0.0501582" stroke-width="0.5" stroke="black" fill="grey"/>
  <circle cx="226.669" cy="150.637" r="3.11176e-34" stroke-width="0.5" stroke="grey" fill="grey"/>
   </g>
   <g id="cell50" type="Blue Bacteria" dead="false" >
  <circle cx="280.134" cy="343.305" r="0.0501582" stroke-width="0.5" stroke="black" fill="grey"/>
  <circle cx="280.134" cy="343.305" r="3.11176e-34" stroke-width="0.5" stroke="grey" fill="grey"/>
   </g>
   <g id="cell51" type="Blue Bacteria" dead="false" >
  <circle cx="-0.0318599" cy="181.594" r="0.745857" stroke-width="0.5" stroke="black" fill="grey"/>
  <circle cx="-0.0318599" cy="181.594" r="2.89569e-34" stroke-width="0.5" stroke="grey" fill="grey"/>
   </g>
   <g id="cell52" type="Blue Bacteria" dead="false" >
  <circle cx="400.018" cy="50.0485" r="0.745857" stroke-width="0.5" stroke="black" fill="grey"/>
  <circle cx="400.018" cy="50.0485" r="2.89569e-34" stroke-width="0.5" stroke="grey" fill="grey"/>
   </g>
   <g id="cell53" type="Blue Bacteria" dead="false" >
  <circle cx="51.7046" cy="198.899" r="0.0501582" stroke-width="0.5" stroke="black" fill="grey"/>
  <circle cx="51.7046" cy="198.899" r="3.11176e-34" stroke-width="0.5" stroke="grey" fill="grey"/>
   </g>
   <g id="cell197" type="Red Bacteria" dead="false" >
  <circle cx="343.56" cy="219.436" r="0.8947" stroke-width="0.5" stroke="black" fill="red"/>
  <circle cx="343.56" cy="219.436" r="0.62035" stroke-width="0.5" stroke="red" fill="red"/>
   </g>
   <g id="cell55" type="Blue Bacteria" dead="false" >
  <circle cx="280.072" cy="89.508" r="0.0501582" stroke-width="0.5" stroke="black" fill="grey"/>
  <circle cx="280.072" cy="89.508" r="3.11176e-34" stroke-width="0.5" stroke="grey" fill="grey"/>
   </g>
   <g id="cell56" type="Blue Bacteria" dead="false" >
  <circle cx="27.7251" cy="172.353" r="0.0501582" stroke-width="0.5" stroke="black" fill="grey"/>
  <circle cx="27.7251" cy="172.353" r="3.11176e-34" stroke-width="0.5" stroke="grey" fill="grey"/>
   </g>
   <g id="cell57" type="Blue Bacteria" dead="false" >
  <circle cx="28.5406" cy="208.507" r="0.0501582" stroke-width="0.5" stroke="black" fill="grey"/>
  <circle cx="28.5406" cy="208.507" r="3.11176e-34" stroke-width="0.5" stroke="grey" fill="grey"/>
   </g>
   <g id="cell58" type="Blue Bacteria" dead="false" >
  <circle cx="229.551" cy="173.228" r="0.0501582" stroke-width="0.5" stroke="black" fill="grey"/>
  <circle cx="229.551" cy="173.228" r="3.11176e-34" stroke-width="0.5" stroke="grey" fill="grey"/>
   </g>
   <g id="cell59" type="Blue Bacteria" dead="false" >
  <circle cx="249.015" cy="373.815" r="0.0501582" stroke-width="0.5" stroke="black" fill="grey"/>
  <circle cx="249.015" cy="373.815" r="3.11176e-34" stroke-width="0.5" stroke="grey" fill="grey"/>
   </g>
   <g id="cell60" type="Blue Bacteria" dead="false" >
  <circle cx="224.61" cy="400.019" r="0.366212" stroke-width="0.5" stroke="black" fill="grey"/>
  <circle cx="224.61" cy="400.019" r="3.10933e-34" stroke-width="0.5" stroke="grey" fill="grey"/>
   </g>
   <g id="cell61" type="Blue Bacteria" dead="false" >
  <circle cx="91.4921" cy="345.094" r="0.0501582" stroke-width="0.5" stroke="black" fill="grey"/>
  <circle cx="91.4921" cy="345.094" r="3.11176e-34" stroke-width="0.5" stroke="grey" fill="grey"/>
   </g>
   <g id="cell62" type="Blue Bacteria" dead="false" >
  <circle cx="341.182" cy="317.173" r="0.0501582" stroke-width="0.5" stroke="black" fill="grey"/>
  <circle cx="341.182" cy="317.173" r="3.11176e-34" stroke-width="0.5" stroke="grey" fill="grey"/>
   </g>
   <g id="cell63" type="Blue Bacteria" dead="false" >
  <circle cx="233.079" cy="233.849" r="0.0501582" stroke-width="0.5" stroke="black" fill="grey"/>
  <circle cx="233.079" cy="233.849" r="3.11176e-34" stroke-width="0.5" stroke="grey" fill="grey"/>
   </g>
   <g id="cell64" type="Blue Bacteria" dead="false" >
  <circle cx="287.637" cy="66.422" r="0.0501582" stroke-width="0.5" stroke="black" fill="grey"/>
  <circle cx="287.637" cy="66.422" r="3.11176e-34" stroke-width="0.5" stroke="grey" fill="grey"/>
   </g>
   <g id="cell65" type="Blue Bacteria" dead="false" >
  <circle cx="295.206" cy="240.738" r="0.0501582" stroke-width="0.5" stroke="black" fill="grey"/>
  <circle cx="295.206" cy="240.738" r="3.11176e-34" stroke-width="0.5" stroke="grey" fill="grey"/>
   </g>
   <g id="cell66" type="Blue Bacteria" dead="false" >
  <circle cx="370.405" cy="219.88" r="0.0501582" stroke-width="0.5" stroke="black" fill="grey"/>
  <circle cx="370.405" cy="219.88" r="3.11176e-34" stroke-width="0.5" stroke="grey" fill="grey"/>
   </g>
   <g id="cell67" type="Blue Bacteria" dead="false" >
  <circle cx="348.566" cy="109.374" r="0.0501582" stroke-width="0.5" stroke="black" fill="grey"/>
  <circle cx="348.566" cy="109.374" r="3.11176e-34" stroke-width="0.5" stroke="grey" fill="grey"/>
   </g>
   <g id="cell68" type="Blue Bacteria" dead="false" >
  <circle cx="235.585" cy="248.796" r="0.0501582" stroke-width="0.5" stroke="black" fill="grey"/>
  <circle cx="235.585" cy="248.796" r="3.11176e-34" stroke-width="0.5" stroke="grey" fill="grey"/>
   </g>
   <g id="cell69" type="Blue Bacteria" dead="false" >
  <circle cx="400.01" cy="175.446" r="0.488494" stroke-width="0.5" stroke="black" fill="grey"/>
  <circle cx="400.01" cy="175.446" r="3.09943e-34" stroke-width="0.5" stroke="grey" fill="grey"/>
   </g>
   <g id="cell70" type="Blue Bacteria" dead="false" >
  <circle cx="400.019" cy="141.188" r="0.581292" stroke-width="0.5" stroke="black" fill="grey"/>
  <circle cx="400.019" cy="141.188" r="3.0774e-34" stroke-width="0.5" stroke="grey" fill="grey"/>
   </g>
   <g id="cell71" type="Blue Bacteria" dead="true" >
  <circle cx="131.931" cy="303.193" r="0.00479702" stroke-width="0.5" stroke="black" fill="grey"/>
  <circle cx="131.931" cy="303.193" r="8.08915e-35" stroke-width="0.5" stroke="black" fill="black"/>
   </g>
   <g id="cell72" type="Blue Bacteria" dead="false" >
  <circle cx="351.525" cy="400.04" r="0.411966" stroke-width="0.5" stroke="black" fill="grey"/>
  <circle cx="351.525" cy="400.04" r="3.10706e-34" stroke-width="0.5" stroke="grey" fill="grey"/>
   </g>
   <g id="cell73" type="Blue Bacteria" dead="false" >
  <circle cx="116.771" cy="242.355" r="0.0501582" stroke-width="0.5" stroke="black" fill="grey"/>
  <circle cx="116.771" cy="242.355" r="3.11176e-34" stroke-width="0.5" stroke="grey" fill="grey"/>
   </g>
   <g id="cell74" type="Blue Bacteria" dead="false" >
  <circle cx="-0.044204" cy="18.1092" r="0.717137" stroke-width="0.5" stroke="black" fill="grey"/>
  <circle cx="-0.044204" cy="18.1092" r="2.96287e-34" stroke-width="0.5" stroke="grey" fill="grey"/>
   </g>
   <g id="cell75" type="Blue Bacteria" dead="false" >
  <circle cx="283.876" cy="256.124" r="0.0501582" stroke-width="0.5" stroke="black" fill="grey"/>
  <circle cx="283.876" cy="256.124" r="3.11176e-34" stroke-width="0.5" stroke="grey" fill="grey"/>
   </g>
   <g id="cell76" type="Blue Bacteria" dead="false" >
  <circle cx="269.036" cy="393.136" r="0.0501582" stroke-width="0.5" stroke="black" fill="grey"/>
  <circle cx="269.036" cy="393.136" r="3.11176e-34" stroke-width="0.5" stroke="grey" fill="grey"/>
   </g>
   <g id="cell77" type="Blue Bacteria" dead="false" >
  <circle cx="232.738" cy="289.092" r="0.0501582" stroke-width="0.5" stroke="black" fill="grey"/>
  <circle cx="232.738" cy="289.092" r="3.11176e-34" stroke-width="0.5" stroke="grey" fill="grey"/>
   </g>
   <g id="cell78" type="Blue Bacteria" dead="false" >
  <circle cx="289.528" cy="377.188" r="0.0501582" stroke-width="0.5" stroke="black" fill="grey"/>
  <circle cx="289.528" cy="377.188" r="3.11176e-34" stroke-width="0.5" stroke="grey" fill="grey"/>
   </g>
   <g id="cell79" type="Blue Bacteria" dead="false" >
  <circle cx="231.033" cy="48.2855" r="0.0501582" stroke-width="0.5" stroke="black" fill="grey"/>
  <circle cx="231.033" cy="48.2855" r="3.11176e-34" stroke-width="0.5" stroke="grey" fill="grey"/>
   </g>
   <g id="cell80" type="Blue Bacteria" dead="false" >
  <circle cx="315.882" cy="234.885" r="0.0501582" stroke-width="0.5" stroke="black" fill="grey"/>
  <circle cx="315.882" cy="234.885" r="3.11176e-34" stroke-width="0.5" stroke="grey" fill="grey"/>
   </g>
   <g id="cell81" type="Blue Bacteria" dead="false" >
  <circle cx="241.095" cy="142.912" r="0.0501582" stroke-width="0.5" stroke="black" fill="grey"/>
  <circle cx="241.095" cy="142.912" r="3.11176e-34" stroke-width="0.5" stroke="grey" fill="grey"/>
   </g>
   <g id="cell82" type="Blue Bacteria" dead="false" >
  <circle cx="221.102" cy="145.431" r="0.0501582" stroke-width="0.5" stroke="black" fill="grey"/>
  <circle cx="221.102" cy="145.431" r="3.11176e-34" stroke-width="0.5" stroke="grey" fill="grey"/>
   </g>
   <g id="cell83" type="Blue Bacteria" dead="false" >
  <circle cx="288.2" cy="400.025" r="0.601053" stroke-width="0.5" stroke="black" fill="grey"/>
  <circle cx="288.2" cy="400.025" r="3.0695e-34" stroke-width="0.5" stroke="grey" fill="grey"/>
   </g>
   <g id="cell84" type="Blue Bacteria" dead="false" >
  <circle cx="305.209" cy="378.419" r="0.0501582" stroke-width="0.5" stroke="black" fill="grey"/>
  <circle cx="305.209" cy="378.419" r="3.11176e-34" stroke-width="0.5" stroke="grey" fill="grey"/>
   </g>
   <g id="cell85" type="Blue Bacteria" dead="false" >
  <circle cx="104.393" cy="54.0622" r="0.0501582" stroke-width="0.5" stroke="black" fill="grey"/>
  <circle cx="104.393" cy="54.0622" r="3.11176e-34" stroke-width="0.5" stroke="grey" fill="grey"/>
   </g>
   <g id="cell86" type="Blue Bacteria" dead="false" >
  <circle cx="235.662" cy="172.717" r="0.0501582" stroke-width="0.5" stroke="black" fill="grey"/>
  <circle cx="235.662" cy="172.717" r="3.11176e-34" stroke-width="0.5" stroke="grey" fill="grey"/>
   </g>
   <g id="cell87" type="Blue Bacteria" dead="false" >
  <circle cx="400.045" cy="259.479" r="0.74295" stroke-width="0.5" stroke="black" fill="grey"/>
  <circle cx="400.045" cy="259.479" r="2.90374e-34" stroke-width="0.5" stroke="grey" fill="grey"/>
   </g>
   <g id="cell88" type="Blue Bacteria" dead="false" >
  <circle cx="258.144" cy="315.544" r="0.0501582" stroke-width="0.5" stroke="black" fill="grey"/>
  <circle cx="258.144" cy="315.544" r="3.11176e-34" stroke-width="0.5" stroke="grey" fill="grey"/>
   </g>
   <g id="cell89" type="Blue Bacteria" dead="false" >
  <circle cx="121.434" cy="289.489" r="0.0501582" stroke-width="0.5" stroke="black" fill="grey"/>
  <circle cx="121.434" cy="289.489" r="3.11176e-34" stroke-width="0.5" stroke="grey" fill="grey"/>
   </g>
   <g id="cell90" type="Blue Bacteria" dead="false" >
  <circle cx="322.457" cy="66.0386" r="0.0501582" stroke-width="0.5" stroke="black" fill="grey"/>
  <circle cx="322.457" cy="66.0386" r="3.11176e-34" stroke-width="0.5" stroke="grey" fill="grey"/>
   </g>
   <g id="cell91" type="Blue Bacteria" dead="false" >
  <circle cx="228.288" cy="-0.091678" r="0.152669" stroke-width="0.5" stroke="black" fill="grey"/>
  <circle cx="228.288" cy="-0.091678" r="3.11174e-34" stroke-width="0.5" stroke="grey" fill="grey"/>
   </g>
   <g id="cell92" type="Blue Bacteria" dead="false" >
  <circle cx="40.8518" cy="113.12" r="0.0501582" stroke-width="0.5" stroke="black" fill="grey"/>
  <circle cx="40.8518" cy="113.12" r="3.11176e-34" stroke-width="0.5" stroke="grey" fill="grey"/>
   </g>
   <g id="cell93" type="Blue Bacteria" dead="true" >
  <circle cx="148.036" cy="268.681" r="0.00342137" stroke-width="0.5" stroke="black" fill="grey"/>
  <circle cx="148.036" cy="268.681" r="6.93194e-35" stroke-width="0.5" stroke="black" fill="black"/>
   </g>
   <g id="cell94" type="Blue Bacteria" dead="false" >
  <circle cx="372.523" cy="216.361" r="0.0501582" stroke-width="0.5" stroke="black" fill="grey"/>
  <circle cx="372.523" cy="216.361" r="3.11176e-34" stroke-width="0.5" stroke="grey" fill="grey"/>
   </g>
   <g id="cell198" type="Red Bacteria" dead="false" >
  <circle cx="99.133" cy="164.009" r="0.8947" stroke-width="0.5" stroke="black" fill="red"/>
  <circle cx="99.133" cy="164.009" r="0.62035" stroke-width="0.5" stroke="red" fill="red"/>
   </g>
   <g id="cell96" type="Blue Bacteria" dead="false" >
  <circle cx="296.64" cy="400.072" r="0.105988" stroke-width="0.5" stroke="black" fill="grey"/>
  <circle cx="296.64" cy="400.072" r="3.11176e-34" stroke-width="0.5" stroke="grey" fill="grey"/>
   </g>
   <g id="cell97" type="Blue Bacteria" dead="false" >
  <circle cx="228.966" cy="242.567" r="0.0501582" stroke-width="0.5" stroke="black" fill="grey"/>
  <circle cx="228.966" cy="242.567" r="3.11176e-34" stroke-width="0.5" stroke="grey" fill="grey"/>
   </g>
   <g id="cell98" type="Blue Bacteria" dead="false" >
  <circle cx="322.959" cy="361.086" r="0.0501582" stroke-width="0.5" stroke="black" fill="grey"/>
  <circle cx="322.959" cy="361.086" r="3.11176e-34" stroke-width="0.5" stroke="grey" fill="grey"/>
   </g>
   <g id="cell99" type="Blue Bacteria" dead="false" >
  <circle cx="400.042" cy="67.7778" r="0.366212" stroke-width="0.5" stroke="black" fill="grey"/>
  <circle cx="400.042" cy="67.7778" r="3.10933e-34" stroke-width="0.5" stroke="grey" fill="grey"/>
   </g>
   <g id="cell100" type="Red Bacteria" dead="false" >
  <circle cx="298.93" cy="321.507" r="0.8947" stroke-width="0.5" stroke="black" fill="red"/>
  <circle cx="298.93" cy="321.507" r="0.62035" stroke-width="0.5" stroke="red" fill="red"/>
   </g>
   <g id="cell101" type="Red Bacteria" dead="false" >
  <circle cx="100.744" cy="163.847" r="0.8947" stroke-width="0.5" stroke="black" fill="red"/>
  <circle cx="100.744" cy="163.847" r="0.62035" stroke-width="0.5" stroke="red" fill="red"/>
   </g>
   <g id="cell102" type="Red Bacteria" dead="false" >
  <circle cx="289.318" cy="104.843" r="0.8947" stroke-width="0.5" stroke="black" fill="red"/>
  <circle cx="289.318" cy="104.843" r="0.62035" stroke-width="0.5" stroke="red" fill="red"/>
   </g>
   <g id="cell103" type="Red Bacteria" dead="false" >
  <circle cx="299.868" cy="320.395" r="0.8947" stroke-width="0.5" stroke="black" fill="red"/>
  <circle cx="299.868" cy="320.395" r="0.62035" stroke-width="0.5" stroke="red" fill="red"/>
   </g>
   <g id="cell104" type="Red Bacteria" dead="false" >
  <circle cx="400.021" cy="381.964" r="0.8947" stroke-width="0.5" stroke="black" fill="red"/>
  <circle cx="400.021" cy="381.964" r="0.62035" stroke-width="0.5" stroke="red" fill="red"/>
   </g>
   <g id="cell105" type="Red Bacteria" dead="false" >
  <circle cx="18.0945" cy="400.013" r="0.8947" stroke-width="0.5" stroke="black" fill="red"/>
  <circle cx="18.0945" cy="400.013" r="0.62035" stroke-width="0.5" stroke="red" fill="red"/>
   </g>
   <g id="cell106" type="Red Bacteria" dead="false" >
  <circle cx="98.9364" cy="143.259" r="0.8947" stroke-width="0.5" stroke="black" fill="red"/>
  <circle cx="98.9364" cy="143.259" r="0.62035" stroke-width="0.5" stroke="red" fill="red"/>
   </g>
   <g id="cell107" type="Red Bacteria" dead="false" >
  <circle cx="304.579" cy="319.917" r="0.8947" stroke-width="0.5" stroke="black" fill="red"/>
  <circle cx="304.579" cy="319.917" r="0.62035" stroke-width="0.5" stroke="red" fill="red"/>
   </g>
   <g id="cell108" type="Red Bacteria" dead="false" >
  <circle cx="138.776" cy="400.047" r="0.8947" stroke-width="0.5" stroke="black" fill="red"/>
  <circle cx="138.776" cy="400.047" r="0.62035" stroke-width="0.5" stroke="red" fill="red"/>
   </g>
   <g id="cell109" type="Red Bacteria" dead="false" >
  <circle cx="400.01" cy="238.719" r="0.8947" stroke-width="0.5" stroke="black" fill="red"/>
  <circle cx="400.01" cy="238.719" r="0.62035" stroke-width="0.5" stroke="red" fill="red"/>
   </g>
   <g id="cell110" type="Red Bacteria" dead="false" >
  <circle cx="300.566" cy="321.612" r="0.8947" stroke-width="0.5" stroke="black" fill="red"/>
  <circle cx="300.566" cy="321.612" r="0.62035" stroke-width="0.5" stroke="red" fill="red"/>
   </g>
   <g id="cell111" type="Red Bacteria" dead="false" >
  <circle cx="99.3807" cy="151.065" r="0.8947" stroke-width="0.5" stroke="black" fill="red"/>
  <circle cx="99.3807" cy="151.065" r="0.62035" stroke-width="0.5" stroke="red" fill="red"/>
   </g>
   <g id="cell112" type="Red Bacteria" dead="false" >
  <circle cx="294.141" cy="120.519" r="0.8947" stroke-width="0.5" stroke="black" fill="red"/>
  <circle cx="294.141" cy="120.519" r="0.62035" stroke-width="0.5" stroke="red" fill="red"/>
   </g>
   <g id="cell113" type="Red Bacteria" dead="false" >
  <circle cx="16.4774" cy="400.077" r="0.8947" stroke-width="0.5" stroke="black" fill="red"/>
  <circle cx="16.4774" cy="400.077" r="0.62035" stroke-width="0.5" stroke="red" fill="red"/>
   </g>
   <g id="cell114" type="Red Bacteria" dead="false" >
  <circle cx="-0.0170762" cy="31.3223" r="0.8947" stroke-width="0.5" stroke="black" fill="red"/>
  <circle cx="-0.0170762" cy="31.3223" r="0.62035" stroke-width="0.5" stroke="red" fill="red"/>
   </g>
   <g id="cell115" type="Red Bacteria" dead="false" >
  <circle cx="119.15" cy="-0.0288166" r="0.8947" stroke-width="0.5" stroke="black" fill="red"/>
  <circle cx="119.15" cy="-0.0288166" r="0.62035" stroke-width="0.5" stroke="red" fill="red"/>
   </g>
   <g id="cell116" type="Red Bacteria" dead="false" >
  <circle cx="-0.00300193" cy="385.883" r="0.8947" stroke-width="0.5" stroke="black" fill="red"/>
  <circle cx="-0.00300193" cy="385.883" r="0.62035" stroke-width="0.5" stroke="red" fill="red"/>
   </g>
   <g id="cell117" type="Red Bacteria" dead="false" >
  <circle cx="100.017" cy="159.77" r="0.8947" stroke-width="0.5" stroke="black" fill="red"/>
  <circle cx="100.017" cy="159.77" r="0.62035" stroke-width="0.5" stroke="red" fill="red"/>
   </g>
   <g id="cell118" type="Red Bacteria" dead="false" >
  <circle cx="284.397" cy="109.58" r="0.8947" stroke-width="0.5" stroke="black" fill="red"/>
  <circle cx="284.397" cy="109.58" r="0.62035" stroke-width="0.5" stroke="red" fill="red"/>
   </g>
   <g id="cell119" type="Red Bacteria" dead="false" >
  <circle cx="400.08" cy="240.025" r="0.8947" stroke-width="0.5" stroke="black" fill="red"/>
  <circle cx="400.08" cy="240.025" r="0.62035" stroke-width="0.5" stroke="red" fill="red"/>
   </g>
   <g id="cell120" type="Red Bacteria" dead="false" >
  <circle cx="98.9042" cy="158.56" r="0.8947" stroke-width="0.5" stroke="black" fill="red"/>
  <circle cx="98.9042" cy="158.56" r="0.62035" stroke-width="0.5" stroke="red" fill="red"/>
   </g>
   <g id="cell121" type="Red Bacteria" dead="false" >
  <circle cx="-0.0143164" cy="259.705" r="0.8947" stroke-width="0.5" stroke="black" fill="red"/>
  <circle cx="-0.0143164" cy="259.705" r="0.62035" stroke-width="0.5" stroke="red" fill="red"/>
   </g>
   <g id="cell122" type="Red Bacteria" dead="false" >
  <circle cx="140.231" cy="328.505" r="0.8947" stroke-width="0.5" stroke="black" fill="red"/>
  <circle cx="140.231" cy="328.505" r="0.62035" stroke-width="0.5" stroke="red" fill="red"/>
   </g>
   <g id="cell123" type="Red Bacteria" dead="false" >
  <circle cx="339.86" cy="400.045" r="0.8947" stroke-width="0.5" stroke="black" fill="red"/>
  <circle cx="339.86" cy="400.045" r="0.62035" stroke-width="0.5" stroke="red" fill="red"/>
   </g>
   <g id="cell124" type="Red Bacteria" dead="false" >
  <circle cx="297.175" cy="101.671" r="0.8947" stroke-width="0.5" stroke="black" fill="red"/>
  <circle cx="297.175" cy="101.671" r="0.62035" stroke-width="0.5" stroke="red" fill="red"/>
   </g>
   <g id="cell125" type="Red Bacteria" dead="false" >
  <circle cx="101.108" cy="151.437" r="0.8947" stroke-width="0.5" stroke="black" fill="red"/>
  <circle cx="101.108" cy="151.437" r="0.62035" stroke-width="0.5" stroke="red" fill="red"/>
   </g>
   <g id="cell126" type="Red Bacteria" dead="false" >
  <circle cx="342.04" cy="400.082" r="0.8947" stroke-width="0.5" stroke="black" fill="red"/>
  <circle cx="342.04" cy="400.082" r="0.62035" stroke-width="0.5" stroke="red" fill="red"/>
   </g>
   <g id="cell127" type="Red Bacteria" dead="false" >
  <circle cx="7.48915" cy="259.972" r="0.8947" stroke-width="0.5" stroke="black" fill="red"/>
  <circle cx="7.48915" cy="259.972" r="0.62035" stroke-width="0.5" stroke="red" fill="red"/>
   </g>
   <g id="cell128" type="Red Bacteria" dead="false" >
  <circle cx="318.242" cy="-0.0308594" r="0.8947" stroke-width="0.5" stroke="black" fill="red"/>
  <circle cx="318.242" cy="-0.0308594" r="0.62035" stroke-width="0.5" stroke="red" fill="red"/>
   </g>
   <g id="cell129" type="Red Bacteria" dead="false" >
  <circle cx="340.221" cy="218.081" r="0.8947" stroke-width="0.5" stroke="black" fill="red"/>
  <circle cx="340.221" cy="218.081" r="0.62035" stroke-width="0.5" stroke="red" fill="red"/>
   </g>
   <g id="cell130" type="Red Bacteria" dead="false" >
  <circle cx="121.371" cy="7.71585" r="0.8947" stroke-width="0.5" stroke="black" fill="red"/>
  <circle cx="121.371" cy="7.71585" r="0.62035" stroke-width="0.5" stroke="red" fill="red"/>
   </g>
   <g id="cell131" type="Red Bacteria" dead="false" >
  <circle cx="400.06" cy="157.761" r="0.8947" stroke-width="0.5" stroke="black" fill="red"/>
  <circle cx="400.06" cy="157.761" r="0.62035" stroke-width="0.5" stroke="red" fill="red"/>
   </g>
   <g id="cell132" type="Red Bacteria" dead="false" >
  <circle cx="-0.0158622" cy="257.098" r="0.8947" stroke-width="0.5" stroke="black" fill="red"/>
  <circle cx="-0.0158622" cy="257.098" r="0.62035" stroke-width="0.5" stroke="red" fill="red"/>
   </g>
   <g id="cell133" type="Red Bacteria" dead="false" >
  <circle cx="400.033" cy="281.167" r="0.8947" stroke-width="0.5" stroke="black" fill="red"/>
  <circle cx="400.033" cy="281.167" r="0.62035" stroke-width="0.5" stroke="red" fill="red"/>
   </g>
   <g id="cell134" type="Red Bacteria" dead="false" >
  <circle cx="101.109" cy="157.491" r="0.8947" stroke-width="0.5" stroke="black" fill="red"/>
  <circle cx="101.109" cy="157.491" r="0.62035" stroke-width="0.5" stroke="red" fill="red"/>
   </g>
   <g id="cell135" type="Red Bacteria" dead="false" >
  <circle cx="400.043" cy="380.353" r="0.8947" stroke-width="0.5" stroke="black" fill="red"/>
  <circle cx="400.043" cy="380.353" r="0.62035" stroke-width="0.5" stroke="red" fill="red"/>
   </g>
   <g id="cell136" type="Red Bacteria" dead="false" >
  <circle cx="12.5283" cy="400.023" r="0.8947" stroke-width="0.5" stroke="black" fill="red"/>
  <circle cx="12.5283" cy="400.023" r="0.62035" stroke-width="0.5" stroke="red" fill="red"/>
   </g>
   <g id="cell137" type="Red Bacteria" dead="false" >
  <circle cx="101.831" cy="154.598" r="0.8947" stroke-width="0.5" stroke="black" fill="red"/>
  <circle cx="101.831" cy="154.598" r="0.62035" stroke-width="0.5" stroke="red" fill="red"/>
   </g>
   <g id="cell138" type="Red Bacteria" dead="false" >
  <circle cx="362.795" cy="-0.00578141" r="0.8947" stroke-width="0.5" stroke="black" fill="red"/>
  <circle cx="362.795" cy="-0.00578141" r="0.62035" stroke-width="0.5" stroke="red" fill="red"/>
   </g>
   <g id="cell139" type="Red Bacteria" dead="false" >
  <circle cx="303.519" cy="321.007" r="0.8947" stroke-width="0.5" stroke="black" fill="red"/>
  <circle cx="303.519" cy="321.007" r="0.62035" stroke-width="0.5" stroke="red" fill="red"/>
   </g>
   <g id="cell192" type="Red Bacteria" dead="false" >
  <circle cx="99.772" cy="153.871" r="0.8947" stroke-width="0.5" stroke="black" fill="red"/>
  <circle cx="99.772" cy="153.871" r="0.62035" stroke-width="0.5" stroke="red" fill="red"/>
   </g>
   <g id="cell141" type="Red Bacteria" dead="false" >
  <circle cx="140.257" cy="400.042" r="0.8947" stroke-width="0.5" stroke="black" fill="red"/>
  <circle cx="140.257" cy="400.042" r="0.62035" stroke-width="0.5" stroke="red" fill="red"/>
   </g>
   <g id="cell193" type="Red Bacteria" dead="false" >
  <circle cx="380.319" cy="239.565" r="0.8947" stroke-width="0.5" stroke="black" fill="red"/>
  <circle cx="380.319" cy="239.565" r="0.62035" stroke-width="0.5" stroke="red" fill="red"/>
   </g>
   <g id="cell143" type="Red Bacteria" dead="true" >
  <circle cx="97.2109" cy="164.979" r="0.173147" stroke-width="0.5" stroke="black" fill="red"/>
  <circle cx="97.2109" cy="164.979" r="0.172218" stroke-width="0.5" stroke="black" fill="black"/>
   </g>
   <g id="cell144" type="Red Bacteria" dead="false" >
  <circle cx="316.868" cy="-0.00345203" r="0.8947" stroke-width="0.5" stroke="black" fill="red"/>
  <circle cx="316.868" cy="-0.00345203" r="0.62035" stroke-width="0.5" stroke="red" fill="red"/>
   </g>
   <g id="cell145" type="Red Bacteria" dead="false" >
  <circle cx="-0.0386183" cy="255.589" r="0.8947" stroke-width="0.5" stroke="black" fill="red"/>
  <circle cx="-0.0386183" cy="255.589" r="0.62035" stroke-width="0.5" stroke="red" fill="red"/>
   </g>
   <g id="cell146" type="Red Bacteria" dead="false" >
  <circle cx="120.727" cy="1.45193" r="0.8947" stroke-width="0.5" stroke="black" fill="red"/>
  <circle cx="120.727" cy="1.45193" r="0.62035" stroke-width="0.5" stroke="red" fill="red"/>
   </g>
   <g id="cell147" type="Red Bacteria" dead="false" >
  <circle cx="310.385" cy="321.837" r="0.8947" stroke-width="0.5" stroke="black" fill="red"/>
  <circle cx="310.385" cy="321.837" r="0.62035" stroke-width="0.5" stroke="red" fill="red"/>
   </g>
   <g id="cell148" type="Red Bacteria" dead="false" >
  <circle cx="-0.0787209" cy="362.055" r="0.8947" stroke-width="0.5" stroke="black" fill="red"/>
  <circle cx="-0.0787209" cy="362.055" r="0.62035" stroke-width="0.5" stroke="red" fill="red"/>
   </g>
   <g id="cell149" type="Red Bacteria" dead="false" >
  <circle cx="119.515" cy="16.1022" r="0.8947" stroke-width="0.5" stroke="black" fill="red"/>
  <circle cx="119.515" cy="16.1022" r="0.62035" stroke-width="0.5" stroke="red" fill="red"/>
   </g>
   <g id="cell150" type="Red Bacteria" dead="false" >
  <circle cx="99.3842" cy="152.503" r="0.8947" stroke-width="0.5" stroke="black" fill="red"/>
  <circle cx="99.3842" cy="152.503" r="0.62035" stroke-width="0.5" stroke="red" fill="red"/>
   </g>
   <g id="cell151" type="Red Bacteria" dead="false" >
  <circle cx="400.01" cy="241.472" r="0.8947" stroke-width="0.5" stroke="black" fill="red"/>
  <circle cx="400.01" cy="241.472" r="0.62035" stroke-width="0.5" stroke="red" fill="red"/>
   </g>
   <g id="cell152" type="Red Bacteria" dead="false" >
  <circle cx="-0.0246997" cy="380.191" r="0.8947" stroke-width="0.5" stroke="black" fill="red"/>
  <circle cx="-0.0246997" cy="380.191" r="0.62035" stroke-width="0.5" stroke="red" fill="red"/>
   </g>
   <g id="cell153" type="Red Bacteria" dead="false" >
  <circle cx="98.7331" cy="162.244" r="0.8947" stroke-width="0.5" stroke="black" fill="red"/>
  <circle cx="98.7331" cy="162.244" r="0.62035" stroke-width="0.5" stroke="red" fill="red"/>
   </g>
   <g id="cell154" type="Red Bacteria" dead="false" >
  <circle cx="140.601" cy="384.719" r="0.8947" stroke-width="0.5" stroke="black" fill="red"/>
  <circle cx="140.601" cy="384.719" r="0.62035" stroke-width="0.5" stroke="red" fill="red"/>
   </g>
   <g id="cell155" type="Red Bacteria" dead="false" >
  <circle cx="10.8995" cy="400.032" r="0.8947" stroke-width="0.5" stroke="black" fill="red"/>
  <circle cx="10.8995" cy="400.032" r="0.62035" stroke-width="0.5" stroke="red" fill="red"/>
   </g>
   <g id="cell156" type="Red Bacteria" dead="false" >
  <circle cx="98.7684" cy="156.007" r="0.8947" stroke-width="0.5" stroke="black" fill="red"/>
  <circle cx="98.7684" cy="156.007" r="0.62035" stroke-width="0.5" stroke="red" fill="red"/>
   </g>
   <g id="cell157" type="Red Bacteria" dead="false" >
  <circle cx="275.661" cy="117.304" r="0.8947" stroke-width="0.5" stroke="black" fill="red"/>
  <circle cx="275.661" cy="117.304" r="0.62035" stroke-width="0.5" stroke="red" fill="red"/>
   </g>
   <g id="cell158" type="Red Bacteria" dead="false" >
  <circle cx="319.923" cy="-0.0712449" r="0.8947" stroke-width="0.5" stroke="black" fill="red"/>
  <circle cx="319.923" cy="-0.0712449" r="0.62035" stroke-width="0.5" stroke="red" fill="red"/>
   </g>
   <g id="cell159" type="Red Bacteria" dead="false" >
  <circle cx="297.811" cy="320.944" r="0.8947" stroke-width="0.5" stroke="black" fill="red"/>
  <circle cx="297.811" cy="320.944" r="0.62035" stroke-width="0.5" stroke="red" fill="red"/>
   </g>
   <g id="cell160" type="Red Bacteria" dead="false" >
  <circle cx="100.336" cy="156.259" r="0.8947" stroke-width="0.5" stroke="black" fill="red"/>
  <circle cx="100.336" cy="156.259" r="0.62035" stroke-width="0.5" stroke="red" fill="red"/>
   </g>
   <g id="cell161" type="Red Bacteria" dead="false" >
  <circle cx="321.851" cy="-0.00462734" r="0.8947" stroke-width="0.5" stroke="black" fill="red"/>
  <circle cx="321.851" cy="-0.00462734" r="0.62035" stroke-width="0.5" stroke="red" fill="red"/>
   </g>
   <g id="cell162" type="Red Bacteria" dead="false" >
  <circle cx="120.569" cy="3.8783" r="0.8947" stroke-width="0.5" stroke="black" fill="red"/>
  <circle cx="120.569" cy="3.8783" r="0.62035" stroke-width="0.5" stroke="red" fill="red"/>
   </g>
   <g id="cell163" type="Red Bacteria" dead="false" >
  <circle cx="100.621" cy="160.956" r="0.8947" stroke-width="0.5" stroke="black" fill="red"/>
  <circle cx="100.621" cy="160.956" r="0.62035" stroke-width="0.5" stroke="red" fill="red"/>
   </g>
   <g id="cell164" type="Red Bacteria" dead="false" >
  <circle cx="307.322" cy="320.768" r="0.8947" stroke-width="0.5" stroke="black" fill="red"/>
  <circle cx="307.322" cy="320.768" r="0.62035" stroke-width="0.5" stroke="red" fill="red"/>
   </g>
   <g id="cell165" type="Red Bacteria" dead="false" >
  <circle cx="99.917" cy="162.532" r="0.8947" stroke-width="0.5" stroke="black" fill="red"/>
  <circle cx="99.917" cy="162.532" r="0.62035" stroke-width="0.5" stroke="red" fill="red"/>
   </g>
   <g id="cell166" type="Red Bacteria" dead="true" >
  <circle cx="288.752" cy="104.067" r="0.151508" stroke-width="0.5" stroke="black" fill="red"/>
  <circle cx="288.752" cy="104.067" r="0.151128" stroke-width="0.5" stroke="black" fill="black"/>
   </g>
   <g id="cell167" type="Red Bacteria" dead="false" >
  <circle cx="99.8753" cy="155.104" r="0.8947" stroke-width="0.5" stroke="black" fill="red"/>
  <circle cx="99.8753" cy="155.104" r="0.62035" stroke-width="0.5" stroke="red" fill="red"/>
   </g>
   <g id="cell168" type="Red Bacteria" dead="false" >
  <circle cx="121.065" cy="17.3368" r="0.8947" stroke-width="0.5" stroke="black" fill="red"/>
  <circle cx="121.065" cy="17.3368" r="0.62035" stroke-width="0.5" stroke="red" fill="red"/>
   </g>
   <g id="cell169" type="Red Bacteria" dead="false" >
  <circle cx="122.587" cy="-0.0409396" r="0.8947" stroke-width="0.5" stroke="black" fill="red"/>
  <circle cx="122.587" cy="-0.0409396" r="0.62035" stroke-width="0.5" stroke="red" fill="red"/>
   </g>
   <g id="cell195" type="Red Bacteria" dead="false" >
  <circle cx="106.118" cy="164.65" r="0.8947" stroke-width="0.5" stroke="black" fill="red"/>
  <circle cx="106.118" cy="164.65" r="0.62035" stroke-width="0.5" stroke="red" fill="red"/>
   </g>
   <g id="cell171" type="Red Bacteria" dead="true" >
  <circle cx="103.461" cy="152.919" r="0.431009" stroke-width="0.5" stroke="black" fill="red"/>
  <circle cx="103.461" cy="152.919" r="0.349678" stroke-width="0.5" stroke="black" fill="black"/>
   </g>
   <g id="cell199" type="Red Bacteria" dead="false" >
  <circle cx="99.6196" cy="157.505" r="0.8947" stroke-width="0.5" stroke="black" fill="red"/>
  <circle cx="99.6196" cy="157.505" r="0.62035" stroke-width="0.5" stroke="red" fill="red"/>
   </g>
   <g id="cell173" type="Red Bacteria" dead="false" >
  <circle cx="301.517" cy="320.34" r="0.8947" stroke-width="0.5" stroke="black" fill="red"/>
  <circle cx="301.517" cy="320.34" r="0.62035" stroke-width="0.5" stroke="red" fill="red"/>
   </g>
   <g id="cell174" type="Red Bacteria" dead="false" >
  <circle cx="298.198" cy="113.061" r="0.8947" stroke-width="0.5" stroke="black" fill="red"/>
  <circle cx="298.198" cy="113.061" r="0.62035" stroke-width="0.5" stroke="red" fill="red"/>
   </g>
   <g id="cell175" type="Red Bacteria" dead="false" >
  <circle cx="319.529" cy="12.8796" r="0.8947" stroke-width="0.5" stroke="black" fill="red"/>
  <circle cx="319.529" cy="12.8796" r="0.62035" stroke-width="0.5" stroke="red" fill="red"/>
   </g>
   <g id="cell176" type="Red Bacteria" dead="false" >
  <circle cx="-0.0568013" cy="295.467" r="0.8947" stroke-width="0.5" stroke="black" fill="red"/>
  <circle cx="-0.0568013" cy="295.467" r="0.62035" stroke-width="0.5" stroke="red" fill="red"/>
   </g>
   <g id="cell177" type="Red Bacteria" dead="false" >
  <circle cx="120.556" cy="-0.0800605" r="0.8947" stroke-width="0.5" stroke="black" fill="red"/>
  <circle cx="120.556" cy="-0.0800605" r="0.62035" stroke-width="0.5" stroke="red" fill="red"/>
   </g>
   <g id="cell178" type="Red Bacteria" dead="false" >
  <circle cx="101.198" cy="158.95" r="0.8947" stroke-width="0.5" stroke="black" fill="red"/>
  <circle cx="101.198" cy="158.95" r="0.62035" stroke-width="0.5" stroke="red" fill="red"/>
   </g>
   <g id="cell179" type="Red Bacteria" dead="true" >
  <circle cx="97.1038" cy="152.399" r="0.418132" stroke-width="0.5" stroke="black" fill="red"/>
  <circle cx="97.1038" cy="152.399" r="0.342954" stroke-width="0.5" stroke="black" fill="black"/>
   </g>
   <g id="cell180" type="Red Bacteria" dead="false" >
  <circle cx="388.522" cy="239.911" r="0.8947" stroke-width="0.5" stroke="black" fill="red"/>
  <circle cx="388.522" cy="239.911" r="0.62035" stroke-width="0.5" stroke="red" fill="red"/>
   </g>
   <g id="cell181" type="Red Bacteria" dead="false" >
  <circle cx="100.798" cy="152.804" r="0.8947" stroke-width="0.5" stroke="black" fill="red"/>
  <circle cx="100.798" cy="152.804" r="0.62035" stroke-width="0.5" stroke="red" fill="red"/>
   </g>
   <g id="cell182" type="Red Bacteria" dead="false" >
  <circle cx="-0.0676062" cy="261.071" r="0.8947" stroke-width="0.5" stroke="black" fill="red"/>
  <circle cx="-0.0676062" cy="261.071" r="0.62035" stroke-width="0.5" stroke="red" fill="red"/>
   </g>
   <g id="cell183" type="Red Bacteria" dead="false" >
  <circle cx="400.037" cy="244.907" r="0.8947" stroke-width="0.5" stroke="black" fill="red"/>
  <circle cx="400.037" cy="244.907" r="0.62035" stroke-width="0.5" stroke="red" fill="red"/>
   </g>
   <g id="cell184" type="Red Bacteria" dead="false" >
  <circle cx="359.358" cy="-0.0333103" r="0.8947" stroke-width="0.5" stroke="black" fill="red"/>
  <circle cx="359.358" cy="-0.0333103" r="0.62035" stroke-width="0.5" stroke="red" fill="red"/>
   </g>
   <g id="cell185" type="Red Bacteria" dead="false" >
  <circle cx="19.7991" cy="400.077" r="0.8947" stroke-width="0.5" stroke="black" fill="red"/>
  <circle cx="19.7991" cy="400.077" r="0.62035" stroke-width="0.5" stroke="red" fill="red"/>
   </g>
   <g id="cell186" type="Red Bacteria" dead="false" >
  <circle cx="318.018" cy="11.3809" r="0.8947" stroke-width="0.5" stroke="black" fill="red"/>
  <circle cx="318.018" cy="11.3809" r="0.62035" stroke-width="0.5" stroke="red" fill="red"/>
   </g>
   <g id="cell187" type="Red Bacteria" dead="false" >
  <circle cx="98.5081" cy="159.933" r="0.8947" stroke-width="0.5" stroke="black" fill="red"/>
  <circle cx="98.5081" cy="159.933" r="0.62035" stroke-width="0.5" stroke="red" fill="red"/>
   </g>
   <g id="cell188" type="Red Bacteria" dead="false" >
  <circle cx="284.673" cy="116.248" r="0.8947" stroke-width="0.5" stroke="black" fill="red"/>
  <circle cx="284.673" cy="116.248" r="0.62035" stroke-width="0.5" stroke="red" fill="red"/>
   </g>
   <g id="cell189" type="Red Bacteria" dead="false" >
  <circle cx="-0.00916459" cy="89.4231" r="0.8947" stroke-width="0.5" stroke="black" fill="red"/>
  <circle cx="-0.00916459" cy="89.4231" r="0.62035" stroke-width="0.5" stroke="red" fill="red"/>
   </g>
   <g id="cell190" type="Red Bacteria" dead="false" >
  <circle cx="320.244" cy="17.4197" r="0.8947" stroke-width="0.5" stroke="black" fill="red"/>
  <circle cx="320.244" cy="17.4197" r="0.62035" stroke-width="0.5" stroke="red" fill="red"/>
   </g>
  </g>
 </g>
  <rect x="190" y="414" width="200" height="4" stroke-width="0.8" stroke="rgb(255,255,255)" fill="rgb(0,0,0)"/>
  <text x="192.5" y="411.5"
   font-family="Arial" font-size="10" fill="black" >
   200 &#956;m
  </text>
  <text x="10" y="418"
   font-family="Arial" font-size="7.5" fill="black" >
   0 days, 0 hours, 0 minutes, and 2.8193 seconds
  </text>
  <rect x="0" y="28" width="400" height="400" stroke-width="0.8" stroke="rgb(0,0,0)" fill="none"/>
</svg>
