<?xml version="1.0" encoding="UTF-8" standalone="no"?>
<!-- Created with PhysiCell (http://PhysiCell.MathCancer.org/) -->
<svg 
 xmlns:dc="http://purl.org/dc/elements/1.1/" 
 xmlns:cc="http://creativecommons.org/ns#" 
 xmlns:rdf="http://www.w3.org/1999/02/22-rdf-syntax-ns#" 
 xmlns:svg="http://www.w3.org/2000/svg" 
 xmlns="http://www.w3.org/2000/svg" 
 version="1.1" 
 width="400" 
 height="428" 
 id="svg2">
  <rect x="0" y="0" width="400" height="428" stroke-width="0.8" stroke="white" fill="white"/>
  <text x="5" y="12"
   font-family="Arial" font-size="10" fill="black" >
   Current time: 0 days, 16 hours, and 0.00 minutes, z = 0.00 &#956;m
  </text>
  <text x="5" y="23"
   font-family="Arial" font-size="9.5" fill="black" >
   192 agents
  </text>
 <g id="tissue" 
    transform="translate(0,428) scale(1,-1)">
  <g id="ECM">
  </g>
  <g id="cells">
   <g id="cell0" type="Blue Bacteria" dead="false" >
  <circle cx="62.7437" cy="400.041" r="0.750869" stroke-width="0.5" stroke="black" fill="grey"/>
  <circle cx="62.7437" cy="400.041" r="2.88283e-34" stroke-width="0.5" stroke="grey" fill="grey"/>
   </g>
   <g id="cell1" type="Blue Bacteria" dead="false" >
  <circle cx="277.032" cy="271.229" r="0.1971" stroke-width="0.5" stroke="black" fill="grey"/>
  <circle cx="277.032" cy="271.229" r="3.11168e-34" stroke-width="0.5" stroke="grey" fill="grey"/>
   </g>
   <g id="cell2" type="Blue Bacteria" dead="false" >
  <circle cx="266.114" cy="206.103" r="0.1971" stroke-width="0.5" stroke="black" fill="grey"/>
  <circle cx="266.114" cy="206.103" r="3.11168e-34" stroke-width="0.5" stroke="grey" fill="grey"/>
   </g>
   <g id="cell3" type="Blue Bacteria" dead="false" >
  <circle cx="400.001" cy="147.982" r="0.427104" stroke-width="0.5" stroke="black" fill="grey"/>
  <circle cx="400.001" cy="147.982" r="3.10601e-34" stroke-width="0.5" stroke="grey" fill="grey"/>
   </g>
   <g id="cell4" type="Blue Bacteria" dead="false" >
  <circle cx="343.35" cy="125.493" r="0.1971" stroke-width="0.5" stroke="black" fill="grey"/>
  <circle cx="343.35" cy="125.493" r="3.11168e-34" stroke-width="0.5" stroke="grey" fill="grey"/>
   </g>
   <g id="cell5" type="Blue Bacteria" dead="false" >
  <circle cx="124.938" cy="299.005" r="0.1971" stroke-width="0.5" stroke="black" fill="grey"/>
  <circle cx="124.938" cy="299.005" r="3.11168e-34" stroke-width="0.5" stroke="grey" fill="grey"/>
   </g>
   <g id="cell6" type="Blue Bacteria" dead="false" >
  <circle cx="273.617" cy="73.208" r="0.1971" stroke-width="0.5" stroke="black" fill="grey"/>
  <circle cx="273.617" cy="73.208" r="3.11168e-34" stroke-width="0.5" stroke="grey" fill="grey"/>
   </g>
   <g id="cell7" type="Blue Bacteria" dead="false" >
  <circle cx="276.8" cy="200.341" r="0.1971" stroke-width="0.5" stroke="black" fill="grey"/>
  <circle cx="276.8" cy="200.341" r="3.11168e-34" stroke-width="0.5" stroke="grey" fill="grey"/>
   </g>
   <g id="cell193" type="Red Bacteria" dead="false" >
  <circle cx="359.334" cy="239.376" r="0.8947" stroke-width="0.5" stroke="black" fill="red"/>
  <circle cx="359.334" cy="239.376" r="0.62035" stroke-width="0.5" stroke="red" fill="red"/>
   </g>
   <g id="cell9" type="Blue Bacteria" dead="false" >
  <circle cx="304.363" cy="180.356" r="0.1971" stroke-width="0.5" stroke="black" fill="grey"/>
  <circle cx="304.363" cy="180.356" r="3.11168e-34" stroke-width="0.5" stroke="grey" fill="grey"/>
   </g>
   <g id="cell10" type="Blue Bacteria" dead="false" >
  <circle cx="52.8767" cy="70.6387" r="0.1971" stroke-width="0.5" stroke="black" fill="grey"/>
  <circle cx="52.8767" cy="70.6387" r="3.11168e-34" stroke-width="0.5" stroke="grey" fill="grey"/>
   </g>
   <g id="cell11" type="Blue Bacteria" dead="false" >
  <circle cx="116.509" cy="400.074" r="0.393756" stroke-width="0.5" stroke="black" fill="grey"/>
  <circle cx="116.509" cy="400.074" r="3.10812e-34" stroke-width="0.5" stroke="grey" fill="grey"/>
   </g>
   <g id="cell12" type="Blue Bacteria" dead="false" >
  <circle cx="79.6854" cy="290.786" r="0.1971" stroke-width="0.5" stroke="black" fill="grey"/>
  <circle cx="79.6854" cy="290.786" r="3.11168e-34" stroke-width="0.5" stroke="grey" fill="grey"/>
   </g>
   <g id="cell13" type="Blue Bacteria" dead="false" >
  <circle cx="280.678" cy="100.821" r="0.1971" stroke-width="0.5" stroke="black" fill="grey"/>
  <circle cx="280.678" cy="100.821" r="3.11168e-34" stroke-width="0.5" stroke="grey" fill="grey"/>
   </g>
   <g id="cell14" type="Blue Bacteria" dead="false" >
  <circle cx="139.539" cy="400.062" r="0.213964" stroke-width="0.5" stroke="black" fill="grey"/>
  <circle cx="139.539" cy="400.062" r="3.11164e-34" stroke-width="0.5" stroke="grey" fill="grey"/>
   </g>
   <g id="cell15" type="Blue Bacteria" dead="false" >
  <circle cx="160.086" cy="174.514" r="0.1971" stroke-width="0.5" stroke="black" fill="grey"/>
  <circle cx="160.086" cy="174.514" r="3.11168e-34" stroke-width="0.5" stroke="grey" fill="grey"/>
   </g>
   <g id="cell16" type="Blue Bacteria" dead="false" >
  <circle cx="52.7178" cy="310.716" r="0.1971" stroke-width="0.5" stroke="black" fill="grey"/>
  <circle cx="52.7178" cy="310.716" r="3.11168e-34" stroke-width="0.5" stroke="grey" fill="grey"/>
   </g>
   <g id="cell17" type="Blue Bacteria" dead="false" >
  <circle cx="143.979" cy="46.4851" r="0.1971" stroke-width="0.5" stroke="black" fill="grey"/>
  <circle cx="143.979" cy="46.4851" r="3.11168e-34" stroke-width="0.5" stroke="grey" fill="grey"/>
   </g>
   <g id="cell192" type="Red Bacteria" dead="false" >
  <circle cx="117.561" cy="131.227" r="0.8947" stroke-width="0.5" stroke="black" fill="red"/>
  <circle cx="117.561" cy="131.227" r="0.62035" stroke-width="0.5" stroke="red" fill="red"/>
   </g>
   <g id="cell19" type="Blue Bacteria" dead="false" >
  <circle cx="295.774" cy="189.349" r="0.1971" stroke-width="0.5" stroke="black" fill="grey"/>
  <circle cx="295.774" cy="189.349" r="3.11168e-34" stroke-width="0.5" stroke="grey" fill="grey"/>
   </g>
   <g id="cell20" type="Blue Bacteria" dead="false" >
  <circle cx="400.021" cy="266.216" r="0.252135" stroke-width="0.5" stroke="black" fill="grey"/>
  <circle cx="400.021" cy="266.216" r="3.11145e-34" stroke-width="0.5" stroke="grey" fill="grey"/>
   </g>
   <g id="cell21" type="Blue Bacteria" dead="false" >
  <circle cx="272.148" cy="88.3001" r="0.1971" stroke-width="0.5" stroke="black" fill="grey"/>
  <circle cx="272.148" cy="88.3001" r="3.11168e-34" stroke-width="0.5" stroke="grey" fill="grey"/>
   </g>
   <g id="cell22" type="Blue Bacteria" dead="false" >
  <circle cx="12.1635" cy="62.3623" r="0.1971" stroke-width="0.5" stroke="black" fill="grey"/>
  <circle cx="12.1635" cy="62.3623" r="3.11168e-34" stroke-width="0.5" stroke="grey" fill="grey"/>
   </g>
   <g id="cell23" type="Blue Bacteria" dead="false" >
  <circle cx="145.154" cy="314.969" r="0.1971" stroke-width="0.5" stroke="black" fill="grey"/>
  <circle cx="145.154" cy="314.969" r="3.11168e-34" stroke-width="0.5" stroke="grey" fill="grey"/>
   </g>
   <g id="cell24" type="Blue Bacteria" dead="false" >
  <circle cx="272.706" cy="306.211" r="0.1971" stroke-width="0.5" stroke="black" fill="grey"/>
  <circle cx="272.706" cy="306.211" r="3.11168e-34" stroke-width="0.5" stroke="grey" fill="grey"/>
   </g>
   <g id="cell25" type="Blue Bacteria" dead="false" >
  <circle cx="-0.0424049" cy="84.7218" r="0.646103" stroke-width="0.5" stroke="black" fill="grey"/>
  <circle cx="-0.0424049" cy="84.7218" r="3.04418e-34" stroke-width="0.5" stroke="grey" fill="grey"/>
   </g>
   <g id="cell197" type="Red Bacteria" dead="false" >
  <circle cx="360.091" cy="242.324" r="0.8947" stroke-width="0.5" stroke="black" fill="red"/>
  <circle cx="360.091" cy="242.324" r="0.62035" stroke-width="0.5" stroke="red" fill="red"/>
   </g>
   <g id="cell27" type="Blue Bacteria" dead="false" >
  <circle cx="265.874" cy="262.297" r="0.1971" stroke-width="0.5" stroke="black" fill="grey"/>
  <circle cx="265.874" cy="262.297" r="3.11168e-34" stroke-width="0.5" stroke="grey" fill="grey"/>
   </g>
   <g id="cell28" type="Blue Bacteria" dead="false" >
  <circle cx="286.544" cy="64.032" r="0.1971" stroke-width="0.5" stroke="black" fill="grey"/>
  <circle cx="286.544" cy="64.032" r="3.11168e-34" stroke-width="0.5" stroke="grey" fill="grey"/>
   </g>
   <g id="cell29" type="Blue Bacteria" dead="false" >
  <circle cx="128.279" cy="39.8422" r="0.1971" stroke-width="0.5" stroke="black" fill="grey"/>
  <circle cx="128.279" cy="39.8422" r="3.11168e-34" stroke-width="0.5" stroke="grey" fill="grey"/>
   </g>
   <g id="cell30" type="Blue Bacteria" dead="false" >
  <circle cx="277.313" cy="286.399" r="0.1971" stroke-width="0.5" stroke="black" fill="grey"/>
  <circle cx="277.313" cy="286.399" r="3.11168e-34" stroke-width="0.5" stroke="grey" fill="grey"/>
   </g>
   <g id="cell31" type="Blue Bacteria" dead="false" >
  <circle cx="133.591" cy="400.077" r="0.750869" stroke-width="0.5" stroke="black" fill="grey"/>
  <circle cx="133.591" cy="400.077" r="2.88283e-34" stroke-width="0.5" stroke="grey" fill="grey"/>
   </g>
   <g id="cell32" type="Blue Bacteria" dead="false" >
  <circle cx="320.617" cy="256.865" r="0.1971" stroke-width="0.5" stroke="black" fill="grey"/>
  <circle cx="320.617" cy="256.865" r="3.11168e-34" stroke-width="0.5" stroke="grey" fill="grey"/>
   </g>
   <g id="cell33" type="Blue Bacteria" dead="false" >
  <circle cx="321.793" cy="180.255" r="0.1971" stroke-width="0.5" stroke="black" fill="grey"/>
  <circle cx="321.793" cy="180.255" r="3.11168e-34" stroke-width="0.5" stroke="grey" fill="grey"/>
   </g>
   <g id="cell34" type="Blue Bacteria" dead="false" >
  <circle cx="260.607" cy="-0.0639429" r="0.310924" stroke-width="0.5" stroke="black" fill="grey"/>
  <circle cx="260.607" cy="-0.0639429" r="3.11078e-34" stroke-width="0.5" stroke="grey" fill="grey"/>
   </g>
   <g id="cell35" type="Blue Bacteria" dead="false" >
  <circle cx="270.344" cy="265.476" r="0.1971" stroke-width="0.5" stroke="black" fill="grey"/>
  <circle cx="270.344" cy="265.476" r="3.11168e-34" stroke-width="0.5" stroke="grey" fill="grey"/>
   </g>
   <g id="cell36" type="Blue Bacteria" dead="false" >
  <circle cx="310.348" cy="150.312" r="0.1971" stroke-width="0.5" stroke="black" fill="grey"/>
  <circle cx="310.348" cy="150.312" r="3.11168e-34" stroke-width="0.5" stroke="grey" fill="grey"/>
   </g>
   <g id="cell37" type="Blue Bacteria" dead="false" >
  <circle cx="273.786" cy="400.032" r="0.704035" stroke-width="0.5" stroke="black" fill="grey"/>
  <circle cx="273.786" cy="400.032" r="2.98447e-34" stroke-width="0.5" stroke="grey" fill="grey"/>
   </g>
   <g id="cell38" type="Blue Bacteria" dead="false" >
  <circle cx="114.099" cy="277.486" r="0.1971" stroke-width="0.5" stroke="black" fill="grey"/>
  <circle cx="114.099" cy="277.486" r="3.11168e-34" stroke-width="0.5" stroke="grey" fill="grey"/>
   </g>
   <g id="cell39" type="Blue Bacteria" dead="false" >
  <circle cx="294.074" cy="313.249" r="0.1971" stroke-width="0.5" stroke="black" fill="grey"/>
  <circle cx="294.074" cy="313.249" r="3.11168e-34" stroke-width="0.5" stroke="grey" fill="grey"/>
   </g>
   <g id="cell40" type="Blue Bacteria" dead="false" >
  <circle cx="400.067" cy="302.273" r="0.366212" stroke-width="0.5" stroke="black" fill="grey"/>
  <circle cx="400.067" cy="302.273" r="3.10933e-34" stroke-width="0.5" stroke="grey" fill="grey"/>
   </g>
   <g id="cell195" type="Red Bacteria" dead="false" >
  <circle cx="120.478" cy="137.144" r="0.8947" stroke-width="0.5" stroke="black" fill="red"/>
  <circle cx="120.478" cy="137.144" r="0.62035" stroke-width="0.5" stroke="red" fill="red"/>
   </g>
   <g id="cell194" type="Red Bacteria" dead="false" >
  <circle cx="239.467" cy="400.017" r="0.8947" stroke-width="0.5" stroke="black" fill="red"/>
  <circle cx="239.467" cy="400.017" r="0.62035" stroke-width="0.5" stroke="red" fill="red"/>
   </g>
   <g id="cell43" type="Blue Bacteria" dead="false" >
  <circle cx="170.198" cy="322.417" r="0.1971" stroke-width="0.5" stroke="black" fill="grey"/>
  <circle cx="170.198" cy="322.417" r="3.11168e-34" stroke-width="0.5" stroke="grey" fill="grey"/>
   </g>
   <g id="cell44" type="Blue Bacteria" dead="false" >
  <circle cx="168.804" cy="-0.0118758" r="0.236544" stroke-width="0.5" stroke="black" fill="grey"/>
  <circle cx="168.804" cy="-0.0118758" r="3.11154e-34" stroke-width="0.5" stroke="grey" fill="grey"/>
   </g>
   <g id="cell45" type="Blue Bacteria" dead="false" >
  <circle cx="302.289" cy="252.033" r="0.1971" stroke-width="0.5" stroke="black" fill="grey"/>
  <circle cx="302.289" cy="252.033" r="3.11168e-34" stroke-width="0.5" stroke="grey" fill="grey"/>
   </g>
   <g id="cell46" type="Blue Bacteria" dead="false" >
  <circle cx="141.286" cy="218.457" r="0.1971" stroke-width="0.5" stroke="black" fill="grey"/>
  <circle cx="141.286" cy="218.457" r="3.11168e-34" stroke-width="0.5" stroke="grey" fill="grey"/>
   </g>
   <g id="cell47" type="Blue Bacteria" dead="false" >
  <circle cx="290.681" cy="325.473" r="0.1971" stroke-width="0.5" stroke="black" fill="grey"/>
  <circle cx="290.681" cy="325.473" r="3.11168e-34" stroke-width="0.5" stroke="grey" fill="grey"/>
   </g>
   <g id="cell48" type="Blue Bacteria" dead="false" >
  <circle cx="126.47" cy="196.065" r="0.1971" stroke-width="0.5" stroke="black" fill="grey"/>
  <circle cx="126.47" cy="196.065" r="3.11168e-34" stroke-width="0.5" stroke="grey" fill="grey"/>
   </g>
   <g id="cell49" type="Blue Bacteria" dead="false" >
  <circle cx="168.221" cy="170.123" r="0.1971" stroke-width="0.5" stroke="black" fill="grey"/>
  <circle cx="168.221" cy="170.123" r="3.11168e-34" stroke-width="0.5" stroke="grey" fill="grey"/>
   </g>
   <g id="cell50" type="Blue Bacteria" dead="false" >
  <circle cx="316.431" cy="350.975" r="0.1971" stroke-width="0.5" stroke="black" fill="grey"/>
  <circle cx="316.431" cy="350.975" r="3.11168e-34" stroke-width="0.5" stroke="grey" fill="grey"/>
   </g>
   <g id="cell51" type="Blue Bacteria" dead="false" >
  <circle cx="-0.0790557" cy="177.301" r="0.533455" stroke-width="0.5" stroke="black" fill="grey"/>
  <circle cx="-0.0790557" cy="177.301" r="3.09121e-34" stroke-width="0.5" stroke="grey" fill="grey"/>
   </g>
   <g id="cell52" type="Blue Bacteria" dead="false" >
  <circle cx="400.024" cy="61.4948" r="0.675785" stroke-width="0.5" stroke="black" fill="grey"/>
  <circle cx="400.024" cy="61.4948" r="3.01906e-34" stroke-width="0.5" stroke="grey" fill="grey"/>
   </g>
   <g id="cell53" type="Blue Bacteria" dead="false" >
  <circle cx="77.808" cy="157.163" r="0.1971" stroke-width="0.5" stroke="black" fill="grey"/>
  <circle cx="77.808" cy="157.163" r="3.11168e-34" stroke-width="0.5" stroke="grey" fill="grey"/>
   </g>
   <g id="cell54" type="Blue Bacteria" dead="false" >
  <circle cx="70.3265" cy="264.103" r="0.1971" stroke-width="0.5" stroke="black" fill="grey"/>
  <circle cx="70.3265" cy="264.103" r="3.11168e-34" stroke-width="0.5" stroke="grey" fill="grey"/>
   </g>
   <g id="cell55" type="Blue Bacteria" dead="false" >
  <circle cx="284.367" cy="145.014" r="0.1971" stroke-width="0.5" stroke="black" fill="grey"/>
  <circle cx="284.367" cy="145.014" r="3.11168e-34" stroke-width="0.5" stroke="grey" fill="grey"/>
   </g>
   <g id="cell56" type="Blue Bacteria" dead="false" >
  <circle cx="58.2722" cy="133.585" r="0.1971" stroke-width="0.5" stroke="black" fill="grey"/>
  <circle cx="58.2722" cy="133.585" r="3.11168e-34" stroke-width="0.5" stroke="grey" fill="grey"/>
   </g>
   <g id="cell57" type="Blue Bacteria" dead="false" >
  <circle cx="102.586" cy="166.46" r="0.1971" stroke-width="0.5" stroke="black" fill="grey"/>
  <circle cx="102.586" cy="166.46" r="3.11168e-34" stroke-width="0.5" stroke="grey" fill="grey"/>
   </g>
   <g id="cell58" type="Blue Bacteria" dead="false" >
  <circle cx="278.116" cy="165.454" r="0.1971" stroke-width="0.5" stroke="black" fill="grey"/>
  <circle cx="278.116" cy="165.454" r="3.11168e-34" stroke-width="0.5" stroke="grey" fill="grey"/>
   </g>
   <g id="cell59" type="Blue Bacteria" dead="false" >
  <circle cx="277.527" cy="331.122" r="0.1971" stroke-width="0.5" stroke="black" fill="grey"/>
  <circle cx="277.527" cy="331.122" r="3.11168e-34" stroke-width="0.5" stroke="grey" fill="grey"/>
   </g>
   <g id="cell60" type="Blue Bacteria" dead="false" >
  <circle cx="308.574" cy="400.002" r="0.322454" stroke-width="0.5" stroke="black" fill="grey"/>
  <circle cx="308.574" cy="400.002" r="3.11056e-34" stroke-width="0.5" stroke="grey" fill="grey"/>
   </g>
   <g id="cell61" type="Blue Bacteria" dead="false" >
  <circle cx="165.018" cy="400.002" r="0.22807" stroke-width="0.5" stroke="black" fill="grey"/>
  <circle cx="165.018" cy="400.002" r="3.11158e-34" stroke-width="0.5" stroke="grey" fill="grey"/>
   </g>
   <g id="cell62" type="Blue Bacteria" dead="false" >
  <circle cx="275.307" cy="335.553" r="0.1971" stroke-width="0.5" stroke="black" fill="grey"/>
  <circle cx="275.307" cy="335.553" r="3.11168e-34" stroke-width="0.5" stroke="grey" fill="grey"/>
   </g>
   <g id="cell63" type="Blue Bacteria" dead="false" >
  <circle cx="320.995" cy="331.793" r="0.1971" stroke-width="0.5" stroke="black" fill="grey"/>
  <circle cx="320.995" cy="331.793" r="3.11168e-34" stroke-width="0.5" stroke="grey" fill="grey"/>
   </g>
   <g id="cell64" type="Blue Bacteria" dead="false" >
  <circle cx="261.358" cy="132.029" r="0.1971" stroke-width="0.5" stroke="black" fill="grey"/>
  <circle cx="261.358" cy="132.029" r="3.11168e-34" stroke-width="0.5" stroke="grey" fill="grey"/>
   </g>
   <g id="cell65" type="Blue Bacteria" dead="false" >
  <circle cx="257.812" cy="257.795" r="0.1971" stroke-width="0.5" stroke="black" fill="grey"/>
  <circle cx="257.812" cy="257.795" r="3.11168e-34" stroke-width="0.5" stroke="grey" fill="grey"/>
   </g>
   <g id="cell66" type="Blue Bacteria" dead="false" >
  <circle cx="331.691" cy="223.765" r="0.1971" stroke-width="0.5" stroke="black" fill="grey"/>
  <circle cx="331.691" cy="223.765" r="3.11168e-34" stroke-width="0.5" stroke="grey" fill="grey"/>
   </g>
   <g id="cell67" type="Blue Bacteria" dead="false" >
  <circle cx="338.381" cy="104.176" r="0.1971" stroke-width="0.5" stroke="black" fill="grey"/>
  <circle cx="338.381" cy="104.176" r="3.11168e-34" stroke-width="0.5" stroke="grey" fill="grey"/>
   </g>
   <g id="cell68" type="Blue Bacteria" dead="false" >
  <circle cx="288.104" cy="306.734" r="0.1971" stroke-width="0.5" stroke="black" fill="grey"/>
  <circle cx="288.104" cy="306.734" r="3.11168e-34" stroke-width="0.5" stroke="grey" fill="grey"/>
   </g>
   <g id="cell69" type="Blue Bacteria" dead="false" >
  <circle cx="317.78" cy="249.281" r="0.1971" stroke-width="0.5" stroke="black" fill="grey"/>
  <circle cx="317.78" cy="249.281" r="3.11168e-34" stroke-width="0.5" stroke="grey" fill="grey"/>
   </g>
   <g id="cell70" type="Blue Bacteria" dead="false" >
  <circle cx="391.867" cy="108.288" r="0.1971" stroke-width="0.5" stroke="black" fill="grey"/>
  <circle cx="391.867" cy="108.288" r="3.11168e-34" stroke-width="0.5" stroke="grey" fill="grey"/>
   </g>
   <g id="cell71" type="Blue Bacteria" dead="false" >
  <circle cx="85.5679" cy="357.263" r="0.1971" stroke-width="0.5" stroke="black" fill="grey"/>
  <circle cx="85.5679" cy="357.263" r="3.11168e-34" stroke-width="0.5" stroke="grey" fill="grey"/>
   </g>
   <g id="cell72" type="Blue Bacteria" dead="false" >
  <circle cx="380.222" cy="400.005" r="0.591138" stroke-width="0.5" stroke="black" fill="grey"/>
  <circle cx="380.222" cy="400.005" r="3.07365e-34" stroke-width="0.5" stroke="grey" fill="grey"/>
   </g>
   <g id="cell73" type="Blue Bacteria" dead="false" >
  <circle cx="124.089" cy="265.998" r="0.1971" stroke-width="0.5" stroke="black" fill="grey"/>
  <circle cx="124.089" cy="265.998" r="3.11168e-34" stroke-width="0.5" stroke="grey" fill="grey"/>
   </g>
   <g id="cell74" type="Blue Bacteria" dead="false" >
  <circle cx="-0.00554925" cy="3.07738" r="0.561854" stroke-width="0.5" stroke="black" fill="grey"/>
  <circle cx="-0.00554925" cy="3.07738" r="3.0838e-34" stroke-width="0.5" stroke="grey" fill="grey"/>
   </g>
   <g id="cell75" type="Blue Bacteria" dead="false" >
  <circle cx="269.128" cy="236.395" r="0.1971" stroke-width="0.5" stroke="black" fill="grey"/>
  <circle cx="269.128" cy="236.395" r="3.11168e-34" stroke-width="0.5" stroke="grey" fill="grey"/>
   </g>
   <g id="cell76" type="Blue Bacteria" dead="false" >
  <circle cx="269.881" cy="333.39" r="0.1971" stroke-width="0.5" stroke="black" fill="grey"/>
  <circle cx="269.881" cy="333.39" r="3.11168e-34" stroke-width="0.5" stroke="grey" fill="grey"/>
   </g>
   <g id="cell77" type="Blue Bacteria" dead="false" >
  <circle cx="270.37" cy="326.268" r="0.1971" stroke-width="0.5" stroke="black" fill="grey"/>
  <circle cx="270.37" cy="326.268" r="3.11168e-34" stroke-width="0.5" stroke="grey" fill="grey"/>
   </g>
   <g id="cell78" type="Blue Bacteria" dead="false" >
  <circle cx="270.648" cy="400.005" r="0.221914" stroke-width="0.5" stroke="black" fill="grey"/>
  <circle cx="270.648" cy="400.005" r="3.11161e-34" stroke-width="0.5" stroke="grey" fill="grey"/>
   </g>
   <g id="cell79" type="Blue Bacteria" dead="false" >
  <circle cx="259.611" cy="109.035" r="0.1971" stroke-width="0.5" stroke="black" fill="grey"/>
  <circle cx="259.611" cy="109.035" r="3.11168e-34" stroke-width="0.5" stroke="grey" fill="grey"/>
   </g>
   <g id="cell80" type="Blue Bacteria" dead="false" >
  <circle cx="359.459" cy="188.787" r="0.1971" stroke-width="0.5" stroke="black" fill="grey"/>
  <circle cx="359.459" cy="188.787" r="3.11168e-34" stroke-width="0.5" stroke="grey" fill="grey"/>
   </g>
   <g id="cell198" type="Red Bacteria" dead="false" >
  <circle cx="121.169" cy="135.632" r="0.8947" stroke-width="0.5" stroke="black" fill="red"/>
  <circle cx="121.169" cy="135.632" r="0.62035" stroke-width="0.5" stroke="red" fill="red"/>
   </g>
   <g id="cell82" type="Blue Bacteria" dead="false" >
  <circle cx="286.767" cy="139.715" r="0.1971" stroke-width="0.5" stroke="black" fill="grey"/>
  <circle cx="286.767" cy="139.715" r="3.11168e-34" stroke-width="0.5" stroke="grey" fill="grey"/>
   </g>
   <g id="cell83" type="Blue Bacteria" dead="false" >
  <circle cx="292.177" cy="331.104" r="0.1971" stroke-width="0.5" stroke="black" fill="grey"/>
  <circle cx="292.177" cy="331.104" r="3.11168e-34" stroke-width="0.5" stroke="grey" fill="grey"/>
   </g>
   <g id="cell84" type="Blue Bacteria" dead="false" >
  <circle cx="213.813" cy="387.122" r="0.1971" stroke-width="0.5" stroke="black" fill="grey"/>
  <circle cx="213.813" cy="387.122" r="3.11168e-34" stroke-width="0.5" stroke="grey" fill="grey"/>
   </g>
   <g id="cell85" type="Blue Bacteria" dead="false" >
  <circle cx="145.822" cy="95.3842" r="0.1971" stroke-width="0.5" stroke="black" fill="grey"/>
  <circle cx="145.822" cy="95.3842" r="3.11168e-34" stroke-width="0.5" stroke="grey" fill="grey"/>
   </g>
   <g id="cell86" type="Blue Bacteria" dead="false" >
  <circle cx="263.305" cy="183.898" r="0.1971" stroke-width="0.5" stroke="black" fill="grey"/>
  <circle cx="263.305" cy="183.898" r="3.11168e-34" stroke-width="0.5" stroke="grey" fill="grey"/>
   </g>
   <g id="cell87" type="Blue Bacteria" dead="false" >
  <circle cx="400.008" cy="251.694" r="0.74295" stroke-width="0.5" stroke="black" fill="grey"/>
  <circle cx="400.008" cy="251.694" r="2.90374e-34" stroke-width="0.5" stroke="grey" fill="grey"/>
   </g>
   <g id="cell88" type="Blue Bacteria" dead="false" >
  <circle cx="259.96" cy="308.077" r="0.1971" stroke-width="0.5" stroke="black" fill="grey"/>
  <circle cx="259.96" cy="308.077" r="3.11168e-34" stroke-width="0.5" stroke="grey" fill="grey"/>
   </g>
   <g id="cell89" type="Blue Bacteria" dead="false" >
  <circle cx="158.083" cy="257.21" r="0.1971" stroke-width="0.5" stroke="black" fill="grey"/>
  <circle cx="158.083" cy="257.21" r="3.11168e-34" stroke-width="0.5" stroke="grey" fill="grey"/>
   </g>
   <g id="cell90" type="Blue Bacteria" dead="false" >
  <circle cx="329.25" cy="66.3849" r="0.1971" stroke-width="0.5" stroke="black" fill="grey"/>
  <circle cx="329.25" cy="66.3849" r="3.11168e-34" stroke-width="0.5" stroke="grey" fill="grey"/>
   </g>
   <g id="cell91" type="Blue Bacteria" dead="false" >
  <circle cx="269.712" cy="-0.0961623" r="0.626048" stroke-width="0.5" stroke="black" fill="grey"/>
  <circle cx="269.712" cy="-0.0961623" r="3.05694e-34" stroke-width="0.5" stroke="grey" fill="grey"/>
   </g>
   <g id="cell92" type="Blue Bacteria" dead="false" >
  <circle cx="78.6849" cy="128.528" r="0.1971" stroke-width="0.5" stroke="black" fill="grey"/>
  <circle cx="78.6849" cy="128.528" r="3.11168e-34" stroke-width="0.5" stroke="grey" fill="grey"/>
   </g>
   <g id="cell93" type="Blue Bacteria" dead="false" >
  <circle cx="123.321" cy="244.554" r="0.1971" stroke-width="0.5" stroke="black" fill="grey"/>
  <circle cx="123.321" cy="244.554" r="3.11168e-34" stroke-width="0.5" stroke="grey" fill="grey"/>
   </g>
   <g id="cell94" type="Blue Bacteria" dead="false" >
  <circle cx="400.034" cy="293.845" r="0.454837" stroke-width="0.5" stroke="black" fill="grey"/>
  <circle cx="400.034" cy="293.845" r="3.10355e-34" stroke-width="0.5" stroke="grey" fill="grey"/>
   </g>
   <g id="cell95" type="Blue Bacteria" dead="false" >
  <circle cx="344.534" cy="210.415" r="0.1971" stroke-width="0.5" stroke="black" fill="grey"/>
  <circle cx="344.534" cy="210.415" r="3.11168e-34" stroke-width="0.5" stroke="grey" fill="grey"/>
   </g>
   <g id="cell96" type="Blue Bacteria" dead="false" >
  <circle cx="383.143" cy="341.546" r="0.1971" stroke-width="0.5" stroke="black" fill="grey"/>
  <circle cx="383.143" cy="341.546" r="3.11168e-34" stroke-width="0.5" stroke="grey" fill="grey"/>
   </g>
   <g id="cell97" type="Blue Bacteria" dead="false" >
  <circle cx="312.213" cy="149.091" r="0.1971" stroke-width="0.5" stroke="black" fill="grey"/>
  <circle cx="312.213" cy="149.091" r="3.11168e-34" stroke-width="0.5" stroke="grey" fill="grey"/>
   </g>
   <g id="cell98" type="Blue Bacteria" dead="false" >
  <circle cx="365.185" cy="347.653" r="0.1971" stroke-width="0.5" stroke="black" fill="grey"/>
  <circle cx="365.185" cy="347.653" r="3.11168e-34" stroke-width="0.5" stroke="grey" fill="grey"/>
   </g>
   <g id="cell99" type="Blue Bacteria" dead="false" >
  <circle cx="400.033" cy="95.4626" r="0.561854" stroke-width="0.5" stroke="black" fill="grey"/>
  <circle cx="400.033" cy="95.4626" r="3.0838e-34" stroke-width="0.5" stroke="grey" fill="grey"/>
   </g>
   <g id="cell100" type="Red Bacteria" dead="false" >
  <circle cx="359.791" cy="240.835" r="0.8947" stroke-width="0.5" stroke="black" fill="red"/>
  <circle cx="359.791" cy="240.835" r="0.62035" stroke-width="0.5" stroke="red" fill="red"/>
   </g>
   <g id="cell101" type="Red Bacteria" dead="false" >
  <circle cx="118.895" cy="132.157" r="0.8947" stroke-width="0.5" stroke="black" fill="red"/>
  <circle cx="118.895" cy="132.157" r="0.62035" stroke-width="0.5" stroke="red" fill="red"/>
   </g>
   <g id="cell102" type="Red Bacteria" dead="false" >
  <circle cx="256.778" cy="200.212" r="0.8947" stroke-width="0.5" stroke="black" fill="red"/>
  <circle cx="256.778" cy="200.212" r="0.62035" stroke-width="0.5" stroke="red" fill="red"/>
   </g>
   <g id="cell103" type="Red Bacteria" dead="false" >
  <circle cx="380.027" cy="398.653" r="0.8947" stroke-width="0.5" stroke="black" fill="red"/>
  <circle cx="380.027" cy="398.653" r="0.62035" stroke-width="0.5" stroke="red" fill="red"/>
   </g>
   <g id="cell104" type="Red Bacteria" dead="false" >
  <circle cx="400.004" cy="388.527" r="0.8947" stroke-width="0.5" stroke="black" fill="red"/>
  <circle cx="400.004" cy="388.527" r="0.62035" stroke-width="0.5" stroke="red" fill="red"/>
   </g>
   <g id="cell105" type="Red Bacteria" dead="false" >
  <circle cx="-0.057472" cy="386.491" r="0.8947" stroke-width="0.5" stroke="black" fill="red"/>
  <circle cx="-0.057472" cy="386.491" r="0.62035" stroke-width="0.5" stroke="red" fill="red"/>
   </g>
   <g id="cell106" type="Red Bacteria" dead="false" >
  <circle cx="120.298" cy="130.026" r="0.8947" stroke-width="0.5" stroke="black" fill="red"/>
  <circle cx="120.298" cy="130.026" r="0.62035" stroke-width="0.5" stroke="red" fill="red"/>
   </g>
   <g id="cell107" type="Red Bacteria" dead="false" >
  <circle cx="300.495" cy="336.34" r="0.8947" stroke-width="0.5" stroke="black" fill="red"/>
  <circle cx="300.495" cy="336.34" r="0.62035" stroke-width="0.5" stroke="red" fill="red"/>
   </g>
   <g id="cell108" type="Red Bacteria" dead="false" >
  <circle cx="160.705" cy="400.062" r="0.8947" stroke-width="0.5" stroke="black" fill="red"/>
  <circle cx="160.705" cy="400.062" r="0.62035" stroke-width="0.5" stroke="red" fill="red"/>
   </g>
   <g id="cell109" type="Red Bacteria" dead="false" >
  <circle cx="362.833" cy="230.858" r="0.8947" stroke-width="0.5" stroke="black" fill="red"/>
  <circle cx="362.833" cy="230.858" r="0.62035" stroke-width="0.5" stroke="red" fill="red"/>
   </g>
   <g id="cell110" type="Red Bacteria" dead="false" >
  <circle cx="289.128" cy="340.698" r="0.8947" stroke-width="0.5" stroke="black" fill="red"/>
  <circle cx="289.128" cy="340.698" r="0.62035" stroke-width="0.5" stroke="red" fill="red"/>
   </g>
   <g id="cell111" type="Red Bacteria" dead="false" >
  <circle cx="120.673" cy="139.052" r="0.8947" stroke-width="0.5" stroke="black" fill="red"/>
  <circle cx="120.673" cy="139.052" r="0.62035" stroke-width="0.5" stroke="red" fill="red"/>
   </g>
   <g id="cell112" type="Red Bacteria" dead="false" >
  <circle cx="260.579" cy="197.197" r="0.8947" stroke-width="0.5" stroke="black" fill="red"/>
  <circle cx="260.579" cy="197.197" r="0.62035" stroke-width="0.5" stroke="red" fill="red"/>
   </g>
   <g id="cell113" type="Red Bacteria" dead="false" >
  <circle cx="157.875" cy="400.036" r="0.8947" stroke-width="0.5" stroke="black" fill="red"/>
  <circle cx="157.875" cy="400.036" r="0.62035" stroke-width="0.5" stroke="red" fill="red"/>
   </g>
   <g id="cell114" type="Red Bacteria" dead="false" >
  <circle cx="-0.0170762" cy="31.3223" r="0.8947" stroke-width="0.5" stroke="black" fill="red"/>
  <circle cx="-0.0170762" cy="31.3223" r="0.62035" stroke-width="0.5" stroke="red" fill="red"/>
   </g>
   <g id="cell115" type="Red Bacteria" dead="false" >
  <circle cx="117.481" cy="-0.0584107" r="0.8947" stroke-width="0.5" stroke="black" fill="red"/>
  <circle cx="117.481" cy="-0.0584107" r="0.62035" stroke-width="0.5" stroke="red" fill="red"/>
   </g>
   <g id="cell116" type="Red Bacteria" dead="false" >
  <circle cx="15.9457" cy="400.02" r="0.8947" stroke-width="0.5" stroke="black" fill="red"/>
  <circle cx="15.9457" cy="400.02" r="0.62035" stroke-width="0.5" stroke="red" fill="red"/>
   </g>
   <g id="cell117" type="Red Bacteria" dead="false" >
  <circle cx="120.533" cy="129.21" r="0.8947" stroke-width="0.5" stroke="black" fill="red"/>
  <circle cx="120.533" cy="129.21" r="0.62035" stroke-width="0.5" stroke="red" fill="red"/>
   </g>
   <g id="cell118" type="Red Bacteria" dead="false" >
  <circle cx="258.889" cy="191.336" r="0.8947" stroke-width="0.5" stroke="black" fill="red"/>
  <circle cx="258.889" cy="191.336" r="0.62035" stroke-width="0.5" stroke="red" fill="red"/>
   </g>
   <g id="cell119" type="Red Bacteria" dead="false" >
  <circle cx="358.948" cy="238.045" r="0.8947" stroke-width="0.5" stroke="black" fill="red"/>
  <circle cx="358.948" cy="238.045" r="0.62035" stroke-width="0.5" stroke="red" fill="red"/>
   </g>
   <g id="cell120" type="Red Bacteria" dead="false" >
  <circle cx="117.886" cy="122.921" r="0.8947" stroke-width="0.5" stroke="black" fill="red"/>
  <circle cx="117.886" cy="122.921" r="0.62035" stroke-width="0.5" stroke="red" fill="red"/>
   </g>
   <g id="cell121" type="Red Bacteria" dead="false" >
  <circle cx="120.421" cy="133.82" r="0.8947" stroke-width="0.5" stroke="black" fill="red"/>
  <circle cx="120.421" cy="133.82" r="0.62035" stroke-width="0.5" stroke="red" fill="red"/>
   </g>
   <g id="cell122" type="Red Bacteria" dead="false" >
  <circle cx="160.381" cy="378.907" r="0.8947" stroke-width="0.5" stroke="black" fill="red"/>
  <circle cx="160.381" cy="378.907" r="0.62035" stroke-width="0.5" stroke="red" fill="red"/>
   </g>
   <g id="cell123" type="Red Bacteria" dead="false" >
  <circle cx="394.314" cy="400.098" r="0.8947" stroke-width="0.5" stroke="black" fill="red"/>
  <circle cx="394.314" cy="400.098" r="0.62035" stroke-width="0.5" stroke="red" fill="red"/>
   </g>
   <g id="cell124" type="Red Bacteria" dead="false" >
  <circle cx="257.968" cy="200.882" r="0.8947" stroke-width="0.5" stroke="black" fill="red"/>
  <circle cx="257.968" cy="200.882" r="0.62035" stroke-width="0.5" stroke="red" fill="red"/>
   </g>
   <g id="cell125" type="Red Bacteria" dead="false" >
  <circle cx="118.168" cy="127.809" r="0.8947" stroke-width="0.5" stroke="black" fill="red"/>
  <circle cx="118.168" cy="127.809" r="0.62035" stroke-width="0.5" stroke="red" fill="red"/>
   </g>
   <g id="cell126" type="Red Bacteria" dead="false" >
  <circle cx="361.374" cy="400.05" r="0.8947" stroke-width="0.5" stroke="black" fill="red"/>
  <circle cx="361.374" cy="400.05" r="0.62035" stroke-width="0.5" stroke="red" fill="red"/>
   </g>
   <g id="cell127" type="Red Bacteria" dead="false" >
  <circle cx="9.62878" cy="400.04" r="0.8947" stroke-width="0.5" stroke="black" fill="red"/>
  <circle cx="9.62878" cy="400.04" r="0.62035" stroke-width="0.5" stroke="red" fill="red"/>
   </g>
   <g id="cell128" type="Red Bacteria" dead="false" >
  <circle cx="319.782" cy="-0.0109649" r="0.8947" stroke-width="0.5" stroke="black" fill="red"/>
  <circle cx="319.782" cy="-0.0109649" r="0.62035" stroke-width="0.5" stroke="red" fill="red"/>
   </g>
   <g id="cell129" type="Red Bacteria" dead="false" >
  <circle cx="344.523" cy="221.751" r="0.8947" stroke-width="0.5" stroke="black" fill="red"/>
  <circle cx="344.523" cy="221.751" r="0.62035" stroke-width="0.5" stroke="red" fill="red"/>
   </g>
   <g id="cell130" type="Red Bacteria" dead="false" >
  <circle cx="121.712" cy="-0.0296209" r="0.8947" stroke-width="0.5" stroke="black" fill="red"/>
  <circle cx="121.712" cy="-0.0296209" r="0.62035" stroke-width="0.5" stroke="red" fill="red"/>
   </g>
   <g id="cell131" type="Red Bacteria" dead="false" >
  <circle cx="400.029" cy="200.223" r="0.8947" stroke-width="0.5" stroke="black" fill="red"/>
  <circle cx="400.029" cy="200.223" r="0.62035" stroke-width="0.5" stroke="red" fill="red"/>
   </g>
   <g id="cell132" type="Red Bacteria" dead="false" >
  <circle cx="-0.0032313" cy="380.059" r="0.8947" stroke-width="0.5" stroke="black" fill="red"/>
  <circle cx="-0.0032313" cy="380.059" r="0.62035" stroke-width="0.5" stroke="red" fill="red"/>
   </g>
   <g id="cell133" type="Red Bacteria" dead="false" >
  <circle cx="378.155" cy="274.208" r="0.8947" stroke-width="0.5" stroke="black" fill="red"/>
  <circle cx="378.155" cy="274.208" r="0.62035" stroke-width="0.5" stroke="red" fill="red"/>
   </g>
   <g id="cell134" type="Red Bacteria" dead="false" >
  <circle cx="120.244" cy="124.436" r="0.8947" stroke-width="0.5" stroke="black" fill="red"/>
  <circle cx="120.244" cy="124.436" r="0.62035" stroke-width="0.5" stroke="red" fill="red"/>
   </g>
   <g id="cell135" type="Red Bacteria" dead="false" >
  <circle cx="400.084" cy="385.317" r="0.8947" stroke-width="0.5" stroke="black" fill="red"/>
  <circle cx="400.084" cy="385.317" r="0.62035" stroke-width="0.5" stroke="red" fill="red"/>
   </g>
   <g id="cell136" type="Red Bacteria" dead="false" >
  <circle cx="163.634" cy="400.03" r="0.8947" stroke-width="0.5" stroke="black" fill="red"/>
  <circle cx="163.634" cy="400.03" r="0.62035" stroke-width="0.5" stroke="red" fill="red"/>
   </g>
   <g id="cell137" type="Red Bacteria" dead="false" >
  <circle cx="118.922" cy="130.275" r="0.8947" stroke-width="0.5" stroke="black" fill="red"/>
  <circle cx="118.922" cy="130.275" r="0.62035" stroke-width="0.5" stroke="red" fill="red"/>
   </g>
   <g id="cell138" type="Red Bacteria" dead="false" >
  <circle cx="387.306" cy="-0.0726748" r="0.8947" stroke-width="0.5" stroke="black" fill="red"/>
  <circle cx="387.306" cy="-0.0726748" r="0.62035" stroke-width="0.5" stroke="red" fill="red"/>
   </g>
   <g id="cell139" type="Red Bacteria" dead="false" >
  <circle cx="298.31" cy="339.19" r="0.8947" stroke-width="0.5" stroke="black" fill="red"/>
  <circle cx="298.31" cy="339.19" r="0.62035" stroke-width="0.5" stroke="red" fill="red"/>
   </g>
   <g id="cell140" type="Red Bacteria" dead="false" >
  <circle cx="119.201" cy="2.36171" r="0.8947" stroke-width="0.5" stroke="black" fill="red"/>
  <circle cx="119.201" cy="2.36171" r="0.62035" stroke-width="0.5" stroke="red" fill="red"/>
   </g>
   <g id="cell141" type="Red Bacteria" dead="false" >
  <circle cx="160.993" cy="386.681" r="0.8947" stroke-width="0.5" stroke="black" fill="red"/>
  <circle cx="160.993" cy="386.681" r="0.62035" stroke-width="0.5" stroke="red" fill="red"/>
   </g>
   <g id="cell142" type="Red Bacteria" dead="false" >
  <circle cx="121.061" cy="143.46" r="0.8947" stroke-width="0.5" stroke="black" fill="red"/>
  <circle cx="121.061" cy="143.46" r="0.62035" stroke-width="0.5" stroke="red" fill="red"/>
   </g>
   <g id="cell143" type="Red Bacteria" dead="false" >
  <circle cx="159.617" cy="385.018" r="0.8947" stroke-width="0.5" stroke="black" fill="red"/>
  <circle cx="159.617" cy="385.018" r="0.62035" stroke-width="0.5" stroke="red" fill="red"/>
   </g>
   <g id="cell144" type="Red Bacteria" dead="false" >
  <circle cx="318.658" cy="-0.0422299" r="0.8947" stroke-width="0.5" stroke="black" fill="red"/>
  <circle cx="318.658" cy="-0.0422299" r="0.62035" stroke-width="0.5" stroke="red" fill="red"/>
   </g>
   <g id="cell199" type="Red Bacteria" dead="false" >
  <circle cx="120.505" cy="131.524" r="0.8947" stroke-width="0.5" stroke="black" fill="red"/>
  <circle cx="120.505" cy="131.524" r="0.62035" stroke-width="0.5" stroke="red" fill="red"/>
   </g>
   <g id="cell146" type="Red Bacteria" dead="false" >
  <circle cx="125.117" cy="17.0475" r="0.8947" stroke-width="0.5" stroke="black" fill="red"/>
  <circle cx="125.117" cy="17.0475" r="0.62035" stroke-width="0.5" stroke="red" fill="red"/>
   </g>
   <g id="cell147" type="Red Bacteria" dead="false" >
  <circle cx="288.778" cy="338.8" r="0.8947" stroke-width="0.5" stroke="black" fill="red"/>
  <circle cx="288.778" cy="338.8" r="0.62035" stroke-width="0.5" stroke="red" fill="red"/>
   </g>
   <g id="cell148" type="Red Bacteria" dead="false" >
  <circle cx="-0.0983096" cy="391.835" r="0.8947" stroke-width="0.5" stroke="black" fill="red"/>
  <circle cx="-0.0983096" cy="391.835" r="0.62035" stroke-width="0.5" stroke="red" fill="red"/>
   </g>
   <g id="cell149" type="Red Bacteria" dead="false" >
  <circle cx="114.804" cy="-0.053258" r="0.8947" stroke-width="0.5" stroke="black" fill="red"/>
  <circle cx="114.804" cy="-0.053258" r="0.62035" stroke-width="0.5" stroke="red" fill="red"/>
   </g>
   <g id="cell150" type="Red Bacteria" dead="false" >
  <circle cx="118.231" cy="136.131" r="0.8947" stroke-width="0.5" stroke="black" fill="red"/>
  <circle cx="118.231" cy="136.131" r="0.62035" stroke-width="0.5" stroke="red" fill="red"/>
   </g>
   <g id="cell151" type="Red Bacteria" dead="true" >
  <circle cx="360.779" cy="239.173" r="0.8947" stroke-width="0.5" stroke="black" fill="red"/>
  <circle cx="360.779" cy="239.173" r="0.62035" stroke-width="0.5" stroke="black" fill="black"/>
   </g>
   <g id="cell152" type="Red Bacteria" dead="false" >
  <circle cx="7.82376" cy="400.047" r="0.8947" stroke-width="0.5" stroke="black" fill="red"/>
  <circle cx="7.82376" cy="400.047" r="0.62035" stroke-width="0.5" stroke="red" fill="red"/>
   </g>
   <g id="cell153" type="Red Bacteria" dead="false" >
  <circle cx="159.374" cy="400.063" r="0.8947" stroke-width="0.5" stroke="black" fill="red"/>
  <circle cx="159.374" cy="400.063" r="0.62035" stroke-width="0.5" stroke="red" fill="red"/>
   </g>
   <g id="cell196" type="Red Bacteria" dead="false" >
  <circle cx="-0.066081" cy="389.059" r="0.8947" stroke-width="0.5" stroke="black" fill="red"/>
  <circle cx="-0.066081" cy="389.059" r="0.62035" stroke-width="0.5" stroke="red" fill="red"/>
   </g>
   <g id="cell155" type="Red Bacteria" dead="false" >
  <circle cx="18.7074" cy="400.004" r="0.8947" stroke-width="0.5" stroke="black" fill="red"/>
  <circle cx="18.7074" cy="400.004" r="0.62035" stroke-width="0.5" stroke="red" fill="red"/>
   </g>
   <g id="cell156" type="Red Bacteria" dead="false" >
  <circle cx="119.687" cy="136.02" r="0.8947" stroke-width="0.5" stroke="black" fill="red"/>
  <circle cx="119.687" cy="136.02" r="0.62035" stroke-width="0.5" stroke="red" fill="red"/>
   </g>
   <g id="cell157" type="Red Bacteria" dead="false" >
  <circle cx="322.705" cy="-0.0515298" r="0.8947" stroke-width="0.5" stroke="black" fill="red"/>
  <circle cx="322.705" cy="-0.0515298" r="0.62035" stroke-width="0.5" stroke="red" fill="red"/>
   </g>
   <g id="cell158" type="Red Bacteria" dead="false" >
  <circle cx="319.713" cy="17.3829" r="0.8947" stroke-width="0.5" stroke="black" fill="red"/>
  <circle cx="319.713" cy="17.3829" r="0.62035" stroke-width="0.5" stroke="red" fill="red"/>
   </g>
   <g id="cell159" type="Red Bacteria" dead="false" >
  <circle cx="400.009" cy="396.458" r="0.8947" stroke-width="0.5" stroke="black" fill="red"/>
  <circle cx="400.009" cy="396.458" r="0.62035" stroke-width="0.5" stroke="red" fill="red"/>
   </g>
   <g id="cell160" type="Red Bacteria" dead="false" >
  <circle cx="120.384" cy="127.342" r="0.8947" stroke-width="0.5" stroke="black" fill="red"/>
  <circle cx="120.384" cy="127.342" r="0.62035" stroke-width="0.5" stroke="red" fill="red"/>
   </g>
   <g id="cell161" type="Red Bacteria" dead="false" >
  <circle cx="320.487" cy="19.5768" r="0.8947" stroke-width="0.5" stroke="black" fill="red"/>
  <circle cx="320.487" cy="19.5768" r="0.62035" stroke-width="0.5" stroke="red" fill="red"/>
   </g>
   <g id="cell162" type="Red Bacteria" dead="false" >
  <circle cx="116.201" cy="-0.0476963" r="0.8947" stroke-width="0.5" stroke="black" fill="red"/>
  <circle cx="116.201" cy="-0.0476963" r="0.62035" stroke-width="0.5" stroke="red" fill="red"/>
   </g>
   <g id="cell163" type="Red Bacteria" dead="false" >
  <circle cx="119.163" cy="120.019" r="0.8947" stroke-width="0.5" stroke="black" fill="red"/>
  <circle cx="119.163" cy="120.019" r="0.62035" stroke-width="0.5" stroke="red" fill="red"/>
   </g>
   <g id="cell164" type="Red Bacteria" dead="false" >
  <circle cx="378.823" cy="379.629" r="0.8947" stroke-width="0.5" stroke="black" fill="red"/>
  <circle cx="378.823" cy="379.629" r="0.62035" stroke-width="0.5" stroke="red" fill="red"/>
   </g>
   <g id="cell165" type="Red Bacteria" dead="false" >
  <circle cx="118.979" cy="133.695" r="0.8947" stroke-width="0.5" stroke="black" fill="red"/>
  <circle cx="118.979" cy="133.695" r="0.62035" stroke-width="0.5" stroke="red" fill="red"/>
   </g>
   <g id="cell166" type="Red Bacteria" dead="false" >
  <circle cx="318.415" cy="4.26129" r="0.8947" stroke-width="0.5" stroke="black" fill="red"/>
  <circle cx="318.415" cy="4.26129" r="0.62035" stroke-width="0.5" stroke="red" fill="red"/>
   </g>
   <g id="cell167" type="Red Bacteria" dead="false" >
  <circle cx="120.497" cy="120.39" r="0.8947" stroke-width="0.5" stroke="black" fill="red"/>
  <circle cx="120.497" cy="120.39" r="0.62035" stroke-width="0.5" stroke="red" fill="red"/>
   </g>
   <g id="cell168" type="Red Bacteria" dead="false" >
  <circle cx="119.98" cy="7.40061" r="0.8947" stroke-width="0.5" stroke="black" fill="red"/>
  <circle cx="119.98" cy="7.40061" r="0.62035" stroke-width="0.5" stroke="red" fill="red"/>
   </g>
   <g id="cell169" type="Red Bacteria" dead="false" >
  <circle cx="120.245" cy="-0.028037" r="0.8947" stroke-width="0.5" stroke="black" fill="red"/>
  <circle cx="120.245" cy="-0.028037" r="0.62035" stroke-width="0.5" stroke="red" fill="red"/>
   </g>
   <g id="cell170" type="Red Bacteria" dead="false" >
  <circle cx="122.024" cy="132.366" r="0.8947" stroke-width="0.5" stroke="black" fill="red"/>
  <circle cx="122.024" cy="132.366" r="0.62035" stroke-width="0.5" stroke="red" fill="red"/>
   </g>
   <g id="cell171" type="Red Bacteria" dead="false" >
  <circle cx="118.624" cy="138.779" r="0.8947" stroke-width="0.5" stroke="black" fill="red"/>
  <circle cx="118.624" cy="138.779" r="0.62035" stroke-width="0.5" stroke="red" fill="red"/>
   </g>
   <g id="cell172" type="Red Bacteria" dead="false" >
  <circle cx="15.6003" cy="337.49" r="0.8947" stroke-width="0.5" stroke="black" fill="red"/>
  <circle cx="15.6003" cy="337.49" r="0.62035" stroke-width="0.5" stroke="red" fill="red"/>
   </g>
   <g id="cell173" type="Red Bacteria" dead="false" >
  <circle cx="392.372" cy="400.035" r="0.8947" stroke-width="0.5" stroke="black" fill="red"/>
  <circle cx="392.372" cy="400.035" r="0.62035" stroke-width="0.5" stroke="red" fill="red"/>
   </g>
   <g id="cell174" type="Red Bacteria" dead="false" >
  <circle cx="320.494" cy="3.89509" r="0.8947" stroke-width="0.5" stroke="black" fill="red"/>
  <circle cx="320.494" cy="3.89509" r="0.62035" stroke-width="0.5" stroke="red" fill="red"/>
   </g>
   <g id="cell175" type="Red Bacteria" dead="false" >
  <circle cx="322.474" cy="9.25418" r="0.8947" stroke-width="0.5" stroke="black" fill="red"/>
  <circle cx="322.474" cy="9.25418" r="0.62035" stroke-width="0.5" stroke="red" fill="red"/>
   </g>
   <g id="cell176" type="Red Bacteria" dead="false" >
  <circle cx="-0.0568013" cy="295.467" r="0.8947" stroke-width="0.5" stroke="black" fill="red"/>
  <circle cx="-0.0568013" cy="295.467" r="0.62035" stroke-width="0.5" stroke="red" fill="red"/>
   </g>
   <g id="cell177" type="Red Bacteria" dead="false" >
  <circle cx="118.764" cy="-0.0035018" r="0.8947" stroke-width="0.5" stroke="black" fill="red"/>
  <circle cx="118.764" cy="-0.0035018" r="0.62035" stroke-width="0.5" stroke="red" fill="red"/>
   </g>
   <g id="cell178" type="Red Bacteria" dead="false" >
  <circle cx="119.358" cy="128.295" r="0.8947" stroke-width="0.5" stroke="black" fill="red"/>
  <circle cx="119.358" cy="128.295" r="0.62035" stroke-width="0.5" stroke="red" fill="red"/>
   </g>
   <g id="cell179" type="Red Bacteria" dead="false" >
  <circle cx="119.951" cy="132.273" r="0.8947" stroke-width="0.5" stroke="black" fill="red"/>
  <circle cx="119.951" cy="132.273" r="0.62035" stroke-width="0.5" stroke="red" fill="red"/>
   </g>
   <g id="cell180" type="Red Bacteria" dead="false" >
  <circle cx="346.901" cy="216.618" r="0.8947" stroke-width="0.5" stroke="black" fill="red"/>
  <circle cx="346.901" cy="216.618" r="0.62035" stroke-width="0.5" stroke="red" fill="red"/>
   </g>
   <g id="cell181" type="Red Bacteria" dead="false" >
  <circle cx="119.572" cy="121.469" r="0.8947" stroke-width="0.5" stroke="black" fill="red"/>
  <circle cx="119.572" cy="121.469" r="0.62035" stroke-width="0.5" stroke="red" fill="red"/>
   </g>
   <g id="cell182" type="Red Bacteria" dead="false" >
  <circle cx="-0.00131308" cy="383.429" r="0.8947" stroke-width="0.5" stroke="black" fill="red"/>
  <circle cx="-0.00131308" cy="383.429" r="0.62035" stroke-width="0.5" stroke="red" fill="red"/>
   </g>
   <g id="cell183" type="Red Bacteria" dead="false" >
  <circle cx="360.033" cy="234.185" r="0.8947" stroke-width="0.5" stroke="black" fill="red"/>
  <circle cx="360.033" cy="234.185" r="0.62035" stroke-width="0.5" stroke="red" fill="red"/>
   </g>
   <g id="cell184" type="Red Bacteria" dead="false" >
  <circle cx="400.023" cy="7.65816" r="0.8947" stroke-width="0.5" stroke="black" fill="red"/>
  <circle cx="400.023" cy="7.65816" r="0.62035" stroke-width="0.5" stroke="red" fill="red"/>
   </g>
   <g id="cell185" type="Red Bacteria" dead="false" >
  <circle cx="17.3851" cy="400.084" r="0.8947" stroke-width="0.5" stroke="black" fill="red"/>
  <circle cx="17.3851" cy="400.084" r="0.62035" stroke-width="0.5" stroke="red" fill="red"/>
   </g>
   <g id="cell186" type="Red Bacteria" dead="false" >
  <circle cx="321.01" cy="-0.0929578" r="0.8947" stroke-width="0.5" stroke="black" fill="red"/>
  <circle cx="321.01" cy="-0.0929578" r="0.62035" stroke-width="0.5" stroke="red" fill="red"/>
   </g>
   <g id="cell187" type="Red Bacteria" dead="false" >
  <circle cx="116.544" cy="121.723" r="0.8947" stroke-width="0.5" stroke="black" fill="red"/>
  <circle cx="116.544" cy="121.723" r="0.62035" stroke-width="0.5" stroke="red" fill="red"/>
   </g>
   <g id="cell188" type="Red Bacteria" dead="false" >
  <circle cx="258.876" cy="195.802" r="0.8947" stroke-width="0.5" stroke="black" fill="red"/>
  <circle cx="258.876" cy="195.802" r="0.62035" stroke-width="0.5" stroke="red" fill="red"/>
   </g>
   <g id="cell189" type="Red Bacteria" dead="false" >
  <circle cx="-0.0446946" cy="59.9989" r="0.8947" stroke-width="0.5" stroke="black" fill="red"/>
  <circle cx="-0.0446946" cy="59.9989" r="0.62035" stroke-width="0.5" stroke="red" fill="red"/>
   </g>
   <g id="cell190" type="Red Bacteria" dead="false" >
  <circle cx="318.063" cy="13.0644" r="0.8947" stroke-width="0.5" stroke="black" fill="red"/>
  <circle cx="318.063" cy="13.0644" r="0.62035" stroke-width="0.5" stroke="red" fill="red"/>
   </g>
   <g id="cell191" type="Red Bacteria" dead="false" >
  <circle cx="119.963" cy="12.3657" r="0.8947" stroke-width="0.5" stroke="black" fill="red"/>
  <circle cx="119.963" cy="12.3657" r="0.62035" stroke-width="0.5" stroke="red" fill="red"/>
   </g>
  </g>
 </g>
  <rect x="190" y="414" width="200" height="4" stroke-width="0.8" stroke="rgb(255,255,255)" fill="rgb(0,0,0)"/>
  <text x="192.5" y="411.5"
   font-family="Arial" font-size="10" fill="black" >
   200 &#956;m
  </text>
  <text x="10" y="418"
   font-family="Arial" font-size="7.5" fill="black" >
   0 days, 0 hours, 0 minutes, and 1.4865 seconds
  </text>
  <rect x="0" y="28" width="400" height="400" stroke-width="0.8" stroke="rgb(0,0,0)" fill="none"/>
</svg>
