<?xml version="1.0" encoding="UTF-8" standalone="no"?>
<!-- Created with PhysiCell (http://PhysiCell.MathCancer.org/) -->
<svg 
 xmlns:dc="http://purl.org/dc/elements/1.1/" 
 xmlns:cc="http://creativecommons.org/ns#" 
 xmlns:rdf="http://www.w3.org/1999/02/22-rdf-syntax-ns#" 
 xmlns:svg="http://www.w3.org/2000/svg" 
 xmlns="http://www.w3.org/2000/svg" 
 version="1.1" 
 width="400" 
 height="428" 
 id="svg2">
  <rect x="0" y="0" width="400" height="428" stroke-width="0.8" stroke="white" fill="white"/>
  <text x="5" y="12"
   font-family="Arial" font-size="10" fill="black" >
   Current time: 0 days, 13 hours, and 0.00 minutes, z = 0.00 &#956;m
  </text>
  <text x="5" y="23"
   font-family="Arial" font-size="9.5" fill="black" >
   192 agents
  </text>
 <g id="tissue" 
    transform="translate(0,428) scale(1,-1)">
  <g id="ECM">
  </g>
  <g id="cells">
   <g id="cell0" type="Blue Bacteria" dead="false" >
  <circle cx="62.7437" cy="400.041" r="0.750869" stroke-width="0.5" stroke="black" fill="grey"/>
  <circle cx="62.7437" cy="400.041" r="2.88283e-34" stroke-width="0.5" stroke="grey" fill="grey"/>
   </g>
   <g id="cell1" type="Blue Bacteria" dead="false" >
  <circle cx="278.524" cy="277.949" r="0.259126" stroke-width="0.5" stroke="black" fill="grey"/>
  <circle cx="278.524" cy="277.949" r="3.1114e-34" stroke-width="0.5" stroke="grey" fill="grey"/>
   </g>
   <g id="cell2" type="Blue Bacteria" dead="false" >
  <circle cx="270.644" cy="169.52" r="0.259126" stroke-width="0.5" stroke="black" fill="grey"/>
  <circle cx="270.644" cy="169.52" r="3.1114e-34" stroke-width="0.5" stroke="grey" fill="grey"/>
   </g>
   <g id="cell3" type="Blue Bacteria" dead="false" >
  <circle cx="400.001" cy="147.982" r="0.427104" stroke-width="0.5" stroke="black" fill="grey"/>
  <circle cx="400.001" cy="147.982" r="3.10601e-34" stroke-width="0.5" stroke="grey" fill="grey"/>
   </g>
   <g id="cell4" type="Blue Bacteria" dead="false" >
  <circle cx="330.962" cy="130.204" r="0.259126" stroke-width="0.5" stroke="black" fill="grey"/>
  <circle cx="330.962" cy="130.204" r="3.1114e-34" stroke-width="0.5" stroke="grey" fill="grey"/>
   </g>
   <g id="cell5" type="Blue Bacteria" dead="false" >
  <circle cx="152.736" cy="286.456" r="0.259126" stroke-width="0.5" stroke="black" fill="grey"/>
  <circle cx="152.736" cy="286.456" r="3.1114e-34" stroke-width="0.5" stroke="grey" fill="grey"/>
   </g>
   <g id="cell6" type="Blue Bacteria" dead="false" >
  <circle cx="265.204" cy="90.1329" r="0.259126" stroke-width="0.5" stroke="black" fill="grey"/>
  <circle cx="265.204" cy="90.1329" r="3.1114e-34" stroke-width="0.5" stroke="grey" fill="grey"/>
   </g>
   <g id="cell7" type="Blue Bacteria" dead="false" >
  <circle cx="260.525" cy="203.541" r="0.259126" stroke-width="0.5" stroke="black" fill="grey"/>
  <circle cx="260.525" cy="203.541" r="3.1114e-34" stroke-width="0.5" stroke="grey" fill="grey"/>
   </g>
   <g id="cell193" type="Red Bacteria" dead="false" >
  <circle cx="360.955" cy="241.271" r="0.8947" stroke-width="0.5" stroke="black" fill="red"/>
  <circle cx="360.955" cy="241.271" r="0.62035" stroke-width="0.5" stroke="red" fill="red"/>
   </g>
   <g id="cell9" type="Blue Bacteria" dead="false" >
  <circle cx="306.644" cy="176.062" r="0.259126" stroke-width="0.5" stroke="black" fill="grey"/>
  <circle cx="306.644" cy="176.062" r="3.1114e-34" stroke-width="0.5" stroke="grey" fill="grey"/>
   </g>
   <g id="cell10" type="Blue Bacteria" dead="false" >
  <circle cx="63.4339" cy="52.7966" r="0.259126" stroke-width="0.5" stroke="black" fill="grey"/>
  <circle cx="63.4339" cy="52.7966" r="3.1114e-34" stroke-width="0.5" stroke="grey" fill="grey"/>
   </g>
   <g id="cell11" type="Blue Bacteria" dead="false" >
  <circle cx="116.509" cy="400.074" r="0.393756" stroke-width="0.5" stroke="black" fill="grey"/>
  <circle cx="116.509" cy="400.074" r="3.10812e-34" stroke-width="0.5" stroke="grey" fill="grey"/>
   </g>
   <g id="cell12" type="Blue Bacteria" dead="false" >
  <circle cx="83.3678" cy="277.687" r="0.259126" stroke-width="0.5" stroke="black" fill="grey"/>
  <circle cx="83.3678" cy="277.687" r="3.1114e-34" stroke-width="0.5" stroke="grey" fill="grey"/>
   </g>
   <g id="cell13" type="Blue Bacteria" dead="false" >
  <circle cx="306.1" cy="95.9482" r="0.259126" stroke-width="0.5" stroke="black" fill="grey"/>
  <circle cx="306.1" cy="95.9482" r="3.1114e-34" stroke-width="0.5" stroke="grey" fill="grey"/>
   </g>
   <g id="cell14" type="Blue Bacteria" dead="false" >
  <circle cx="123.869" cy="375.456" r="0.259126" stroke-width="0.5" stroke="black" fill="grey"/>
  <circle cx="123.869" cy="375.456" r="3.1114e-34" stroke-width="0.5" stroke="grey" fill="grey"/>
   </g>
   <g id="cell15" type="Blue Bacteria" dead="false" >
  <circle cx="173.329" cy="187.192" r="0.259126" stroke-width="0.5" stroke="black" fill="grey"/>
  <circle cx="173.329" cy="187.192" r="3.1114e-34" stroke-width="0.5" stroke="grey" fill="grey"/>
   </g>
   <g id="cell16" type="Blue Bacteria" dead="false" >
  <circle cx="46.2469" cy="326.618" r="0.259126" stroke-width="0.5" stroke="black" fill="grey"/>
  <circle cx="46.2469" cy="326.618" r="3.1114e-34" stroke-width="0.5" stroke="grey" fill="grey"/>
   </g>
   <g id="cell17" type="Blue Bacteria" dead="false" >
  <circle cx="111.664" cy="29.9568" r="0.259126" stroke-width="0.5" stroke="black" fill="grey"/>
  <circle cx="111.664" cy="29.9568" r="3.1114e-34" stroke-width="0.5" stroke="grey" fill="grey"/>
   </g>
   <g id="cell192" type="Red Bacteria" dead="false" >
  <circle cx="120.069" cy="126.705" r="0.8947" stroke-width="0.5" stroke="black" fill="red"/>
  <circle cx="120.069" cy="126.705" r="0.62035" stroke-width="0.5" stroke="red" fill="red"/>
   </g>
   <g id="cell19" type="Blue Bacteria" dead="false" >
  <circle cx="285.5" cy="176.356" r="0.259126" stroke-width="0.5" stroke="black" fill="grey"/>
  <circle cx="285.5" cy="176.356" r="3.1114e-34" stroke-width="0.5" stroke="grey" fill="grey"/>
   </g>
   <g id="cell20" type="Blue Bacteria" dead="false" >
  <circle cx="396.516" cy="269.352" r="0.259126" stroke-width="0.5" stroke="black" fill="grey"/>
  <circle cx="396.516" cy="269.352" r="3.1114e-34" stroke-width="0.5" stroke="grey" fill="grey"/>
   </g>
   <g id="cell21" type="Blue Bacteria" dead="false" >
  <circle cx="277.946" cy="82.5071" r="0.259126" stroke-width="0.5" stroke="black" fill="grey"/>
  <circle cx="277.946" cy="82.5071" r="3.1114e-34" stroke-width="0.5" stroke="grey" fill="grey"/>
   </g>
   <g id="cell22" type="Blue Bacteria" dead="false" >
  <circle cx="10.8652" cy="52.8079" r="0.259126" stroke-width="0.5" stroke="black" fill="grey"/>
  <circle cx="10.8652" cy="52.8079" r="3.1114e-34" stroke-width="0.5" stroke="grey" fill="grey"/>
   </g>
   <g id="cell23" type="Blue Bacteria" dead="false" >
  <circle cx="151.311" cy="325.96" r="0.259126" stroke-width="0.5" stroke="black" fill="grey"/>
  <circle cx="151.311" cy="325.96" r="3.1114e-34" stroke-width="0.5" stroke="grey" fill="grey"/>
   </g>
   <g id="cell24" type="Blue Bacteria" dead="false" >
  <circle cx="264.651" cy="307.081" r="0.259126" stroke-width="0.5" stroke="black" fill="grey"/>
  <circle cx="264.651" cy="307.081" r="3.1114e-34" stroke-width="0.5" stroke="grey" fill="grey"/>
   </g>
   <g id="cell25" type="Blue Bacteria" dead="false" >
  <circle cx="-0.0424049" cy="84.7218" r="0.646103" stroke-width="0.5" stroke="black" fill="grey"/>
  <circle cx="-0.0424049" cy="84.7218" r="3.04418e-34" stroke-width="0.5" stroke="grey" fill="grey"/>
   </g>
   <g id="cell197" type="Red Bacteria" dead="false" >
  <circle cx="363.674" cy="240.368" r="0.8947" stroke-width="0.5" stroke="black" fill="red"/>
  <circle cx="363.674" cy="240.368" r="0.62035" stroke-width="0.5" stroke="red" fill="red"/>
   </g>
   <g id="cell27" type="Blue Bacteria" dead="false" >
  <circle cx="279.276" cy="260.562" r="0.259126" stroke-width="0.5" stroke="black" fill="grey"/>
  <circle cx="279.276" cy="260.562" r="3.1114e-34" stroke-width="0.5" stroke="grey" fill="grey"/>
   </g>
   <g id="cell28" type="Blue Bacteria" dead="false" >
  <circle cx="294.402" cy="83.2381" r="0.259126" stroke-width="0.5" stroke="black" fill="grey"/>
  <circle cx="294.402" cy="83.2381" r="3.1114e-34" stroke-width="0.5" stroke="grey" fill="grey"/>
   </g>
   <g id="cell29" type="Blue Bacteria" dead="false" >
  <circle cx="148.274" cy="24.3404" r="0.259126" stroke-width="0.5" stroke="black" fill="grey"/>
  <circle cx="148.274" cy="24.3404" r="3.1114e-34" stroke-width="0.5" stroke="grey" fill="grey"/>
   </g>
   <g id="cell30" type="Blue Bacteria" dead="false" >
  <circle cx="272.167" cy="273.962" r="0.259126" stroke-width="0.5" stroke="black" fill="grey"/>
  <circle cx="272.167" cy="273.962" r="3.1114e-34" stroke-width="0.5" stroke="grey" fill="grey"/>
   </g>
   <g id="cell31" type="Blue Bacteria" dead="false" >
  <circle cx="133.591" cy="400.077" r="0.750869" stroke-width="0.5" stroke="black" fill="grey"/>
  <circle cx="133.591" cy="400.077" r="2.88283e-34" stroke-width="0.5" stroke="grey" fill="grey"/>
   </g>
   <g id="cell32" type="Blue Bacteria" dead="false" >
  <circle cx="322.827" cy="245.366" r="0.259126" stroke-width="0.5" stroke="black" fill="grey"/>
  <circle cx="322.827" cy="245.366" r="3.1114e-34" stroke-width="0.5" stroke="grey" fill="grey"/>
   </g>
   <g id="cell33" type="Blue Bacteria" dead="false" >
  <circle cx="330.32" cy="169.175" r="0.259126" stroke-width="0.5" stroke="black" fill="grey"/>
  <circle cx="330.32" cy="169.175" r="3.1114e-34" stroke-width="0.5" stroke="grey" fill="grey"/>
   </g>
   <g id="cell34" type="Blue Bacteria" dead="false" >
  <circle cx="260.607" cy="-0.0639429" r="0.310924" stroke-width="0.5" stroke="black" fill="grey"/>
  <circle cx="260.607" cy="-0.0639429" r="3.11078e-34" stroke-width="0.5" stroke="grey" fill="grey"/>
   </g>
   <g id="cell35" type="Blue Bacteria" dead="false" >
  <circle cx="261.352" cy="249.205" r="0.259126" stroke-width="0.5" stroke="black" fill="grey"/>
  <circle cx="261.352" cy="249.205" r="3.1114e-34" stroke-width="0.5" stroke="grey" fill="grey"/>
   </g>
   <g id="cell36" type="Blue Bacteria" dead="false" >
  <circle cx="302.741" cy="147.686" r="0.259126" stroke-width="0.5" stroke="black" fill="grey"/>
  <circle cx="302.741" cy="147.686" r="3.1114e-34" stroke-width="0.5" stroke="grey" fill="grey"/>
   </g>
   <g id="cell37" type="Blue Bacteria" dead="false" >
  <circle cx="273.786" cy="400.032" r="0.704035" stroke-width="0.5" stroke="black" fill="grey"/>
  <circle cx="273.786" cy="400.032" r="2.98447e-34" stroke-width="0.5" stroke="grey" fill="grey"/>
   </g>
   <g id="cell38" type="Blue Bacteria" dead="false" >
  <circle cx="115.463" cy="270.323" r="0.259126" stroke-width="0.5" stroke="black" fill="grey"/>
  <circle cx="115.463" cy="270.323" r="3.1114e-34" stroke-width="0.5" stroke="grey" fill="grey"/>
   </g>
   <g id="cell39" type="Blue Bacteria" dead="false" >
  <circle cx="295.698" cy="328.542" r="0.259126" stroke-width="0.5" stroke="black" fill="grey"/>
  <circle cx="295.698" cy="328.542" r="3.1114e-34" stroke-width="0.5" stroke="grey" fill="grey"/>
   </g>
   <g id="cell40" type="Blue Bacteria" dead="false" >
  <circle cx="400.067" cy="302.273" r="0.366212" stroke-width="0.5" stroke="black" fill="grey"/>
  <circle cx="400.067" cy="302.273" r="3.10933e-34" stroke-width="0.5" stroke="grey" fill="grey"/>
   </g>
   <g id="cell195" type="Red Bacteria" dead="false" >
  <circle cx="118.7" cy="141.137" r="0.8947" stroke-width="0.5" stroke="black" fill="red"/>
  <circle cx="118.7" cy="141.137" r="0.62035" stroke-width="0.5" stroke="red" fill="red"/>
   </g>
   <g id="cell194" type="Red Bacteria" dead="false" >
  <circle cx="239.467" cy="400.017" r="0.8947" stroke-width="0.5" stroke="black" fill="red"/>
  <circle cx="239.467" cy="400.017" r="0.62035" stroke-width="0.5" stroke="red" fill="red"/>
   </g>
   <g id="cell43" type="Blue Bacteria" dead="false" >
  <circle cx="168.349" cy="340.549" r="0.259126" stroke-width="0.5" stroke="black" fill="grey"/>
  <circle cx="168.349" cy="340.549" r="3.1114e-34" stroke-width="0.5" stroke="grey" fill="grey"/>
   </g>
   <g id="cell44" type="Blue Bacteria" dead="false" >
  <circle cx="170.222" cy="15.8953" r="0.259126" stroke-width="0.5" stroke="black" fill="grey"/>
  <circle cx="170.222" cy="15.8953" r="3.1114e-34" stroke-width="0.5" stroke="grey" fill="grey"/>
   </g>
   <g id="cell45" type="Blue Bacteria" dead="false" >
  <circle cx="299.923" cy="260.302" r="0.259126" stroke-width="0.5" stroke="black" fill="grey"/>
  <circle cx="299.923" cy="260.302" r="3.1114e-34" stroke-width="0.5" stroke="grey" fill="grey"/>
   </g>
   <g id="cell46" type="Blue Bacteria" dead="false" >
  <circle cx="147.52" cy="249.267" r="0.259126" stroke-width="0.5" stroke="black" fill="grey"/>
  <circle cx="147.52" cy="249.267" r="3.1114e-34" stroke-width="0.5" stroke="grey" fill="grey"/>
   </g>
   <g id="cell47" type="Blue Bacteria" dead="false" >
  <circle cx="293.186" cy="331.949" r="0.259126" stroke-width="0.5" stroke="black" fill="grey"/>
  <circle cx="293.186" cy="331.949" r="3.1114e-34" stroke-width="0.5" stroke="grey" fill="grey"/>
   </g>
   <g id="cell48" type="Blue Bacteria" dead="false" >
  <circle cx="140.376" cy="184.702" r="0.259126" stroke-width="0.5" stroke="black" fill="grey"/>
  <circle cx="140.376" cy="184.702" r="3.1114e-34" stroke-width="0.5" stroke="grey" fill="grey"/>
   </g>
   <g id="cell49" type="Blue Bacteria" dead="false" >
  <circle cx="164.294" cy="162.379" r="0.259126" stroke-width="0.5" stroke="black" fill="grey"/>
  <circle cx="164.294" cy="162.379" r="3.1114e-34" stroke-width="0.5" stroke="grey" fill="grey"/>
   </g>
   <g id="cell50" type="Blue Bacteria" dead="false" >
  <circle cx="295.699" cy="353.967" r="0.259126" stroke-width="0.5" stroke="black" fill="grey"/>
  <circle cx="295.699" cy="353.967" r="3.1114e-34" stroke-width="0.5" stroke="grey" fill="grey"/>
   </g>
   <g id="cell51" type="Blue Bacteria" dead="false" >
  <circle cx="-0.0790557" cy="177.301" r="0.533455" stroke-width="0.5" stroke="black" fill="grey"/>
  <circle cx="-0.0790557" cy="177.301" r="3.09121e-34" stroke-width="0.5" stroke="grey" fill="grey"/>
   </g>
   <g id="cell52" type="Blue Bacteria" dead="false" >
  <circle cx="400.024" cy="61.4948" r="0.675785" stroke-width="0.5" stroke="black" fill="grey"/>
  <circle cx="400.024" cy="61.4948" r="3.01906e-34" stroke-width="0.5" stroke="grey" fill="grey"/>
   </g>
   <g id="cell53" type="Blue Bacteria" dead="false" >
  <circle cx="60.9361" cy="168.595" r="0.259126" stroke-width="0.5" stroke="black" fill="grey"/>
  <circle cx="60.9361" cy="168.595" r="3.1114e-34" stroke-width="0.5" stroke="grey" fill="grey"/>
   </g>
   <g id="cell54" type="Blue Bacteria" dead="false" >
  <circle cx="86.4944" cy="289.598" r="0.259126" stroke-width="0.5" stroke="black" fill="grey"/>
  <circle cx="86.4944" cy="289.598" r="3.1114e-34" stroke-width="0.5" stroke="grey" fill="grey"/>
   </g>
   <g id="cell55" type="Blue Bacteria" dead="false" >
  <circle cx="277.733" cy="152.18" r="0.259126" stroke-width="0.5" stroke="black" fill="grey"/>
  <circle cx="277.733" cy="152.18" r="3.1114e-34" stroke-width="0.5" stroke="grey" fill="grey"/>
   </g>
   <g id="cell56" type="Blue Bacteria" dead="false" >
  <circle cx="49.394" cy="131.712" r="0.259126" stroke-width="0.5" stroke="black" fill="grey"/>
  <circle cx="49.394" cy="131.712" r="3.1114e-34" stroke-width="0.5" stroke="grey" fill="grey"/>
   </g>
   <g id="cell57" type="Blue Bacteria" dead="false" >
  <circle cx="90.9887" cy="162.555" r="0.259126" stroke-width="0.5" stroke="black" fill="grey"/>
  <circle cx="90.9887" cy="162.555" r="3.1114e-34" stroke-width="0.5" stroke="grey" fill="grey"/>
   </g>
   <g id="cell58" type="Blue Bacteria" dead="false" >
  <circle cx="273.913" cy="177.392" r="0.259126" stroke-width="0.5" stroke="black" fill="grey"/>
  <circle cx="273.913" cy="177.392" r="3.1114e-34" stroke-width="0.5" stroke="grey" fill="grey"/>
   </g>
   <g id="cell59" type="Blue Bacteria" dead="false" >
  <circle cx="270.708" cy="316.743" r="0.259126" stroke-width="0.5" stroke="black" fill="grey"/>
  <circle cx="270.708" cy="316.743" r="3.1114e-34" stroke-width="0.5" stroke="grey" fill="grey"/>
   </g>
   <g id="cell60" type="Blue Bacteria" dead="false" >
  <circle cx="308.574" cy="400.002" r="0.322454" stroke-width="0.5" stroke="black" fill="grey"/>
  <circle cx="308.574" cy="400.002" r="3.11056e-34" stroke-width="0.5" stroke="grey" fill="grey"/>
   </g>
   <g id="cell61" type="Blue Bacteria" dead="false" >
  <circle cx="154.863" cy="382.406" r="0.259126" stroke-width="0.5" stroke="black" fill="grey"/>
  <circle cx="154.863" cy="382.406" r="3.1114e-34" stroke-width="0.5" stroke="grey" fill="grey"/>
   </g>
   <g id="cell62" type="Blue Bacteria" dead="false" >
  <circle cx="280.025" cy="344.102" r="0.259126" stroke-width="0.5" stroke="black" fill="grey"/>
  <circle cx="280.025" cy="344.102" r="3.1114e-34" stroke-width="0.5" stroke="grey" fill="grey"/>
   </g>
   <g id="cell63" type="Blue Bacteria" dead="false" >
  <circle cx="312.26" cy="320.681" r="0.259126" stroke-width="0.5" stroke="black" fill="grey"/>
  <circle cx="312.26" cy="320.681" r="3.1114e-34" stroke-width="0.5" stroke="grey" fill="grey"/>
   </g>
   <g id="cell64" type="Blue Bacteria" dead="false" >
  <circle cx="271.594" cy="110.014" r="0.259126" stroke-width="0.5" stroke="black" fill="grey"/>
  <circle cx="271.594" cy="110.014" r="3.1114e-34" stroke-width="0.5" stroke="grey" fill="grey"/>
   </g>
   <g id="cell65" type="Blue Bacteria" dead="false" >
  <circle cx="265.069" cy="262.98" r="0.259126" stroke-width="0.5" stroke="black" fill="grey"/>
  <circle cx="265.069" cy="262.98" r="3.1114e-34" stroke-width="0.5" stroke="grey" fill="grey"/>
   </g>
   <g id="cell66" type="Blue Bacteria" dead="false" >
  <circle cx="328.662" cy="223.038" r="0.259126" stroke-width="0.5" stroke="black" fill="grey"/>
  <circle cx="328.662" cy="223.038" r="3.1114e-34" stroke-width="0.5" stroke="grey" fill="grey"/>
   </g>
   <g id="cell67" type="Blue Bacteria" dead="false" >
  <circle cx="333.301" cy="103.39" r="0.259126" stroke-width="0.5" stroke="black" fill="grey"/>
  <circle cx="333.301" cy="103.39" r="3.1114e-34" stroke-width="0.5" stroke="grey" fill="grey"/>
   </g>
   <g id="cell68" type="Blue Bacteria" dead="false" >
  <circle cx="288.161" cy="292.991" r="0.259126" stroke-width="0.5" stroke="black" fill="grey"/>
  <circle cx="288.161" cy="292.991" r="3.1114e-34" stroke-width="0.5" stroke="grey" fill="grey"/>
   </g>
   <g id="cell69" type="Blue Bacteria" dead="false" >
  <circle cx="348.625" cy="235.89" r="0.259126" stroke-width="0.5" stroke="black" fill="grey"/>
  <circle cx="348.625" cy="235.89" r="3.1114e-34" stroke-width="0.5" stroke="grey" fill="grey"/>
   </g>
   <g id="cell70" type="Blue Bacteria" dead="false" >
  <circle cx="387.189" cy="96.4862" r="0.259126" stroke-width="0.5" stroke="black" fill="grey"/>
  <circle cx="387.189" cy="96.4862" r="3.1114e-34" stroke-width="0.5" stroke="grey" fill="grey"/>
   </g>
   <g id="cell71" type="Blue Bacteria" dead="false" >
  <circle cx="74.9901" cy="344.654" r="0.259126" stroke-width="0.5" stroke="black" fill="grey"/>
  <circle cx="74.9901" cy="344.654" r="3.1114e-34" stroke-width="0.5" stroke="grey" fill="grey"/>
   </g>
   <g id="cell72" type="Blue Bacteria" dead="false" >
  <circle cx="380.222" cy="400.005" r="0.591138" stroke-width="0.5" stroke="black" fill="grey"/>
  <circle cx="380.222" cy="400.005" r="3.07365e-34" stroke-width="0.5" stroke="grey" fill="grey"/>
   </g>
   <g id="cell73" type="Blue Bacteria" dead="false" >
  <circle cx="141.13" cy="278.354" r="0.259126" stroke-width="0.5" stroke="black" fill="grey"/>
  <circle cx="141.13" cy="278.354" r="3.1114e-34" stroke-width="0.5" stroke="grey" fill="grey"/>
   </g>
   <g id="cell74" type="Blue Bacteria" dead="false" >
  <circle cx="-0.00554925" cy="3.07738" r="0.561854" stroke-width="0.5" stroke="black" fill="grey"/>
  <circle cx="-0.00554925" cy="3.07738" r="3.0838e-34" stroke-width="0.5" stroke="grey" fill="grey"/>
   </g>
   <g id="cell75" type="Blue Bacteria" dead="false" >
  <circle cx="264.714" cy="243.265" r="0.259126" stroke-width="0.5" stroke="black" fill="grey"/>
  <circle cx="264.714" cy="243.265" r="3.1114e-34" stroke-width="0.5" stroke="grey" fill="grey"/>
   </g>
   <g id="cell76" type="Blue Bacteria" dead="false" >
  <circle cx="267.451" cy="329.909" r="0.259126" stroke-width="0.5" stroke="black" fill="grey"/>
  <circle cx="267.451" cy="329.909" r="3.1114e-34" stroke-width="0.5" stroke="grey" fill="grey"/>
   </g>
   <g id="cell77" type="Blue Bacteria" dead="false" >
  <circle cx="282.488" cy="313.566" r="0.259126" stroke-width="0.5" stroke="black" fill="grey"/>
  <circle cx="282.488" cy="313.566" r="3.1114e-34" stroke-width="0.5" stroke="grey" fill="grey"/>
   </g>
   <g id="cell78" type="Blue Bacteria" dead="false" >
  <circle cx="273.933" cy="392.7" r="0.259126" stroke-width="0.5" stroke="black" fill="grey"/>
  <circle cx="273.933" cy="392.7" r="3.1114e-34" stroke-width="0.5" stroke="grey" fill="grey"/>
   </g>
   <g id="cell79" type="Blue Bacteria" dead="false" >
  <circle cx="263.343" cy="91.9924" r="0.259126" stroke-width="0.5" stroke="black" fill="grey"/>
  <circle cx="263.343" cy="91.9924" r="3.1114e-34" stroke-width="0.5" stroke="grey" fill="grey"/>
   </g>
   <g id="cell80" type="Blue Bacteria" dead="false" >
  <circle cx="352.372" cy="188.841" r="0.259126" stroke-width="0.5" stroke="black" fill="grey"/>
  <circle cx="352.372" cy="188.841" r="3.1114e-34" stroke-width="0.5" stroke="grey" fill="grey"/>
   </g>
   <g id="cell198" type="Red Bacteria" dead="false" >
  <circle cx="114.129" cy="139.54" r="0.8947" stroke-width="0.5" stroke="black" fill="red"/>
  <circle cx="114.129" cy="139.54" r="0.62035" stroke-width="0.5" stroke="red" fill="red"/>
   </g>
   <g id="cell82" type="Blue Bacteria" dead="false" >
  <circle cx="281.65" cy="164.54" r="0.259126" stroke-width="0.5" stroke="black" fill="grey"/>
  <circle cx="281.65" cy="164.54" r="3.1114e-34" stroke-width="0.5" stroke="grey" fill="grey"/>
   </g>
   <g id="cell83" type="Blue Bacteria" dead="false" >
  <circle cx="273.346" cy="323.565" r="0.259126" stroke-width="0.5" stroke="black" fill="grey"/>
  <circle cx="273.346" cy="323.565" r="3.1114e-34" stroke-width="0.5" stroke="grey" fill="grey"/>
   </g>
   <g id="cell84" type="Blue Bacteria" dead="false" >
  <circle cx="214.137" cy="387.855" r="0.259126" stroke-width="0.5" stroke="black" fill="grey"/>
  <circle cx="214.137" cy="387.855" r="3.1114e-34" stroke-width="0.5" stroke="grey" fill="grey"/>
   </g>
   <g id="cell85" type="Blue Bacteria" dead="false" >
  <circle cx="145.283" cy="73.5768" r="0.259126" stroke-width="0.5" stroke="black" fill="grey"/>
  <circle cx="145.283" cy="73.5768" r="3.1114e-34" stroke-width="0.5" stroke="grey" fill="grey"/>
   </g>
   <g id="cell86" type="Blue Bacteria" dead="false" >
  <circle cx="240.884" cy="177.34" r="0.259126" stroke-width="0.5" stroke="black" fill="grey"/>
  <circle cx="240.884" cy="177.34" r="3.1114e-34" stroke-width="0.5" stroke="grey" fill="grey"/>
   </g>
   <g id="cell87" type="Blue Bacteria" dead="false" >
  <circle cx="400.008" cy="251.694" r="0.74295" stroke-width="0.5" stroke="black" fill="grey"/>
  <circle cx="400.008" cy="251.694" r="2.90374e-34" stroke-width="0.5" stroke="grey" fill="grey"/>
   </g>
   <g id="cell88" type="Blue Bacteria" dead="false" >
  <circle cx="282.246" cy="300.681" r="0.259126" stroke-width="0.5" stroke="black" fill="grey"/>
  <circle cx="282.246" cy="300.681" r="3.1114e-34" stroke-width="0.5" stroke="grey" fill="grey"/>
   </g>
   <g id="cell89" type="Blue Bacteria" dead="false" >
  <circle cx="145.597" cy="271.914" r="0.259126" stroke-width="0.5" stroke="black" fill="grey"/>
  <circle cx="145.597" cy="271.914" r="3.1114e-34" stroke-width="0.5" stroke="grey" fill="grey"/>
   </g>
   <g id="cell90" type="Blue Bacteria" dead="false" >
  <circle cx="302.956" cy="67.6983" r="0.259126" stroke-width="0.5" stroke="black" fill="grey"/>
  <circle cx="302.956" cy="67.6983" r="3.1114e-34" stroke-width="0.5" stroke="grey" fill="grey"/>
   </g>
   <g id="cell91" type="Blue Bacteria" dead="false" >
  <circle cx="269.712" cy="-0.0961623" r="0.626048" stroke-width="0.5" stroke="black" fill="grey"/>
  <circle cx="269.712" cy="-0.0961623" r="3.05694e-34" stroke-width="0.5" stroke="grey" fill="grey"/>
   </g>
   <g id="cell92" type="Blue Bacteria" dead="false" >
  <circle cx="66.8617" cy="126.568" r="0.259126" stroke-width="0.5" stroke="black" fill="grey"/>
  <circle cx="66.8617" cy="126.568" r="3.1114e-34" stroke-width="0.5" stroke="grey" fill="grey"/>
   </g>
   <g id="cell93" type="Blue Bacteria" dead="false" >
  <circle cx="120.967" cy="236.844" r="0.259126" stroke-width="0.5" stroke="black" fill="grey"/>
  <circle cx="120.967" cy="236.844" r="3.1114e-34" stroke-width="0.5" stroke="grey" fill="grey"/>
   </g>
   <g id="cell94" type="Blue Bacteria" dead="false" >
  <circle cx="400.034" cy="293.845" r="0.454837" stroke-width="0.5" stroke="black" fill="grey"/>
  <circle cx="400.034" cy="293.845" r="3.10355e-34" stroke-width="0.5" stroke="grey" fill="grey"/>
   </g>
   <g id="cell95" type="Blue Bacteria" dead="false" >
  <circle cx="369.188" cy="223.356" r="0.259126" stroke-width="0.5" stroke="black" fill="grey"/>
  <circle cx="369.188" cy="223.356" r="3.1114e-34" stroke-width="0.5" stroke="grey" fill="grey"/>
   </g>
   <g id="cell96" type="Blue Bacteria" dead="false" >
  <circle cx="380.444" cy="326.477" r="0.259126" stroke-width="0.5" stroke="black" fill="grey"/>
  <circle cx="380.444" cy="326.477" r="3.1114e-34" stroke-width="0.5" stroke="grey" fill="grey"/>
   </g>
   <g id="cell97" type="Blue Bacteria" dead="false" >
  <circle cx="292.516" cy="162.42" r="0.259126" stroke-width="0.5" stroke="black" fill="grey"/>
  <circle cx="292.516" cy="162.42" r="3.1114e-34" stroke-width="0.5" stroke="grey" fill="grey"/>
   </g>
   <g id="cell98" type="Blue Bacteria" dead="false" >
  <circle cx="348.884" cy="362.33" r="0.259126" stroke-width="0.5" stroke="black" fill="grey"/>
  <circle cx="348.884" cy="362.33" r="3.1114e-34" stroke-width="0.5" stroke="grey" fill="grey"/>
   </g>
   <g id="cell99" type="Blue Bacteria" dead="false" >
  <circle cx="400.033" cy="95.4626" r="0.561854" stroke-width="0.5" stroke="black" fill="grey"/>
  <circle cx="400.033" cy="95.4626" r="3.0838e-34" stroke-width="0.5" stroke="grey" fill="grey"/>
   </g>
   <g id="cell100" type="Red Bacteria" dead="false" >
  <circle cx="360.577" cy="242.519" r="0.8947" stroke-width="0.5" stroke="black" fill="red"/>
  <circle cx="360.577" cy="242.519" r="0.62035" stroke-width="0.5" stroke="red" fill="red"/>
   </g>
   <g id="cell101" type="Red Bacteria" dead="false" >
  <circle cx="121.401" cy="137.819" r="0.8947" stroke-width="0.5" stroke="black" fill="red"/>
  <circle cx="121.401" cy="137.819" r="0.62035" stroke-width="0.5" stroke="red" fill="red"/>
   </g>
   <g id="cell102" type="Red Bacteria" dead="false" >
  <circle cx="258.181" cy="197.007" r="0.8947" stroke-width="0.5" stroke="black" fill="red"/>
  <circle cx="258.181" cy="197.007" r="0.62035" stroke-width="0.5" stroke="red" fill="red"/>
   </g>
   <g id="cell103" type="Red Bacteria" dead="false" >
  <circle cx="386.37" cy="387.075" r="0.8947" stroke-width="0.5" stroke="black" fill="red"/>
  <circle cx="386.37" cy="387.075" r="0.62035" stroke-width="0.5" stroke="red" fill="red"/>
   </g>
   <g id="cell104" type="Red Bacteria" dead="false" >
  <circle cx="400.004" cy="388.527" r="0.8947" stroke-width="0.5" stroke="black" fill="red"/>
  <circle cx="400.004" cy="388.527" r="0.62035" stroke-width="0.5" stroke="red" fill="red"/>
   </g>
   <g id="cell105" type="Red Bacteria" dead="false" >
  <circle cx="-0.057472" cy="386.491" r="0.8947" stroke-width="0.5" stroke="black" fill="red"/>
  <circle cx="-0.057472" cy="386.491" r="0.62035" stroke-width="0.5" stroke="red" fill="red"/>
   </g>
   <g id="cell106" type="Red Bacteria" dead="false" >
  <circle cx="120.755" cy="121.926" r="0.8947" stroke-width="0.5" stroke="black" fill="red"/>
  <circle cx="120.755" cy="121.926" r="0.62035" stroke-width="0.5" stroke="red" fill="red"/>
   </g>
   <g id="cell107" type="Red Bacteria" dead="false" >
  <circle cx="299.899" cy="338.915" r="0.8947" stroke-width="0.5" stroke="black" fill="red"/>
  <circle cx="299.899" cy="338.915" r="0.62035" stroke-width="0.5" stroke="red" fill="red"/>
   </g>
   <g id="cell108" type="Red Bacteria" dead="false" >
  <circle cx="160.705" cy="400.062" r="0.8947" stroke-width="0.5" stroke="black" fill="red"/>
  <circle cx="160.705" cy="400.062" r="0.62035" stroke-width="0.5" stroke="red" fill="red"/>
   </g>
   <g id="cell109" type="Red Bacteria" dead="false" >
  <circle cx="362.355" cy="241.613" r="0.8947" stroke-width="0.5" stroke="black" fill="red"/>
  <circle cx="362.355" cy="241.613" r="0.62035" stroke-width="0.5" stroke="red" fill="red"/>
   </g>
   <g id="cell110" type="Red Bacteria" dead="false" >
  <circle cx="300.45" cy="337.715" r="0.8947" stroke-width="0.5" stroke="black" fill="red"/>
  <circle cx="300.45" cy="337.715" r="0.62035" stroke-width="0.5" stroke="red" fill="red"/>
   </g>
   <g id="cell111" type="Red Bacteria" dead="false" >
  <circle cx="118.861" cy="135.777" r="0.8947" stroke-width="0.5" stroke="black" fill="red"/>
  <circle cx="118.861" cy="135.777" r="0.62035" stroke-width="0.5" stroke="red" fill="red"/>
   </g>
   <g id="cell112" type="Red Bacteria" dead="false" >
  <circle cx="261.193" cy="200.703" r="0.8947" stroke-width="0.5" stroke="black" fill="red"/>
  <circle cx="261.193" cy="200.703" r="0.62035" stroke-width="0.5" stroke="red" fill="red"/>
   </g>
   <g id="cell113" type="Red Bacteria" dead="false" >
  <circle cx="157.875" cy="400.036" r="0.8947" stroke-width="0.5" stroke="black" fill="red"/>
  <circle cx="157.875" cy="400.036" r="0.62035" stroke-width="0.5" stroke="red" fill="red"/>
   </g>
   <g id="cell114" type="Red Bacteria" dead="false" >
  <circle cx="-0.0170762" cy="31.3223" r="0.8947" stroke-width="0.5" stroke="black" fill="red"/>
  <circle cx="-0.0170762" cy="31.3223" r="0.62035" stroke-width="0.5" stroke="red" fill="red"/>
   </g>
   <g id="cell115" type="Red Bacteria" dead="false" >
  <circle cx="117.481" cy="-0.0584107" r="0.8947" stroke-width="0.5" stroke="black" fill="red"/>
  <circle cx="117.481" cy="-0.0584107" r="0.62035" stroke-width="0.5" stroke="red" fill="red"/>
   </g>
   <g id="cell116" type="Red Bacteria" dead="false" >
  <circle cx="15.9457" cy="400.02" r="0.8947" stroke-width="0.5" stroke="black" fill="red"/>
  <circle cx="15.9457" cy="400.02" r="0.62035" stroke-width="0.5" stroke="red" fill="red"/>
   </g>
   <g id="cell117" type="Red Bacteria" dead="false" >
  <circle cx="118.479" cy="138.551" r="0.8947" stroke-width="0.5" stroke="black" fill="red"/>
  <circle cx="118.479" cy="138.551" r="0.62035" stroke-width="0.5" stroke="red" fill="red"/>
   </g>
   <g id="cell118" type="Red Bacteria" dead="false" >
  <circle cx="260.455" cy="191.043" r="0.8947" stroke-width="0.5" stroke="black" fill="red"/>
  <circle cx="260.455" cy="191.043" r="0.62035" stroke-width="0.5" stroke="red" fill="red"/>
   </g>
   <g id="cell119" type="Red Bacteria" dead="false" >
  <circle cx="360.615" cy="236.048" r="0.8947" stroke-width="0.5" stroke="black" fill="red"/>
  <circle cx="360.615" cy="236.048" r="0.62035" stroke-width="0.5" stroke="red" fill="red"/>
   </g>
   <g id="cell120" type="Red Bacteria" dead="false" >
  <circle cx="119.654" cy="122.986" r="0.8947" stroke-width="0.5" stroke="black" fill="red"/>
  <circle cx="119.654" cy="122.986" r="0.62035" stroke-width="0.5" stroke="red" fill="red"/>
   </g>
   <g id="cell121" type="Red Bacteria" dead="false" >
  <circle cx="120.721" cy="129.83" r="0.8947" stroke-width="0.5" stroke="black" fill="red"/>
  <circle cx="120.721" cy="129.83" r="0.62035" stroke-width="0.5" stroke="red" fill="red"/>
   </g>
   <g id="cell122" type="Red Bacteria" dead="false" >
  <circle cx="159.256" cy="385.676" r="0.8947" stroke-width="0.5" stroke="black" fill="red"/>
  <circle cx="159.256" cy="385.676" r="0.62035" stroke-width="0.5" stroke="red" fill="red"/>
   </g>
   <g id="cell123" type="Red Bacteria" dead="false" >
  <circle cx="394.314" cy="400.098" r="0.8947" stroke-width="0.5" stroke="black" fill="red"/>
  <circle cx="394.314" cy="400.098" r="0.62035" stroke-width="0.5" stroke="red" fill="red"/>
   </g>
   <g id="cell124" type="Red Bacteria" dead="false" >
  <circle cx="260.721" cy="182.298" r="0.8947" stroke-width="0.5" stroke="black" fill="red"/>
  <circle cx="260.721" cy="182.298" r="0.62035" stroke-width="0.5" stroke="red" fill="red"/>
   </g>
   <g id="cell125" type="Red Bacteria" dead="false" >
  <circle cx="119.216" cy="125.311" r="0.8947" stroke-width="0.5" stroke="black" fill="red"/>
  <circle cx="119.216" cy="125.311" r="0.62035" stroke-width="0.5" stroke="red" fill="red"/>
   </g>
   <g id="cell126" type="Red Bacteria" dead="false" >
  <circle cx="361.374" cy="400.05" r="0.8947" stroke-width="0.5" stroke="black" fill="red"/>
  <circle cx="361.374" cy="400.05" r="0.62035" stroke-width="0.5" stroke="red" fill="red"/>
   </g>
   <g id="cell127" type="Red Bacteria" dead="false" >
  <circle cx="9.62878" cy="400.04" r="0.8947" stroke-width="0.5" stroke="black" fill="red"/>
  <circle cx="9.62878" cy="400.04" r="0.62035" stroke-width="0.5" stroke="red" fill="red"/>
   </g>
   <g id="cell128" type="Red Bacteria" dead="false" >
  <circle cx="319.782" cy="-0.0109649" r="0.8947" stroke-width="0.5" stroke="black" fill="red"/>
  <circle cx="319.782" cy="-0.0109649" r="0.62035" stroke-width="0.5" stroke="red" fill="red"/>
   </g>
   <g id="cell129" type="Red Bacteria" dead="false" >
  <circle cx="345.689" cy="221.953" r="0.8947" stroke-width="0.5" stroke="black" fill="red"/>
  <circle cx="345.689" cy="221.953" r="0.62035" stroke-width="0.5" stroke="red" fill="red"/>
   </g>
   <g id="cell130" type="Red Bacteria" dead="false" >
  <circle cx="121.712" cy="-0.0296209" r="0.8947" stroke-width="0.5" stroke="black" fill="red"/>
  <circle cx="121.712" cy="-0.0296209" r="0.62035" stroke-width="0.5" stroke="red" fill="red"/>
   </g>
   <g id="cell131" type="Red Bacteria" dead="false" >
  <circle cx="400.029" cy="200.223" r="0.8947" stroke-width="0.5" stroke="black" fill="red"/>
  <circle cx="400.029" cy="200.223" r="0.62035" stroke-width="0.5" stroke="red" fill="red"/>
   </g>
   <g id="cell132" type="Red Bacteria" dead="false" >
  <circle cx="-0.0032313" cy="380.059" r="0.8947" stroke-width="0.5" stroke="black" fill="red"/>
  <circle cx="-0.0032313" cy="380.059" r="0.62035" stroke-width="0.5" stroke="red" fill="red"/>
   </g>
   <g id="cell133" type="Red Bacteria" dead="false" >
  <circle cx="379.323" cy="272.45" r="0.8947" stroke-width="0.5" stroke="black" fill="red"/>
  <circle cx="379.323" cy="272.45" r="0.62035" stroke-width="0.5" stroke="red" fill="red"/>
   </g>
   <g id="cell134" type="Red Bacteria" dead="false" >
  <circle cx="119.43" cy="121.338" r="0.8947" stroke-width="0.5" stroke="black" fill="red"/>
  <circle cx="119.43" cy="121.338" r="0.62035" stroke-width="0.5" stroke="red" fill="red"/>
   </g>
   <g id="cell135" type="Red Bacteria" dead="false" >
  <circle cx="400.084" cy="385.317" r="0.8947" stroke-width="0.5" stroke="black" fill="red"/>
  <circle cx="400.084" cy="385.317" r="0.62035" stroke-width="0.5" stroke="red" fill="red"/>
   </g>
   <g id="cell136" type="Red Bacteria" dead="false" >
  <circle cx="163.634" cy="400.03" r="0.8947" stroke-width="0.5" stroke="black" fill="red"/>
  <circle cx="163.634" cy="400.03" r="0.62035" stroke-width="0.5" stroke="red" fill="red"/>
   </g>
   <g id="cell137" type="Red Bacteria" dead="false" >
  <circle cx="120.986" cy="128.11" r="0.8947" stroke-width="0.5" stroke="black" fill="red"/>
  <circle cx="120.986" cy="128.11" r="0.62035" stroke-width="0.5" stroke="red" fill="red"/>
   </g>
   <g id="cell138" type="Red Bacteria" dead="false" >
  <circle cx="387.306" cy="-0.0726748" r="0.8947" stroke-width="0.5" stroke="black" fill="red"/>
  <circle cx="387.306" cy="-0.0726748" r="0.62035" stroke-width="0.5" stroke="red" fill="red"/>
   </g>
   <g id="cell139" type="Red Bacteria" dead="false" >
  <circle cx="299.987" cy="329.828" r="0.8947" stroke-width="0.5" stroke="black" fill="red"/>
  <circle cx="299.987" cy="329.828" r="0.62035" stroke-width="0.5" stroke="red" fill="red"/>
   </g>
   <g id="cell140" type="Red Bacteria" dead="false" >
  <circle cx="121.826" cy="18.2124" r="0.8947" stroke-width="0.5" stroke="black" fill="red"/>
  <circle cx="121.826" cy="18.2124" r="0.62035" stroke-width="0.5" stroke="red" fill="red"/>
   </g>
   <g id="cell141" type="Red Bacteria" dead="false" >
  <circle cx="160.664" cy="381.663" r="0.8947" stroke-width="0.5" stroke="black" fill="red"/>
  <circle cx="160.664" cy="381.663" r="0.62035" stroke-width="0.5" stroke="red" fill="red"/>
   </g>
   <g id="cell142" type="Red Bacteria" dead="false" >
  <circle cx="120.313" cy="139.87" r="0.8947" stroke-width="0.5" stroke="black" fill="red"/>
  <circle cx="120.313" cy="139.87" r="0.62035" stroke-width="0.5" stroke="red" fill="red"/>
   </g>
   <g id="cell143" type="Red Bacteria" dead="false" >
  <circle cx="158.641" cy="398.322" r="0.8947" stroke-width="0.5" stroke="black" fill="red"/>
  <circle cx="158.641" cy="398.322" r="0.62035" stroke-width="0.5" stroke="red" fill="red"/>
   </g>
   <g id="cell144" type="Red Bacteria" dead="false" >
  <circle cx="318.658" cy="-0.0422299" r="0.8947" stroke-width="0.5" stroke="black" fill="red"/>
  <circle cx="318.658" cy="-0.0422299" r="0.62035" stroke-width="0.5" stroke="red" fill="red"/>
   </g>
   <g id="cell199" type="Red Bacteria" dead="false" >
  <circle cx="118.163" cy="137.014" r="0.8947" stroke-width="0.5" stroke="black" fill="red"/>
  <circle cx="118.163" cy="137.014" r="0.62035" stroke-width="0.5" stroke="red" fill="red"/>
   </g>
   <g id="cell146" type="Red Bacteria" dead="false" >
  <circle cx="119.762" cy="2.58148" r="0.8947" stroke-width="0.5" stroke="black" fill="red"/>
  <circle cx="119.762" cy="2.58148" r="0.62035" stroke-width="0.5" stroke="red" fill="red"/>
   </g>
   <g id="cell147" type="Red Bacteria" dead="false" >
  <circle cx="301.44" cy="339.306" r="0.8947" stroke-width="0.5" stroke="black" fill="red"/>
  <circle cx="301.44" cy="339.306" r="0.62035" stroke-width="0.5" stroke="red" fill="red"/>
   </g>
   <g id="cell148" type="Red Bacteria" dead="false" >
  <circle cx="-0.0983096" cy="391.835" r="0.8947" stroke-width="0.5" stroke="black" fill="red"/>
  <circle cx="-0.0983096" cy="391.835" r="0.62035" stroke-width="0.5" stroke="red" fill="red"/>
   </g>
   <g id="cell149" type="Red Bacteria" dead="false" >
  <circle cx="119.426" cy="6.15632" r="0.8947" stroke-width="0.5" stroke="black" fill="red"/>
  <circle cx="119.426" cy="6.15632" r="0.62035" stroke-width="0.5" stroke="red" fill="red"/>
   </g>
   <g id="cell150" type="Red Bacteria" dead="false" >
  <circle cx="120.326" cy="133.155" r="0.8947" stroke-width="0.5" stroke="black" fill="red"/>
  <circle cx="120.326" cy="133.155" r="0.62035" stroke-width="0.5" stroke="red" fill="red"/>
   </g>
   <g id="cell151" type="Red Bacteria" dead="false" >
  <circle cx="360.128" cy="240.401" r="0.8947" stroke-width="0.5" stroke="black" fill="red"/>
  <circle cx="360.128" cy="240.401" r="0.62035" stroke-width="0.5" stroke="red" fill="red"/>
   </g>
   <g id="cell152" type="Red Bacteria" dead="false" >
  <circle cx="7.82376" cy="400.047" r="0.8947" stroke-width="0.5" stroke="black" fill="red"/>
  <circle cx="7.82376" cy="400.047" r="0.62035" stroke-width="0.5" stroke="red" fill="red"/>
   </g>
   <g id="cell153" type="Red Bacteria" dead="false" >
  <circle cx="159.374" cy="400.063" r="0.8947" stroke-width="0.5" stroke="black" fill="red"/>
  <circle cx="159.374" cy="400.063" r="0.62035" stroke-width="0.5" stroke="red" fill="red"/>
   </g>
   <g id="cell196" type="Red Bacteria" dead="false" >
  <circle cx="6.19489" cy="390.465" r="0.8947" stroke-width="0.5" stroke="black" fill="red"/>
  <circle cx="6.19489" cy="390.465" r="0.62035" stroke-width="0.5" stroke="red" fill="red"/>
   </g>
   <g id="cell155" type="Red Bacteria" dead="false" >
  <circle cx="18.7074" cy="400.004" r="0.8947" stroke-width="0.5" stroke="black" fill="red"/>
  <circle cx="18.7074" cy="400.004" r="0.62035" stroke-width="0.5" stroke="red" fill="red"/>
   </g>
   <g id="cell156" type="Red Bacteria" dead="false" >
  <circle cx="119.241" cy="132.446" r="0.8947" stroke-width="0.5" stroke="black" fill="red"/>
  <circle cx="119.241" cy="132.446" r="0.62035" stroke-width="0.5" stroke="red" fill="red"/>
   </g>
   <g id="cell157" type="Red Bacteria" dead="false" >
  <circle cx="322.705" cy="-0.0515298" r="0.8947" stroke-width="0.5" stroke="black" fill="red"/>
  <circle cx="322.705" cy="-0.0515298" r="0.62035" stroke-width="0.5" stroke="red" fill="red"/>
   </g>
   <g id="cell158" type="Red Bacteria" dead="false" >
  <circle cx="320.079" cy="3.13474" r="0.8947" stroke-width="0.5" stroke="black" fill="red"/>
  <circle cx="320.079" cy="3.13474" r="0.62035" stroke-width="0.5" stroke="red" fill="red"/>
   </g>
   <g id="cell159" type="Red Bacteria" dead="false" >
  <circle cx="400.009" cy="396.458" r="0.8947" stroke-width="0.5" stroke="black" fill="red"/>
  <circle cx="400.009" cy="396.458" r="0.62035" stroke-width="0.5" stroke="red" fill="red"/>
   </g>
   <g id="cell160" type="Red Bacteria" dead="false" >
  <circle cx="117.205" cy="139.937" r="0.8947" stroke-width="0.5" stroke="black" fill="red"/>
  <circle cx="117.205" cy="139.937" r="0.62035" stroke-width="0.5" stroke="red" fill="red"/>
   </g>
   <g id="cell161" type="Red Bacteria" dead="false" >
  <circle cx="318.942" cy="7.59864" r="0.8947" stroke-width="0.5" stroke="black" fill="red"/>
  <circle cx="318.942" cy="7.59864" r="0.62035" stroke-width="0.5" stroke="red" fill="red"/>
   </g>
   <g id="cell162" type="Red Bacteria" dead="false" >
  <circle cx="116.201" cy="-0.0476963" r="0.8947" stroke-width="0.5" stroke="black" fill="red"/>
  <circle cx="116.201" cy="-0.0476963" r="0.62035" stroke-width="0.5" stroke="red" fill="red"/>
   </g>
   <g id="cell163" type="Red Bacteria" dead="false" >
  <circle cx="118.605" cy="128.654" r="0.8947" stroke-width="0.5" stroke="black" fill="red"/>
  <circle cx="118.605" cy="128.654" r="0.62035" stroke-width="0.5" stroke="red" fill="red"/>
   </g>
   <g id="cell164" type="Red Bacteria" dead="false" >
  <circle cx="280.304" cy="369.743" r="0.8947" stroke-width="0.5" stroke="black" fill="red"/>
  <circle cx="280.304" cy="369.743" r="0.62035" stroke-width="0.5" stroke="red" fill="red"/>
   </g>
   <g id="cell165" type="Red Bacteria" dead="false" >
  <circle cx="120.163" cy="136.654" r="0.8947" stroke-width="0.5" stroke="black" fill="red"/>
  <circle cx="120.163" cy="136.654" r="0.62035" stroke-width="0.5" stroke="red" fill="red"/>
   </g>
   <g id="cell166" type="Red Bacteria" dead="false" >
  <circle cx="319.442" cy="17.6756" r="0.8947" stroke-width="0.5" stroke="black" fill="red"/>
  <circle cx="319.442" cy="17.6756" r="0.62035" stroke-width="0.5" stroke="red" fill="red"/>
   </g>
   <g id="cell167" type="Red Bacteria" dead="false" >
  <circle cx="120.641" cy="125.018" r="0.8947" stroke-width="0.5" stroke="black" fill="red"/>
  <circle cx="120.641" cy="125.018" r="0.62035" stroke-width="0.5" stroke="red" fill="red"/>
   </g>
   <g id="cell168" type="Red Bacteria" dead="false" >
  <circle cx="119.349" cy="18.9642" r="0.8947" stroke-width="0.5" stroke="black" fill="red"/>
  <circle cx="119.349" cy="18.9642" r="0.62035" stroke-width="0.5" stroke="red" fill="red"/>
   </g>
   <g id="cell169" type="Red Bacteria" dead="false" >
  <circle cx="120.245" cy="-0.028037" r="0.8947" stroke-width="0.5" stroke="black" fill="red"/>
  <circle cx="120.245" cy="-0.028037" r="0.62035" stroke-width="0.5" stroke="red" fill="red"/>
   </g>
   <g id="cell170" type="Red Bacteria" dead="false" >
  <circle cx="113.084" cy="131.579" r="0.8947" stroke-width="0.5" stroke="black" fill="red"/>
  <circle cx="113.084" cy="131.579" r="0.62035" stroke-width="0.5" stroke="red" fill="red"/>
   </g>
   <g id="cell171" type="Red Bacteria" dead="false" >
  <circle cx="119.999" cy="138.549" r="0.8947" stroke-width="0.5" stroke="black" fill="red"/>
  <circle cx="119.999" cy="138.549" r="0.62035" stroke-width="0.5" stroke="red" fill="red"/>
   </g>
   <g id="cell172" type="Red Bacteria" dead="false" >
  <circle cx="80.0993" cy="314.448" r="0.8947" stroke-width="0.5" stroke="black" fill="red"/>
  <circle cx="80.0993" cy="314.448" r="0.62035" stroke-width="0.5" stroke="red" fill="red"/>
   </g>
   <g id="cell173" type="Red Bacteria" dead="false" >
  <circle cx="381.113" cy="392.476" r="0.8947" stroke-width="0.5" stroke="black" fill="red"/>
  <circle cx="381.113" cy="392.476" r="0.62035" stroke-width="0.5" stroke="red" fill="red"/>
   </g>
   <g id="cell174" type="Red Bacteria" dead="false" >
  <circle cx="318.683" cy="2.54756" r="0.8947" stroke-width="0.5" stroke="black" fill="red"/>
  <circle cx="318.683" cy="2.54756" r="0.62035" stroke-width="0.5" stroke="red" fill="red"/>
   </g>
   <g id="cell175" type="Red Bacteria" dead="false" >
  <circle cx="320.523" cy="18.7896" r="0.8947" stroke-width="0.5" stroke="black" fill="red"/>
  <circle cx="320.523" cy="18.7896" r="0.62035" stroke-width="0.5" stroke="red" fill="red"/>
   </g>
   <g id="cell176" type="Red Bacteria" dead="false" >
  <circle cx="-0.0568013" cy="295.467" r="0.8947" stroke-width="0.5" stroke="black" fill="red"/>
  <circle cx="-0.0568013" cy="295.467" r="0.62035" stroke-width="0.5" stroke="red" fill="red"/>
   </g>
   <g id="cell177" type="Red Bacteria" dead="false" >
  <circle cx="118.764" cy="-0.0035018" r="0.8947" stroke-width="0.5" stroke="black" fill="red"/>
  <circle cx="118.764" cy="-0.0035018" r="0.62035" stroke-width="0.5" stroke="red" fill="red"/>
   </g>
   <g id="cell178" type="Red Bacteria" dead="false" >
  <circle cx="100.509" cy="149.322" r="0.8947" stroke-width="0.5" stroke="black" fill="red"/>
  <circle cx="100.509" cy="149.322" r="0.62035" stroke-width="0.5" stroke="red" fill="red"/>
   </g>
   <g id="cell179" type="Red Bacteria" dead="false" >
  <circle cx="120.105" cy="135.214" r="0.8947" stroke-width="0.5" stroke="black" fill="red"/>
  <circle cx="120.105" cy="135.214" r="0.62035" stroke-width="0.5" stroke="red" fill="red"/>
   </g>
   <g id="cell180" type="Red Bacteria" dead="false" >
  <circle cx="362.464" cy="239.542" r="0.8947" stroke-width="0.5" stroke="black" fill="red"/>
  <circle cx="362.464" cy="239.542" r="0.62035" stroke-width="0.5" stroke="red" fill="red"/>
   </g>
   <g id="cell181" type="Red Bacteria" dead="false" >
  <circle cx="119.421" cy="133.997" r="0.8947" stroke-width="0.5" stroke="black" fill="red"/>
  <circle cx="119.421" cy="133.997" r="0.62035" stroke-width="0.5" stroke="red" fill="red"/>
   </g>
   <g id="cell182" type="Red Bacteria" dead="false" >
  <circle cx="-0.00131308" cy="383.429" r="0.8947" stroke-width="0.5" stroke="black" fill="red"/>
  <circle cx="-0.00131308" cy="383.429" r="0.62035" stroke-width="0.5" stroke="red" fill="red"/>
   </g>
   <g id="cell183" type="Red Bacteria" dead="false" >
  <circle cx="364.291" cy="237.853" r="0.8947" stroke-width="0.5" stroke="black" fill="red"/>
  <circle cx="364.291" cy="237.853" r="0.62035" stroke-width="0.5" stroke="red" fill="red"/>
   </g>
   <g id="cell184" type="Red Bacteria" dead="false" >
  <circle cx="384.305" cy="10.9899" r="0.8947" stroke-width="0.5" stroke="black" fill="red"/>
  <circle cx="384.305" cy="10.9899" r="0.62035" stroke-width="0.5" stroke="red" fill="red"/>
   </g>
   <g id="cell185" type="Red Bacteria" dead="false" >
  <circle cx="17.3851" cy="400.084" r="0.8947" stroke-width="0.5" stroke="black" fill="red"/>
  <circle cx="17.3851" cy="400.084" r="0.62035" stroke-width="0.5" stroke="red" fill="red"/>
   </g>
   <g id="cell186" type="Red Bacteria" dead="false" >
  <circle cx="321.01" cy="-0.0929578" r="0.8947" stroke-width="0.5" stroke="black" fill="red"/>
  <circle cx="321.01" cy="-0.0929578" r="0.62035" stroke-width="0.5" stroke="red" fill="red"/>
   </g>
   <g id="cell187" type="Red Bacteria" dead="false" >
  <circle cx="121.121" cy="134.062" r="0.8947" stroke-width="0.5" stroke="black" fill="red"/>
  <circle cx="121.121" cy="134.062" r="0.62035" stroke-width="0.5" stroke="red" fill="red"/>
   </g>
   <g id="cell188" type="Red Bacteria" dead="false" >
  <circle cx="257.934" cy="199.112" r="0.8947" stroke-width="0.5" stroke="black" fill="red"/>
  <circle cx="257.934" cy="199.112" r="0.62035" stroke-width="0.5" stroke="red" fill="red"/>
   </g>
   <g id="cell189" type="Red Bacteria" dead="false" >
  <circle cx="-0.0446946" cy="59.9989" r="0.8947" stroke-width="0.5" stroke="black" fill="red"/>
  <circle cx="-0.0446946" cy="59.9989" r="0.62035" stroke-width="0.5" stroke="red" fill="red"/>
   </g>
   <g id="cell190" type="Red Bacteria" dead="false" >
  <circle cx="321.52" cy="16.7261" r="0.8947" stroke-width="0.5" stroke="black" fill="red"/>
  <circle cx="321.52" cy="16.7261" r="0.62035" stroke-width="0.5" stroke="red" fill="red"/>
   </g>
   <g id="cell191" type="Red Bacteria" dead="false" >
  <circle cx="120.78" cy="19.4518" r="0.8947" stroke-width="0.5" stroke="black" fill="red"/>
  <circle cx="120.78" cy="19.4518" r="0.62035" stroke-width="0.5" stroke="red" fill="red"/>
   </g>
  </g>
 </g>
  <rect x="190" y="414" width="200" height="4" stroke-width="0.8" stroke="rgb(255,255,255)" fill="rgb(0,0,0)"/>
  <text x="192.5" y="411.5"
   font-family="Arial" font-size="10" fill="black" >
   200 &#956;m
  </text>
  <text x="10" y="418"
   font-family="Arial" font-size="7.5" fill="black" >
   0 days, 0 hours, 0 minutes, and 1.2193 seconds
  </text>
  <rect x="0" y="28" width="400" height="400" stroke-width="0.8" stroke="rgb(0,0,0)" fill="none"/>
</svg>
