<?xml version="1.0" encoding="UTF-8" standalone="no"?>
<!-- Created with PhysiCell (http://PhysiCell.MathCancer.org/) -->
<svg 
 xmlns:dc="http://purl.org/dc/elements/1.1/" 
 xmlns:cc="http://creativecommons.org/ns#" 
 xmlns:rdf="http://www.w3.org/1999/02/22-rdf-syntax-ns#" 
 xmlns:svg="http://www.w3.org/2000/svg" 
 xmlns="http://www.w3.org/2000/svg" 
 version="1.1" 
 width="400" 
 height="428" 
 id="svg2">
  <rect x="0" y="0" width="400" height="428" stroke-width="0.8" stroke="white" fill="white"/>
  <text x="5" y="12"
   font-family="Arial" font-size="10" fill="black" >
   Current time: 2 days, 21 hours, and 0.00 minutes, z = 0.00 &#956;m
  </text>
  <text x="5" y="23"
   font-family="Arial" font-size="9.5" fill="black" >
   183 agents
  </text>
 <g id="tissue" 
    transform="translate(0,428) scale(1,-1)">
  <g id="ECM">
  </g>
  <g id="cells">
   <g id="cell0" type="Blue Bacteria" dead="false" >
  <circle cx="400.047" cy="133.012" r="0.463055" stroke-width="0.5" stroke="black" fill="grey"/>
  <circle cx="400.047" cy="133.012" r="3.10267e-34" stroke-width="0.5" stroke="grey" fill="grey"/>
   </g>
   <g id="cell1" type="Blue Bacteria" dead="false" >
  <circle cx="46.5384" cy="298.985" r="0.00156543" stroke-width="0.5" stroke="black" fill="grey"/>
  <circle cx="46.5384" cy="298.985" r="3.11176e-34" stroke-width="0.5" stroke="grey" fill="grey"/>
   </g>
   <g id="cell2" type="Blue Bacteria" dead="false" >
  <circle cx="400.001" cy="322.966" r="0.215925" stroke-width="0.5" stroke="black" fill="grey"/>
  <circle cx="400.001" cy="322.966" r="3.11163e-34" stroke-width="0.5" stroke="grey" fill="grey"/>
   </g>
   <g id="cell3" type="Blue Bacteria" dead="false" >
  <circle cx="362.446" cy="400.068" r="0.74295" stroke-width="0.5" stroke="black" fill="grey"/>
  <circle cx="362.446" cy="400.068" r="2.90374e-34" stroke-width="0.5" stroke="grey" fill="grey"/>
   </g>
   <g id="cell4" type="Blue Bacteria" dead="false" >
  <circle cx="139.922" cy="180.755" r="0.00156543" stroke-width="0.5" stroke="black" fill="grey"/>
  <circle cx="139.922" cy="180.755" r="3.11176e-34" stroke-width="0.5" stroke="grey" fill="grey"/>
   </g>
   <g id="cell5" type="Blue Bacteria" dead="false" >
  <circle cx="260.174" cy="61.1916" r="0.00156543" stroke-width="0.5" stroke="black" fill="grey"/>
  <circle cx="260.174" cy="61.1916" r="3.11176e-34" stroke-width="0.5" stroke="grey" fill="grey"/>
   </g>
   <g id="cell6" type="Blue Bacteria" dead="false" >
  <circle cx="356.64" cy="-0.0534006" r="0.343651" stroke-width="0.5" stroke="black" fill="grey"/>
  <circle cx="356.64" cy="-0.0534006" r="3.11006e-34" stroke-width="0.5" stroke="grey" fill="grey"/>
   </g>
   <g id="cell7" type="Blue Bacteria" dead="false" >
  <circle cx="245.313" cy="400.074" r="0.519642" stroke-width="0.5" stroke="black" fill="grey"/>
  <circle cx="245.313" cy="400.074" r="3.09413e-34" stroke-width="0.5" stroke="grey" fill="grey"/>
   </g>
   <g id="cell8" type="Blue Bacteria" dead="false" >
  <circle cx="299.477" cy="221.375" r="0.00156543" stroke-width="0.5" stroke="black" fill="grey"/>
  <circle cx="299.477" cy="221.375" r="3.11176e-34" stroke-width="0.5" stroke="grey" fill="grey"/>
   </g>
   <g id="cell9" type="Blue Bacteria" dead="false" >
  <circle cx="181.178" cy="100.225" r="0.00156543" stroke-width="0.5" stroke="black" fill="grey"/>
  <circle cx="181.178" cy="100.225" r="3.11176e-34" stroke-width="0.5" stroke="grey" fill="grey"/>
   </g>
   <g id="cell10" type="Blue Bacteria" dead="true" >
  <circle cx="46.6195" cy="318.664" r="0.000199277" stroke-width="0.5" stroke="black" fill="grey"/>
  <circle cx="46.6195" cy="318.664" r="9.218e-35" stroke-width="0.5" stroke="black" fill="black"/>
   </g>
   <g id="cell11" type="Blue Bacteria" dead="false" >
  <circle cx="-0.0300773" cy="299.753" r="0.752918" stroke-width="0.5" stroke="black" fill="grey"/>
  <circle cx="-0.0300773" cy="299.753" r="2.87941e-34" stroke-width="0.5" stroke="grey" fill="grey"/>
   </g>
   <g id="cell12" type="Blue Bacteria" dead="false" >
  <circle cx="146.118" cy="400.046" r="0.442756" stroke-width="0.5" stroke="black" fill="grey"/>
  <circle cx="146.118" cy="400.046" r="3.10471e-34" stroke-width="0.5" stroke="grey" fill="grey"/>
   </g>
   <g id="cell191" type="Red Bacteria" dead="false" >
  <circle cx="202.806" cy="-0.00225161" r="0.8947" stroke-width="0.5" stroke="black" fill="red"/>
  <circle cx="202.806" cy="-0.00225161" r="0.62035" stroke-width="0.5" stroke="red" fill="red"/>
   </g>
   <g id="cell14" type="Blue Bacteria" dead="false" >
  <circle cx="346.646" cy="-0.0894073" r="0.538119" stroke-width="0.5" stroke="black" fill="grey"/>
  <circle cx="346.646" cy="-0.0894073" r="3.09013e-34" stroke-width="0.5" stroke="grey" fill="grey"/>
   </g>
   <g id="cell15" type="Blue Bacteria" dead="false" >
  <circle cx="-0.0668275" cy="321.309" r="0.121533" stroke-width="0.5" stroke="black" fill="grey"/>
  <circle cx="-0.0668275" cy="321.309" r="3.11175e-34" stroke-width="0.5" stroke="grey" fill="grey"/>
   </g>
   <g id="cell16" type="Blue Bacteria" dead="false" >
  <circle cx="266.305" cy="400.054" r="0.299803" stroke-width="0.5" stroke="black" fill="grey"/>
  <circle cx="266.305" cy="400.054" r="3.11096e-34" stroke-width="0.5" stroke="grey" fill="grey"/>
   </g>
   <g id="cell17" type="Blue Bacteria" dead="false" >
  <circle cx="-0.0857811" cy="86.2801" r="0.712871" stroke-width="0.5" stroke="black" fill="grey"/>
  <circle cx="-0.0857811" cy="86.2801" r="2.97041e-34" stroke-width="0.5" stroke="grey" fill="grey"/>
   </g>
   <g id="cell18" type="Blue Bacteria" dead="false" >
  <circle cx="400.025" cy="327.452" r="0.0549498" stroke-width="0.5" stroke="black" fill="grey"/>
  <circle cx="400.025" cy="327.452" r="3.11176e-34" stroke-width="0.5" stroke="grey" fill="grey"/>
   </g>
   <g id="cell19" type="Blue Bacteria" dead="false" >
  <circle cx="139.158" cy="180.857" r="0.00156543" stroke-width="0.5" stroke="black" fill="grey"/>
  <circle cx="139.158" cy="180.857" r="3.11176e-34" stroke-width="0.5" stroke="grey" fill="grey"/>
   </g>
   <g id="cell20" type="Blue Bacteria" dead="false" >
  <circle cx="40.4145" cy="200.111" r="0.00156543" stroke-width="0.5" stroke="black" fill="grey"/>
  <circle cx="40.4145" cy="200.111" r="3.11176e-34" stroke-width="0.5" stroke="grey" fill="grey"/>
   </g>
   <g id="cell21" type="Blue Bacteria" dead="false" >
  <circle cx="160.092" cy="259.725" r="0.00156543" stroke-width="0.5" stroke="black" fill="grey"/>
  <circle cx="160.092" cy="259.725" r="3.11176e-34" stroke-width="0.5" stroke="grey" fill="grey"/>
   </g>
   <g id="cell22" type="Blue Bacteria" dead="false" >
  <circle cx="300.985" cy="221.29" r="0.00156543" stroke-width="0.5" stroke="black" fill="grey"/>
  <circle cx="300.985" cy="221.29" r="3.11176e-34" stroke-width="0.5" stroke="grey" fill="grey"/>
   </g>
   <g id="cell23" type="Blue Bacteria" dead="false" >
  <circle cx="400.016" cy="319.737" r="0.0851452" stroke-width="0.5" stroke="black" fill="grey"/>
  <circle cx="400.016" cy="319.737" r="3.11176e-34" stroke-width="0.5" stroke="grey" fill="grey"/>
   </g>
   <g id="cell24" type="Blue Bacteria" dead="false" >
  <circle cx="-0.066509" cy="135.464" r="0.690175" stroke-width="0.5" stroke="black" fill="grey"/>
  <circle cx="-0.066509" cy="135.464" r="3.00312e-34" stroke-width="0.5" stroke="grey" fill="grey"/>
   </g>
   <g id="cell25" type="Blue Bacteria" dead="false" >
  <circle cx="182.694" cy="101.591" r="0.00156543" stroke-width="0.5" stroke="black" fill="grey"/>
  <circle cx="182.694" cy="101.591" r="3.11176e-34" stroke-width="0.5" stroke="grey" fill="grey"/>
   </g>
   <g id="cell26" type="Blue Bacteria" dead="false" >
  <circle cx="400.054" cy="326.979" r="0.0119742" stroke-width="0.5" stroke="black" fill="grey"/>
  <circle cx="400.054" cy="326.979" r="3.11176e-34" stroke-width="0.5" stroke="grey" fill="grey"/>
   </g>
   <g id="cell27" type="Blue Bacteria" dead="false" >
  <circle cx="179.903" cy="259.894" r="0.00156543" stroke-width="0.5" stroke="black" fill="grey"/>
  <circle cx="179.903" cy="259.894" r="3.11176e-34" stroke-width="0.5" stroke="grey" fill="grey"/>
   </g>
   <g id="cell28" type="Blue Bacteria" dead="false" >
  <circle cx="120.916" cy="40.6944" r="0.00156543" stroke-width="0.5" stroke="black" fill="grey"/>
  <circle cx="120.916" cy="40.6944" r="3.11176e-34" stroke-width="0.5" stroke="grey" fill="grey"/>
   </g>
   <g id="cell29" type="Blue Bacteria" dead="false" >
  <circle cx="43.9898" cy="61.7637" r="0.00156543" stroke-width="0.5" stroke="black" fill="grey"/>
  <circle cx="43.9898" cy="61.7637" r="3.11176e-34" stroke-width="0.5" stroke="grey" fill="grey"/>
   </g>
   <g id="cell186" type="Red Bacteria" dead="false" >
  <circle cx="195.787" cy="-0.0641743" r="0.8947" stroke-width="0.5" stroke="black" fill="red"/>
  <circle cx="195.787" cy="-0.0641743" r="0.62035" stroke-width="0.5" stroke="red" fill="red"/>
   </g>
   <g id="cell31" type="Blue Bacteria" dead="false" >
  <circle cx="300.172" cy="218.347" r="0.00156543" stroke-width="0.5" stroke="black" fill="grey"/>
  <circle cx="300.172" cy="218.347" r="3.11176e-34" stroke-width="0.5" stroke="grey" fill="grey"/>
   </g>
   <g id="cell192" type="Red Bacteria" dead="false" >
  <circle cx="-0.0160366" cy="161.403" r="0.8947" stroke-width="0.5" stroke="black" fill="red"/>
  <circle cx="-0.0160366" cy="161.403" r="0.62035" stroke-width="0.5" stroke="red" fill="red"/>
   </g>
   <g id="cell33" type="Blue Bacteria" dead="false" >
  <circle cx="301.32" cy="59.3049" r="0.00156543" stroke-width="0.5" stroke="black" fill="grey"/>
  <circle cx="301.32" cy="59.3049" r="3.11176e-34" stroke-width="0.5" stroke="grey" fill="grey"/>
   </g>
   <g id="cell34" type="Blue Bacteria" dead="false" >
  <circle cx="177.444" cy="102.319" r="0.00156543" stroke-width="0.5" stroke="black" fill="grey"/>
  <circle cx="177.444" cy="102.319" r="3.11176e-34" stroke-width="0.5" stroke="grey" fill="grey"/>
   </g>
   <g id="cell35" type="Blue Bacteria" dead="false" >
  <circle cx="358.321" cy="400.027" r="0.44675" stroke-width="0.5" stroke="black" fill="grey"/>
  <circle cx="358.321" cy="400.027" r="3.10435e-34" stroke-width="0.5" stroke="grey" fill="grey"/>
   </g>
   <g id="cell36" type="Blue Bacteria" dead="false" >
  <circle cx="400.065" cy="337.576" r="0.217903" stroke-width="0.5" stroke="black" fill="grey"/>
  <circle cx="400.065" cy="337.576" r="3.11162e-34" stroke-width="0.5" stroke="grey" fill="grey"/>
   </g>
   <g id="cell188" type="Red Bacteria" dead="false" >
  <circle cx="276.958" cy="140.265" r="0.8947" stroke-width="0.5" stroke="black" fill="red"/>
  <circle cx="276.958" cy="140.265" r="0.62035" stroke-width="0.5" stroke="red" fill="red"/>
   </g>
   <g id="cell38" type="Blue Bacteria" dead="false" >
  <circle cx="39.8468" cy="203.453" r="0.00156543" stroke-width="0.5" stroke="black" fill="grey"/>
  <circle cx="39.8468" cy="203.453" r="3.11176e-34" stroke-width="0.5" stroke="grey" fill="grey"/>
   </g>
   <g id="cell39" type="Blue Bacteria" dead="false" >
  <circle cx="-0.0390843" cy="280.222" r="0.717137" stroke-width="0.5" stroke="black" fill="grey"/>
  <circle cx="-0.0390843" cy="280.222" r="2.96287e-34" stroke-width="0.5" stroke="grey" fill="grey"/>
   </g>
   <g id="cell40" type="Blue Bacteria" dead="false" >
  <circle cx="172.304" cy="261.114" r="0.00156543" stroke-width="0.5" stroke="black" fill="grey"/>
  <circle cx="172.304" cy="261.114" r="3.11176e-34" stroke-width="0.5" stroke="grey" fill="grey"/>
   </g>
   <g id="cell41" type="Blue Bacteria" dead="false" >
  <circle cx="163.827" cy="260.457" r="0.00156543" stroke-width="0.5" stroke="black" fill="grey"/>
  <circle cx="163.827" cy="260.457" r="3.11176e-34" stroke-width="0.5" stroke="grey" fill="grey"/>
   </g>
   <g id="cell42" type="Blue Bacteria" dead="false" >
  <circle cx="258.917" cy="58.4353" r="0.00156543" stroke-width="0.5" stroke="black" fill="grey"/>
  <circle cx="258.917" cy="58.4353" r="3.11176e-34" stroke-width="0.5" stroke="grey" fill="grey"/>
   </g>
   <g id="cell43" type="Blue Bacteria" dead="false" >
  <circle cx="260.149" cy="65.3632" r="0.00156543" stroke-width="0.5" stroke="black" fill="grey"/>
  <circle cx="260.149" cy="65.3632" r="3.11176e-34" stroke-width="0.5" stroke="grey" fill="grey"/>
   </g>
   <g id="cell44" type="Blue Bacteria" dead="false" >
  <circle cx="171.277" cy="259.439" r="0.00156543" stroke-width="0.5" stroke="black" fill="grey"/>
  <circle cx="171.277" cy="259.439" r="3.11176e-34" stroke-width="0.5" stroke="grey" fill="grey"/>
   </g>
   <g id="cell45" type="Blue Bacteria" dead="false" >
  <circle cx="400.062" cy="94.7222" r="0.748505" stroke-width="0.5" stroke="black" fill="grey"/>
  <circle cx="400.062" cy="94.7222" r="2.88853e-34" stroke-width="0.5" stroke="grey" fill="grey"/>
   </g>
   <g id="cell46" type="Blue Bacteria" dead="false" >
  <circle cx="179.543" cy="98.3308" r="0.00156543" stroke-width="0.5" stroke="black" fill="grey"/>
  <circle cx="179.543" cy="98.3308" r="3.11176e-34" stroke-width="0.5" stroke="grey" fill="grey"/>
   </g>
   <g id="cell47" type="Blue Bacteria" dead="false" >
  <circle cx="358.293" cy="-0.0287002" r="0.158343" stroke-width="0.5" stroke="black" fill="grey"/>
  <circle cx="358.293" cy="-0.0287002" r="3.11174e-34" stroke-width="0.5" stroke="grey" fill="grey"/>
   </g>
   <g id="cell48" type="Blue Bacteria" dead="false" >
  <circle cx="226.073" cy="291.552" r="0.00156543" stroke-width="0.5" stroke="black" fill="grey"/>
  <circle cx="226.073" cy="291.552" r="3.11176e-34" stroke-width="0.5" stroke="grey" fill="grey"/>
   </g>
   <g id="cell49" type="Blue Bacteria" dead="false" >
  <circle cx="179.449" cy="99.7634" r="0.00156543" stroke-width="0.5" stroke="black" fill="grey"/>
  <circle cx="179.449" cy="99.7634" r="3.11176e-34" stroke-width="0.5" stroke="grey" fill="grey"/>
   </g>
   <g id="cell50" type="Blue Bacteria" dead="false" >
  <circle cx="161.966" cy="260.15" r="0.00156543" stroke-width="0.5" stroke="black" fill="grey"/>
  <circle cx="161.966" cy="260.15" r="3.11176e-34" stroke-width="0.5" stroke="grey" fill="grey"/>
   </g>
   <g id="cell51" type="Blue Bacteria" dead="false" >
  <circle cx="349.467" cy="-0.0401457" r="0.471404" stroke-width="0.5" stroke="black" fill="grey"/>
  <circle cx="349.467" cy="-0.0401457" r="3.1017e-34" stroke-width="0.5" stroke="grey" fill="grey"/>
   </g>
   <g id="cell52" type="Blue Bacteria" dead="false" >
  <circle cx="400.088" cy="110.825" r="0.557054" stroke-width="0.5" stroke="black" fill="grey"/>
  <circle cx="400.088" cy="110.825" r="3.0852e-34" stroke-width="0.5" stroke="grey" fill="grey"/>
   </g>
   <g id="cell53" type="Blue Bacteria" dead="false" >
  <circle cx="50.4345" cy="61.1109" r="0.00156543" stroke-width="0.5" stroke="black" fill="grey"/>
  <circle cx="50.4345" cy="61.1109" r="3.11176e-34" stroke-width="0.5" stroke="grey" fill="grey"/>
   </g>
   <g id="cell54" type="Blue Bacteria" dead="false" >
  <circle cx="300.423" cy="222.172" r="0.00156543" stroke-width="0.5" stroke="black" fill="grey"/>
  <circle cx="300.423" cy="222.172" r="3.11176e-34" stroke-width="0.5" stroke="grey" fill="grey"/>
   </g>
   <g id="cell55" type="Blue Bacteria" dead="false" >
  <circle cx="299.85" cy="59.465" r="0.00156543" stroke-width="0.5" stroke="black" fill="grey"/>
  <circle cx="299.85" cy="59.465" r="3.11176e-34" stroke-width="0.5" stroke="grey" fill="grey"/>
   </g>
   <g id="cell56" type="Blue Bacteria" dead="false" >
  <circle cx="298.694" cy="52.229" r="0.00156543" stroke-width="0.5" stroke="black" fill="grey"/>
  <circle cx="298.694" cy="52.229" r="3.11176e-34" stroke-width="0.5" stroke="grey" fill="grey"/>
   </g>
   <g id="cell57" type="Blue Bacteria" dead="false" >
  <circle cx="39.5984" cy="201.166" r="0.00156543" stroke-width="0.5" stroke="black" fill="grey"/>
  <circle cx="39.5984" cy="201.166" r="3.11176e-34" stroke-width="0.5" stroke="grey" fill="grey"/>
   </g>
   <g id="cell197" type="Red Bacteria" dead="false" >
  <circle cx="239.998" cy="231.892" r="0.8947" stroke-width="0.5" stroke="black" fill="red"/>
  <circle cx="239.998" cy="231.892" r="0.62035" stroke-width="0.5" stroke="red" fill="red"/>
   </g>
   <g id="cell59" type="Blue Bacteria" dead="false" >
  <circle cx="182.594" cy="99.4126" r="0.00156543" stroke-width="0.5" stroke="black" fill="grey"/>
  <circle cx="182.594" cy="99.4126" r="3.11176e-34" stroke-width="0.5" stroke="grey" fill="grey"/>
   </g>
   <g id="cell60" type="Blue Bacteria" dead="false" >
  <circle cx="361.023" cy="400.039" r="0.533455" stroke-width="0.5" stroke="black" fill="grey"/>
  <circle cx="361.023" cy="400.039" r="3.09121e-34" stroke-width="0.5" stroke="grey" fill="grey"/>
   </g>
   <g id="cell61" type="Blue Bacteria" dead="false" >
  <circle cx="264.124" cy="400.075" r="0.291721" stroke-width="0.5" stroke="black" fill="grey"/>
  <circle cx="264.124" cy="400.075" r="3.11107e-34" stroke-width="0.5" stroke="grey" fill="grey"/>
   </g>
   <g id="cell62" type="Blue Bacteria" dead="false" >
  <circle cx="400.006" cy="326.52" r="0.168785" stroke-width="0.5" stroke="black" fill="grey"/>
  <circle cx="400.006" cy="326.52" r="3.11173e-34" stroke-width="0.5" stroke="grey" fill="grey"/>
   </g>
   <g id="cell63" type="Blue Bacteria" dead="false" >
  <circle cx="168.825" cy="260.127" r="0.00156543" stroke-width="0.5" stroke="black" fill="grey"/>
  <circle cx="168.825" cy="260.127" r="3.11176e-34" stroke-width="0.5" stroke="grey" fill="grey"/>
   </g>
   <g id="cell64" type="Blue Bacteria" dead="false" >
  <circle cx="179.328" cy="103.921" r="0.00156543" stroke-width="0.5" stroke="black" fill="grey"/>
  <circle cx="179.328" cy="103.921" r="3.11176e-34" stroke-width="0.5" stroke="grey" fill="grey"/>
   </g>
   <g id="cell65" type="Blue Bacteria" dead="false" >
  <circle cx="163.491" cy="261.327" r="0.00156543" stroke-width="0.5" stroke="black" fill="grey"/>
  <circle cx="163.491" cy="261.327" r="3.11176e-34" stroke-width="0.5" stroke="grey" fill="grey"/>
   </g>
   <g id="cell66" type="Blue Bacteria" dead="false" >
  <circle cx="53.2298" cy="64.834" r="0.00156543" stroke-width="0.5" stroke="black" fill="grey"/>
  <circle cx="53.2298" cy="64.834" r="3.11176e-34" stroke-width="0.5" stroke="grey" fill="grey"/>
   </g>
   <g id="cell190" type="Red Bacteria" dead="false" >
  <circle cx="63.2076" cy="120.157" r="0.8947" stroke-width="0.5" stroke="black" fill="red"/>
  <circle cx="63.2076" cy="120.157" r="0.62035" stroke-width="0.5" stroke="red" fill="red"/>
   </g>
   <g id="cell68" type="Blue Bacteria" dead="false" >
  <circle cx="-0.049439" cy="266.229" r="0.750869" stroke-width="0.5" stroke="black" fill="grey"/>
  <circle cx="-0.049439" cy="266.229" r="2.88283e-34" stroke-width="0.5" stroke="grey" fill="grey"/>
   </g>
   <g id="cell69" type="Blue Bacteria" dead="false" >
  <circle cx="300.095" cy="59.2719" r="0.00156543" stroke-width="0.5" stroke="black" fill="grey"/>
  <circle cx="300.095" cy="59.2719" r="3.11176e-34" stroke-width="0.5" stroke="grey" fill="grey"/>
   </g>
   <g id="cell70" type="Blue Bacteria" dead="true" >
  <circle cx="139.796" cy="178.366" r="0.000199277" stroke-width="0.5" stroke="black" fill="grey"/>
  <circle cx="139.796" cy="178.366" r="9.218e-35" stroke-width="0.5" stroke="black" fill="black"/>
   </g>
   <g id="cell71" type="Blue Bacteria" dead="false" >
  <circle cx="299.7" cy="221.192" r="0.00156543" stroke-width="0.5" stroke="black" fill="grey"/>
  <circle cx="299.7" cy="221.192" r="3.11176e-34" stroke-width="0.5" stroke="grey" fill="grey"/>
   </g>
   <g id="cell72" type="Blue Bacteria" dead="false" >
  <circle cx="140.027" cy="179.026" r="0.00156543" stroke-width="0.5" stroke="black" fill="grey"/>
  <circle cx="140.027" cy="179.026" r="3.11176e-34" stroke-width="0.5" stroke="grey" fill="grey"/>
   </g>
   <g id="cell73" type="Blue Bacteria" dead="false" >
  <circle cx="3.74905" cy="-0.0271192" r="0.748505" stroke-width="0.5" stroke="black" fill="grey"/>
  <circle cx="3.74905" cy="-0.0271192" r="2.88853e-34" stroke-width="0.5" stroke="grey" fill="grey"/>
   </g>
   <g id="cell74" type="Blue Bacteria" dead="false" >
  <circle cx="179.905" cy="101.988" r="0.00156543" stroke-width="0.5" stroke="black" fill="grey"/>
  <circle cx="179.905" cy="101.988" r="3.11176e-34" stroke-width="0.5" stroke="grey" fill="grey"/>
   </g>
   <g id="cell75" type="Blue Bacteria" dead="false" >
  <circle cx="400.081" cy="330.928" r="0.0433455" stroke-width="0.5" stroke="black" fill="grey"/>
  <circle cx="400.081" cy="330.928" r="3.11176e-34" stroke-width="0.5" stroke="grey" fill="grey"/>
   </g>
   <g id="cell183" type="Red Bacteria" dead="false" >
  <circle cx="338.698" cy="106.181" r="0.8947" stroke-width="0.5" stroke="black" fill="red"/>
  <circle cx="338.698" cy="106.181" r="0.62035" stroke-width="0.5" stroke="red" fill="red"/>
   </g>
   <g id="cell77" type="Blue Bacteria" dead="false" >
  <circle cx="161.845" cy="259.478" r="0.00156543" stroke-width="0.5" stroke="black" fill="grey"/>
  <circle cx="161.845" cy="259.478" r="3.11176e-34" stroke-width="0.5" stroke="grey" fill="grey"/>
   </g>
   <g id="cell78" type="Blue Bacteria" dead="false" >
  <circle cx="135.375" cy="179.569" r="0.00156543" stroke-width="0.5" stroke="black" fill="grey"/>
  <circle cx="135.375" cy="179.569" r="3.11176e-34" stroke-width="0.5" stroke="grey" fill="grey"/>
   </g>
   <g id="cell79" type="Blue Bacteria" dead="false" >
  <circle cx="300.555" cy="219.296" r="0.00156543" stroke-width="0.5" stroke="black" fill="grey"/>
  <circle cx="300.555" cy="219.296" r="3.11176e-34" stroke-width="0.5" stroke="grey" fill="grey"/>
   </g>
   <g id="cell80" type="Blue Bacteria" dead="false" >
  <circle cx="400.085" cy="140.302" r="0.641096" stroke-width="0.5" stroke="black" fill="grey"/>
  <circle cx="400.085" cy="140.302" r="3.04763e-34" stroke-width="0.5" stroke="grey" fill="grey"/>
   </g>
   <g id="cell81" type="Blue Bacteria" dead="false" >
  <circle cx="41.4071" cy="60.1351" r="0.00156543" stroke-width="0.5" stroke="black" fill="grey"/>
  <circle cx="41.4071" cy="60.1351" r="3.11176e-34" stroke-width="0.5" stroke="grey" fill="grey"/>
   </g>
   <g id="cell82" type="Blue Bacteria" dead="false" >
  <circle cx="139.023" cy="178.455" r="0.00156543" stroke-width="0.5" stroke="black" fill="grey"/>
  <circle cx="139.023" cy="178.455" r="3.11176e-34" stroke-width="0.5" stroke="grey" fill="grey"/>
   </g>
   <g id="cell83" type="Blue Bacteria" dead="false" >
  <circle cx="263.482" cy="400.003" r="0.488494" stroke-width="0.5" stroke="black" fill="grey"/>
  <circle cx="263.482" cy="400.003" r="3.09943e-34" stroke-width="0.5" stroke="grey" fill="grey"/>
   </g>
   <g id="cell84" type="Blue Bacteria" dead="false" >
  <circle cx="121.597" cy="39.2266" r="0.00156543" stroke-width="0.5" stroke="black" fill="grey"/>
  <circle cx="121.597" cy="39.2266" r="3.11176e-34" stroke-width="0.5" stroke="grey" fill="grey"/>
   </g>
   <g id="cell85" type="Blue Bacteria" dead="false" >
  <circle cx="177.242" cy="260.289" r="0.00156543" stroke-width="0.5" stroke="black" fill="grey"/>
  <circle cx="177.242" cy="260.289" r="3.11176e-34" stroke-width="0.5" stroke="grey" fill="grey"/>
   </g>
   <g id="cell86" type="Blue Bacteria" dead="false" >
  <circle cx="258.123" cy="59.6389" r="0.00156543" stroke-width="0.5" stroke="black" fill="grey"/>
  <circle cx="258.123" cy="59.6389" r="3.11176e-34" stroke-width="0.5" stroke="grey" fill="grey"/>
   </g>
   <g id="cell87" type="Blue Bacteria" dead="false" >
  <circle cx="121.185" cy="39.9893" r="0.00156543" stroke-width="0.5" stroke="black" fill="grey"/>
  <circle cx="121.185" cy="39.9893" r="3.11176e-34" stroke-width="0.5" stroke="grey" fill="grey"/>
   </g>
   <g id="cell88" type="Blue Bacteria" dead="false" >
  <circle cx="151.051" cy="400.072" r="0.497235" stroke-width="0.5" stroke="black" fill="grey"/>
  <circle cx="151.051" cy="400.072" r="3.0981e-34" stroke-width="0.5" stroke="grey" fill="grey"/>
   </g>
   <g id="cell89" type="Blue Bacteria" dead="false" >
  <circle cx="348.677" cy="-0.0401721" r="0.0378014" stroke-width="0.5" stroke="black" fill="grey"/>
  <circle cx="348.677" cy="-0.0401721" r="3.11176e-34" stroke-width="0.5" stroke="grey" fill="grey"/>
   </g>
   <g id="cell90" type="Blue Bacteria" dead="false" >
  <circle cx="184.31" cy="101.267" r="0.00156543" stroke-width="0.5" stroke="black" fill="grey"/>
  <circle cx="184.31" cy="101.267" r="3.11176e-34" stroke-width="0.5" stroke="grey" fill="grey"/>
   </g>
   <g id="cell193" type="Red Bacteria" dead="false" >
  <circle cx="240.048" cy="237.989" r="0.8947" stroke-width="0.5" stroke="black" fill="red"/>
  <circle cx="240.048" cy="237.989" r="0.62035" stroke-width="0.5" stroke="red" fill="red"/>
   </g>
   <g id="cell92" type="Blue Bacteria" dead="false" >
  <circle cx="400" cy="339.026" r="0.00451099" stroke-width="0.5" stroke="black" fill="grey"/>
  <circle cx="400" cy="339.026" r="3.11176e-34" stroke-width="0.5" stroke="grey" fill="grey"/>
   </g>
   <g id="cell93" type="Blue Bacteria" dead="false" >
  <circle cx="170.188" cy="258.743" r="0.00156543" stroke-width="0.5" stroke="black" fill="grey"/>
  <circle cx="170.188" cy="258.743" r="3.11176e-34" stroke-width="0.5" stroke="grey" fill="grey"/>
   </g>
   <g id="cell94" type="Blue Bacteria" dead="false" >
  <circle cx="89.2064" cy="400.019" r="0.750869" stroke-width="0.5" stroke="black" fill="grey"/>
  <circle cx="89.2064" cy="400.019" r="2.88283e-34" stroke-width="0.5" stroke="grey" fill="grey"/>
   </g>
   <g id="cell95" type="Blue Bacteria" dead="false" >
  <circle cx="297.549" cy="221.321" r="0.00156543" stroke-width="0.5" stroke="black" fill="grey"/>
  <circle cx="297.549" cy="221.321" r="3.11176e-34" stroke-width="0.5" stroke="grey" fill="grey"/>
   </g>
   <g id="cell96" type="Blue Bacteria" dead="false" >
  <circle cx="55.9569" cy="78.3781" r="0.00156543" stroke-width="0.5" stroke="black" fill="grey"/>
  <circle cx="55.9569" cy="78.3781" r="3.11176e-34" stroke-width="0.5" stroke="grey" fill="grey"/>
   </g>
   <g id="cell97" type="Blue Bacteria" dead="false" >
  <circle cx="169.331" cy="260.779" r="0.00156543" stroke-width="0.5" stroke="black" fill="grey"/>
  <circle cx="169.331" cy="260.779" r="3.11176e-34" stroke-width="0.5" stroke="grey" fill="grey"/>
   </g>
   <g id="cell98" type="Blue Bacteria" dead="false" >
  <circle cx="179.507" cy="100.897" r="0.00156543" stroke-width="0.5" stroke="black" fill="grey"/>
  <circle cx="179.507" cy="100.897" r="3.11176e-34" stroke-width="0.5" stroke="grey" fill="grey"/>
   </g>
   <g id="cell99" type="Blue Bacteria" dead="false" >
  <circle cx="140.54" cy="179.543" r="0.00156543" stroke-width="0.5" stroke="black" fill="grey"/>
  <circle cx="140.54" cy="179.543" r="3.11176e-34" stroke-width="0.5" stroke="grey" fill="grey"/>
   </g>
   <g id="cell100" type="Red Bacteria" dead="false" >
  <circle cx="240.361" cy="222.739" r="0.8947" stroke-width="0.5" stroke="black" fill="red"/>
  <circle cx="240.361" cy="222.739" r="0.62035" stroke-width="0.5" stroke="red" fill="red"/>
   </g>
   <g id="cell101" type="Red Bacteria" dead="false" >
  <circle cx="79.1712" cy="256.097" r="0.8947" stroke-width="0.5" stroke="black" fill="red"/>
  <circle cx="79.1712" cy="256.097" r="0.62035" stroke-width="0.5" stroke="red" fill="red"/>
   </g>
   <g id="cell102" type="Red Bacteria" dead="false" >
  <circle cx="238.69" cy="224.027" r="0.8947" stroke-width="0.5" stroke="black" fill="red"/>
  <circle cx="238.69" cy="224.027" r="0.62035" stroke-width="0.5" stroke="red" fill="red"/>
   </g>
   <g id="cell103" type="Red Bacteria" dead="false" >
  <circle cx="321.147" cy="400.062" r="0.8947" stroke-width="0.5" stroke="black" fill="red"/>
  <circle cx="321.147" cy="400.062" r="0.62035" stroke-width="0.5" stroke="red" fill="red"/>
   </g>
   <g id="cell104" type="Red Bacteria" dead="false" >
  <circle cx="239.83" cy="228.796" r="0.8947" stroke-width="0.5" stroke="black" fill="red"/>
  <circle cx="239.83" cy="228.796" r="0.62035" stroke-width="0.5" stroke="red" fill="red"/>
   </g>
   <g id="cell105" type="Red Bacteria" dead="false" >
  <circle cx="79.9164" cy="359.809" r="0.8947" stroke-width="0.5" stroke="black" fill="red"/>
  <circle cx="79.9164" cy="359.809" r="0.62035" stroke-width="0.5" stroke="red" fill="red"/>
   </g>
   <g id="cell106" type="Red Bacteria" dead="false" >
  <circle cx="79.8949" cy="253.852" r="0.8947" stroke-width="0.5" stroke="black" fill="red"/>
  <circle cx="79.8949" cy="253.852" r="0.62035" stroke-width="0.5" stroke="red" fill="red"/>
   </g>
   <g id="cell107" type="Red Bacteria" dead="false" >
  <circle cx="81.3257" cy="263.227" r="0.8947" stroke-width="0.5" stroke="black" fill="red"/>
  <circle cx="81.3257" cy="263.227" r="0.62035" stroke-width="0.5" stroke="red" fill="red"/>
   </g>
   <g id="cell108" type="Red Bacteria" dead="false" >
  <circle cx="239.933" cy="230.361" r="0.8947" stroke-width="0.5" stroke="black" fill="red"/>
  <circle cx="239.933" cy="230.361" r="0.62035" stroke-width="0.5" stroke="red" fill="red"/>
   </g>
   <g id="cell109" type="Red Bacteria" dead="false" >
  <circle cx="214.512" cy="400.009" r="0.8947" stroke-width="0.5" stroke="black" fill="red"/>
  <circle cx="214.512" cy="400.009" r="0.62035" stroke-width="0.5" stroke="red" fill="red"/>
   </g>
   <g id="cell110" type="Red Bacteria" dead="false" >
  <circle cx="15.6467" cy="-0.062863" r="0.8947" stroke-width="0.5" stroke="black" fill="red"/>
  <circle cx="15.6467" cy="-0.062863" r="0.62035" stroke-width="0.5" stroke="red" fill="red"/>
   </g>
   <g id="cell111" type="Red Bacteria" dead="false" >
  <circle cx="400.059" cy="220.423" r="0.8947" stroke-width="0.5" stroke="black" fill="red"/>
  <circle cx="400.059" cy="220.423" r="0.62035" stroke-width="0.5" stroke="red" fill="red"/>
   </g>
   <g id="cell112" type="Red Bacteria" dead="false" >
  <circle cx="241.205" cy="341.203" r="0.8947" stroke-width="0.5" stroke="black" fill="red"/>
  <circle cx="241.205" cy="341.203" r="0.62035" stroke-width="0.5" stroke="red" fill="red"/>
   </g>
   <g id="cell113" type="Red Bacteria" dead="false" >
  <circle cx="279.348" cy="139.131" r="0.8947" stroke-width="0.5" stroke="black" fill="red"/>
  <circle cx="279.348" cy="139.131" r="0.62035" stroke-width="0.5" stroke="red" fill="red"/>
   </g>
   <g id="cell185" type="Red Bacteria" dead="false" >
  <circle cx="-0.00915274" cy="388.82" r="0.8947" stroke-width="0.5" stroke="black" fill="red"/>
  <circle cx="-0.00915274" cy="388.82" r="0.62035" stroke-width="0.5" stroke="red" fill="red"/>
   </g>
   <g id="cell115" type="Red Bacteria" dead="false" >
  <circle cx="238.203" cy="338.531" r="0.8947" stroke-width="0.5" stroke="black" fill="red"/>
  <circle cx="238.203" cy="338.531" r="0.62035" stroke-width="0.5" stroke="red" fill="red"/>
   </g>
   <g id="cell116" type="Red Bacteria" dead="false" >
  <circle cx="79.5499" cy="260.678" r="0.8947" stroke-width="0.5" stroke="black" fill="red"/>
  <circle cx="79.5499" cy="260.678" r="0.62035" stroke-width="0.5" stroke="red" fill="red"/>
   </g>
   <g id="cell117" type="Red Bacteria" dead="false" >
  <circle cx="60.1171" cy="120.64" r="0.8947" stroke-width="0.5" stroke="black" fill="red"/>
  <circle cx="60.1171" cy="120.64" r="0.62035" stroke-width="0.5" stroke="red" fill="red"/>
   </g>
   <g id="cell196" type="Red Bacteria" dead="false" >
  <circle cx="240.265" cy="220.886" r="0.8947" stroke-width="0.5" stroke="black" fill="red"/>
  <circle cx="240.265" cy="220.886" r="0.62035" stroke-width="0.5" stroke="red" fill="red"/>
   </g>
   <g id="cell119" type="Red Bacteria" dead="false" >
  <circle cx="78.5059" cy="259.634" r="0.8947" stroke-width="0.5" stroke="black" fill="red"/>
  <circle cx="78.5059" cy="259.634" r="0.62035" stroke-width="0.5" stroke="red" fill="red"/>
   </g>
   <g id="cell120" type="Red Bacteria" dead="false" >
  <circle cx="272.642" cy="400.062" r="0.8947" stroke-width="0.5" stroke="black" fill="red"/>
  <circle cx="272.642" cy="400.062" r="0.62035" stroke-width="0.5" stroke="red" fill="red"/>
   </g>
   <g id="cell121" type="Red Bacteria" dead="false" >
  <circle cx="81.16" cy="260.877" r="0.8947" stroke-width="0.5" stroke="black" fill="red"/>
  <circle cx="81.16" cy="260.877" r="0.62035" stroke-width="0.5" stroke="red" fill="red"/>
   </g>
   <g id="cell122" type="Red Bacteria" dead="false" >
  <circle cx="198.219" cy="-0.0892484" r="0.8947" stroke-width="0.5" stroke="black" fill="red"/>
  <circle cx="198.219" cy="-0.0892484" r="0.62035" stroke-width="0.5" stroke="red" fill="red"/>
   </g>
   <g id="cell123" type="Red Bacteria" dead="false" >
  <circle cx="199.663" cy="-0.0793725" r="0.8947" stroke-width="0.5" stroke="black" fill="red"/>
  <circle cx="199.663" cy="-0.0793725" r="0.62035" stroke-width="0.5" stroke="red" fill="red"/>
   </g>
   <g id="cell189" type="Red Bacteria" dead="false" >
  <circle cx="238.881" cy="340.413" r="0.8947" stroke-width="0.5" stroke="black" fill="red"/>
  <circle cx="238.881" cy="340.413" r="0.62035" stroke-width="0.5" stroke="red" fill="red"/>
   </g>
   <g id="cell125" type="Red Bacteria" dead="false" >
  <circle cx="17.1032" cy="-0.039632" r="0.8947" stroke-width="0.5" stroke="black" fill="red"/>
  <circle cx="17.1032" cy="-0.039632" r="0.62035" stroke-width="0.5" stroke="red" fill="red"/>
   </g>
   <g id="cell126" type="Red Bacteria" dead="false" >
  <circle cx="239.858" cy="337.769" r="0.8947" stroke-width="0.5" stroke="black" fill="red"/>
  <circle cx="239.858" cy="337.769" r="0.62035" stroke-width="0.5" stroke="red" fill="red"/>
   </g>
   <g id="cell127" type="Red Bacteria" dead="false" >
  <circle cx="-0.0532024" cy="380.357" r="0.8947" stroke-width="0.5" stroke="black" fill="red"/>
  <circle cx="-0.0532024" cy="380.357" r="0.62035" stroke-width="0.5" stroke="red" fill="red"/>
   </g>
   <g id="cell128" type="Red Bacteria" dead="false" >
  <circle cx="61.5253" cy="119.882" r="0.8947" stroke-width="0.5" stroke="black" fill="red"/>
  <circle cx="61.5253" cy="119.882" r="0.62035" stroke-width="0.5" stroke="red" fill="red"/>
   </g>
   <g id="cell129" type="Red Bacteria" dead="false" >
  <circle cx="340.121" cy="100.619" r="0.8947" stroke-width="0.5" stroke="black" fill="red"/>
  <circle cx="340.121" cy="100.619" r="0.62035" stroke-width="0.5" stroke="red" fill="red"/>
   </g>
   <g id="cell130" type="Red Bacteria" dead="false" >
  <circle cx="239.16" cy="219.744" r="0.8947" stroke-width="0.5" stroke="black" fill="red"/>
  <circle cx="239.16" cy="219.744" r="0.62035" stroke-width="0.5" stroke="red" fill="red"/>
   </g>
   <g id="cell131" type="Red Bacteria" dead="false" >
  <circle cx="79.7177" cy="264.085" r="0.8947" stroke-width="0.5" stroke="black" fill="red"/>
  <circle cx="79.7177" cy="264.085" r="0.62035" stroke-width="0.5" stroke="red" fill="red"/>
   </g>
   <g id="cell132" type="Red Bacteria" dead="false" >
  <circle cx="8.61393" cy="400.098" r="0.8947" stroke-width="0.5" stroke="black" fill="red"/>
  <circle cx="8.61393" cy="400.098" r="0.62035" stroke-width="0.5" stroke="red" fill="red"/>
   </g>
   <g id="cell133" type="Red Bacteria" dead="false" >
  <circle cx="278.985" cy="140.557" r="0.8947" stroke-width="0.5" stroke="black" fill="red"/>
  <circle cx="278.985" cy="140.557" r="0.62035" stroke-width="0.5" stroke="red" fill="red"/>
   </g>
   <g id="cell134" type="Red Bacteria" dead="false" >
  <circle cx="-0.0494409" cy="203.246" r="0.8947" stroke-width="0.5" stroke="black" fill="red"/>
  <circle cx="-0.0494409" cy="203.246" r="0.62035" stroke-width="0.5" stroke="red" fill="red"/>
   </g>
   <g id="cell135" type="Red Bacteria" dead="false" >
  <circle cx="79.8969" cy="258.231" r="0.8947" stroke-width="0.5" stroke="black" fill="red"/>
  <circle cx="79.8969" cy="258.231" r="0.62035" stroke-width="0.5" stroke="red" fill="red"/>
   </g>
   <g id="cell195" type="Red Bacteria" dead="false" >
  <circle cx="400.047" cy="216.069" r="0.8947" stroke-width="0.5" stroke="black" fill="red"/>
  <circle cx="400.047" cy="216.069" r="0.62035" stroke-width="0.5" stroke="red" fill="red"/>
   </g>
   <g id="cell137" type="Red Bacteria" dead="false" >
  <circle cx="77.7219" cy="256.332" r="0.8947" stroke-width="0.5" stroke="black" fill="red"/>
  <circle cx="77.7219" cy="256.332" r="0.62035" stroke-width="0.5" stroke="red" fill="red"/>
   </g>
   <g id="cell138" type="Red Bacteria" dead="false" >
  <circle cx="80.4154" cy="257.082" r="0.8947" stroke-width="0.5" stroke="black" fill="red"/>
  <circle cx="80.4154" cy="257.082" r="0.62035" stroke-width="0.5" stroke="red" fill="red"/>
   </g>
   <g id="cell139" type="Red Bacteria" dead="false" >
  <circle cx="201.113" cy="-0.0213042" r="0.8947" stroke-width="0.5" stroke="black" fill="red"/>
  <circle cx="201.113" cy="-0.0213042" r="0.62035" stroke-width="0.5" stroke="red" fill="red"/>
   </g>
   <g id="cell140" type="Red Bacteria" dead="false" >
  <circle cx="393.606" cy="219.638" r="0.8947" stroke-width="0.5" stroke="black" fill="red"/>
  <circle cx="393.606" cy="219.638" r="0.62035" stroke-width="0.5" stroke="red" fill="red"/>
   </g>
   <g id="cell141" type="Red Bacteria" dead="false" >
  <circle cx="400.07" cy="219.042" r="0.8947" stroke-width="0.5" stroke="black" fill="red"/>
  <circle cx="400.07" cy="219.042" r="0.62035" stroke-width="0.5" stroke="red" fill="red"/>
   </g>
   <g id="cell142" type="Red Bacteria" dead="false" >
  <circle cx="19.6135" cy="400.017" r="0.8947" stroke-width="0.5" stroke="black" fill="red"/>
  <circle cx="19.6135" cy="400.017" r="0.62035" stroke-width="0.5" stroke="red" fill="red"/>
   </g>
   <g id="cell143" type="Red Bacteria" dead="false" >
  <circle cx="241.472" cy="239.067" r="0.8947" stroke-width="0.5" stroke="black" fill="red"/>
  <circle cx="241.472" cy="239.067" r="0.62035" stroke-width="0.5" stroke="red" fill="red"/>
   </g>
   <g id="cell144" type="Red Bacteria" dead="false" >
  <circle cx="80.2686" cy="259.644" r="0.8947" stroke-width="0.5" stroke="black" fill="red"/>
  <circle cx="80.2686" cy="259.644" r="0.62035" stroke-width="0.5" stroke="red" fill="red"/>
   </g>
   <g id="cell145" type="Red Bacteria" dead="false" >
  <circle cx="380.333" cy="-0.0151305" r="0.8947" stroke-width="0.5" stroke="black" fill="red"/>
  <circle cx="380.333" cy="-0.0151305" r="0.62035" stroke-width="0.5" stroke="red" fill="red"/>
   </g>
   <g id="cell187" type="Red Bacteria" dead="false" >
  <circle cx="42.8785" cy="400.077" r="0.8947" stroke-width="0.5" stroke="black" fill="red"/>
  <circle cx="42.8785" cy="400.077" r="0.62035" stroke-width="0.5" stroke="red" fill="red"/>
   </g>
   <g id="cell147" type="Red Bacteria" dead="false" >
  <circle cx="280.916" cy="139.671" r="0.8947" stroke-width="0.5" stroke="black" fill="red"/>
  <circle cx="280.916" cy="139.671" r="0.62035" stroke-width="0.5" stroke="red" fill="red"/>
   </g>
   <g id="cell148" type="Red Bacteria" dead="false" >
  <circle cx="340.025" cy="103.468" r="0.8947" stroke-width="0.5" stroke="black" fill="red"/>
  <circle cx="340.025" cy="103.468" r="0.62035" stroke-width="0.5" stroke="red" fill="red"/>
   </g>
   <g id="cell149" type="Red Bacteria" dead="false" >
  <circle cx="-0.0977774" cy="390.274" r="0.8947" stroke-width="0.5" stroke="black" fill="red"/>
  <circle cx="-0.0977774" cy="390.274" r="0.62035" stroke-width="0.5" stroke="red" fill="red"/>
   </g>
   <g id="cell150" type="Red Bacteria" dead="false" >
  <circle cx="400.011" cy="100.739" r="0.8947" stroke-width="0.5" stroke="black" fill="red"/>
  <circle cx="400.011" cy="100.739" r="0.62035" stroke-width="0.5" stroke="red" fill="red"/>
   </g>
   <g id="cell151" type="Red Bacteria" dead="false" >
  <circle cx="62.4938" cy="121.148" r="0.8947" stroke-width="0.5" stroke="black" fill="red"/>
  <circle cx="62.4938" cy="121.148" r="0.62035" stroke-width="0.5" stroke="red" fill="red"/>
   </g>
   <g id="cell152" type="Red Bacteria" dead="false" >
  <circle cx="85.1257" cy="400.049" r="0.8947" stroke-width="0.5" stroke="black" fill="red"/>
  <circle cx="85.1257" cy="400.049" r="0.62035" stroke-width="0.5" stroke="red" fill="red"/>
   </g>
   <g id="cell153" type="Red Bacteria" dead="false" >
  <circle cx="1.52724" cy="389.08" r="0.8947" stroke-width="0.5" stroke="black" fill="red"/>
  <circle cx="1.52724" cy="389.08" r="0.62035" stroke-width="0.5" stroke="red" fill="red"/>
   </g>
   <g id="cell194" type="Red Bacteria" dead="false" >
  <circle cx="400.047" cy="224.564" r="0.8947" stroke-width="0.5" stroke="black" fill="red"/>
  <circle cx="400.047" cy="224.564" r="0.62035" stroke-width="0.5" stroke="red" fill="red"/>
   </g>
   <g id="cell155" type="Red Bacteria" dead="false" >
  <circle cx="246.044" cy="341.401" r="0.8947" stroke-width="0.5" stroke="black" fill="red"/>
  <circle cx="246.044" cy="341.401" r="0.62035" stroke-width="0.5" stroke="red" fill="red"/>
   </g>
   <g id="cell156" type="Red Bacteria" dead="false" >
  <circle cx="239.807" cy="239.514" r="0.8947" stroke-width="0.5" stroke="black" fill="red"/>
  <circle cx="239.807" cy="239.514" r="0.62035" stroke-width="0.5" stroke="red" fill="red"/>
   </g>
   <g id="cell157" type="Red Bacteria" dead="false" >
  <circle cx="240.4" cy="225.922" r="0.8947" stroke-width="0.5" stroke="black" fill="red"/>
  <circle cx="240.4" cy="225.922" r="0.62035" stroke-width="0.5" stroke="red" fill="red"/>
   </g>
   <g id="cell158" type="Red Bacteria" dead="false" >
  <circle cx="18.5262" cy="-0.0255818" r="0.8947" stroke-width="0.5" stroke="black" fill="red"/>
  <circle cx="18.5262" cy="-0.0255818" r="0.62035" stroke-width="0.5" stroke="red" fill="red"/>
   </g>
   <g id="cell159" type="Red Bacteria" dead="false" >
  <circle cx="80.3802" cy="262.075" r="0.8947" stroke-width="0.5" stroke="black" fill="red"/>
  <circle cx="80.3802" cy="262.075" r="0.62035" stroke-width="0.5" stroke="red" fill="red"/>
   </g>
   <g id="cell160" type="Red Bacteria" dead="false" >
  <circle cx="77.3077" cy="258.116" r="0.8947" stroke-width="0.5" stroke="black" fill="red"/>
  <circle cx="77.3077" cy="258.116" r="0.62035" stroke-width="0.5" stroke="red" fill="red"/>
   </g>
   <g id="cell161" type="Red Bacteria" dead="false" >
  <circle cx="400.082" cy="217.538" r="0.8947" stroke-width="0.5" stroke="black" fill="red"/>
  <circle cx="400.082" cy="217.538" r="0.62035" stroke-width="0.5" stroke="red" fill="red"/>
   </g>
   <g id="cell162" type="Red Bacteria" dead="false" >
  <circle cx="77.1864" cy="358.29" r="0.8947" stroke-width="0.5" stroke="black" fill="red"/>
  <circle cx="77.1864" cy="358.29" r="0.62035" stroke-width="0.5" stroke="red" fill="red"/>
   </g>
   <g id="cell163" type="Red Bacteria" dead="false" >
  <circle cx="400.063" cy="58.9431" r="0.8947" stroke-width="0.5" stroke="black" fill="red"/>
  <circle cx="400.063" cy="58.9431" r="0.62035" stroke-width="0.5" stroke="red" fill="red"/>
   </g>
   <g id="cell164" type="Red Bacteria" dead="false" >
  <circle cx="240.412" cy="233.133" r="0.8947" stroke-width="0.5" stroke="black" fill="red"/>
  <circle cx="240.412" cy="233.133" r="0.62035" stroke-width="0.5" stroke="red" fill="red"/>
   </g>
   <g id="cell165" type="Red Bacteria" dead="false" >
  <circle cx="-0.0220231" cy="391.816" r="0.8947" stroke-width="0.5" stroke="black" fill="red"/>
  <circle cx="-0.0220231" cy="391.816" r="0.62035" stroke-width="0.5" stroke="red" fill="red"/>
   </g>
   <g id="cell166" type="Red Bacteria" dead="false" >
  <circle cx="400.072" cy="221.946" r="0.8947" stroke-width="0.5" stroke="black" fill="red"/>
  <circle cx="400.072" cy="221.946" r="0.62035" stroke-width="0.5" stroke="red" fill="red"/>
   </g>
   <g id="cell167" type="Red Bacteria" dead="false" >
  <circle cx="400.024" cy="223.302" r="0.8947" stroke-width="0.5" stroke="black" fill="red"/>
  <circle cx="400.024" cy="223.302" r="0.62035" stroke-width="0.5" stroke="red" fill="red"/>
   </g>
   <g id="cell168" type="Red Bacteria" dead="false" >
  <circle cx="237.734" cy="222.654" r="0.8947" stroke-width="0.5" stroke="black" fill="red"/>
  <circle cx="237.734" cy="222.654" r="0.62035" stroke-width="0.5" stroke="red" fill="red"/>
   </g>
   <g id="cell169" type="Red Bacteria" dead="false" >
  <circle cx="241.881" cy="225.869" r="0.8947" stroke-width="0.5" stroke="black" fill="red"/>
  <circle cx="241.881" cy="225.869" r="0.62035" stroke-width="0.5" stroke="red" fill="red"/>
   </g>
   <g id="cell170" type="Red Bacteria" dead="false" >
  <circle cx="-0.00199784" cy="38.7476" r="0.8947" stroke-width="0.5" stroke="black" fill="red"/>
  <circle cx="-0.00199784" cy="38.7476" r="0.62035" stroke-width="0.5" stroke="red" fill="red"/>
   </g>
   <g id="cell198" type="Red Bacteria" dead="false" >
  <circle cx="380.711" cy="228.046" r="0.8947" stroke-width="0.5" stroke="black" fill="red"/>
  <circle cx="380.711" cy="228.046" r="0.62035" stroke-width="0.5" stroke="red" fill="red"/>
   </g>
   <g id="cell172" type="Red Bacteria" dead="false" >
  <circle cx="339.061" cy="104.642" r="0.8947" stroke-width="0.5" stroke="black" fill="red"/>
  <circle cx="339.061" cy="104.642" r="0.62035" stroke-width="0.5" stroke="red" fill="red"/>
   </g>
   <g id="cell173" type="Red Bacteria" dead="false" >
  <circle cx="4.50502" cy="400.06" r="0.8947" stroke-width="0.5" stroke="black" fill="red"/>
  <circle cx="4.50502" cy="400.06" r="0.62035" stroke-width="0.5" stroke="red" fill="red"/>
   </g>
   <g id="cell174" type="Red Bacteria" dead="false" >
  <circle cx="340.864" cy="111.03" r="0.8947" stroke-width="0.5" stroke="black" fill="red"/>
  <circle cx="340.864" cy="111.03" r="0.62035" stroke-width="0.5" stroke="red" fill="red"/>
   </g>
   <g id="cell175" type="Red Bacteria" dead="false" >
  <circle cx="65.0416" cy="120.332" r="0.8947" stroke-width="0.5" stroke="black" fill="red"/>
  <circle cx="65.0416" cy="120.332" r="0.62035" stroke-width="0.5" stroke="red" fill="red"/>
   </g>
   <g id="cell176" type="Red Bacteria" dead="false" >
  <circle cx="82.178" cy="259.719" r="0.8947" stroke-width="0.5" stroke="black" fill="red"/>
  <circle cx="82.178" cy="259.719" r="0.62035" stroke-width="0.5" stroke="red" fill="red"/>
   </g>
   <g id="cell177" type="Red Bacteria" dead="false" >
  <circle cx="-0.0437571" cy="387.424" r="0.8947" stroke-width="0.5" stroke="black" fill="red"/>
  <circle cx="-0.0437571" cy="387.424" r="0.62035" stroke-width="0.5" stroke="red" fill="red"/>
   </g>
   <g id="cell184" type="Red Bacteria" dead="false" >
  <circle cx="-0.0567725" cy="40.0386" r="0.8947" stroke-width="0.5" stroke="black" fill="red"/>
  <circle cx="-0.0567725" cy="40.0386" r="0.62035" stroke-width="0.5" stroke="red" fill="red"/>
   </g>
   <g id="cell179" type="Red Bacteria" dead="false" >
  <circle cx="400.029" cy="277.136" r="0.8947" stroke-width="0.5" stroke="black" fill="red"/>
  <circle cx="400.029" cy="277.136" r="0.62035" stroke-width="0.5" stroke="red" fill="red"/>
   </g>
   <g id="cell180" type="Red Bacteria" dead="false" >
  <circle cx="383.966" cy="220.183" r="0.8947" stroke-width="0.5" stroke="black" fill="red"/>
  <circle cx="383.966" cy="220.183" r="0.62035" stroke-width="0.5" stroke="red" fill="red"/>
   </g>
   <g id="cell181" type="Red Bacteria" dead="false" >
  <circle cx="281.761" cy="133.429" r="0.8947" stroke-width="0.5" stroke="black" fill="red"/>
  <circle cx="281.761" cy="133.429" r="0.62035" stroke-width="0.5" stroke="red" fill="red"/>
   </g>
   <g id="cell182" type="Red Bacteria" dead="false" >
  <circle cx="15.5532" cy="400.028" r="0.8947" stroke-width="0.5" stroke="black" fill="red"/>
  <circle cx="15.5532" cy="400.028" r="0.62035" stroke-width="0.5" stroke="red" fill="red"/>
   </g>
  </g>
 </g>
  <rect x="190" y="414" width="200" height="4" stroke-width="0.8" stroke="rgb(255,255,255)" fill="rgb(0,0,0)"/>
  <text x="192.5" y="411.5"
   font-family="Arial" font-size="10" fill="black" >
   200 &#956;m
  </text>
  <text x="10" y="418"
   font-family="Arial" font-size="7.5" fill="black" >
   0 days, 0 hours, 0 minutes, and 8.6149 seconds
  </text>
  <rect x="0" y="28" width="400" height="400" stroke-width="0.8" stroke="rgb(0,0,0)" fill="none"/>
</svg>
