<?xml version="1.0" encoding="UTF-8" standalone="no"?>
<!-- Created with PhysiCell (http://PhysiCell.MathCancer.org/) -->
<svg 
 xmlns:dc="http://purl.org/dc/elements/1.1/" 
 xmlns:cc="http://creativecommons.org/ns#" 
 xmlns:rdf="http://www.w3.org/1999/02/22-rdf-syntax-ns#" 
 xmlns:svg="http://www.w3.org/2000/svg" 
 xmlns="http://www.w3.org/2000/svg" 
 version="1.1" 
 width="400" 
 height="428" 
 id="svg2">
  <rect x="0" y="0" width="400" height="428" stroke-width="0.8" stroke="white" fill="white"/>
  <text x="5" y="12"
   font-family="Arial" font-size="10" fill="black" >
   Current time: 2 days, 11 hours, and 0.00 minutes, z = 0.00 &#956;m
  </text>
  <text x="5" y="23"
   font-family="Arial" font-size="9.5" fill="black" >
   185 agents
  </text>
 <g id="tissue" 
    transform="translate(0,428) scale(1,-1)">
  <g id="ECM">
  </g>
  <g id="cells">
   <g id="cell0" type="Blue Bacteria" dead="false" >
  <circle cx="400.047" cy="133.012" r="0.463055" stroke-width="0.5" stroke="black" fill="grey"/>
  <circle cx="400.047" cy="133.012" r="3.10267e-34" stroke-width="0.5" stroke="grey" fill="grey"/>
   </g>
   <g id="cell1" type="Blue Bacteria" dead="false" >
  <circle cx="46.5871" cy="315.643" r="0.00389829" stroke-width="0.5" stroke="black" fill="grey"/>
  <circle cx="46.5871" cy="315.643" r="3.11176e-34" stroke-width="0.5" stroke="grey" fill="grey"/>
   </g>
   <g id="cell2" type="Blue Bacteria" dead="false" >
  <circle cx="400.001" cy="322.966" r="0.215925" stroke-width="0.5" stroke="black" fill="grey"/>
  <circle cx="400.001" cy="322.966" r="3.11163e-34" stroke-width="0.5" stroke="grey" fill="grey"/>
   </g>
   <g id="cell3" type="Blue Bacteria" dead="false" >
  <circle cx="362.446" cy="400.068" r="0.74295" stroke-width="0.5" stroke="black" fill="grey"/>
  <circle cx="362.446" cy="400.068" r="2.90374e-34" stroke-width="0.5" stroke="grey" fill="grey"/>
   </g>
   <g id="cell4" type="Blue Bacteria" dead="false" >
  <circle cx="139.322" cy="179.53" r="0.00389829" stroke-width="0.5" stroke="black" fill="grey"/>
  <circle cx="139.322" cy="179.53" r="3.11176e-34" stroke-width="0.5" stroke="grey" fill="grey"/>
   </g>
   <g id="cell5" type="Blue Bacteria" dead="false" >
  <circle cx="256.989" cy="59.1907" r="0.00389829" stroke-width="0.5" stroke="black" fill="grey"/>
  <circle cx="256.989" cy="59.1907" r="3.11176e-34" stroke-width="0.5" stroke="grey" fill="grey"/>
   </g>
   <g id="cell6" type="Blue Bacteria" dead="false" >
  <circle cx="356.64" cy="-0.0534006" r="0.343651" stroke-width="0.5" stroke="black" fill="grey"/>
  <circle cx="356.64" cy="-0.0534006" r="3.11006e-34" stroke-width="0.5" stroke="grey" fill="grey"/>
   </g>
   <g id="cell7" type="Blue Bacteria" dead="false" >
  <circle cx="245.313" cy="400.074" r="0.519642" stroke-width="0.5" stroke="black" fill="grey"/>
  <circle cx="245.313" cy="400.074" r="3.09413e-34" stroke-width="0.5" stroke="grey" fill="grey"/>
   </g>
   <g id="cell8" type="Blue Bacteria" dead="false" >
  <circle cx="300" cy="219.142" r="0.00389829" stroke-width="0.5" stroke="black" fill="grey"/>
  <circle cx="300" cy="219.142" r="3.11176e-34" stroke-width="0.5" stroke="grey" fill="grey"/>
   </g>
   <g id="cell9" type="Blue Bacteria" dead="false" >
  <circle cx="178.804" cy="103.445" r="0.00389829" stroke-width="0.5" stroke="black" fill="grey"/>
  <circle cx="178.804" cy="103.445" r="3.11176e-34" stroke-width="0.5" stroke="grey" fill="grey"/>
   </g>
   <g id="cell10" type="Blue Bacteria" dead="false" >
  <circle cx="37.2117" cy="330.796" r="0.00389829" stroke-width="0.5" stroke="black" fill="grey"/>
  <circle cx="37.2117" cy="330.796" r="3.11176e-34" stroke-width="0.5" stroke="grey" fill="grey"/>
   </g>
   <g id="cell11" type="Blue Bacteria" dead="false" >
  <circle cx="-0.0300773" cy="299.753" r="0.752918" stroke-width="0.5" stroke="black" fill="grey"/>
  <circle cx="-0.0300773" cy="299.753" r="2.87941e-34" stroke-width="0.5" stroke="grey" fill="grey"/>
   </g>
   <g id="cell12" type="Blue Bacteria" dead="false" >
  <circle cx="146.118" cy="400.046" r="0.442756" stroke-width="0.5" stroke="black" fill="grey"/>
  <circle cx="146.118" cy="400.046" r="3.10471e-34" stroke-width="0.5" stroke="grey" fill="grey"/>
   </g>
   <g id="cell191" type="Red Bacteria" dead="false" >
  <circle cx="202.806" cy="-0.00225161" r="0.8947" stroke-width="0.5" stroke="black" fill="red"/>
  <circle cx="202.806" cy="-0.00225161" r="0.62035" stroke-width="0.5" stroke="red" fill="red"/>
   </g>
   <g id="cell14" type="Blue Bacteria" dead="false" >
  <circle cx="346.646" cy="-0.0894073" r="0.538119" stroke-width="0.5" stroke="black" fill="grey"/>
  <circle cx="346.646" cy="-0.0894073" r="3.09013e-34" stroke-width="0.5" stroke="grey" fill="grey"/>
   </g>
   <g id="cell15" type="Blue Bacteria" dead="false" >
  <circle cx="-0.0668275" cy="321.309" r="0.121533" stroke-width="0.5" stroke="black" fill="grey"/>
  <circle cx="-0.0668275" cy="321.309" r="3.11175e-34" stroke-width="0.5" stroke="grey" fill="grey"/>
   </g>
   <g id="cell16" type="Blue Bacteria" dead="false" >
  <circle cx="266.305" cy="400.054" r="0.299803" stroke-width="0.5" stroke="black" fill="grey"/>
  <circle cx="266.305" cy="400.054" r="3.11096e-34" stroke-width="0.5" stroke="grey" fill="grey"/>
   </g>
   <g id="cell17" type="Blue Bacteria" dead="false" >
  <circle cx="-0.0857811" cy="86.2801" r="0.712871" stroke-width="0.5" stroke="black" fill="grey"/>
  <circle cx="-0.0857811" cy="86.2801" r="2.97041e-34" stroke-width="0.5" stroke="grey" fill="grey"/>
   </g>
   <g id="cell18" type="Blue Bacteria" dead="false" >
  <circle cx="400.025" cy="327.452" r="0.0549498" stroke-width="0.5" stroke="black" fill="grey"/>
  <circle cx="400.025" cy="327.452" r="3.11176e-34" stroke-width="0.5" stroke="grey" fill="grey"/>
   </g>
   <g id="cell19" type="Blue Bacteria" dead="false" >
  <circle cx="139.149" cy="180.066" r="0.00389829" stroke-width="0.5" stroke="black" fill="grey"/>
  <circle cx="139.149" cy="180.066" r="3.11176e-34" stroke-width="0.5" stroke="grey" fill="grey"/>
   </g>
   <g id="cell20" type="Blue Bacteria" dead="false" >
  <circle cx="40.454" cy="200.048" r="0.00389829" stroke-width="0.5" stroke="black" fill="grey"/>
  <circle cx="40.454" cy="200.048" r="3.11176e-34" stroke-width="0.5" stroke="grey" fill="grey"/>
   </g>
   <g id="cell21" type="Blue Bacteria" dead="false" >
  <circle cx="173.337" cy="260.209" r="0.00389829" stroke-width="0.5" stroke="black" fill="grey"/>
  <circle cx="173.337" cy="260.209" r="3.11176e-34" stroke-width="0.5" stroke="grey" fill="grey"/>
   </g>
   <g id="cell22" type="Blue Bacteria" dead="false" >
  <circle cx="302.896" cy="220.018" r="0.00389829" stroke-width="0.5" stroke="black" fill="grey"/>
  <circle cx="302.896" cy="220.018" r="3.11176e-34" stroke-width="0.5" stroke="grey" fill="grey"/>
   </g>
   <g id="cell23" type="Blue Bacteria" dead="false" >
  <circle cx="400.016" cy="319.737" r="0.0851452" stroke-width="0.5" stroke="black" fill="grey"/>
  <circle cx="400.016" cy="319.737" r="3.11176e-34" stroke-width="0.5" stroke="grey" fill="grey"/>
   </g>
   <g id="cell24" type="Blue Bacteria" dead="false" >
  <circle cx="-0.066509" cy="135.464" r="0.690175" stroke-width="0.5" stroke="black" fill="grey"/>
  <circle cx="-0.066509" cy="135.464" r="3.00312e-34" stroke-width="0.5" stroke="grey" fill="grey"/>
   </g>
   <g id="cell25" type="Blue Bacteria" dead="false" >
  <circle cx="180.322" cy="99.4229" r="0.00389829" stroke-width="0.5" stroke="black" fill="grey"/>
  <circle cx="180.322" cy="99.4229" r="3.11176e-34" stroke-width="0.5" stroke="grey" fill="grey"/>
   </g>
   <g id="cell26" type="Blue Bacteria" dead="false" >
  <circle cx="400.054" cy="326.979" r="0.0119742" stroke-width="0.5" stroke="black" fill="grey"/>
  <circle cx="400.054" cy="326.979" r="3.11176e-34" stroke-width="0.5" stroke="grey" fill="grey"/>
   </g>
   <g id="cell27" type="Blue Bacteria" dead="false" >
  <circle cx="169.702" cy="259.723" r="0.00389829" stroke-width="0.5" stroke="black" fill="grey"/>
  <circle cx="169.702" cy="259.723" r="3.11176e-34" stroke-width="0.5" stroke="grey" fill="grey"/>
   </g>
   <g id="cell28" type="Blue Bacteria" dead="false" >
  <circle cx="121.103" cy="41.9804" r="0.00389829" stroke-width="0.5" stroke="black" fill="grey"/>
  <circle cx="121.103" cy="41.9804" r="3.11176e-34" stroke-width="0.5" stroke="grey" fill="grey"/>
   </g>
   <g id="cell29" type="Blue Bacteria" dead="false" >
  <circle cx="47.601" cy="68.4478" r="0.00389829" stroke-width="0.5" stroke="black" fill="grey"/>
  <circle cx="47.601" cy="68.4478" r="3.11176e-34" stroke-width="0.5" stroke="grey" fill="grey"/>
   </g>
   <g id="cell186" type="Red Bacteria" dead="false" >
  <circle cx="195.787" cy="-0.0641743" r="0.8947" stroke-width="0.5" stroke="black" fill="red"/>
  <circle cx="195.787" cy="-0.0641743" r="0.62035" stroke-width="0.5" stroke="red" fill="red"/>
   </g>
   <g id="cell31" type="Blue Bacteria" dead="false" >
  <circle cx="299.73" cy="214.414" r="0.00389829" stroke-width="0.5" stroke="black" fill="grey"/>
  <circle cx="299.73" cy="214.414" r="3.11176e-34" stroke-width="0.5" stroke="grey" fill="grey"/>
   </g>
   <g id="cell192" type="Red Bacteria" dead="false" >
  <circle cx="-0.0160366" cy="161.403" r="0.8947" stroke-width="0.5" stroke="black" fill="red"/>
  <circle cx="-0.0160366" cy="161.403" r="0.62035" stroke-width="0.5" stroke="red" fill="red"/>
   </g>
   <g id="cell33" type="Blue Bacteria" dead="false" >
  <circle cx="300.97" cy="59.0077" r="0.00389829" stroke-width="0.5" stroke="black" fill="grey"/>
  <circle cx="300.97" cy="59.0077" r="3.11176e-34" stroke-width="0.5" stroke="grey" fill="grey"/>
   </g>
   <g id="cell34" type="Blue Bacteria" dead="false" >
  <circle cx="178.458" cy="104.438" r="0.00389829" stroke-width="0.5" stroke="black" fill="grey"/>
  <circle cx="178.458" cy="104.438" r="3.11176e-34" stroke-width="0.5" stroke="grey" fill="grey"/>
   </g>
   <g id="cell35" type="Blue Bacteria" dead="false" >
  <circle cx="358.321" cy="400.027" r="0.44675" stroke-width="0.5" stroke="black" fill="grey"/>
  <circle cx="358.321" cy="400.027" r="3.10435e-34" stroke-width="0.5" stroke="grey" fill="grey"/>
   </g>
   <g id="cell36" type="Blue Bacteria" dead="false" >
  <circle cx="400.065" cy="337.576" r="0.217903" stroke-width="0.5" stroke="black" fill="grey"/>
  <circle cx="400.065" cy="337.576" r="3.11162e-34" stroke-width="0.5" stroke="grey" fill="grey"/>
   </g>
   <g id="cell188" type="Red Bacteria" dead="false" >
  <circle cx="279.598" cy="141.305" r="0.8947" stroke-width="0.5" stroke="black" fill="red"/>
  <circle cx="279.598" cy="141.305" r="0.62035" stroke-width="0.5" stroke="red" fill="red"/>
   </g>
   <g id="cell38" type="Blue Bacteria" dead="false" >
  <circle cx="41.97" cy="200.106" r="0.00389829" stroke-width="0.5" stroke="black" fill="grey"/>
  <circle cx="41.97" cy="200.106" r="3.11176e-34" stroke-width="0.5" stroke="grey" fill="grey"/>
   </g>
   <g id="cell39" type="Blue Bacteria" dead="false" >
  <circle cx="-0.0390843" cy="280.222" r="0.717137" stroke-width="0.5" stroke="black" fill="grey"/>
  <circle cx="-0.0390843" cy="280.222" r="2.96287e-34" stroke-width="0.5" stroke="grey" fill="grey"/>
   </g>
   <g id="cell40" type="Blue Bacteria" dead="false" >
  <circle cx="165.037" cy="261.085" r="0.00389829" stroke-width="0.5" stroke="black" fill="grey"/>
  <circle cx="165.037" cy="261.085" r="3.11176e-34" stroke-width="0.5" stroke="grey" fill="grey"/>
   </g>
   <g id="cell41" type="Blue Bacteria" dead="false" >
  <circle cx="166.288" cy="259.823" r="0.00389829" stroke-width="0.5" stroke="black" fill="grey"/>
  <circle cx="166.288" cy="259.823" r="3.11176e-34" stroke-width="0.5" stroke="grey" fill="grey"/>
   </g>
   <g id="cell42" type="Blue Bacteria" dead="false" >
  <circle cx="255.633" cy="59.5171" r="0.00389829" stroke-width="0.5" stroke="black" fill="grey"/>
  <circle cx="255.633" cy="59.5171" r="3.11176e-34" stroke-width="0.5" stroke="grey" fill="grey"/>
   </g>
   <g id="cell43" type="Blue Bacteria" dead="false" >
  <circle cx="252.357" cy="60.496" r="0.00389829" stroke-width="0.5" stroke="black" fill="grey"/>
  <circle cx="252.357" cy="60.496" r="3.11176e-34" stroke-width="0.5" stroke="grey" fill="grey"/>
   </g>
   <g id="cell44" type="Blue Bacteria" dead="false" >
  <circle cx="169.554" cy="260.518" r="0.00389829" stroke-width="0.5" stroke="black" fill="grey"/>
  <circle cx="169.554" cy="260.518" r="3.11176e-34" stroke-width="0.5" stroke="grey" fill="grey"/>
   </g>
   <g id="cell45" type="Blue Bacteria" dead="false" >
  <circle cx="400.062" cy="94.7222" r="0.748505" stroke-width="0.5" stroke="black" fill="grey"/>
  <circle cx="400.062" cy="94.7222" r="2.88853e-34" stroke-width="0.5" stroke="grey" fill="grey"/>
   </g>
   <g id="cell46" type="Blue Bacteria" dead="false" >
  <circle cx="179.699" cy="100.444" r="0.00389829" stroke-width="0.5" stroke="black" fill="grey"/>
  <circle cx="179.699" cy="100.444" r="3.11176e-34" stroke-width="0.5" stroke="grey" fill="grey"/>
   </g>
   <g id="cell47" type="Blue Bacteria" dead="false" >
  <circle cx="358.293" cy="-0.0287002" r="0.158343" stroke-width="0.5" stroke="black" fill="grey"/>
  <circle cx="358.293" cy="-0.0287002" r="3.11174e-34" stroke-width="0.5" stroke="grey" fill="grey"/>
   </g>
   <g id="cell48" type="Blue Bacteria" dead="false" >
  <circle cx="221.002" cy="289.973" r="0.00389829" stroke-width="0.5" stroke="black" fill="grey"/>
  <circle cx="221.002" cy="289.973" r="3.11176e-34" stroke-width="0.5" stroke="grey" fill="grey"/>
   </g>
   <g id="cell49" type="Blue Bacteria" dead="false" >
  <circle cx="179.569" cy="99.5899" r="0.00389829" stroke-width="0.5" stroke="black" fill="grey"/>
  <circle cx="179.569" cy="99.5899" r="3.11176e-34" stroke-width="0.5" stroke="grey" fill="grey"/>
   </g>
   <g id="cell50" type="Blue Bacteria" dead="false" >
  <circle cx="164.422" cy="257.57" r="0.00389829" stroke-width="0.5" stroke="black" fill="grey"/>
  <circle cx="164.422" cy="257.57" r="3.11176e-34" stroke-width="0.5" stroke="grey" fill="grey"/>
   </g>
   <g id="cell51" type="Blue Bacteria" dead="false" >
  <circle cx="349.467" cy="-0.0401457" r="0.471404" stroke-width="0.5" stroke="black" fill="grey"/>
  <circle cx="349.467" cy="-0.0401457" r="3.1017e-34" stroke-width="0.5" stroke="grey" fill="grey"/>
   </g>
   <g id="cell52" type="Blue Bacteria" dead="false" >
  <circle cx="400.088" cy="110.825" r="0.557054" stroke-width="0.5" stroke="black" fill="grey"/>
  <circle cx="400.088" cy="110.825" r="3.0852e-34" stroke-width="0.5" stroke="grey" fill="grey"/>
   </g>
   <g id="cell53" type="Blue Bacteria" dead="false" >
  <circle cx="49.8249" cy="69.9322" r="0.00389829" stroke-width="0.5" stroke="black" fill="grey"/>
  <circle cx="49.8249" cy="69.9322" r="3.11176e-34" stroke-width="0.5" stroke="grey" fill="grey"/>
   </g>
   <g id="cell54" type="Blue Bacteria" dead="false" >
  <circle cx="298.223" cy="220.826" r="0.00389829" stroke-width="0.5" stroke="black" fill="grey"/>
  <circle cx="298.223" cy="220.826" r="3.11176e-34" stroke-width="0.5" stroke="grey" fill="grey"/>
   </g>
   <g id="cell55" type="Blue Bacteria" dead="false" >
  <circle cx="301.61" cy="60.0334" r="0.00389829" stroke-width="0.5" stroke="black" fill="grey"/>
  <circle cx="301.61" cy="60.0334" r="3.11176e-34" stroke-width="0.5" stroke="grey" fill="grey"/>
   </g>
   <g id="cell56" type="Blue Bacteria" dead="false" >
  <circle cx="300.374" cy="61.8427" r="0.00389829" stroke-width="0.5" stroke="black" fill="grey"/>
  <circle cx="300.374" cy="61.8427" r="3.11176e-34" stroke-width="0.5" stroke="grey" fill="grey"/>
   </g>
   <g id="cell57" type="Blue Bacteria" dead="false" >
  <circle cx="41.3854" cy="203.078" r="0.00389829" stroke-width="0.5" stroke="black" fill="grey"/>
  <circle cx="41.3854" cy="203.078" r="3.11176e-34" stroke-width="0.5" stroke="grey" fill="grey"/>
   </g>
   <g id="cell197" type="Red Bacteria" dead="false" >
  <circle cx="238.305" cy="229.786" r="0.8947" stroke-width="0.5" stroke="black" fill="red"/>
  <circle cx="238.305" cy="229.786" r="0.62035" stroke-width="0.5" stroke="red" fill="red"/>
   </g>
   <g id="cell59" type="Blue Bacteria" dead="false" >
  <circle cx="177.078" cy="100.218" r="0.00389829" stroke-width="0.5" stroke="black" fill="grey"/>
  <circle cx="177.078" cy="100.218" r="3.11176e-34" stroke-width="0.5" stroke="grey" fill="grey"/>
   </g>
   <g id="cell60" type="Blue Bacteria" dead="false" >
  <circle cx="361.023" cy="400.039" r="0.533455" stroke-width="0.5" stroke="black" fill="grey"/>
  <circle cx="361.023" cy="400.039" r="3.09121e-34" stroke-width="0.5" stroke="grey" fill="grey"/>
   </g>
   <g id="cell61" type="Blue Bacteria" dead="false" >
  <circle cx="264.124" cy="400.075" r="0.291721" stroke-width="0.5" stroke="black" fill="grey"/>
  <circle cx="264.124" cy="400.075" r="3.11107e-34" stroke-width="0.5" stroke="grey" fill="grey"/>
   </g>
   <g id="cell62" type="Blue Bacteria" dead="false" >
  <circle cx="400.006" cy="326.52" r="0.168785" stroke-width="0.5" stroke="black" fill="grey"/>
  <circle cx="400.006" cy="326.52" r="3.11173e-34" stroke-width="0.5" stroke="grey" fill="grey"/>
   </g>
   <g id="cell63" type="Blue Bacteria" dead="false" >
  <circle cx="171.269" cy="260.199" r="0.00389829" stroke-width="0.5" stroke="black" fill="grey"/>
  <circle cx="171.269" cy="260.199" r="3.11176e-34" stroke-width="0.5" stroke="grey" fill="grey"/>
   </g>
   <g id="cell64" type="Blue Bacteria" dead="false" >
  <circle cx="185.415" cy="100.273" r="0.00389829" stroke-width="0.5" stroke="black" fill="grey"/>
  <circle cx="185.415" cy="100.273" r="3.11176e-34" stroke-width="0.5" stroke="grey" fill="grey"/>
   </g>
   <g id="cell65" type="Blue Bacteria" dead="false" >
  <circle cx="178.735" cy="259.963" r="0.00389829" stroke-width="0.5" stroke="black" fill="grey"/>
  <circle cx="178.735" cy="259.963" r="3.11176e-34" stroke-width="0.5" stroke="grey" fill="grey"/>
   </g>
   <g id="cell66" type="Blue Bacteria" dead="false" >
  <circle cx="53.874" cy="61.68" r="0.00389829" stroke-width="0.5" stroke="black" fill="grey"/>
  <circle cx="53.874" cy="61.68" r="3.11176e-34" stroke-width="0.5" stroke="grey" fill="grey"/>
   </g>
   <g id="cell190" type="Red Bacteria" dead="false" >
  <circle cx="68.947" cy="120.865" r="0.8947" stroke-width="0.5" stroke="black" fill="red"/>
  <circle cx="68.947" cy="120.865" r="0.62035" stroke-width="0.5" stroke="red" fill="red"/>
   </g>
   <g id="cell68" type="Blue Bacteria" dead="false" >
  <circle cx="-0.049439" cy="266.229" r="0.750869" stroke-width="0.5" stroke="black" fill="grey"/>
  <circle cx="-0.049439" cy="266.229" r="2.88283e-34" stroke-width="0.5" stroke="grey" fill="grey"/>
   </g>
   <g id="cell69" type="Blue Bacteria" dead="false" >
  <circle cx="300.027" cy="56.6789" r="0.00389829" stroke-width="0.5" stroke="black" fill="grey"/>
  <circle cx="300.027" cy="56.6789" r="3.11176e-34" stroke-width="0.5" stroke="grey" fill="grey"/>
   </g>
   <g id="cell70" type="Blue Bacteria" dead="false" >
  <circle cx="140.7" cy="178.093" r="0.00389829" stroke-width="0.5" stroke="black" fill="grey"/>
  <circle cx="140.7" cy="178.093" r="3.11176e-34" stroke-width="0.5" stroke="grey" fill="grey"/>
   </g>
   <g id="cell71" type="Blue Bacteria" dead="false" >
  <circle cx="297.818" cy="220.087" r="0.00389829" stroke-width="0.5" stroke="black" fill="grey"/>
  <circle cx="297.818" cy="220.087" r="3.11176e-34" stroke-width="0.5" stroke="grey" fill="grey"/>
   </g>
   <g id="cell72" type="Blue Bacteria" dead="false" >
  <circle cx="138.311" cy="173.225" r="0.00389829" stroke-width="0.5" stroke="black" fill="grey"/>
  <circle cx="138.311" cy="173.225" r="3.11176e-34" stroke-width="0.5" stroke="grey" fill="grey"/>
   </g>
   <g id="cell73" type="Blue Bacteria" dead="false" >
  <circle cx="3.74905" cy="-0.0271192" r="0.748505" stroke-width="0.5" stroke="black" fill="grey"/>
  <circle cx="3.74905" cy="-0.0271192" r="2.88853e-34" stroke-width="0.5" stroke="grey" fill="grey"/>
   </g>
   <g id="cell74" type="Blue Bacteria" dead="false" >
  <circle cx="180.603" cy="100.318" r="0.00389829" stroke-width="0.5" stroke="black" fill="grey"/>
  <circle cx="180.603" cy="100.318" r="3.11176e-34" stroke-width="0.5" stroke="grey" fill="grey"/>
   </g>
   <g id="cell75" type="Blue Bacteria" dead="false" >
  <circle cx="400.081" cy="330.928" r="0.0433455" stroke-width="0.5" stroke="black" fill="grey"/>
  <circle cx="400.081" cy="330.928" r="3.11176e-34" stroke-width="0.5" stroke="grey" fill="grey"/>
   </g>
   <g id="cell76" type="Blue Bacteria" dead="false" >
  <circle cx="302.743" cy="220.664" r="0.00389829" stroke-width="0.5" stroke="black" fill="grey"/>
  <circle cx="302.743" cy="220.664" r="3.11176e-34" stroke-width="0.5" stroke="grey" fill="grey"/>
   </g>
   <g id="cell77" type="Blue Bacteria" dead="false" >
  <circle cx="169.194" cy="260.501" r="0.00389829" stroke-width="0.5" stroke="black" fill="grey"/>
  <circle cx="169.194" cy="260.501" r="3.11176e-34" stroke-width="0.5" stroke="grey" fill="grey"/>
   </g>
   <g id="cell78" type="Blue Bacteria" dead="false" >
  <circle cx="142.541" cy="180.535" r="0.00389829" stroke-width="0.5" stroke="black" fill="grey"/>
  <circle cx="142.541" cy="180.535" r="3.11176e-34" stroke-width="0.5" stroke="grey" fill="grey"/>
   </g>
   <g id="cell79" type="Blue Bacteria" dead="false" >
  <circle cx="299.929" cy="220.121" r="0.00389829" stroke-width="0.5" stroke="black" fill="grey"/>
  <circle cx="299.929" cy="220.121" r="3.11176e-34" stroke-width="0.5" stroke="grey" fill="grey"/>
   </g>
   <g id="cell80" type="Blue Bacteria" dead="false" >
  <circle cx="400.085" cy="140.302" r="0.641096" stroke-width="0.5" stroke="black" fill="grey"/>
  <circle cx="400.085" cy="140.302" r="3.04763e-34" stroke-width="0.5" stroke="grey" fill="grey"/>
   </g>
   <g id="cell81" type="Blue Bacteria" dead="false" >
  <circle cx="48.8168" cy="79.0046" r="0.00389829" stroke-width="0.5" stroke="black" fill="grey"/>
  <circle cx="48.8168" cy="79.0046" r="3.11176e-34" stroke-width="0.5" stroke="grey" fill="grey"/>
   </g>
   <g id="cell82" type="Blue Bacteria" dead="false" >
  <circle cx="150.234" cy="182.279" r="0.00389829" stroke-width="0.5" stroke="black" fill="grey"/>
  <circle cx="150.234" cy="182.279" r="3.11176e-34" stroke-width="0.5" stroke="grey" fill="grey"/>
   </g>
   <g id="cell83" type="Blue Bacteria" dead="false" >
  <circle cx="263.482" cy="400.003" r="0.488494" stroke-width="0.5" stroke="black" fill="grey"/>
  <circle cx="263.482" cy="400.003" r="3.09943e-34" stroke-width="0.5" stroke="grey" fill="grey"/>
   </g>
   <g id="cell84" type="Blue Bacteria" dead="false" >
  <circle cx="118.248" cy="41.4097" r="0.00389829" stroke-width="0.5" stroke="black" fill="grey"/>
  <circle cx="118.248" cy="41.4097" r="3.11176e-34" stroke-width="0.5" stroke="grey" fill="grey"/>
   </g>
   <g id="cell85" type="Blue Bacteria" dead="false" >
  <circle cx="171.295" cy="262.232" r="0.00389829" stroke-width="0.5" stroke="black" fill="grey"/>
  <circle cx="171.295" cy="262.232" r="3.11176e-34" stroke-width="0.5" stroke="grey" fill="grey"/>
   </g>
   <g id="cell86" type="Blue Bacteria" dead="false" >
  <circle cx="250.076" cy="57.999" r="0.00389829" stroke-width="0.5" stroke="black" fill="grey"/>
  <circle cx="250.076" cy="57.999" r="3.11176e-34" stroke-width="0.5" stroke="grey" fill="grey"/>
   </g>
   <g id="cell87" type="Blue Bacteria" dead="false" >
  <circle cx="122.611" cy="39.8485" r="0.00389829" stroke-width="0.5" stroke="black" fill="grey"/>
  <circle cx="122.611" cy="39.8485" r="3.11176e-34" stroke-width="0.5" stroke="grey" fill="grey"/>
   </g>
   <g id="cell88" type="Blue Bacteria" dead="false" >
  <circle cx="151.051" cy="400.072" r="0.497235" stroke-width="0.5" stroke="black" fill="grey"/>
  <circle cx="151.051" cy="400.072" r="3.0981e-34" stroke-width="0.5" stroke="grey" fill="grey"/>
   </g>
   <g id="cell89" type="Blue Bacteria" dead="false" >
  <circle cx="348.677" cy="-0.0401721" r="0.0378014" stroke-width="0.5" stroke="black" fill="grey"/>
  <circle cx="348.677" cy="-0.0401721" r="3.11176e-34" stroke-width="0.5" stroke="grey" fill="grey"/>
   </g>
   <g id="cell90" type="Blue Bacteria" dead="false" >
  <circle cx="179.313" cy="99.9052" r="0.00389829" stroke-width="0.5" stroke="black" fill="grey"/>
  <circle cx="179.313" cy="99.9052" r="3.11176e-34" stroke-width="0.5" stroke="grey" fill="grey"/>
   </g>
   <g id="cell193" type="Red Bacteria" dead="false" >
  <circle cx="241.051" cy="222.025" r="0.8947" stroke-width="0.5" stroke="black" fill="red"/>
  <circle cx="241.051" cy="222.025" r="0.62035" stroke-width="0.5" stroke="red" fill="red"/>
   </g>
   <g id="cell92" type="Blue Bacteria" dead="false" >
  <circle cx="400" cy="339.026" r="0.00451099" stroke-width="0.5" stroke="black" fill="grey"/>
  <circle cx="400" cy="339.026" r="3.11176e-34" stroke-width="0.5" stroke="grey" fill="grey"/>
   </g>
   <g id="cell93" type="Blue Bacteria" dead="false" >
  <circle cx="178.923" cy="259.82" r="0.00389829" stroke-width="0.5" stroke="black" fill="grey"/>
  <circle cx="178.923" cy="259.82" r="3.11176e-34" stroke-width="0.5" stroke="grey" fill="grey"/>
   </g>
   <g id="cell94" type="Blue Bacteria" dead="false" >
  <circle cx="89.2064" cy="400.019" r="0.750869" stroke-width="0.5" stroke="black" fill="grey"/>
  <circle cx="89.2064" cy="400.019" r="2.88283e-34" stroke-width="0.5" stroke="grey" fill="grey"/>
   </g>
   <g id="cell95" type="Blue Bacteria" dead="false" >
  <circle cx="302.77" cy="217.305" r="0.00389829" stroke-width="0.5" stroke="black" fill="grey"/>
  <circle cx="302.77" cy="217.305" r="3.11176e-34" stroke-width="0.5" stroke="grey" fill="grey"/>
   </g>
   <g id="cell96" type="Blue Bacteria" dead="false" >
  <circle cx="49.9469" cy="74.5194" r="0.00389829" stroke-width="0.5" stroke="black" fill="grey"/>
  <circle cx="49.9469" cy="74.5194" r="3.11176e-34" stroke-width="0.5" stroke="grey" fill="grey"/>
   </g>
   <g id="cell97" type="Blue Bacteria" dead="false" >
  <circle cx="164.61" cy="259.445" r="0.00389829" stroke-width="0.5" stroke="black" fill="grey"/>
  <circle cx="164.61" cy="259.445" r="3.11176e-34" stroke-width="0.5" stroke="grey" fill="grey"/>
   </g>
   <g id="cell98" type="Blue Bacteria" dead="false" >
  <circle cx="176.863" cy="99.731" r="0.00389829" stroke-width="0.5" stroke="black" fill="grey"/>
  <circle cx="176.863" cy="99.731" r="3.11176e-34" stroke-width="0.5" stroke="grey" fill="grey"/>
   </g>
   <g id="cell99" type="Blue Bacteria" dead="false" >
  <circle cx="138.2" cy="176.086" r="0.00389829" stroke-width="0.5" stroke="black" fill="grey"/>
  <circle cx="138.2" cy="176.086" r="3.11176e-34" stroke-width="0.5" stroke="grey" fill="grey"/>
   </g>
   <g id="cell100" type="Red Bacteria" dead="false" >
  <circle cx="240.166" cy="230.665" r="0.8947" stroke-width="0.5" stroke="black" fill="red"/>
  <circle cx="240.166" cy="230.665" r="0.62035" stroke-width="0.5" stroke="red" fill="red"/>
   </g>
   <g id="cell101" type="Red Bacteria" dead="false" >
  <circle cx="81.79" cy="254.108" r="0.8947" stroke-width="0.5" stroke="black" fill="red"/>
  <circle cx="81.79" cy="254.108" r="0.62035" stroke-width="0.5" stroke="red" fill="red"/>
   </g>
   <g id="cell102" type="Red Bacteria" dead="false" >
  <circle cx="240.523" cy="225.466" r="0.8947" stroke-width="0.5" stroke="black" fill="red"/>
  <circle cx="240.523" cy="225.466" r="0.62035" stroke-width="0.5" stroke="red" fill="red"/>
   </g>
   <g id="cell103" type="Red Bacteria" dead="false" >
  <circle cx="321.147" cy="400.062" r="0.8947" stroke-width="0.5" stroke="black" fill="red"/>
  <circle cx="321.147" cy="400.062" r="0.62035" stroke-width="0.5" stroke="red" fill="red"/>
   </g>
   <g id="cell104" type="Red Bacteria" dead="false" >
  <circle cx="239.873" cy="237.152" r="0.8947" stroke-width="0.5" stroke="black" fill="red"/>
  <circle cx="239.873" cy="237.152" r="0.62035" stroke-width="0.5" stroke="red" fill="red"/>
   </g>
   <g id="cell105" type="Red Bacteria" dead="false" >
  <circle cx="78.8676" cy="363.193" r="0.8947" stroke-width="0.5" stroke="black" fill="red"/>
  <circle cx="78.8676" cy="363.193" r="0.62035" stroke-width="0.5" stroke="red" fill="red"/>
   </g>
   <g id="cell106" type="Red Bacteria" dead="false" >
  <circle cx="82.4865" cy="259.626" r="0.8947" stroke-width="0.5" stroke="black" fill="red"/>
  <circle cx="82.4865" cy="259.626" r="0.62035" stroke-width="0.5" stroke="red" fill="red"/>
   </g>
   <g id="cell107" type="Red Bacteria" dead="false" >
  <circle cx="80.4844" cy="264.111" r="0.8947" stroke-width="0.5" stroke="black" fill="red"/>
  <circle cx="80.4844" cy="264.111" r="0.62035" stroke-width="0.5" stroke="red" fill="red"/>
   </g>
   <g id="cell108" type="Red Bacteria" dead="false" >
  <circle cx="240.229" cy="219.039" r="0.8947" stroke-width="0.5" stroke="black" fill="red"/>
  <circle cx="240.229" cy="219.039" r="0.62035" stroke-width="0.5" stroke="red" fill="red"/>
   </g>
   <g id="cell109" type="Red Bacteria" dead="false" >
  <circle cx="214.512" cy="400.009" r="0.8947" stroke-width="0.5" stroke="black" fill="red"/>
  <circle cx="214.512" cy="400.009" r="0.62035" stroke-width="0.5" stroke="red" fill="red"/>
   </g>
   <g id="cell110" type="Red Bacteria" dead="false" >
  <circle cx="15.6467" cy="-0.062863" r="0.8947" stroke-width="0.5" stroke="black" fill="red"/>
  <circle cx="15.6467" cy="-0.062863" r="0.62035" stroke-width="0.5" stroke="red" fill="red"/>
   </g>
   <g id="cell111" type="Red Bacteria" dead="false" >
  <circle cx="400.059" cy="220.423" r="0.8947" stroke-width="0.5" stroke="black" fill="red"/>
  <circle cx="400.059" cy="220.423" r="0.62035" stroke-width="0.5" stroke="red" fill="red"/>
   </g>
   <g id="cell112" type="Red Bacteria" dead="false" >
  <circle cx="241.026" cy="340.87" r="0.8947" stroke-width="0.5" stroke="black" fill="red"/>
  <circle cx="241.026" cy="340.87" r="0.62035" stroke-width="0.5" stroke="red" fill="red"/>
   </g>
   <g id="cell113" type="Red Bacteria" dead="false" >
  <circle cx="278.164" cy="139.781" r="0.8947" stroke-width="0.5" stroke="black" fill="red"/>
  <circle cx="278.164" cy="139.781" r="0.62035" stroke-width="0.5" stroke="red" fill="red"/>
   </g>
   <g id="cell185" type="Red Bacteria" dead="false" >
  <circle cx="-0.00915274" cy="388.82" r="0.8947" stroke-width="0.5" stroke="black" fill="red"/>
  <circle cx="-0.00915274" cy="388.82" r="0.62035" stroke-width="0.5" stroke="red" fill="red"/>
   </g>
   <g id="cell115" type="Red Bacteria" dead="false" >
  <circle cx="241.875" cy="338.615" r="0.8947" stroke-width="0.5" stroke="black" fill="red"/>
  <circle cx="241.875" cy="338.615" r="0.62035" stroke-width="0.5" stroke="red" fill="red"/>
   </g>
   <g id="cell116" type="Red Bacteria" dead="false" >
  <circle cx="79.9481" cy="261.786" r="0.8947" stroke-width="0.5" stroke="black" fill="red"/>
  <circle cx="79.9481" cy="261.786" r="0.62035" stroke-width="0.5" stroke="red" fill="red"/>
   </g>
   <g id="cell117" type="Red Bacteria" dead="false" >
  <circle cx="64.922" cy="118.699" r="0.8947" stroke-width="0.5" stroke="black" fill="red"/>
  <circle cx="64.922" cy="118.699" r="0.62035" stroke-width="0.5" stroke="red" fill="red"/>
   </g>
   <g id="cell196" type="Red Bacteria" dead="false" >
  <circle cx="239.634" cy="227.584" r="0.8947" stroke-width="0.5" stroke="black" fill="red"/>
  <circle cx="239.634" cy="227.584" r="0.62035" stroke-width="0.5" stroke="red" fill="red"/>
   </g>
   <g id="cell119" type="Red Bacteria" dead="false" >
  <circle cx="78.9351" cy="259.435" r="0.8947" stroke-width="0.5" stroke="black" fill="red"/>
  <circle cx="78.9351" cy="259.435" r="0.62035" stroke-width="0.5" stroke="red" fill="red"/>
   </g>
   <g id="cell120" type="Red Bacteria" dead="false" >
  <circle cx="272.642" cy="400.062" r="0.8947" stroke-width="0.5" stroke="black" fill="red"/>
  <circle cx="272.642" cy="400.062" r="0.62035" stroke-width="0.5" stroke="red" fill="red"/>
   </g>
   <g id="cell121" type="Red Bacteria" dead="false" >
  <circle cx="81.3435" cy="260.556" r="0.8947" stroke-width="0.5" stroke="black" fill="red"/>
  <circle cx="81.3435" cy="260.556" r="0.62035" stroke-width="0.5" stroke="red" fill="red"/>
   </g>
   <g id="cell122" type="Red Bacteria" dead="false" >
  <circle cx="198.219" cy="-0.0892484" r="0.8947" stroke-width="0.5" stroke="black" fill="red"/>
  <circle cx="198.219" cy="-0.0892484" r="0.62035" stroke-width="0.5" stroke="red" fill="red"/>
   </g>
   <g id="cell123" type="Red Bacteria" dead="false" >
  <circle cx="199.663" cy="-0.0793725" r="0.8947" stroke-width="0.5" stroke="black" fill="red"/>
  <circle cx="199.663" cy="-0.0793725" r="0.62035" stroke-width="0.5" stroke="red" fill="red"/>
   </g>
   <g id="cell189" type="Red Bacteria" dead="false" >
  <circle cx="244.017" cy="340.093" r="0.8947" stroke-width="0.5" stroke="black" fill="red"/>
  <circle cx="244.017" cy="340.093" r="0.62035" stroke-width="0.5" stroke="red" fill="red"/>
   </g>
   <g id="cell125" type="Red Bacteria" dead="false" >
  <circle cx="17.1032" cy="-0.039632" r="0.8947" stroke-width="0.5" stroke="black" fill="red"/>
  <circle cx="17.1032" cy="-0.039632" r="0.62035" stroke-width="0.5" stroke="red" fill="red"/>
   </g>
   <g id="cell126" type="Red Bacteria" dead="false" >
  <circle cx="244.539" cy="342.954" r="0.8947" stroke-width="0.5" stroke="black" fill="red"/>
  <circle cx="244.539" cy="342.954" r="0.62035" stroke-width="0.5" stroke="red" fill="red"/>
   </g>
   <g id="cell127" type="Red Bacteria" dead="false" >
  <circle cx="-0.0532024" cy="380.357" r="0.8947" stroke-width="0.5" stroke="black" fill="red"/>
  <circle cx="-0.0532024" cy="380.357" r="0.62035" stroke-width="0.5" stroke="red" fill="red"/>
   </g>
   <g id="cell128" type="Red Bacteria" dead="false" >
  <circle cx="59.7758" cy="119.886" r="0.8947" stroke-width="0.5" stroke="black" fill="red"/>
  <circle cx="59.7758" cy="119.886" r="0.62035" stroke-width="0.5" stroke="red" fill="red"/>
   </g>
   <g id="cell129" type="Red Bacteria" dead="false" >
  <circle cx="339.167" cy="102.752" r="0.8947" stroke-width="0.5" stroke="black" fill="red"/>
  <circle cx="339.167" cy="102.752" r="0.62035" stroke-width="0.5" stroke="red" fill="red"/>
   </g>
   <g id="cell130" type="Red Bacteria" dead="false" >
  <circle cx="240.652" cy="228.666" r="0.8947" stroke-width="0.5" stroke="black" fill="red"/>
  <circle cx="240.652" cy="228.666" r="0.62035" stroke-width="0.5" stroke="red" fill="red"/>
   </g>
   <g id="cell131" type="Red Bacteria" dead="false" >
  <circle cx="79.6634" cy="260.306" r="0.8947" stroke-width="0.5" stroke="black" fill="red"/>
  <circle cx="79.6634" cy="260.306" r="0.62035" stroke-width="0.5" stroke="red" fill="red"/>
   </g>
   <g id="cell132" type="Red Bacteria" dead="false" >
  <circle cx="8.61393" cy="400.098" r="0.8947" stroke-width="0.5" stroke="black" fill="red"/>
  <circle cx="8.61393" cy="400.098" r="0.62035" stroke-width="0.5" stroke="red" fill="red"/>
   </g>
   <g id="cell133" type="Red Bacteria" dead="false" >
  <circle cx="279.611" cy="139.799" r="0.8947" stroke-width="0.5" stroke="black" fill="red"/>
  <circle cx="279.611" cy="139.799" r="0.62035" stroke-width="0.5" stroke="red" fill="red"/>
   </g>
   <g id="cell134" type="Red Bacteria" dead="false" >
  <circle cx="-0.0494409" cy="203.246" r="0.8947" stroke-width="0.5" stroke="black" fill="red"/>
  <circle cx="-0.0494409" cy="203.246" r="0.62035" stroke-width="0.5" stroke="red" fill="red"/>
   </g>
   <g id="cell135" type="Red Bacteria" dead="false" >
  <circle cx="79.7942" cy="257.885" r="0.8947" stroke-width="0.5" stroke="black" fill="red"/>
  <circle cx="79.7942" cy="257.885" r="0.62035" stroke-width="0.5" stroke="red" fill="red"/>
   </g>
   <g id="cell195" type="Red Bacteria" dead="false" >
  <circle cx="400.047" cy="216.069" r="0.8947" stroke-width="0.5" stroke="black" fill="red"/>
  <circle cx="400.047" cy="216.069" r="0.62035" stroke-width="0.5" stroke="red" fill="red"/>
   </g>
   <g id="cell137" type="Red Bacteria" dead="false" >
  <circle cx="80.8761" cy="262.914" r="0.8947" stroke-width="0.5" stroke="black" fill="red"/>
  <circle cx="80.8761" cy="262.914" r="0.62035" stroke-width="0.5" stroke="red" fill="red"/>
   </g>
   <g id="cell138" type="Red Bacteria" dead="false" >
  <circle cx="80.3418" cy="256.493" r="0.8947" stroke-width="0.5" stroke="black" fill="red"/>
  <circle cx="80.3418" cy="256.493" r="0.62035" stroke-width="0.5" stroke="red" fill="red"/>
   </g>
   <g id="cell139" type="Red Bacteria" dead="false" >
  <circle cx="201.113" cy="-0.0213042" r="0.8947" stroke-width="0.5" stroke="black" fill="red"/>
  <circle cx="201.113" cy="-0.0213042" r="0.62035" stroke-width="0.5" stroke="red" fill="red"/>
   </g>
   <g id="cell140" type="Red Bacteria" dead="false" >
  <circle cx="384.21" cy="218.889" r="0.8947" stroke-width="0.5" stroke="black" fill="red"/>
  <circle cx="384.21" cy="218.889" r="0.62035" stroke-width="0.5" stroke="red" fill="red"/>
   </g>
   <g id="cell141" type="Red Bacteria" dead="false" >
  <circle cx="400.07" cy="219.042" r="0.8947" stroke-width="0.5" stroke="black" fill="red"/>
  <circle cx="400.07" cy="219.042" r="0.62035" stroke-width="0.5" stroke="red" fill="red"/>
   </g>
   <g id="cell142" type="Red Bacteria" dead="false" >
  <circle cx="19.6135" cy="400.017" r="0.8947" stroke-width="0.5" stroke="black" fill="red"/>
  <circle cx="19.6135" cy="400.017" r="0.62035" stroke-width="0.5" stroke="red" fill="red"/>
   </g>
   <g id="cell143" type="Red Bacteria" dead="false" >
  <circle cx="240.005" cy="221.36" r="0.8947" stroke-width="0.5" stroke="black" fill="red"/>
  <circle cx="240.005" cy="221.36" r="0.62035" stroke-width="0.5" stroke="red" fill="red"/>
   </g>
   <g id="cell144" type="Red Bacteria" dead="false" >
  <circle cx="77.8763" cy="260.621" r="0.8947" stroke-width="0.5" stroke="black" fill="red"/>
  <circle cx="77.8763" cy="260.621" r="0.62035" stroke-width="0.5" stroke="red" fill="red"/>
   </g>
   <g id="cell145" type="Red Bacteria" dead="false" >
  <circle cx="380.333" cy="-0.0151305" r="0.8947" stroke-width="0.5" stroke="black" fill="red"/>
  <circle cx="380.333" cy="-0.0151305" r="0.62035" stroke-width="0.5" stroke="red" fill="red"/>
   </g>
   <g id="cell187" type="Red Bacteria" dead="false" >
  <circle cx="42.8785" cy="400.077" r="0.8947" stroke-width="0.5" stroke="black" fill="red"/>
  <circle cx="42.8785" cy="400.077" r="0.62035" stroke-width="0.5" stroke="red" fill="red"/>
   </g>
   <g id="cell147" type="Red Bacteria" dead="false" >
  <circle cx="281.143" cy="140.208" r="0.8947" stroke-width="0.5" stroke="black" fill="red"/>
  <circle cx="281.143" cy="140.208" r="0.62035" stroke-width="0.5" stroke="red" fill="red"/>
   </g>
   <g id="cell148" type="Red Bacteria" dead="false" >
  <circle cx="340.893" cy="106.197" r="0.8947" stroke-width="0.5" stroke="black" fill="red"/>
  <circle cx="340.893" cy="106.197" r="0.62035" stroke-width="0.5" stroke="red" fill="red"/>
   </g>
   <g id="cell149" type="Red Bacteria" dead="false" >
  <circle cx="-0.0977774" cy="390.274" r="0.8947" stroke-width="0.5" stroke="black" fill="red"/>
  <circle cx="-0.0977774" cy="390.274" r="0.62035" stroke-width="0.5" stroke="red" fill="red"/>
   </g>
   <g id="cell150" type="Red Bacteria" dead="false" >
  <circle cx="400.011" cy="100.739" r="0.8947" stroke-width="0.5" stroke="black" fill="red"/>
  <circle cx="400.011" cy="100.739" r="0.62035" stroke-width="0.5" stroke="red" fill="red"/>
   </g>
   <g id="cell151" type="Red Bacteria" dead="false" >
  <circle cx="66.9182" cy="121.547" r="0.8947" stroke-width="0.5" stroke="black" fill="red"/>
  <circle cx="66.9182" cy="121.547" r="0.62035" stroke-width="0.5" stroke="red" fill="red"/>
   </g>
   <g id="cell152" type="Red Bacteria" dead="false" >
  <circle cx="85.1257" cy="400.049" r="0.8947" stroke-width="0.5" stroke="black" fill="red"/>
  <circle cx="85.1257" cy="400.049" r="0.62035" stroke-width="0.5" stroke="red" fill="red"/>
   </g>
   <g id="cell153" type="Red Bacteria" dead="false" >
  <circle cx="83.2873" cy="363.597" r="0.8947" stroke-width="0.5" stroke="black" fill="red"/>
  <circle cx="83.2873" cy="363.597" r="0.62035" stroke-width="0.5" stroke="red" fill="red"/>
   </g>
   <g id="cell194" type="Red Bacteria" dead="false" >
  <circle cx="400.047" cy="224.564" r="0.8947" stroke-width="0.5" stroke="black" fill="red"/>
  <circle cx="400.047" cy="224.564" r="0.62035" stroke-width="0.5" stroke="red" fill="red"/>
   </g>
   <g id="cell155" type="Red Bacteria" dead="false" >
  <circle cx="239.084" cy="340.711" r="0.8947" stroke-width="0.5" stroke="black" fill="red"/>
  <circle cx="239.084" cy="340.711" r="0.62035" stroke-width="0.5" stroke="red" fill="red"/>
   </g>
   <g id="cell156" type="Red Bacteria" dead="false" >
  <circle cx="238.037" cy="220.709" r="0.8947" stroke-width="0.5" stroke="black" fill="red"/>
  <circle cx="238.037" cy="220.709" r="0.62035" stroke-width="0.5" stroke="red" fill="red"/>
   </g>
   <g id="cell157" type="Red Bacteria" dead="false" >
  <circle cx="241.976" cy="225.513" r="0.8947" stroke-width="0.5" stroke="black" fill="red"/>
  <circle cx="241.976" cy="225.513" r="0.62035" stroke-width="0.5" stroke="red" fill="red"/>
   </g>
   <g id="cell158" type="Red Bacteria" dead="false" >
  <circle cx="18.5262" cy="-0.0255818" r="0.8947" stroke-width="0.5" stroke="black" fill="red"/>
  <circle cx="18.5262" cy="-0.0255818" r="0.62035" stroke-width="0.5" stroke="red" fill="red"/>
   </g>
   <g id="cell159" type="Red Bacteria" dead="false" >
  <circle cx="80.5109" cy="259.258" r="0.8947" stroke-width="0.5" stroke="black" fill="red"/>
  <circle cx="80.5109" cy="259.258" r="0.62035" stroke-width="0.5" stroke="red" fill="red"/>
   </g>
   <g id="cell160" type="Red Bacteria" dead="false" >
  <circle cx="78.5857" cy="258.091" r="0.8947" stroke-width="0.5" stroke="black" fill="red"/>
  <circle cx="78.5857" cy="258.091" r="0.62035" stroke-width="0.5" stroke="red" fill="red"/>
   </g>
   <g id="cell161" type="Red Bacteria" dead="false" >
  <circle cx="400.082" cy="217.538" r="0.8947" stroke-width="0.5" stroke="black" fill="red"/>
  <circle cx="400.082" cy="217.538" r="0.62035" stroke-width="0.5" stroke="red" fill="red"/>
   </g>
   <g id="cell162" type="Red Bacteria" dead="false" >
  <circle cx="80.8379" cy="361.057" r="0.8947" stroke-width="0.5" stroke="black" fill="red"/>
  <circle cx="80.8379" cy="361.057" r="0.62035" stroke-width="0.5" stroke="red" fill="red"/>
   </g>
   <g id="cell163" type="Red Bacteria" dead="false" >
  <circle cx="400.063" cy="58.9431" r="0.8947" stroke-width="0.5" stroke="black" fill="red"/>
  <circle cx="400.063" cy="58.9431" r="0.62035" stroke-width="0.5" stroke="red" fill="red"/>
   </g>
   <g id="cell164" type="Red Bacteria" dead="false" >
  <circle cx="240.935" cy="223.543" r="0.8947" stroke-width="0.5" stroke="black" fill="red"/>
  <circle cx="240.935" cy="223.543" r="0.62035" stroke-width="0.5" stroke="red" fill="red"/>
   </g>
   <g id="cell165" type="Red Bacteria" dead="false" >
  <circle cx="-0.0220231" cy="391.816" r="0.8947" stroke-width="0.5" stroke="black" fill="red"/>
  <circle cx="-0.0220231" cy="391.816" r="0.62035" stroke-width="0.5" stroke="red" fill="red"/>
   </g>
   <g id="cell166" type="Red Bacteria" dead="false" >
  <circle cx="400.072" cy="221.946" r="0.8947" stroke-width="0.5" stroke="black" fill="red"/>
  <circle cx="400.072" cy="221.946" r="0.62035" stroke-width="0.5" stroke="red" fill="red"/>
   </g>
   <g id="cell167" type="Red Bacteria" dead="false" >
  <circle cx="400.024" cy="223.302" r="0.8947" stroke-width="0.5" stroke="black" fill="red"/>
  <circle cx="400.024" cy="223.302" r="0.62035" stroke-width="0.5" stroke="red" fill="red"/>
   </g>
   <g id="cell168" type="Red Bacteria" dead="false" >
  <circle cx="240.984" cy="220.193" r="0.8947" stroke-width="0.5" stroke="black" fill="red"/>
  <circle cx="240.984" cy="220.193" r="0.62035" stroke-width="0.5" stroke="red" fill="red"/>
   </g>
   <g id="cell169" type="Red Bacteria" dead="false" >
  <circle cx="241.53" cy="226.721" r="0.8947" stroke-width="0.5" stroke="black" fill="red"/>
  <circle cx="241.53" cy="226.721" r="0.62035" stroke-width="0.5" stroke="red" fill="red"/>
   </g>
   <g id="cell170" type="Red Bacteria" dead="false" >
  <circle cx="-0.00199784" cy="38.7476" r="0.8947" stroke-width="0.5" stroke="black" fill="red"/>
  <circle cx="-0.00199784" cy="38.7476" r="0.62035" stroke-width="0.5" stroke="red" fill="red"/>
   </g>
   <g id="cell198" type="Red Bacteria" dead="false" >
  <circle cx="383.674" cy="220.064" r="0.8947" stroke-width="0.5" stroke="black" fill="red"/>
  <circle cx="383.674" cy="220.064" r="0.62035" stroke-width="0.5" stroke="red" fill="red"/>
   </g>
   <g id="cell172" type="Red Bacteria" dead="false" >
  <circle cx="339.859" cy="101.35" r="0.8947" stroke-width="0.5" stroke="black" fill="red"/>
  <circle cx="339.859" cy="101.35" r="0.62035" stroke-width="0.5" stroke="red" fill="red"/>
   </g>
   <g id="cell173" type="Red Bacteria" dead="false" >
  <circle cx="4.50502" cy="400.06" r="0.8947" stroke-width="0.5" stroke="black" fill="red"/>
  <circle cx="4.50502" cy="400.06" r="0.62035" stroke-width="0.5" stroke="red" fill="red"/>
   </g>
   <g id="cell174" type="Red Bacteria" dead="false" >
  <circle cx="339.182" cy="99.6961" r="0.8947" stroke-width="0.5" stroke="black" fill="red"/>
  <circle cx="339.182" cy="99.6961" r="0.62035" stroke-width="0.5" stroke="red" fill="red"/>
   </g>
   <g id="cell175" type="Red Bacteria" dead="false" >
  <circle cx="62.3316" cy="120.02" r="0.8947" stroke-width="0.5" stroke="black" fill="red"/>
  <circle cx="62.3316" cy="120.02" r="0.62035" stroke-width="0.5" stroke="red" fill="red"/>
   </g>
   <g id="cell176" type="Red Bacteria" dead="false" >
  <circle cx="80.3668" cy="254.873" r="0.8947" stroke-width="0.5" stroke="black" fill="red"/>
  <circle cx="80.3668" cy="254.873" r="0.62035" stroke-width="0.5" stroke="red" fill="red"/>
   </g>
   <g id="cell177" type="Red Bacteria" dead="false" >
  <circle cx="-0.0437571" cy="387.424" r="0.8947" stroke-width="0.5" stroke="black" fill="red"/>
  <circle cx="-0.0437571" cy="387.424" r="0.62035" stroke-width="0.5" stroke="red" fill="red"/>
   </g>
   <g id="cell178" type="Red Bacteria" dead="true" >
  <circle cx="83.0084" cy="254.544" r="0.406546" stroke-width="0.5" stroke="black" fill="red"/>
  <circle cx="83.0084" cy="254.544" r="0.336945" stroke-width="0.5" stroke="black" fill="black"/>
   </g>
   <g id="cell179" type="Red Bacteria" dead="false" >
  <circle cx="400.029" cy="277.136" r="0.8947" stroke-width="0.5" stroke="black" fill="red"/>
  <circle cx="400.029" cy="277.136" r="0.62035" stroke-width="0.5" stroke="red" fill="red"/>
   </g>
   <g id="cell180" type="Red Bacteria" dead="false" >
  <circle cx="393.674" cy="222.428" r="0.8947" stroke-width="0.5" stroke="black" fill="red"/>
  <circle cx="393.674" cy="222.428" r="0.62035" stroke-width="0.5" stroke="red" fill="red"/>
   </g>
   <g id="cell181" type="Red Bacteria" dead="false" >
  <circle cx="280.282" cy="138.632" r="0.8947" stroke-width="0.5" stroke="black" fill="red"/>
  <circle cx="280.282" cy="138.632" r="0.62035" stroke-width="0.5" stroke="red" fill="red"/>
   </g>
   <g id="cell182" type="Red Bacteria" dead="false" >
  <circle cx="15.5532" cy="400.028" r="0.8947" stroke-width="0.5" stroke="black" fill="red"/>
  <circle cx="15.5532" cy="400.028" r="0.62035" stroke-width="0.5" stroke="red" fill="red"/>
   </g>
   <g id="cell183" type="Red Bacteria" dead="false" >
  <circle cx="339.249" cy="112.559" r="0.8947" stroke-width="0.5" stroke="black" fill="red"/>
  <circle cx="339.249" cy="112.559" r="0.62035" stroke-width="0.5" stroke="red" fill="red"/>
   </g>
   <g id="cell184" type="Red Bacteria" dead="false" >
  <circle cx="-0.0567725" cy="40.0386" r="0.8947" stroke-width="0.5" stroke="black" fill="red"/>
  <circle cx="-0.0567725" cy="40.0386" r="0.62035" stroke-width="0.5" stroke="red" fill="red"/>
   </g>
  </g>
 </g>
  <rect x="190" y="414" width="200" height="4" stroke-width="0.8" stroke="rgb(255,255,255)" fill="rgb(0,0,0)"/>
  <text x="192.5" y="411.5"
   font-family="Arial" font-size="10" fill="black" >
   200 &#956;m
  </text>
  <text x="10" y="418"
   font-family="Arial" font-size="7.5" fill="black" >
   0 days, 0 hours, 0 minutes, and 7.4036 seconds
  </text>
  <rect x="0" y="28" width="400" height="400" stroke-width="0.8" stroke="rgb(0,0,0)" fill="none"/>
</svg>
