<?xml version="1.0" encoding="UTF-8" standalone="no"?>
<!-- Created with PhysiCell (http://PhysiCell.MathCancer.org/) -->
<svg 
 xmlns:dc="http://purl.org/dc/elements/1.1/" 
 xmlns:cc="http://creativecommons.org/ns#" 
 xmlns:rdf="http://www.w3.org/1999/02/22-rdf-syntax-ns#" 
 xmlns:svg="http://www.w3.org/2000/svg" 
 xmlns="http://www.w3.org/2000/svg" 
 version="1.1" 
 width="400" 
 height="428" 
 id="svg2">
  <rect x="0" y="0" width="400" height="428" stroke-width="0.8" stroke="white" fill="white"/>
  <text x="5" y="12"
   font-family="Arial" font-size="10" fill="black" >
   Current time: 1 days, 22 hours, and 0.00 minutes, z = 0.00 &#956;m
  </text>
  <text x="5" y="23"
   font-family="Arial" font-size="9.5" fill="black" >
   186 agents
  </text>
 <g id="tissue" 
    transform="translate(0,428) scale(1,-1)">
  <g id="ECM">
  </g>
  <g id="cells">
   <g id="cell0" type="Blue Bacteria" dead="false" >
  <circle cx="62.7437" cy="400.041" r="0.750869" stroke-width="0.5" stroke="black" fill="grey"/>
  <circle cx="62.7437" cy="400.041" r="2.88283e-34" stroke-width="0.5" stroke="grey" fill="grey"/>
   </g>
   <g id="cell1" type="Blue Bacteria" dead="false" >
  <circle cx="274.13" cy="361.889" r="0.0127639" stroke-width="0.5" stroke="black" fill="grey"/>
  <circle cx="274.13" cy="361.889" r="3.11176e-34" stroke-width="0.5" stroke="grey" fill="grey"/>
   </g>
   <g id="cell190" type="Red Bacteria" dead="false" >
  <circle cx="320.23" cy="19.137" r="0.8947" stroke-width="0.5" stroke="black" fill="red"/>
  <circle cx="320.23" cy="19.137" r="0.62035" stroke-width="0.5" stroke="red" fill="red"/>
   </g>
   <g id="cell3" type="Blue Bacteria" dead="false" >
  <circle cx="400.001" cy="147.982" r="0.427104" stroke-width="0.5" stroke="black" fill="grey"/>
  <circle cx="400.001" cy="147.982" r="3.10601e-34" stroke-width="0.5" stroke="grey" fill="grey"/>
   </g>
   <g id="cell4" type="Blue Bacteria" dead="false" >
  <circle cx="319.108" cy="118.2" r="0.0127639" stroke-width="0.5" stroke="black" fill="grey"/>
  <circle cx="319.108" cy="118.2" r="3.11176e-34" stroke-width="0.5" stroke="grey" fill="grey"/>
   </g>
   <g id="cell5" type="Blue Bacteria" dead="false" >
  <circle cx="110.886" cy="268.533" r="0.0127639" stroke-width="0.5" stroke="black" fill="grey"/>
  <circle cx="110.886" cy="268.533" r="3.11176e-34" stroke-width="0.5" stroke="grey" fill="grey"/>
   </g>
   <g id="cell6" type="Blue Bacteria" dead="false" >
  <circle cx="309.167" cy="47.6947" r="0.0127639" stroke-width="0.5" stroke="black" fill="grey"/>
  <circle cx="309.167" cy="47.6947" r="3.11176e-34" stroke-width="0.5" stroke="grey" fill="grey"/>
   </g>
   <g id="cell7" type="Blue Bacteria" dead="false" >
  <circle cx="262.498" cy="201.064" r="0.0127639" stroke-width="0.5" stroke="black" fill="grey"/>
  <circle cx="262.498" cy="201.064" r="3.11176e-34" stroke-width="0.5" stroke="grey" fill="grey"/>
   </g>
   <g id="cell193" type="Red Bacteria" dead="false" >
  <circle cx="340.75" cy="213.321" r="0.8947" stroke-width="0.5" stroke="black" fill="red"/>
  <circle cx="340.75" cy="213.321" r="0.62035" stroke-width="0.5" stroke="red" fill="red"/>
   </g>
   <g id="cell9" type="Blue Bacteria" dead="false" >
  <circle cx="294.941" cy="119.566" r="0.0127639" stroke-width="0.5" stroke="black" fill="grey"/>
  <circle cx="294.941" cy="119.566" r="3.11176e-34" stroke-width="0.5" stroke="grey" fill="grey"/>
   </g>
   <g id="cell10" type="Blue Bacteria" dead="false" >
  <circle cx="-0.0807947" cy="41.6875" r="0.0323703" stroke-width="0.5" stroke="black" fill="grey"/>
  <circle cx="-0.0807947" cy="41.6875" r="3.11176e-34" stroke-width="0.5" stroke="grey" fill="grey"/>
   </g>
   <g id="cell11" type="Blue Bacteria" dead="false" >
  <circle cx="116.509" cy="400.074" r="0.393756" stroke-width="0.5" stroke="black" fill="grey"/>
  <circle cx="116.509" cy="400.074" r="3.10812e-34" stroke-width="0.5" stroke="grey" fill="grey"/>
   </g>
   <g id="cell12" type="Blue Bacteria" dead="false" >
  <circle cx="84.4514" cy="316.958" r="0.0127639" stroke-width="0.5" stroke="black" fill="grey"/>
  <circle cx="84.4514" cy="316.958" r="3.11176e-34" stroke-width="0.5" stroke="grey" fill="grey"/>
   </g>
   <g id="cell13" type="Blue Bacteria" dead="true" >
  <circle cx="276.276" cy="157.902" r="0.00538728" stroke-width="0.5" stroke="black" fill="grey"/>
  <circle cx="276.276" cy="157.902" r="1.6351e-34" stroke-width="0.5" stroke="black" fill="black"/>
   </g>
   <g id="cell14" type="Blue Bacteria" dead="false" >
  <circle cx="139.539" cy="400.062" r="0.213964" stroke-width="0.5" stroke="black" fill="grey"/>
  <circle cx="139.539" cy="400.062" r="3.11164e-34" stroke-width="0.5" stroke="grey" fill="grey"/>
   </g>
   <g id="cell15" type="Blue Bacteria" dead="false" >
  <circle cx="260.973" cy="138.104" r="0.0127639" stroke-width="0.5" stroke="black" fill="grey"/>
  <circle cx="260.973" cy="138.104" r="3.11176e-34" stroke-width="0.5" stroke="grey" fill="grey"/>
   </g>
   <g id="cell16" type="Blue Bacteria" dead="false" >
  <circle cx="31.5509" cy="296.123" r="0.0127639" stroke-width="0.5" stroke="black" fill="grey"/>
  <circle cx="31.5509" cy="296.123" r="3.11176e-34" stroke-width="0.5" stroke="grey" fill="grey"/>
   </g>
   <g id="cell17" type="Blue Bacteria" dead="false" >
  <circle cx="150.936" cy="-0.0356064" r="0.0433455" stroke-width="0.5" stroke="black" fill="grey"/>
  <circle cx="150.936" cy="-0.0356064" r="3.11176e-34" stroke-width="0.5" stroke="grey" fill="grey"/>
   </g>
   <g id="cell192" type="Red Bacteria" dead="false" >
  <circle cx="119.872" cy="138.336" r="0.8947" stroke-width="0.5" stroke="black" fill="red"/>
  <circle cx="119.872" cy="138.336" r="0.62035" stroke-width="0.5" stroke="red" fill="red"/>
   </g>
   <g id="cell19" type="Blue Bacteria" dead="false" >
  <circle cx="313.862" cy="140.572" r="0.0127639" stroke-width="0.5" stroke="black" fill="grey"/>
  <circle cx="313.862" cy="140.572" r="3.11176e-34" stroke-width="0.5" stroke="grey" fill="grey"/>
   </g>
   <g id="cell20" type="Blue Bacteria" dead="false" >
  <circle cx="400.021" cy="266.216" r="0.252135" stroke-width="0.5" stroke="black" fill="grey"/>
  <circle cx="400.021" cy="266.216" r="3.11145e-34" stroke-width="0.5" stroke="grey" fill="grey"/>
   </g>
   <g id="cell21" type="Blue Bacteria" dead="false" >
  <circle cx="270.132" cy="125.925" r="0.0127639" stroke-width="0.5" stroke="black" fill="grey"/>
  <circle cx="270.132" cy="125.925" r="3.11176e-34" stroke-width="0.5" stroke="grey" fill="grey"/>
   </g>
   <g id="cell22" type="Blue Bacteria" dead="false" >
  <circle cx="-0.038524" cy="50.8087" r="0.0859256" stroke-width="0.5" stroke="black" fill="grey"/>
  <circle cx="-0.038524" cy="50.8087" r="3.11176e-34" stroke-width="0.5" stroke="grey" fill="grey"/>
   </g>
   <g id="cell23" type="Blue Bacteria" dead="false" >
  <circle cx="147.567" cy="314.198" r="0.0127639" stroke-width="0.5" stroke="black" fill="grey"/>
  <circle cx="147.567" cy="314.198" r="3.11176e-34" stroke-width="0.5" stroke="grey" fill="grey"/>
   </g>
   <g id="cell24" type="Blue Bacteria" dead="false" >
  <circle cx="289.869" cy="361.817" r="0.0127639" stroke-width="0.5" stroke="black" fill="grey"/>
  <circle cx="289.869" cy="361.817" r="3.11176e-34" stroke-width="0.5" stroke="grey" fill="grey"/>
   </g>
   <g id="cell25" type="Blue Bacteria" dead="false" >
  <circle cx="-0.0424049" cy="84.7218" r="0.646103" stroke-width="0.5" stroke="black" fill="grey"/>
  <circle cx="-0.0424049" cy="84.7218" r="3.04418e-34" stroke-width="0.5" stroke="grey" fill="grey"/>
   </g>
   <g id="cell187" type="Red Bacteria" dead="false" >
  <circle cx="119.436" cy="133.041" r="0.8947" stroke-width="0.5" stroke="black" fill="red"/>
  <circle cx="119.436" cy="133.041" r="0.62035" stroke-width="0.5" stroke="red" fill="red"/>
   </g>
   <g id="cell27" type="Blue Bacteria" dead="false" >
  <circle cx="318.468" cy="321.76" r="0.0127639" stroke-width="0.5" stroke="black" fill="grey"/>
  <circle cx="318.468" cy="321.76" r="3.11176e-34" stroke-width="0.5" stroke="grey" fill="grey"/>
   </g>
   <g id="cell28" type="Blue Bacteria" dead="false" >
  <circle cx="299.727" cy="29.0997" r="0.0127639" stroke-width="0.5" stroke="black" fill="grey"/>
  <circle cx="299.727" cy="29.0997" r="3.11176e-34" stroke-width="0.5" stroke="grey" fill="grey"/>
   </g>
   <g id="cell29" type="Blue Bacteria" dead="false" >
  <circle cx="171.37" cy="22.684" r="0.0127639" stroke-width="0.5" stroke="black" fill="grey"/>
  <circle cx="171.37" cy="22.684" r="3.11176e-34" stroke-width="0.5" stroke="grey" fill="grey"/>
   </g>
   <g id="cell30" type="Blue Bacteria" dead="false" >
  <circle cx="300.761" cy="251.041" r="0.0127639" stroke-width="0.5" stroke="black" fill="grey"/>
  <circle cx="300.761" cy="251.041" r="3.11176e-34" stroke-width="0.5" stroke="grey" fill="grey"/>
   </g>
   <g id="cell31" type="Blue Bacteria" dead="false" >
  <circle cx="133.591" cy="400.077" r="0.750869" stroke-width="0.5" stroke="black" fill="grey"/>
  <circle cx="133.591" cy="400.077" r="2.88283e-34" stroke-width="0.5" stroke="grey" fill="grey"/>
   </g>
   <g id="cell32" type="Blue Bacteria" dead="false" >
  <circle cx="400.093" cy="222.591" r="0.0295477" stroke-width="0.5" stroke="black" fill="grey"/>
  <circle cx="400.093" cy="222.591" r="3.11176e-34" stroke-width="0.5" stroke="grey" fill="grey"/>
   </g>
   <g id="cell33" type="Blue Bacteria" dead="false" >
  <circle cx="266.158" cy="224.496" r="0.0127639" stroke-width="0.5" stroke="black" fill="grey"/>
  <circle cx="266.158" cy="224.496" r="3.11176e-34" stroke-width="0.5" stroke="grey" fill="grey"/>
   </g>
   <g id="cell34" type="Blue Bacteria" dead="false" >
  <circle cx="260.607" cy="-0.0639429" r="0.310924" stroke-width="0.5" stroke="black" fill="grey"/>
  <circle cx="260.607" cy="-0.0639429" r="3.11078e-34" stroke-width="0.5" stroke="grey" fill="grey"/>
   </g>
   <g id="cell35" type="Blue Bacteria" dead="false" >
  <circle cx="272.106" cy="281.894" r="0.0127639" stroke-width="0.5" stroke="black" fill="grey"/>
  <circle cx="272.106" cy="281.894" r="3.11176e-34" stroke-width="0.5" stroke="grey" fill="grey"/>
   </g>
   <g id="cell36" type="Blue Bacteria" dead="false" >
  <circle cx="259.889" cy="162.943" r="0.0127639" stroke-width="0.5" stroke="black" fill="grey"/>
  <circle cx="259.889" cy="162.943" r="3.11176e-34" stroke-width="0.5" stroke="grey" fill="grey"/>
   </g>
   <g id="cell37" type="Blue Bacteria" dead="false" >
  <circle cx="273.786" cy="400.032" r="0.704035" stroke-width="0.5" stroke="black" fill="grey"/>
  <circle cx="273.786" cy="400.032" r="2.98447e-34" stroke-width="0.5" stroke="grey" fill="grey"/>
   </g>
   <g id="cell38" type="Blue Bacteria" dead="false" >
  <circle cx="123.31" cy="295.259" r="0.0127639" stroke-width="0.5" stroke="black" fill="grey"/>
  <circle cx="123.31" cy="295.259" r="3.11176e-34" stroke-width="0.5" stroke="grey" fill="grey"/>
   </g>
   <g id="cell39" type="Blue Bacteria" dead="false" >
  <circle cx="277.235" cy="306.761" r="0.0127639" stroke-width="0.5" stroke="black" fill="grey"/>
  <circle cx="277.235" cy="306.761" r="3.11176e-34" stroke-width="0.5" stroke="grey" fill="grey"/>
   </g>
   <g id="cell40" type="Blue Bacteria" dead="false" >
  <circle cx="400.067" cy="302.273" r="0.366212" stroke-width="0.5" stroke="black" fill="grey"/>
  <circle cx="400.067" cy="302.273" r="3.10933e-34" stroke-width="0.5" stroke="grey" fill="grey"/>
   </g>
   <g id="cell195" type="Red Bacteria" dead="true" >
  <circle cx="125.329" cy="128.846" r="0.232255" stroke-width="0.5" stroke="black" fill="red"/>
  <circle cx="125.329" cy="128.846" r="0.22631" stroke-width="0.5" stroke="black" fill="black"/>
   </g>
   <g id="cell194" type="Red Bacteria" dead="false" >
  <circle cx="239.467" cy="400.017" r="0.8947" stroke-width="0.5" stroke="black" fill="red"/>
  <circle cx="239.467" cy="400.017" r="0.62035" stroke-width="0.5" stroke="red" fill="red"/>
   </g>
   <g id="cell43" type="Blue Bacteria" dead="false" >
  <circle cx="136.178" cy="251.478" r="0.0127639" stroke-width="0.5" stroke="black" fill="grey"/>
  <circle cx="136.178" cy="251.478" r="3.11176e-34" stroke-width="0.5" stroke="grey" fill="grey"/>
   </g>
   <g id="cell44" type="Blue Bacteria" dead="false" >
  <circle cx="168.804" cy="-0.0118758" r="0.236544" stroke-width="0.5" stroke="black" fill="grey"/>
  <circle cx="168.804" cy="-0.0118758" r="3.11154e-34" stroke-width="0.5" stroke="grey" fill="grey"/>
   </g>
   <g id="cell45" type="Blue Bacteria" dead="false" >
  <circle cx="370.396" cy="210.954" r="0.0127639" stroke-width="0.5" stroke="black" fill="grey"/>
  <circle cx="370.396" cy="210.954" r="3.11176e-34" stroke-width="0.5" stroke="grey" fill="grey"/>
   </g>
   <g id="cell46" type="Blue Bacteria" dead="false" >
  <circle cx="175.601" cy="214.6" r="0.0127639" stroke-width="0.5" stroke="black" fill="grey"/>
  <circle cx="175.601" cy="214.6" r="3.11176e-34" stroke-width="0.5" stroke="grey" fill="grey"/>
   </g>
   <g id="cell47" type="Blue Bacteria" dead="false" >
  <circle cx="274.966" cy="279.54" r="0.0127639" stroke-width="0.5" stroke="black" fill="grey"/>
  <circle cx="274.966" cy="279.54" r="3.11176e-34" stroke-width="0.5" stroke="grey" fill="grey"/>
   </g>
   <g id="cell48" type="Blue Bacteria" dead="false" >
  <circle cx="110.926" cy="199.083" r="0.0127639" stroke-width="0.5" stroke="black" fill="grey"/>
  <circle cx="110.926" cy="199.083" r="3.11176e-34" stroke-width="0.5" stroke="grey" fill="grey"/>
   </g>
   <g id="cell49" type="Blue Bacteria" dead="false" >
  <circle cx="188.95" cy="166.709" r="0.0127639" stroke-width="0.5" stroke="black" fill="grey"/>
  <circle cx="188.95" cy="166.709" r="3.11176e-34" stroke-width="0.5" stroke="grey" fill="grey"/>
   </g>
   <g id="cell188" type="Red Bacteria" dead="false" >
  <circle cx="255.879" cy="199.907" r="0.8947" stroke-width="0.5" stroke="black" fill="red"/>
  <circle cx="255.879" cy="199.907" r="0.62035" stroke-width="0.5" stroke="red" fill="red"/>
   </g>
   <g id="cell51" type="Blue Bacteria" dead="false" >
  <circle cx="-0.0790557" cy="177.301" r="0.533455" stroke-width="0.5" stroke="black" fill="grey"/>
  <circle cx="-0.0790557" cy="177.301" r="3.09121e-34" stroke-width="0.5" stroke="grey" fill="grey"/>
   </g>
   <g id="cell52" type="Blue Bacteria" dead="false" >
  <circle cx="400.024" cy="61.4948" r="0.675785" stroke-width="0.5" stroke="black" fill="grey"/>
  <circle cx="400.024" cy="61.4948" r="3.01906e-34" stroke-width="0.5" stroke="grey" fill="grey"/>
   </g>
   <g id="cell53" type="Blue Bacteria" dead="false" >
  <circle cx="113.991" cy="209.421" r="0.0127639" stroke-width="0.5" stroke="black" fill="grey"/>
  <circle cx="113.991" cy="209.421" r="3.11176e-34" stroke-width="0.5" stroke="grey" fill="grey"/>
   </g>
   <g id="cell54" type="Blue Bacteria" dead="false" >
  <circle cx="17.8335" cy="239.435" r="0.0127639" stroke-width="0.5" stroke="black" fill="grey"/>
  <circle cx="17.8335" cy="239.435" r="3.11176e-34" stroke-width="0.5" stroke="grey" fill="grey"/>
   </g>
   <g id="cell55" type="Blue Bacteria" dead="false" >
  <circle cx="335.628" cy="187.075" r="0.0127639" stroke-width="0.5" stroke="black" fill="grey"/>
  <circle cx="335.628" cy="187.075" r="3.11176e-34" stroke-width="0.5" stroke="grey" fill="grey"/>
   </g>
   <g id="cell56" type="Blue Bacteria" dead="false" >
  <circle cx="99.54" cy="136.766" r="0.0127639" stroke-width="0.5" stroke="black" fill="grey"/>
  <circle cx="99.54" cy="136.766" r="3.11176e-34" stroke-width="0.5" stroke="grey" fill="grey"/>
   </g>
   <g id="cell57" type="Blue Bacteria" dead="false" >
  <circle cx="28.3212" cy="149.322" r="0.0127639" stroke-width="0.5" stroke="black" fill="grey"/>
  <circle cx="28.3212" cy="149.322" r="3.11176e-34" stroke-width="0.5" stroke="grey" fill="grey"/>
   </g>
   <g id="cell58" type="Blue Bacteria" dead="false" >
  <circle cx="320.623" cy="195.658" r="0.0127639" stroke-width="0.5" stroke="black" fill="grey"/>
  <circle cx="320.623" cy="195.658" r="3.11176e-34" stroke-width="0.5" stroke="grey" fill="grey"/>
   </g>
   <g id="cell59" type="Blue Bacteria" dead="false" >
  <circle cx="330.188" cy="373.904" r="0.0127639" stroke-width="0.5" stroke="black" fill="grey"/>
  <circle cx="330.188" cy="373.904" r="3.11176e-34" stroke-width="0.5" stroke="grey" fill="grey"/>
   </g>
   <g id="cell60" type="Blue Bacteria" dead="false" >
  <circle cx="308.574" cy="400.002" r="0.322454" stroke-width="0.5" stroke="black" fill="grey"/>
  <circle cx="308.574" cy="400.002" r="3.11056e-34" stroke-width="0.5" stroke="grey" fill="grey"/>
   </g>
   <g id="cell61" type="Blue Bacteria" dead="false" >
  <circle cx="165.018" cy="400.002" r="0.22807" stroke-width="0.5" stroke="black" fill="grey"/>
  <circle cx="165.018" cy="400.002" r="3.11158e-34" stroke-width="0.5" stroke="grey" fill="grey"/>
   </g>
   <g id="cell62" type="Blue Bacteria" dead="false" >
  <circle cx="290.721" cy="300.249" r="0.0127639" stroke-width="0.5" stroke="black" fill="grey"/>
  <circle cx="290.721" cy="300.249" r="3.11176e-34" stroke-width="0.5" stroke="grey" fill="grey"/>
   </g>
   <g id="cell63" type="Blue Bacteria" dead="false" >
  <circle cx="350.845" cy="291.59" r="0.0127639" stroke-width="0.5" stroke="black" fill="grey"/>
  <circle cx="350.845" cy="291.59" r="3.11176e-34" stroke-width="0.5" stroke="grey" fill="grey"/>
   </g>
   <g id="cell64" type="Blue Bacteria" dead="false" >
  <circle cx="287.377" cy="121.044" r="0.0127639" stroke-width="0.5" stroke="black" fill="grey"/>
  <circle cx="287.377" cy="121.044" r="3.11176e-34" stroke-width="0.5" stroke="grey" fill="grey"/>
   </g>
   <g id="cell65" type="Blue Bacteria" dead="false" >
  <circle cx="313.966" cy="308.269" r="0.0127639" stroke-width="0.5" stroke="black" fill="grey"/>
  <circle cx="313.966" cy="308.269" r="3.11176e-34" stroke-width="0.5" stroke="grey" fill="grey"/>
   </g>
   <g id="cell66" type="Blue Bacteria" dead="false" >
  <circle cx="293.678" cy="296.974" r="0.0127639" stroke-width="0.5" stroke="black" fill="grey"/>
  <circle cx="293.678" cy="296.974" r="3.11176e-34" stroke-width="0.5" stroke="grey" fill="grey"/>
   </g>
   <g id="cell67" type="Blue Bacteria" dead="false" >
  <circle cx="275.085" cy="119.485" r="0.0127639" stroke-width="0.5" stroke="black" fill="grey"/>
  <circle cx="275.085" cy="119.485" r="3.11176e-34" stroke-width="0.5" stroke="grey" fill="grey"/>
   </g>
   <g id="cell68" type="Blue Bacteria" dead="false" >
  <circle cx="300.745" cy="311.465" r="0.0127639" stroke-width="0.5" stroke="black" fill="grey"/>
  <circle cx="300.745" cy="311.465" r="3.11176e-34" stroke-width="0.5" stroke="grey" fill="grey"/>
   </g>
   <g id="cell69" type="Blue Bacteria" dead="false" >
  <circle cx="301.919" cy="178.433" r="0.0127639" stroke-width="0.5" stroke="black" fill="grey"/>
  <circle cx="301.919" cy="178.433" r="3.11176e-34" stroke-width="0.5" stroke="grey" fill="grey"/>
   </g>
   <g id="cell70" type="Blue Bacteria" dead="false" >
  <circle cx="358.411" cy="30.392" r="0.0127639" stroke-width="0.5" stroke="black" fill="grey"/>
  <circle cx="358.411" cy="30.392" r="3.11176e-34" stroke-width="0.5" stroke="grey" fill="grey"/>
   </g>
   <g id="cell71" type="Blue Bacteria" dead="false" >
  <circle cx="84.7452" cy="310.612" r="0.0127639" stroke-width="0.5" stroke="black" fill="grey"/>
  <circle cx="84.7452" cy="310.612" r="3.11176e-34" stroke-width="0.5" stroke="grey" fill="grey"/>
   </g>
   <g id="cell72" type="Blue Bacteria" dead="false" >
  <circle cx="380.222" cy="400.005" r="0.591138" stroke-width="0.5" stroke="black" fill="grey"/>
  <circle cx="380.222" cy="400.005" r="3.07365e-34" stroke-width="0.5" stroke="grey" fill="grey"/>
   </g>
   <g id="cell73" type="Blue Bacteria" dead="false" >
  <circle cx="172.033" cy="275.17" r="0.0127639" stroke-width="0.5" stroke="black" fill="grey"/>
  <circle cx="172.033" cy="275.17" r="3.11176e-34" stroke-width="0.5" stroke="grey" fill="grey"/>
   </g>
   <g id="cell74" type="Blue Bacteria" dead="false" >
  <circle cx="-0.00554925" cy="3.07738" r="0.561854" stroke-width="0.5" stroke="black" fill="grey"/>
  <circle cx="-0.00554925" cy="3.07738" r="3.0838e-34" stroke-width="0.5" stroke="grey" fill="grey"/>
   </g>
   <g id="cell75" type="Blue Bacteria" dead="false" >
  <circle cx="291.351" cy="268.5" r="0.0127639" stroke-width="0.5" stroke="black" fill="grey"/>
  <circle cx="291.351" cy="268.5" r="3.11176e-34" stroke-width="0.5" stroke="grey" fill="grey"/>
   </g>
   <g id="cell76" type="Blue Bacteria" dead="false" >
  <circle cx="320.425" cy="358.955" r="0.0127639" stroke-width="0.5" stroke="black" fill="grey"/>
  <circle cx="320.425" cy="358.955" r="3.11176e-34" stroke-width="0.5" stroke="grey" fill="grey"/>
   </g>
   <g id="cell77" type="Blue Bacteria" dead="false" >
  <circle cx="303.458" cy="400.013" r="0.0146359" stroke-width="0.5" stroke="black" fill="grey"/>
  <circle cx="303.458" cy="400.013" r="3.11176e-34" stroke-width="0.5" stroke="grey" fill="grey"/>
   </g>
   <g id="cell78" type="Blue Bacteria" dead="false" >
  <circle cx="270.648" cy="400.005" r="0.221914" stroke-width="0.5" stroke="black" fill="grey"/>
  <circle cx="270.648" cy="400.005" r="3.11161e-34" stroke-width="0.5" stroke="grey" fill="grey"/>
   </g>
   <g id="cell79" type="Blue Bacteria" dead="false" >
  <circle cx="285.052" cy="68.6107" r="0.0127639" stroke-width="0.5" stroke="black" fill="grey"/>
  <circle cx="285.052" cy="68.6107" r="3.11176e-34" stroke-width="0.5" stroke="grey" fill="grey"/>
   </g>
   <g id="cell80" type="Blue Bacteria" dead="false" >
  <circle cx="379.278" cy="122.545" r="0.0127639" stroke-width="0.5" stroke="black" fill="grey"/>
  <circle cx="379.278" cy="122.545" r="3.11176e-34" stroke-width="0.5" stroke="grey" fill="grey"/>
   </g>
   <g id="cell198" type="Red Bacteria" dead="false" >
  <circle cx="118.849" cy="131.122" r="0.8947" stroke-width="0.5" stroke="black" fill="red"/>
  <circle cx="118.849" cy="131.122" r="0.62035" stroke-width="0.5" stroke="red" fill="red"/>
   </g>
   <g id="cell82" type="Blue Bacteria" dead="false" >
  <circle cx="293.635" cy="107.103" r="0.0127639" stroke-width="0.5" stroke="black" fill="grey"/>
  <circle cx="293.635" cy="107.103" r="3.11176e-34" stroke-width="0.5" stroke="grey" fill="grey"/>
   </g>
   <g id="cell83" type="Blue Bacteria" dead="false" >
  <circle cx="287.792" cy="400.001" r="0.02823" stroke-width="0.5" stroke="black" fill="grey"/>
  <circle cx="287.792" cy="400.001" r="3.11176e-34" stroke-width="0.5" stroke="grey" fill="grey"/>
   </g>
   <g id="cell84" type="Blue Bacteria" dead="false" >
  <circle cx="214.276" cy="400.038" r="0.164228" stroke-width="0.5" stroke="black" fill="grey"/>
  <circle cx="214.276" cy="400.038" r="3.11173e-34" stroke-width="0.5" stroke="grey" fill="grey"/>
   </g>
   <g id="cell85" type="Blue Bacteria" dead="false" >
  <circle cx="113.529" cy="73.5011" r="0.0127639" stroke-width="0.5" stroke="black" fill="grey"/>
  <circle cx="113.529" cy="73.5011" r="3.11176e-34" stroke-width="0.5" stroke="grey" fill="grey"/>
   </g>
   <g id="cell189" type="Red Bacteria" dead="false" >
  <circle cx="-0.0446946" cy="59.9989" r="0.8947" stroke-width="0.5" stroke="black" fill="red"/>
  <circle cx="-0.0446946" cy="59.9989" r="0.62035" stroke-width="0.5" stroke="red" fill="red"/>
   </g>
   <g id="cell87" type="Blue Bacteria" dead="false" >
  <circle cx="400.008" cy="251.694" r="0.74295" stroke-width="0.5" stroke="black" fill="grey"/>
  <circle cx="400.008" cy="251.694" r="2.90374e-34" stroke-width="0.5" stroke="grey" fill="grey"/>
   </g>
   <g id="cell88" type="Blue Bacteria" dead="false" >
  <circle cx="275.37" cy="288.354" r="0.0127639" stroke-width="0.5" stroke="black" fill="grey"/>
  <circle cx="275.37" cy="288.354" r="3.11176e-34" stroke-width="0.5" stroke="grey" fill="grey"/>
   </g>
   <g id="cell89" type="Blue Bacteria" dead="false" >
  <circle cx="168.197" cy="216.788" r="0.0127639" stroke-width="0.5" stroke="black" fill="grey"/>
  <circle cx="168.197" cy="216.788" r="3.11176e-34" stroke-width="0.5" stroke="grey" fill="grey"/>
   </g>
   <g id="cell90" type="Blue Bacteria" dead="true" >
  <circle cx="370.851" cy="43.3307" r="0.0009915" stroke-width="0.5" stroke="black" fill="grey"/>
  <circle cx="370.851" cy="43.3307" r="7.35602e-35" stroke-width="0.5" stroke="black" fill="black"/>
   </g>
   <g id="cell91" type="Blue Bacteria" dead="false" >
  <circle cx="269.712" cy="-0.0961623" r="0.626048" stroke-width="0.5" stroke="black" fill="grey"/>
  <circle cx="269.712" cy="-0.0961623" r="3.05694e-34" stroke-width="0.5" stroke="grey" fill="grey"/>
   </g>
   <g id="cell92" type="Blue Bacteria" dead="false" >
  <circle cx="37.194" cy="123.406" r="0.0127639" stroke-width="0.5" stroke="black" fill="grey"/>
  <circle cx="37.194" cy="123.406" r="3.11176e-34" stroke-width="0.5" stroke="grey" fill="grey"/>
   </g>
   <g id="cell93" type="Blue Bacteria" dead="false" >
  <circle cx="124.554" cy="219.544" r="0.0127639" stroke-width="0.5" stroke="black" fill="grey"/>
  <circle cx="124.554" cy="219.544" r="3.11176e-34" stroke-width="0.5" stroke="grey" fill="grey"/>
   </g>
   <g id="cell94" type="Blue Bacteria" dead="false" >
  <circle cx="400.034" cy="293.845" r="0.454837" stroke-width="0.5" stroke="black" fill="grey"/>
  <circle cx="400.034" cy="293.845" r="3.10355e-34" stroke-width="0.5" stroke="grey" fill="grey"/>
   </g>
   <g id="cell95" type="Blue Bacteria" dead="false" >
  <circle cx="356.08" cy="210.879" r="0.0127639" stroke-width="0.5" stroke="black" fill="grey"/>
  <circle cx="356.08" cy="210.879" r="3.11176e-34" stroke-width="0.5" stroke="grey" fill="grey"/>
   </g>
   <g id="cell96" type="Blue Bacteria" dead="false" >
  <circle cx="364.287" cy="400.053" r="0.0312103" stroke-width="0.5" stroke="black" fill="grey"/>
  <circle cx="364.287" cy="400.053" r="3.11176e-34" stroke-width="0.5" stroke="grey" fill="grey"/>
   </g>
   <g id="cell97" type="Blue Bacteria" dead="false" >
  <circle cx="332.231" cy="151.802" r="0.0127639" stroke-width="0.5" stroke="black" fill="grey"/>
  <circle cx="332.231" cy="151.802" r="3.11176e-34" stroke-width="0.5" stroke="grey" fill="grey"/>
   </g>
   <g id="cell98" type="Blue Bacteria" dead="false" >
  <circle cx="356.211" cy="400.103" r="0.103126" stroke-width="0.5" stroke="black" fill="grey"/>
  <circle cx="356.211" cy="400.103" r="3.11176e-34" stroke-width="0.5" stroke="grey" fill="grey"/>
   </g>
   <g id="cell99" type="Blue Bacteria" dead="false" >
  <circle cx="400.033" cy="95.4626" r="0.561854" stroke-width="0.5" stroke="black" fill="grey"/>
  <circle cx="400.033" cy="95.4626" r="3.0838e-34" stroke-width="0.5" stroke="grey" fill="grey"/>
   </g>
   <g id="cell100" type="Red Bacteria" dead="false" >
  <circle cx="338.285" cy="209.971" r="0.8947" stroke-width="0.5" stroke="black" fill="red"/>
  <circle cx="338.285" cy="209.971" r="0.62035" stroke-width="0.5" stroke="red" fill="red"/>
   </g>
   <g id="cell101" type="Red Bacteria" dead="false" >
  <circle cx="117.066" cy="138.277" r="0.8947" stroke-width="0.5" stroke="black" fill="red"/>
  <circle cx="117.066" cy="138.277" r="0.62035" stroke-width="0.5" stroke="red" fill="red"/>
   </g>
   <g id="cell102" type="Red Bacteria" dead="false" >
  <circle cx="246.623" cy="197.731" r="0.8947" stroke-width="0.5" stroke="black" fill="red"/>
  <circle cx="246.623" cy="197.731" r="0.62035" stroke-width="0.5" stroke="red" fill="red"/>
   </g>
   <g id="cell103" type="Red Bacteria" dead="false" >
  <circle cx="381.508" cy="400.032" r="0.8947" stroke-width="0.5" stroke="black" fill="red"/>
  <circle cx="381.508" cy="400.032" r="0.62035" stroke-width="0.5" stroke="red" fill="red"/>
   </g>
   <g id="cell104" type="Red Bacteria" dead="false" >
  <circle cx="400.004" cy="388.527" r="0.8947" stroke-width="0.5" stroke="black" fill="red"/>
  <circle cx="400.004" cy="388.527" r="0.62035" stroke-width="0.5" stroke="red" fill="red"/>
   </g>
   <g id="cell105" type="Red Bacteria" dead="false" >
  <circle cx="-0.057472" cy="386.491" r="0.8947" stroke-width="0.5" stroke="black" fill="red"/>
  <circle cx="-0.057472" cy="386.491" r="0.62035" stroke-width="0.5" stroke="red" fill="red"/>
   </g>
   <g id="cell106" type="Red Bacteria" dead="false" >
  <circle cx="119.304" cy="135.743" r="0.8947" stroke-width="0.5" stroke="black" fill="red"/>
  <circle cx="119.304" cy="135.743" r="0.62035" stroke-width="0.5" stroke="red" fill="red"/>
   </g>
   <g id="cell107" type="Red Bacteria" dead="false" >
  <circle cx="390.185" cy="400.023" r="0.8947" stroke-width="0.5" stroke="black" fill="red"/>
  <circle cx="390.185" cy="400.023" r="0.62035" stroke-width="0.5" stroke="red" fill="red"/>
   </g>
   <g id="cell108" type="Red Bacteria" dead="false" >
  <circle cx="160.705" cy="400.062" r="0.8947" stroke-width="0.5" stroke="black" fill="red"/>
  <circle cx="160.705" cy="400.062" r="0.62035" stroke-width="0.5" stroke="red" fill="red"/>
   </g>
   <g id="cell109" type="Red Bacteria" dead="false" >
  <circle cx="363.049" cy="239.701" r="0.8947" stroke-width="0.5" stroke="black" fill="red"/>
  <circle cx="363.049" cy="239.701" r="0.62035" stroke-width="0.5" stroke="red" fill="red"/>
   </g>
   <g id="cell110" type="Red Bacteria" dead="false" >
  <circle cx="400.052" cy="392.99" r="0.8947" stroke-width="0.5" stroke="black" fill="red"/>
  <circle cx="400.052" cy="392.99" r="0.62035" stroke-width="0.5" stroke="red" fill="red"/>
   </g>
   <g id="cell111" type="Red Bacteria" dead="false" >
  <circle cx="119.967" cy="131.664" r="0.8947" stroke-width="0.5" stroke="black" fill="red"/>
  <circle cx="119.967" cy="131.664" r="0.62035" stroke-width="0.5" stroke="red" fill="red"/>
   </g>
   <g id="cell112" type="Red Bacteria" dead="false" >
  <circle cx="261.298" cy="180.121" r="0.8947" stroke-width="0.5" stroke="black" fill="red"/>
  <circle cx="261.298" cy="180.121" r="0.62035" stroke-width="0.5" stroke="red" fill="red"/>
   </g>
   <g id="cell113" type="Red Bacteria" dead="false" >
  <circle cx="157.875" cy="400.036" r="0.8947" stroke-width="0.5" stroke="black" fill="red"/>
  <circle cx="157.875" cy="400.036" r="0.62035" stroke-width="0.5" stroke="red" fill="red"/>
   </g>
   <g id="cell114" type="Red Bacteria" dead="false" >
  <circle cx="-0.0170762" cy="31.3223" r="0.8947" stroke-width="0.5" stroke="black" fill="red"/>
  <circle cx="-0.0170762" cy="31.3223" r="0.62035" stroke-width="0.5" stroke="red" fill="red"/>
   </g>
   <g id="cell115" type="Red Bacteria" dead="false" >
  <circle cx="117.481" cy="-0.0584107" r="0.8947" stroke-width="0.5" stroke="black" fill="red"/>
  <circle cx="117.481" cy="-0.0584107" r="0.62035" stroke-width="0.5" stroke="red" fill="red"/>
   </g>
   <g id="cell116" type="Red Bacteria" dead="false" >
  <circle cx="15.9457" cy="400.02" r="0.8947" stroke-width="0.5" stroke="black" fill="red"/>
  <circle cx="15.9457" cy="400.02" r="0.62035" stroke-width="0.5" stroke="red" fill="red"/>
   </g>
   <g id="cell117" type="Red Bacteria" dead="false" >
  <circle cx="121.157" cy="129.644" r="0.8947" stroke-width="0.5" stroke="black" fill="red"/>
  <circle cx="121.157" cy="129.644" r="0.62035" stroke-width="0.5" stroke="red" fill="red"/>
   </g>
   <g id="cell118" type="Red Bacteria" dead="false" >
  <circle cx="257.706" cy="189.974" r="0.8947" stroke-width="0.5" stroke="black" fill="red"/>
  <circle cx="257.706" cy="189.974" r="0.62035" stroke-width="0.5" stroke="red" fill="red"/>
   </g>
   <g id="cell119" type="Red Bacteria" dead="false" >
  <circle cx="361.494" cy="238.913" r="0.8947" stroke-width="0.5" stroke="black" fill="red"/>
  <circle cx="361.494" cy="238.913" r="0.62035" stroke-width="0.5" stroke="red" fill="red"/>
   </g>
   <g id="cell120" type="Red Bacteria" dead="false" >
  <circle cx="119.895" cy="129.968" r="0.8947" stroke-width="0.5" stroke="black" fill="red"/>
  <circle cx="119.895" cy="129.968" r="0.62035" stroke-width="0.5" stroke="red" fill="red"/>
   </g>
   <g id="cell121" type="Red Bacteria" dead="false" >
  <circle cx="119.329" cy="137.355" r="0.8947" stroke-width="0.5" stroke="black" fill="red"/>
  <circle cx="119.329" cy="137.355" r="0.62035" stroke-width="0.5" stroke="red" fill="red"/>
   </g>
   <g id="cell122" type="Red Bacteria" dead="false" >
  <circle cx="160.428" cy="393.68" r="0.8947" stroke-width="0.5" stroke="black" fill="red"/>
  <circle cx="160.428" cy="393.68" r="0.62035" stroke-width="0.5" stroke="red" fill="red"/>
   </g>
   <g id="cell123" type="Red Bacteria" dead="false" >
  <circle cx="394.314" cy="400.098" r="0.8947" stroke-width="0.5" stroke="black" fill="red"/>
  <circle cx="394.314" cy="400.098" r="0.62035" stroke-width="0.5" stroke="red" fill="red"/>
   </g>
   <g id="cell124" type="Red Bacteria" dead="false" >
  <circle cx="259.438" cy="187.801" r="0.8947" stroke-width="0.5" stroke="black" fill="red"/>
  <circle cx="259.438" cy="187.801" r="0.62035" stroke-width="0.5" stroke="red" fill="red"/>
   </g>
   <g id="cell125" type="Red Bacteria" dead="false" >
  <circle cx="119.696" cy="128.727" r="0.8947" stroke-width="0.5" stroke="black" fill="red"/>
  <circle cx="119.696" cy="128.727" r="0.62035" stroke-width="0.5" stroke="red" fill="red"/>
   </g>
   <g id="cell126" type="Red Bacteria" dead="false" >
  <circle cx="361.374" cy="400.05" r="0.8947" stroke-width="0.5" stroke="black" fill="red"/>
  <circle cx="361.374" cy="400.05" r="0.62035" stroke-width="0.5" stroke="red" fill="red"/>
   </g>
   <g id="cell127" type="Red Bacteria" dead="false" >
  <circle cx="9.62878" cy="400.04" r="0.8947" stroke-width="0.5" stroke="black" fill="red"/>
  <circle cx="9.62878" cy="400.04" r="0.62035" stroke-width="0.5" stroke="red" fill="red"/>
   </g>
   <g id="cell128" type="Red Bacteria" dead="false" >
  <circle cx="319.782" cy="-0.0109649" r="0.8947" stroke-width="0.5" stroke="black" fill="red"/>
  <circle cx="319.782" cy="-0.0109649" r="0.62035" stroke-width="0.5" stroke="red" fill="red"/>
   </g>
   <g id="cell129" type="Red Bacteria" dead="false" >
  <circle cx="340.39" cy="202.165" r="0.8947" stroke-width="0.5" stroke="black" fill="red"/>
  <circle cx="340.39" cy="202.165" r="0.62035" stroke-width="0.5" stroke="red" fill="red"/>
   </g>
   <g id="cell130" type="Red Bacteria" dead="false" >
  <circle cx="121.712" cy="-0.0296209" r="0.8947" stroke-width="0.5" stroke="black" fill="red"/>
  <circle cx="121.712" cy="-0.0296209" r="0.62035" stroke-width="0.5" stroke="red" fill="red"/>
   </g>
   <g id="cell131" type="Red Bacteria" dead="false" >
  <circle cx="400.029" cy="200.223" r="0.8947" stroke-width="0.5" stroke="black" fill="red"/>
  <circle cx="400.029" cy="200.223" r="0.62035" stroke-width="0.5" stroke="red" fill="red"/>
   </g>
   <g id="cell132" type="Red Bacteria" dead="false" >
  <circle cx="-0.0032313" cy="380.059" r="0.8947" stroke-width="0.5" stroke="black" fill="red"/>
  <circle cx="-0.0032313" cy="380.059" r="0.62035" stroke-width="0.5" stroke="red" fill="red"/>
   </g>
   <g id="cell133" type="Red Bacteria" dead="false" >
  <circle cx="361.491" cy="237.255" r="0.8947" stroke-width="0.5" stroke="black" fill="red"/>
  <circle cx="361.491" cy="237.255" r="0.62035" stroke-width="0.5" stroke="red" fill="red"/>
   </g>
   <g id="cell134" type="Red Bacteria" dead="false" >
  <circle cx="120.271" cy="122.945" r="0.8947" stroke-width="0.5" stroke="black" fill="red"/>
  <circle cx="120.271" cy="122.945" r="0.62035" stroke-width="0.5" stroke="red" fill="red"/>
   </g>
   <g id="cell135" type="Red Bacteria" dead="false" >
  <circle cx="400.084" cy="385.317" r="0.8947" stroke-width="0.5" stroke="black" fill="red"/>
  <circle cx="400.084" cy="385.317" r="0.62035" stroke-width="0.5" stroke="red" fill="red"/>
   </g>
   <g id="cell136" type="Red Bacteria" dead="false" >
  <circle cx="163.634" cy="400.03" r="0.8947" stroke-width="0.5" stroke="black" fill="red"/>
  <circle cx="163.634" cy="400.03" r="0.62035" stroke-width="0.5" stroke="red" fill="red"/>
   </g>
   <g id="cell137" type="Red Bacteria" dead="false" >
  <circle cx="122.45" cy="125.599" r="0.8947" stroke-width="0.5" stroke="black" fill="red"/>
  <circle cx="122.45" cy="125.599" r="0.62035" stroke-width="0.5" stroke="red" fill="red"/>
   </g>
   <g id="cell138" type="Red Bacteria" dead="false" >
  <circle cx="387.306" cy="-0.0726748" r="0.8947" stroke-width="0.5" stroke="black" fill="red"/>
  <circle cx="387.306" cy="-0.0726748" r="0.62035" stroke-width="0.5" stroke="red" fill="red"/>
   </g>
   <g id="cell139" type="Red Bacteria" dead="false" >
  <circle cx="395.779" cy="400.011" r="0.8947" stroke-width="0.5" stroke="black" fill="red"/>
  <circle cx="395.779" cy="400.011" r="0.62035" stroke-width="0.5" stroke="red" fill="red"/>
   </g>
   <g id="cell140" type="Red Bacteria" dead="false" >
  <circle cx="119.492" cy="20.2093" r="0.8947" stroke-width="0.5" stroke="black" fill="red"/>
  <circle cx="119.492" cy="20.2093" r="0.62035" stroke-width="0.5" stroke="red" fill="red"/>
   </g>
   <g id="cell141" type="Red Bacteria" dead="false" >
  <circle cx="162.152" cy="400.082" r="0.8947" stroke-width="0.5" stroke="black" fill="red"/>
  <circle cx="162.152" cy="400.082" r="0.62035" stroke-width="0.5" stroke="red" fill="red"/>
   </g>
   <g id="cell142" type="Red Bacteria" dead="false" >
  <circle cx="121.204" cy="131.763" r="0.8947" stroke-width="0.5" stroke="black" fill="red"/>
  <circle cx="121.204" cy="131.763" r="0.62035" stroke-width="0.5" stroke="red" fill="red"/>
   </g>
   <g id="cell143" type="Red Bacteria" dead="false" >
  <circle cx="156.534" cy="400.053" r="0.8947" stroke-width="0.5" stroke="black" fill="red"/>
  <circle cx="156.534" cy="400.053" r="0.62035" stroke-width="0.5" stroke="red" fill="red"/>
   </g>
   <g id="cell144" type="Red Bacteria" dead="false" >
  <circle cx="318.658" cy="-0.0422299" r="0.8947" stroke-width="0.5" stroke="black" fill="red"/>
  <circle cx="318.658" cy="-0.0422299" r="0.62035" stroke-width="0.5" stroke="red" fill="red"/>
   </g>
   <g id="cell199" type="Red Bacteria" dead="false" >
  <circle cx="120.181" cy="127.492" r="0.8947" stroke-width="0.5" stroke="black" fill="red"/>
  <circle cx="120.181" cy="127.492" r="0.62035" stroke-width="0.5" stroke="red" fill="red"/>
   </g>
   <g id="cell146" type="Red Bacteria" dead="false" >
  <circle cx="123.266" cy="-0.0145849" r="0.8947" stroke-width="0.5" stroke="black" fill="red"/>
  <circle cx="123.266" cy="-0.0145849" r="0.62035" stroke-width="0.5" stroke="red" fill="red"/>
   </g>
   <g id="cell147" type="Red Bacteria" dead="false" >
  <circle cx="277.562" cy="348.872" r="0.8947" stroke-width="0.5" stroke="black" fill="red"/>
  <circle cx="277.562" cy="348.872" r="0.62035" stroke-width="0.5" stroke="red" fill="red"/>
   </g>
   <g id="cell148" type="Red Bacteria" dead="false" >
  <circle cx="-0.0983096" cy="391.835" r="0.8947" stroke-width="0.5" stroke="black" fill="red"/>
  <circle cx="-0.0983096" cy="391.835" r="0.62035" stroke-width="0.5" stroke="red" fill="red"/>
   </g>
   <g id="cell149" type="Red Bacteria" dead="false" >
  <circle cx="114.804" cy="-0.053258" r="0.8947" stroke-width="0.5" stroke="black" fill="red"/>
  <circle cx="114.804" cy="-0.053258" r="0.62035" stroke-width="0.5" stroke="red" fill="red"/>
   </g>
   <g id="cell150" type="Red Bacteria" dead="false" >
  <circle cx="119.793" cy="126.125" r="0.8947" stroke-width="0.5" stroke="black" fill="red"/>
  <circle cx="119.793" cy="126.125" r="0.62035" stroke-width="0.5" stroke="red" fill="red"/>
   </g>
   <g id="cell191" type="Red Bacteria" dead="false" >
  <circle cx="120.245" cy="8.8742" r="0.8947" stroke-width="0.5" stroke="black" fill="red"/>
  <circle cx="120.245" cy="8.8742" r="0.62035" stroke-width="0.5" stroke="red" fill="red"/>
   </g>
   <g id="cell152" type="Red Bacteria" dead="false" >
  <circle cx="7.82376" cy="400.047" r="0.8947" stroke-width="0.5" stroke="black" fill="red"/>
  <circle cx="7.82376" cy="400.047" r="0.62035" stroke-width="0.5" stroke="red" fill="red"/>
   </g>
   <g id="cell153" type="Red Bacteria" dead="false" >
  <circle cx="159.374" cy="400.063" r="0.8947" stroke-width="0.5" stroke="black" fill="red"/>
  <circle cx="159.374" cy="400.063" r="0.62035" stroke-width="0.5" stroke="red" fill="red"/>
   </g>
   <g id="cell196" type="Red Bacteria" dead="false" >
  <circle cx="-0.066081" cy="389.059" r="0.8947" stroke-width="0.5" stroke="black" fill="red"/>
  <circle cx="-0.066081" cy="389.059" r="0.62035" stroke-width="0.5" stroke="red" fill="red"/>
   </g>
   <g id="cell155" type="Red Bacteria" dead="false" >
  <circle cx="18.7074" cy="400.004" r="0.8947" stroke-width="0.5" stroke="black" fill="red"/>
  <circle cx="18.7074" cy="400.004" r="0.62035" stroke-width="0.5" stroke="red" fill="red"/>
   </g>
   <g id="cell156" type="Red Bacteria" dead="false" >
  <circle cx="119.967" cy="134.844" r="0.8947" stroke-width="0.5" stroke="black" fill="red"/>
  <circle cx="119.967" cy="134.844" r="0.62035" stroke-width="0.5" stroke="red" fill="red"/>
   </g>
   <g id="cell157" type="Red Bacteria" dead="false" >
  <circle cx="322.705" cy="-0.0515298" r="0.8947" stroke-width="0.5" stroke="black" fill="red"/>
  <circle cx="322.705" cy="-0.0515298" r="0.62035" stroke-width="0.5" stroke="red" fill="red"/>
   </g>
   <g id="cell158" type="Red Bacteria" dead="false" >
  <circle cx="320.618" cy="11.65" r="0.8947" stroke-width="0.5" stroke="black" fill="red"/>
  <circle cx="320.618" cy="11.65" r="0.62035" stroke-width="0.5" stroke="red" fill="red"/>
   </g>
   <g id="cell159" type="Red Bacteria" dead="false" >
  <circle cx="400.009" cy="396.458" r="0.8947" stroke-width="0.5" stroke="black" fill="red"/>
  <circle cx="400.009" cy="396.458" r="0.62035" stroke-width="0.5" stroke="red" fill="red"/>
   </g>
   <g id="cell160" type="Red Bacteria" dead="false" >
  <circle cx="120.72" cy="132.998" r="0.8947" stroke-width="0.5" stroke="black" fill="red"/>
  <circle cx="120.72" cy="132.998" r="0.62035" stroke-width="0.5" stroke="red" fill="red"/>
   </g>
   <g id="cell161" type="Red Bacteria" dead="false" >
  <circle cx="320.154" cy="20.4575" r="0.8947" stroke-width="0.5" stroke="black" fill="red"/>
  <circle cx="320.154" cy="20.4575" r="0.62035" stroke-width="0.5" stroke="red" fill="red"/>
   </g>
   <g id="cell162" type="Red Bacteria" dead="false" >
  <circle cx="116.201" cy="-0.0476963" r="0.8947" stroke-width="0.5" stroke="black" fill="red"/>
  <circle cx="116.201" cy="-0.0476963" r="0.62035" stroke-width="0.5" stroke="red" fill="red"/>
   </g>
   <g id="cell163" type="Red Bacteria" dead="false" >
  <circle cx="118.766" cy="134.508" r="0.8947" stroke-width="0.5" stroke="black" fill="red"/>
  <circle cx="118.766" cy="134.508" r="0.62035" stroke-width="0.5" stroke="red" fill="red"/>
   </g>
   <g id="cell164" type="Red Bacteria" dead="false" >
  <circle cx="400.018" cy="383.818" r="0.8947" stroke-width="0.5" stroke="black" fill="red"/>
  <circle cx="400.018" cy="383.818" r="0.62035" stroke-width="0.5" stroke="red" fill="red"/>
   </g>
   <g id="cell165" type="Red Bacteria" dead="false" >
  <circle cx="118.217" cy="130.074" r="0.8947" stroke-width="0.5" stroke="black" fill="red"/>
  <circle cx="118.217" cy="130.074" r="0.62035" stroke-width="0.5" stroke="red" fill="red"/>
   </g>
   <g id="cell166" type="Red Bacteria" dead="false" >
  <circle cx="319.679" cy="12.4915" r="0.8947" stroke-width="0.5" stroke="black" fill="red"/>
  <circle cx="319.679" cy="12.4915" r="0.62035" stroke-width="0.5" stroke="red" fill="red"/>
   </g>
   <g id="cell167" type="Red Bacteria" dead="false" >
  <circle cx="120.662" cy="139.961" r="0.8947" stroke-width="0.5" stroke="black" fill="red"/>
  <circle cx="120.662" cy="139.961" r="0.62035" stroke-width="0.5" stroke="red" fill="red"/>
   </g>
   <g id="cell168" type="Red Bacteria" dead="false" >
  <circle cx="121.853" cy="10.4855" r="0.8947" stroke-width="0.5" stroke="black" fill="red"/>
  <circle cx="121.853" cy="10.4855" r="0.62035" stroke-width="0.5" stroke="red" fill="red"/>
   </g>
   <g id="cell169" type="Red Bacteria" dead="false" >
  <circle cx="120.245" cy="-0.028037" r="0.8947" stroke-width="0.5" stroke="black" fill="red"/>
  <circle cx="120.245" cy="-0.028037" r="0.62035" stroke-width="0.5" stroke="red" fill="red"/>
   </g>
   <g id="cell170" type="Red Bacteria" dead="false" >
  <circle cx="119.03" cy="141.071" r="0.8947" stroke-width="0.5" stroke="black" fill="red"/>
  <circle cx="119.03" cy="141.071" r="0.62035" stroke-width="0.5" stroke="red" fill="red"/>
   </g>
   <g id="cell171" type="Red Bacteria" dead="false" >
  <circle cx="121.444" cy="134.156" r="0.8947" stroke-width="0.5" stroke="black" fill="red"/>
  <circle cx="121.444" cy="134.156" r="0.62035" stroke-width="0.5" stroke="red" fill="red"/>
   </g>
   <g id="cell172" type="Red Bacteria" dead="false" >
  <circle cx="4.65962" cy="400.024" r="0.8947" stroke-width="0.5" stroke="black" fill="red"/>
  <circle cx="4.65962" cy="400.024" r="0.62035" stroke-width="0.5" stroke="red" fill="red"/>
   </g>
   <g id="cell173" type="Red Bacteria" dead="false" >
  <circle cx="392.372" cy="400.035" r="0.8947" stroke-width="0.5" stroke="black" fill="red"/>
  <circle cx="392.372" cy="400.035" r="0.62035" stroke-width="0.5" stroke="red" fill="red"/>
   </g>
   <g id="cell174" type="Red Bacteria" dead="false" >
  <circle cx="319.661" cy="15.2949" r="0.8947" stroke-width="0.5" stroke="black" fill="red"/>
  <circle cx="319.661" cy="15.2949" r="0.62035" stroke-width="0.5" stroke="red" fill="red"/>
   </g>
   <g id="cell175" type="Red Bacteria" dead="false" >
  <circle cx="317.16" cy="-0.0310332" r="0.8947" stroke-width="0.5" stroke="black" fill="red"/>
  <circle cx="317.16" cy="-0.0310332" r="0.62035" stroke-width="0.5" stroke="red" fill="red"/>
   </g>
   <g id="cell176" type="Red Bacteria" dead="false" >
  <circle cx="-0.0568013" cy="295.467" r="0.8947" stroke-width="0.5" stroke="black" fill="red"/>
  <circle cx="-0.0568013" cy="295.467" r="0.62035" stroke-width="0.5" stroke="red" fill="red"/>
   </g>
   <g id="cell177" type="Red Bacteria" dead="false" >
  <circle cx="118.764" cy="-0.0035018" r="0.8947" stroke-width="0.5" stroke="black" fill="red"/>
  <circle cx="118.764" cy="-0.0035018" r="0.62035" stroke-width="0.5" stroke="red" fill="red"/>
   </g>
   <g id="cell178" type="Red Bacteria" dead="false" >
  <circle cx="119.034" cy="139.801" r="0.8947" stroke-width="0.5" stroke="black" fill="red"/>
  <circle cx="119.034" cy="139.801" r="0.62035" stroke-width="0.5" stroke="red" fill="red"/>
   </g>
   <g id="cell179" type="Red Bacteria" dead="false" >
  <circle cx="121.201" cy="135.596" r="0.8947" stroke-width="0.5" stroke="black" fill="red"/>
  <circle cx="121.201" cy="135.596" r="0.62035" stroke-width="0.5" stroke="red" fill="red"/>
   </g>
   <g id="cell180" type="Red Bacteria" dead="true" >
  <circle cx="337.501" cy="214.248" r="0.21442" stroke-width="0.5" stroke="black" fill="red"/>
  <circle cx="337.501" cy="214.248" r="0.210745" stroke-width="0.5" stroke="black" fill="black"/>
   </g>
   <g id="cell186" type="Red Bacteria" dead="false" >
  <circle cx="321.01" cy="-0.0929578" r="0.8947" stroke-width="0.5" stroke="black" fill="red"/>
  <circle cx="321.01" cy="-0.0929578" r="0.62035" stroke-width="0.5" stroke="red" fill="red"/>
   </g>
   <g id="cell182" type="Red Bacteria" dead="false" >
  <circle cx="-0.00131308" cy="383.429" r="0.8947" stroke-width="0.5" stroke="black" fill="red"/>
  <circle cx="-0.00131308" cy="383.429" r="0.62035" stroke-width="0.5" stroke="red" fill="red"/>
   </g>
   <g id="cell183" type="Red Bacteria" dead="false" >
  <circle cx="364.98" cy="241.116" r="0.8947" stroke-width="0.5" stroke="black" fill="red"/>
  <circle cx="364.98" cy="241.116" r="0.62035" stroke-width="0.5" stroke="red" fill="red"/>
   </g>
   <g id="cell184" type="Red Bacteria" dead="false" >
  <circle cx="400.023" cy="7.65816" r="0.8947" stroke-width="0.5" stroke="black" fill="red"/>
  <circle cx="400.023" cy="7.65816" r="0.62035" stroke-width="0.5" stroke="red" fill="red"/>
   </g>
   <g id="cell185" type="Red Bacteria" dead="false" >
  <circle cx="17.3851" cy="400.084" r="0.8947" stroke-width="0.5" stroke="black" fill="red"/>
  <circle cx="17.3851" cy="400.084" r="0.62035" stroke-width="0.5" stroke="red" fill="red"/>
   </g>
  </g>
 </g>
  <rect x="190" y="414" width="200" height="4" stroke-width="0.8" stroke="rgb(255,255,255)" fill="rgb(0,0,0)"/>
  <text x="192.5" y="411.5"
   font-family="Arial" font-size="10" fill="black" >
   200 &#956;m
  </text>
  <text x="10" y="418"
   font-family="Arial" font-size="7.5" fill="black" >
   0 days, 0 hours, 0 minutes, and 4.0686 seconds
  </text>
  <rect x="0" y="28" width="400" height="400" stroke-width="0.8" stroke="rgb(0,0,0)" fill="none"/>
</svg>
