<?xml version="1.0" encoding="UTF-8" standalone="no"?>
<!-- Created with PhysiCell (http://PhysiCell.MathCancer.org/) -->
<svg 
 xmlns:dc="http://purl.org/dc/elements/1.1/" 
 xmlns:cc="http://creativecommons.org/ns#" 
 xmlns:rdf="http://www.w3.org/1999/02/22-rdf-syntax-ns#" 
 xmlns:svg="http://www.w3.org/2000/svg" 
 xmlns="http://www.w3.org/2000/svg" 
 version="1.1" 
 width="400" 
 height="428" 
 id="svg2">
  <rect x="0" y="0" width="400" height="428" stroke-width="0.8" stroke="white" fill="white"/>
  <text x="5" y="12"
   font-family="Arial" font-size="10" fill="black" >
   Current time: 3 days, 15 hours, and 0.00 minutes, z = 0.00 &#956;m
  </text>
  <text x="5" y="23"
   font-family="Arial" font-size="9.5" fill="black" >
   175 agents
  </text>
 <g id="tissue" 
    transform="translate(0,428) scale(1,-1)">
  <g id="ECM">
  </g>
  <g id="cells">
   <g id="cell0" type="Blue Bacteria" dead="false" >
  <circle cx="62.7437" cy="400.041" r="0.750869" stroke-width="0.5" stroke="black" fill="grey"/>
  <circle cx="62.7437" cy="400.041" r="2.88283e-34" stroke-width="0.5" stroke="grey" fill="grey"/>
   </g>
   <g id="cell1" type="Blue Bacteria" dead="false" >
  <circle cx="320.989" cy="223.143" r="0.000302974" stroke-width="0.5" stroke="black" fill="grey"/>
  <circle cx="320.989" cy="223.143" r="3.11176e-34" stroke-width="0.5" stroke="grey" fill="grey"/>
   </g>
   <g id="cell190" type="Red Bacteria" dead="false" >
  <circle cx="320.226" cy="6.23728" r="0.8947" stroke-width="0.5" stroke="black" fill="red"/>
  <circle cx="320.226" cy="6.23728" r="0.62035" stroke-width="0.5" stroke="red" fill="red"/>
   </g>
   <g id="cell3" type="Blue Bacteria" dead="false" >
  <circle cx="400.001" cy="147.982" r="0.427104" stroke-width="0.5" stroke="black" fill="grey"/>
  <circle cx="400.001" cy="147.982" r="3.10601e-34" stroke-width="0.5" stroke="grey" fill="grey"/>
   </g>
   <g id="cell4" type="Blue Bacteria" dead="false" >
  <circle cx="332.331" cy="147.098" r="0.000302974" stroke-width="0.5" stroke="black" fill="grey"/>
  <circle cx="332.331" cy="147.098" r="3.11176e-34" stroke-width="0.5" stroke="grey" fill="grey"/>
   </g>
   <g id="cell5" type="Blue Bacteria" dead="false" >
  <circle cx="131.699" cy="284.56" r="0.000302974" stroke-width="0.5" stroke="black" fill="grey"/>
  <circle cx="131.699" cy="284.56" r="3.11176e-34" stroke-width="0.5" stroke="grey" fill="grey"/>
   </g>
   <g id="cell6" type="Blue Bacteria" dead="false" >
  <circle cx="268.487" cy="72.0794" r="0.000302974" stroke-width="0.5" stroke="black" fill="grey"/>
  <circle cx="268.487" cy="72.0794" r="3.11176e-34" stroke-width="0.5" stroke="grey" fill="grey"/>
   </g>
   <g id="cell7" type="Blue Bacteria" dead="false" >
  <circle cx="264.797" cy="327.108" r="0.000302974" stroke-width="0.5" stroke="black" fill="grey"/>
  <circle cx="264.797" cy="327.108" r="3.11176e-34" stroke-width="0.5" stroke="grey" fill="grey"/>
   </g>
   <g id="cell193" type="Red Bacteria" dead="false" >
  <circle cx="338.22" cy="212.31" r="0.8947" stroke-width="0.5" stroke="black" fill="red"/>
  <circle cx="338.22" cy="212.31" r="0.62035" stroke-width="0.5" stroke="red" fill="red"/>
   </g>
   <g id="cell9" type="Blue Bacteria" dead="false" >
  <circle cx="319.918" cy="90.3873" r="0.000302974" stroke-width="0.5" stroke="black" fill="grey"/>
  <circle cx="319.918" cy="90.3873" r="3.11176e-34" stroke-width="0.5" stroke="grey" fill="grey"/>
   </g>
   <g id="cell10" type="Blue Bacteria" dead="false" >
  <circle cx="-0.0807947" cy="41.6875" r="0.0323703" stroke-width="0.5" stroke="black" fill="grey"/>
  <circle cx="-0.0807947" cy="41.6875" r="3.11176e-34" stroke-width="0.5" stroke="grey" fill="grey"/>
   </g>
   <g id="cell11" type="Blue Bacteria" dead="false" >
  <circle cx="116.509" cy="400.074" r="0.393756" stroke-width="0.5" stroke="black" fill="grey"/>
  <circle cx="116.509" cy="400.074" r="3.10812e-34" stroke-width="0.5" stroke="grey" fill="grey"/>
   </g>
   <g id="cell12" type="Blue Bacteria" dead="false" >
  <circle cx="96.7582" cy="400.012" r="0.00419346" stroke-width="0.5" stroke="black" fill="grey"/>
  <circle cx="96.7582" cy="400.012" r="3.11176e-34" stroke-width="0.5" stroke="grey" fill="grey"/>
   </g>
   <g id="cell182" type="Red Bacteria" dead="false" >
  <circle cx="-0.00131308" cy="383.429" r="0.8947" stroke-width="0.5" stroke="black" fill="red"/>
  <circle cx="-0.00131308" cy="383.429" r="0.62035" stroke-width="0.5" stroke="red" fill="red"/>
   </g>
   <g id="cell14" type="Blue Bacteria" dead="false" >
  <circle cx="139.539" cy="400.062" r="0.213964" stroke-width="0.5" stroke="black" fill="grey"/>
  <circle cx="139.539" cy="400.062" r="3.11164e-34" stroke-width="0.5" stroke="grey" fill="grey"/>
   </g>
   <g id="cell15" type="Blue Bacteria" dead="false" >
  <circle cx="321.751" cy="149.419" r="0.000302974" stroke-width="0.5" stroke="black" fill="grey"/>
  <circle cx="321.751" cy="149.419" r="3.11176e-34" stroke-width="0.5" stroke="grey" fill="grey"/>
   </g>
   <g id="cell16" type="Blue Bacteria" dead="false" >
  <circle cx="-0.0464866" cy="258.665" r="0.000328902" stroke-width="0.5" stroke="black" fill="grey"/>
  <circle cx="-0.0464866" cy="258.665" r="3.11176e-34" stroke-width="0.5" stroke="grey" fill="grey"/>
   </g>
   <g id="cell17" type="Blue Bacteria" dead="false" >
  <circle cx="150.936" cy="-0.0356064" r="0.0433455" stroke-width="0.5" stroke="black" fill="grey"/>
  <circle cx="150.936" cy="-0.0356064" r="3.11176e-34" stroke-width="0.5" stroke="grey" fill="grey"/>
   </g>
   <g id="cell192" type="Red Bacteria" dead="false" >
  <circle cx="118.437" cy="127.571" r="0.8947" stroke-width="0.5" stroke="black" fill="red"/>
  <circle cx="118.437" cy="127.571" r="0.62035" stroke-width="0.5" stroke="red" fill="red"/>
   </g>
   <g id="cell19" type="Blue Bacteria" dead="false" >
  <circle cx="275.046" cy="52.581" r="0.000302974" stroke-width="0.5" stroke="black" fill="grey"/>
  <circle cx="275.046" cy="52.581" r="3.11176e-34" stroke-width="0.5" stroke="grey" fill="grey"/>
   </g>
   <g id="cell20" type="Blue Bacteria" dead="false" >
  <circle cx="400.021" cy="266.216" r="0.252135" stroke-width="0.5" stroke="black" fill="grey"/>
  <circle cx="400.021" cy="266.216" r="3.11145e-34" stroke-width="0.5" stroke="grey" fill="grey"/>
   </g>
   <g id="cell21" type="Blue Bacteria" dead="false" >
  <circle cx="318.507" cy="112.71" r="0.000302974" stroke-width="0.5" stroke="black" fill="grey"/>
  <circle cx="318.507" cy="112.71" r="3.11176e-34" stroke-width="0.5" stroke="grey" fill="grey"/>
   </g>
   <g id="cell22" type="Blue Bacteria" dead="false" >
  <circle cx="-0.038524" cy="50.8087" r="0.0859256" stroke-width="0.5" stroke="black" fill="grey"/>
  <circle cx="-0.038524" cy="50.8087" r="3.11176e-34" stroke-width="0.5" stroke="grey" fill="grey"/>
   </g>
   <g id="cell23" type="Blue Bacteria" dead="false" >
  <circle cx="215.207" cy="255.473" r="0.000302974" stroke-width="0.5" stroke="black" fill="grey"/>
  <circle cx="215.207" cy="255.473" r="3.11176e-34" stroke-width="0.5" stroke="grey" fill="grey"/>
   </g>
   <g id="cell24" type="Blue Bacteria" dead="false" >
  <circle cx="325.341" cy="373.28" r="0.000302974" stroke-width="0.5" stroke="black" fill="grey"/>
  <circle cx="325.341" cy="373.28" r="3.11176e-34" stroke-width="0.5" stroke="grey" fill="grey"/>
   </g>
   <g id="cell25" type="Blue Bacteria" dead="false" >
  <circle cx="-0.0424049" cy="84.7218" r="0.646103" stroke-width="0.5" stroke="black" fill="grey"/>
  <circle cx="-0.0424049" cy="84.7218" r="3.04418e-34" stroke-width="0.5" stroke="grey" fill="grey"/>
   </g>
   <g id="cell187" type="Red Bacteria" dead="false" >
  <circle cx="118.773" cy="137.578" r="0.8947" stroke-width="0.5" stroke="black" fill="red"/>
  <circle cx="118.773" cy="137.578" r="0.62035" stroke-width="0.5" stroke="red" fill="red"/>
   </g>
   <g id="cell27" type="Blue Bacteria" dead="false" >
  <circle cx="279.509" cy="365.919" r="0.000302974" stroke-width="0.5" stroke="black" fill="grey"/>
  <circle cx="279.509" cy="365.919" r="3.11176e-34" stroke-width="0.5" stroke="grey" fill="grey"/>
   </g>
   <g id="cell28" type="Blue Bacteria" dead="false" >
  <circle cx="323.347" cy="-0.0403419" r="0.00148204" stroke-width="0.5" stroke="black" fill="grey"/>
  <circle cx="323.347" cy="-0.0403419" r="3.11176e-34" stroke-width="0.5" stroke="grey" fill="grey"/>
   </g>
   <g id="cell29" type="Blue Bacteria" dead="false" >
  <circle cx="258.829" cy="27.1051" r="0.000302974" stroke-width="0.5" stroke="black" fill="grey"/>
  <circle cx="258.829" cy="27.1051" r="3.11176e-34" stroke-width="0.5" stroke="grey" fill="grey"/>
   </g>
   <g id="cell178" type="Red Bacteria" dead="false" >
  <circle cx="119.76" cy="121.937" r="0.8947" stroke-width="0.5" stroke="black" fill="red"/>
  <circle cx="119.76" cy="121.937" r="0.62035" stroke-width="0.5" stroke="red" fill="red"/>
   </g>
   <g id="cell31" type="Blue Bacteria" dead="false" >
  <circle cx="133.591" cy="400.077" r="0.750869" stroke-width="0.5" stroke="black" fill="grey"/>
  <circle cx="133.591" cy="400.077" r="2.88283e-34" stroke-width="0.5" stroke="grey" fill="grey"/>
   </g>
   <g id="cell32" type="Blue Bacteria" dead="false" >
  <circle cx="400.093" cy="222.591" r="0.0295477" stroke-width="0.5" stroke="black" fill="grey"/>
  <circle cx="400.093" cy="222.591" r="3.11176e-34" stroke-width="0.5" stroke="grey" fill="grey"/>
   </g>
   <g id="cell33" type="Blue Bacteria" dead="false" >
  <circle cx="370.555" cy="279.49" r="0.000302974" stroke-width="0.5" stroke="black" fill="grey"/>
  <circle cx="370.555" cy="279.49" r="3.11176e-34" stroke-width="0.5" stroke="grey" fill="grey"/>
   </g>
   <g id="cell34" type="Blue Bacteria" dead="false" >
  <circle cx="260.607" cy="-0.0639429" r="0.310924" stroke-width="0.5" stroke="black" fill="grey"/>
  <circle cx="260.607" cy="-0.0639429" r="3.11078e-34" stroke-width="0.5" stroke="grey" fill="grey"/>
   </g>
   <g id="cell175" type="Red Bacteria" dead="false" >
  <circle cx="317.16" cy="-0.0310332" r="0.8947" stroke-width="0.5" stroke="black" fill="red"/>
  <circle cx="317.16" cy="-0.0310332" r="0.62035" stroke-width="0.5" stroke="red" fill="red"/>
   </g>
   <g id="cell36" type="Blue Bacteria" dead="false" >
  <circle cx="316.025" cy="183.215" r="0.000302974" stroke-width="0.5" stroke="black" fill="grey"/>
  <circle cx="316.025" cy="183.215" r="3.11176e-34" stroke-width="0.5" stroke="grey" fill="grey"/>
   </g>
   <g id="cell37" type="Blue Bacteria" dead="false" >
  <circle cx="273.786" cy="400.032" r="0.704035" stroke-width="0.5" stroke="black" fill="grey"/>
  <circle cx="273.786" cy="400.032" r="2.98447e-34" stroke-width="0.5" stroke="grey" fill="grey"/>
   </g>
   <g id="cell38" type="Blue Bacteria" dead="false" >
  <circle cx="162.071" cy="243.142" r="0.000302974" stroke-width="0.5" stroke="black" fill="grey"/>
  <circle cx="162.071" cy="243.142" r="3.11176e-34" stroke-width="0.5" stroke="grey" fill="grey"/>
   </g>
   <g id="cell39" type="Blue Bacteria" dead="false" >
  <circle cx="265.415" cy="344.913" r="0.000302974" stroke-width="0.5" stroke="black" fill="grey"/>
  <circle cx="265.415" cy="344.913" r="3.11176e-34" stroke-width="0.5" stroke="grey" fill="grey"/>
   </g>
   <g id="cell40" type="Blue Bacteria" dead="false" >
  <circle cx="400.067" cy="302.273" r="0.366212" stroke-width="0.5" stroke="black" fill="grey"/>
  <circle cx="400.067" cy="302.273" r="3.10933e-34" stroke-width="0.5" stroke="grey" fill="grey"/>
   </g>
   <g id="cell183" type="Red Bacteria" dead="false" >
  <circle cx="361.17" cy="244.852" r="0.8947" stroke-width="0.5" stroke="black" fill="red"/>
  <circle cx="361.17" cy="244.852" r="0.62035" stroke-width="0.5" stroke="red" fill="red"/>
   </g>
   <g id="cell194" type="Red Bacteria" dead="false" >
  <circle cx="239.467" cy="400.017" r="0.8947" stroke-width="0.5" stroke="black" fill="red"/>
  <circle cx="239.467" cy="400.017" r="0.62035" stroke-width="0.5" stroke="red" fill="red"/>
   </g>
   <g id="cell43" type="Blue Bacteria" dead="false" >
  <circle cx="29.7606" cy="294.092" r="0.000302974" stroke-width="0.5" stroke="black" fill="grey"/>
  <circle cx="29.7606" cy="294.092" r="3.11176e-34" stroke-width="0.5" stroke="grey" fill="grey"/>
   </g>
   <g id="cell44" type="Blue Bacteria" dead="false" >
  <circle cx="168.804" cy="-0.0118758" r="0.236544" stroke-width="0.5" stroke="black" fill="grey"/>
  <circle cx="168.804" cy="-0.0118758" r="3.11154e-34" stroke-width="0.5" stroke="grey" fill="grey"/>
   </g>
   <g id="cell45" type="Blue Bacteria" dead="false" >
  <circle cx="317.833" cy="260.713" r="0.000302974" stroke-width="0.5" stroke="black" fill="grey"/>
  <circle cx="317.833" cy="260.713" r="3.11176e-34" stroke-width="0.5" stroke="grey" fill="grey"/>
   </g>
   <g id="cell46" type="Blue Bacteria" dead="false" >
  <circle cx="171.724" cy="291.557" r="0.000302974" stroke-width="0.5" stroke="black" fill="grey"/>
  <circle cx="171.724" cy="291.557" r="3.11176e-34" stroke-width="0.5" stroke="grey" fill="grey"/>
   </g>
   <g id="cell47" type="Blue Bacteria" dead="false" >
  <circle cx="265.463" cy="400.042" r="0.000338029" stroke-width="0.5" stroke="black" fill="grey"/>
  <circle cx="265.463" cy="400.042" r="3.11176e-34" stroke-width="0.5" stroke="grey" fill="grey"/>
   </g>
   <g id="cell48" type="Blue Bacteria" dead="false" >
  <circle cx="54.6706" cy="190.139" r="0.000302974" stroke-width="0.5" stroke="black" fill="grey"/>
  <circle cx="54.6706" cy="190.139" r="3.11176e-34" stroke-width="0.5" stroke="grey" fill="grey"/>
   </g>
   <g id="cell49" type="Blue Bacteria" dead="false" >
  <circle cx="286.961" cy="167.299" r="0.000302974" stroke-width="0.5" stroke="black" fill="grey"/>
  <circle cx="286.961" cy="167.299" r="3.11176e-34" stroke-width="0.5" stroke="grey" fill="grey"/>
   </g>
   <g id="cell188" type="Red Bacteria" dead="false" >
  <circle cx="255.357" cy="199.327" r="0.8947" stroke-width="0.5" stroke="black" fill="red"/>
  <circle cx="255.357" cy="199.327" r="0.62035" stroke-width="0.5" stroke="red" fill="red"/>
   </g>
   <g id="cell51" type="Blue Bacteria" dead="false" >
  <circle cx="-0.0790557" cy="177.301" r="0.533455" stroke-width="0.5" stroke="black" fill="grey"/>
  <circle cx="-0.0790557" cy="177.301" r="3.09121e-34" stroke-width="0.5" stroke="grey" fill="grey"/>
   </g>
   <g id="cell52" type="Blue Bacteria" dead="false" >
  <circle cx="400.024" cy="61.4948" r="0.675785" stroke-width="0.5" stroke="black" fill="grey"/>
  <circle cx="400.024" cy="61.4948" r="3.01906e-34" stroke-width="0.5" stroke="grey" fill="grey"/>
   </g>
   <g id="cell53" type="Blue Bacteria" dead="false" >
  <circle cx="139.486" cy="212.467" r="0.000302974" stroke-width="0.5" stroke="black" fill="grey"/>
  <circle cx="139.486" cy="212.467" r="3.11176e-34" stroke-width="0.5" stroke="grey" fill="grey"/>
   </g>
   <g id="cell54" type="Blue Bacteria" dead="false" >
  <circle cx="-0.0688068" cy="235.309" r="0.0105384" stroke-width="0.5" stroke="black" fill="grey"/>
  <circle cx="-0.0688068" cy="235.309" r="3.11176e-34" stroke-width="0.5" stroke="grey" fill="grey"/>
   </g>
   <g id="cell55" type="Blue Bacteria" dead="true" >
  <circle cx="331.194" cy="251.727" r="3.8568e-05" stroke-width="0.5" stroke="black" fill="grey"/>
  <circle cx="331.194" cy="251.727" r="9.218e-35" stroke-width="0.5" stroke="black" fill="black"/>
   </g>
   <g id="cell56" type="Blue Bacteria" dead="false" >
  <circle cx="145.902" cy="130.682" r="0.000302974" stroke-width="0.5" stroke="black" fill="grey"/>
  <circle cx="145.902" cy="130.682" r="3.11176e-34" stroke-width="0.5" stroke="grey" fill="grey"/>
   </g>
   <g id="cell57" type="Blue Bacteria" dead="false" >
  <circle cx="-0.0234335" cy="145.483" r="0.00854356" stroke-width="0.5" stroke="black" fill="grey"/>
  <circle cx="-0.0234335" cy="145.483" r="3.11176e-34" stroke-width="0.5" stroke="grey" fill="grey"/>
   </g>
   <g id="cell58" type="Blue Bacteria" dead="false" >
  <circle cx="294.786" cy="174.018" r="0.000302974" stroke-width="0.5" stroke="black" fill="grey"/>
  <circle cx="294.786" cy="174.018" r="3.11176e-34" stroke-width="0.5" stroke="grey" fill="grey"/>
   </g>
   <g id="cell59" type="Blue Bacteria" dead="false" >
  <circle cx="312.476" cy="354.762" r="0.000302974" stroke-width="0.5" stroke="black" fill="grey"/>
  <circle cx="312.476" cy="354.762" r="3.11176e-34" stroke-width="0.5" stroke="grey" fill="grey"/>
   </g>
   <g id="cell60" type="Blue Bacteria" dead="false" >
  <circle cx="308.574" cy="400.002" r="0.322454" stroke-width="0.5" stroke="black" fill="grey"/>
  <circle cx="308.574" cy="400.002" r="3.11056e-34" stroke-width="0.5" stroke="grey" fill="grey"/>
   </g>
   <g id="cell61" type="Blue Bacteria" dead="false" >
  <circle cx="165.018" cy="400.002" r="0.22807" stroke-width="0.5" stroke="black" fill="grey"/>
  <circle cx="165.018" cy="400.002" r="3.11158e-34" stroke-width="0.5" stroke="grey" fill="grey"/>
   </g>
   <g id="cell62" type="Blue Bacteria" dead="false" >
  <circle cx="275.747" cy="264.518" r="0.000302974" stroke-width="0.5" stroke="black" fill="grey"/>
  <circle cx="275.747" cy="264.518" r="3.11176e-34" stroke-width="0.5" stroke="grey" fill="grey"/>
   </g>
   <g id="cell63" type="Blue Bacteria" dead="false" >
  <circle cx="400.009" cy="179.131" r="0.000640208" stroke-width="0.5" stroke="black" fill="grey"/>
  <circle cx="400.009" cy="179.131" r="3.11176e-34" stroke-width="0.5" stroke="grey" fill="grey"/>
   </g>
   <g id="cell64" type="Blue Bacteria" dead="false" >
  <circle cx="396.763" cy="97.4575" r="0.000302974" stroke-width="0.5" stroke="black" fill="grey"/>
  <circle cx="396.763" cy="97.4575" r="3.11176e-34" stroke-width="0.5" stroke="grey" fill="grey"/>
   </g>
   <g id="cell65" type="Blue Bacteria" dead="false" >
  <circle cx="323.464" cy="400.074" r="0.00186175" stroke-width="0.5" stroke="black" fill="grey"/>
  <circle cx="323.464" cy="400.074" r="3.11176e-34" stroke-width="0.5" stroke="grey" fill="grey"/>
   </g>
   <g id="cell66" type="Blue Bacteria" dead="false" >
  <circle cx="272.467" cy="276.439" r="0.000302974" stroke-width="0.5" stroke="black" fill="grey"/>
  <circle cx="272.467" cy="276.439" r="3.11176e-34" stroke-width="0.5" stroke="grey" fill="grey"/>
   </g>
   <g id="cell67" type="Blue Bacteria" dead="false" >
  <circle cx="335.243" cy="123.864" r="0.000302974" stroke-width="0.5" stroke="black" fill="grey"/>
  <circle cx="335.243" cy="123.864" r="3.11176e-34" stroke-width="0.5" stroke="grey" fill="grey"/>
   </g>
   <g id="cell68" type="Blue Bacteria" dead="false" >
  <circle cx="354.041" cy="315.137" r="0.000302974" stroke-width="0.5" stroke="black" fill="grey"/>
  <circle cx="354.041" cy="315.137" r="3.11176e-34" stroke-width="0.5" stroke="grey" fill="grey"/>
   </g>
   <g id="cell184" type="Red Bacteria" dead="false" >
  <circle cx="400.023" cy="7.65816" r="0.8947" stroke-width="0.5" stroke="black" fill="red"/>
  <circle cx="400.023" cy="7.65816" r="0.62035" stroke-width="0.5" stroke="red" fill="red"/>
   </g>
   <g id="cell70" type="Blue Bacteria" dead="false" >
  <circle cx="400.03" cy="122.389" r="0.000701366" stroke-width="0.5" stroke="black" fill="grey"/>
  <circle cx="400.03" cy="122.389" r="3.11176e-34" stroke-width="0.5" stroke="grey" fill="grey"/>
   </g>
   <g id="cell71" type="Blue Bacteria" dead="false" >
  <circle cx="87.5544" cy="318.895" r="0.000302974" stroke-width="0.5" stroke="black" fill="grey"/>
  <circle cx="87.5544" cy="318.895" r="3.11176e-34" stroke-width="0.5" stroke="grey" fill="grey"/>
   </g>
   <g id="cell72" type="Blue Bacteria" dead="false" >
  <circle cx="380.222" cy="400.005" r="0.591138" stroke-width="0.5" stroke="black" fill="grey"/>
  <circle cx="380.222" cy="400.005" r="3.07365e-34" stroke-width="0.5" stroke="grey" fill="grey"/>
   </g>
   <g id="cell73" type="Blue Bacteria" dead="false" >
  <circle cx="266.294" cy="325.803" r="0.000302974" stroke-width="0.5" stroke="black" fill="grey"/>
  <circle cx="266.294" cy="325.803" r="3.11176e-34" stroke-width="0.5" stroke="grey" fill="grey"/>
   </g>
   <g id="cell74" type="Blue Bacteria" dead="false" >
  <circle cx="-0.00554925" cy="3.07738" r="0.561854" stroke-width="0.5" stroke="black" fill="grey"/>
  <circle cx="-0.00554925" cy="3.07738" r="3.0838e-34" stroke-width="0.5" stroke="grey" fill="grey"/>
   </g>
   <g id="cell75" type="Blue Bacteria" dead="false" >
  <circle cx="270.817" cy="205.628" r="0.000302974" stroke-width="0.5" stroke="black" fill="grey"/>
  <circle cx="270.817" cy="205.628" r="3.11176e-34" stroke-width="0.5" stroke="grey" fill="grey"/>
   </g>
   <g id="cell176" type="Red Bacteria" dead="false" >
  <circle cx="-0.0568013" cy="295.467" r="0.8947" stroke-width="0.5" stroke="black" fill="red"/>
  <circle cx="-0.0568013" cy="295.467" r="0.62035" stroke-width="0.5" stroke="red" fill="red"/>
   </g>
   <g id="cell77" type="Blue Bacteria" dead="false" >
  <circle cx="303.458" cy="400.013" r="0.0146359" stroke-width="0.5" stroke="black" fill="grey"/>
  <circle cx="303.458" cy="400.013" r="3.11176e-34" stroke-width="0.5" stroke="grey" fill="grey"/>
   </g>
   <g id="cell78" type="Blue Bacteria" dead="false" >
  <circle cx="270.648" cy="400.005" r="0.221914" stroke-width="0.5" stroke="black" fill="grey"/>
  <circle cx="270.648" cy="400.005" r="3.11161e-34" stroke-width="0.5" stroke="grey" fill="grey"/>
   </g>
   <g id="cell79" type="Blue Bacteria" dead="false" >
  <circle cx="294.815" cy="62.065" r="0.000302974" stroke-width="0.5" stroke="black" fill="grey"/>
  <circle cx="294.815" cy="62.065" r="3.11176e-34" stroke-width="0.5" stroke="grey" fill="grey"/>
   </g>
   <g id="cell80" type="Blue Bacteria" dead="false" >
  <circle cx="312.141" cy="98.5438" r="0.000302974" stroke-width="0.5" stroke="black" fill="grey"/>
  <circle cx="312.141" cy="98.5438" r="3.11176e-34" stroke-width="0.5" stroke="grey" fill="grey"/>
   </g>
   <g id="cell198" type="Red Bacteria" dead="false" >
  <circle cx="118.803" cy="125.127" r="0.8947" stroke-width="0.5" stroke="black" fill="red"/>
  <circle cx="118.803" cy="125.127" r="0.62035" stroke-width="0.5" stroke="red" fill="red"/>
   </g>
   <g id="cell82" type="Blue Bacteria" dead="false" >
  <circle cx="361.563" cy="168.804" r="0.000302974" stroke-width="0.5" stroke="black" fill="grey"/>
  <circle cx="361.563" cy="168.804" r="3.11176e-34" stroke-width="0.5" stroke="grey" fill="grey"/>
   </g>
   <g id="cell83" type="Blue Bacteria" dead="false" >
  <circle cx="287.792" cy="400.001" r="0.02823" stroke-width="0.5" stroke="black" fill="grey"/>
  <circle cx="287.792" cy="400.001" r="3.11176e-34" stroke-width="0.5" stroke="grey" fill="grey"/>
   </g>
   <g id="cell84" type="Blue Bacteria" dead="false" >
  <circle cx="214.276" cy="400.038" r="0.164228" stroke-width="0.5" stroke="black" fill="grey"/>
  <circle cx="214.276" cy="400.038" r="3.11173e-34" stroke-width="0.5" stroke="grey" fill="grey"/>
   </g>
   <g id="cell85" type="Blue Bacteria" dead="false" >
  <circle cx="114.277" cy="172.517" r="0.000302974" stroke-width="0.5" stroke="black" fill="grey"/>
  <circle cx="114.277" cy="172.517" r="3.11176e-34" stroke-width="0.5" stroke="grey" fill="grey"/>
   </g>
   <g id="cell189" type="Red Bacteria" dead="false" >
  <circle cx="-0.0446946" cy="59.9989" r="0.8947" stroke-width="0.5" stroke="black" fill="red"/>
  <circle cx="-0.0446946" cy="59.9989" r="0.62035" stroke-width="0.5" stroke="red" fill="red"/>
   </g>
   <g id="cell87" type="Blue Bacteria" dead="false" >
  <circle cx="400.008" cy="251.694" r="0.74295" stroke-width="0.5" stroke="black" fill="grey"/>
  <circle cx="400.008" cy="251.694" r="2.90374e-34" stroke-width="0.5" stroke="grey" fill="grey"/>
   </g>
   <g id="cell88" type="Blue Bacteria" dead="false" >
  <circle cx="265.806" cy="327.928" r="0.000302974" stroke-width="0.5" stroke="black" fill="grey"/>
  <circle cx="265.806" cy="327.928" r="3.11176e-34" stroke-width="0.5" stroke="grey" fill="grey"/>
   </g>
   <g id="cell89" type="Blue Bacteria" dead="false" >
  <circle cx="62.3648" cy="194.619" r="0.000302974" stroke-width="0.5" stroke="black" fill="grey"/>
  <circle cx="62.3648" cy="194.619" r="3.11176e-34" stroke-width="0.5" stroke="grey" fill="grey"/>
   </g>
   <g id="cell185" type="Red Bacteria" dead="false" >
  <circle cx="17.3851" cy="400.084" r="0.8947" stroke-width="0.5" stroke="black" fill="red"/>
  <circle cx="17.3851" cy="400.084" r="0.62035" stroke-width="0.5" stroke="red" fill="red"/>
   </g>
   <g id="cell91" type="Blue Bacteria" dead="false" >
  <circle cx="269.712" cy="-0.0961623" r="0.626048" stroke-width="0.5" stroke="black" fill="grey"/>
  <circle cx="269.712" cy="-0.0961623" r="3.05694e-34" stroke-width="0.5" stroke="grey" fill="grey"/>
   </g>
   <g id="cell92" type="Blue Bacteria" dead="false" >
  <circle cx="45.3537" cy="114.996" r="0.000302974" stroke-width="0.5" stroke="black" fill="grey"/>
  <circle cx="45.3537" cy="114.996" r="3.11176e-34" stroke-width="0.5" stroke="grey" fill="grey"/>
   </g>
   <g id="cell93" type="Blue Bacteria" dead="false" >
  <circle cx="128.985" cy="223.274" r="0.000302974" stroke-width="0.5" stroke="black" fill="grey"/>
  <circle cx="128.985" cy="223.274" r="3.11176e-34" stroke-width="0.5" stroke="grey" fill="grey"/>
   </g>
   <g id="cell94" type="Blue Bacteria" dead="false" >
  <circle cx="400.034" cy="293.845" r="0.454837" stroke-width="0.5" stroke="black" fill="grey"/>
  <circle cx="400.034" cy="293.845" r="3.10355e-34" stroke-width="0.5" stroke="grey" fill="grey"/>
   </g>
   <g id="cell95" type="Blue Bacteria" dead="false" >
  <circle cx="331.482" cy="90.2866" r="0.000302974" stroke-width="0.5" stroke="black" fill="grey"/>
  <circle cx="331.482" cy="90.2866" r="3.11176e-34" stroke-width="0.5" stroke="grey" fill="grey"/>
   </g>
   <g id="cell96" type="Blue Bacteria" dead="false" >
  <circle cx="364.287" cy="400.053" r="0.0312103" stroke-width="0.5" stroke="black" fill="grey"/>
  <circle cx="364.287" cy="400.053" r="3.11176e-34" stroke-width="0.5" stroke="grey" fill="grey"/>
   </g>
   <g id="cell97" type="Blue Bacteria" dead="false" >
  <circle cx="379.487" cy="129.841" r="0.000302974" stroke-width="0.5" stroke="black" fill="grey"/>
  <circle cx="379.487" cy="129.841" r="3.11176e-34" stroke-width="0.5" stroke="grey" fill="grey"/>
   </g>
   <g id="cell98" type="Blue Bacteria" dead="false" >
  <circle cx="356.211" cy="400.103" r="0.103126" stroke-width="0.5" stroke="black" fill="grey"/>
  <circle cx="356.211" cy="400.103" r="3.11176e-34" stroke-width="0.5" stroke="grey" fill="grey"/>
   </g>
   <g id="cell99" type="Blue Bacteria" dead="false" >
  <circle cx="400.033" cy="95.4626" r="0.561854" stroke-width="0.5" stroke="black" fill="grey"/>
  <circle cx="400.033" cy="95.4626" r="3.0838e-34" stroke-width="0.5" stroke="grey" fill="grey"/>
   </g>
   <g id="cell100" type="Red Bacteria" dead="false" >
  <circle cx="360.207" cy="239.038" r="0.8947" stroke-width="0.5" stroke="black" fill="red"/>
  <circle cx="360.207" cy="239.038" r="0.62035" stroke-width="0.5" stroke="red" fill="red"/>
   </g>
   <g id="cell101" type="Red Bacteria" dead="false" >
  <circle cx="120.644" cy="133.888" r="0.8947" stroke-width="0.5" stroke="black" fill="red"/>
  <circle cx="120.644" cy="133.888" r="0.62035" stroke-width="0.5" stroke="red" fill="red"/>
   </g>
   <g id="cell186" type="Red Bacteria" dead="false" >
  <circle cx="321.01" cy="-0.0929578" r="0.8947" stroke-width="0.5" stroke="black" fill="red"/>
  <circle cx="321.01" cy="-0.0929578" r="0.62035" stroke-width="0.5" stroke="red" fill="red"/>
   </g>
   <g id="cell103" type="Red Bacteria" dead="false" >
  <circle cx="381.508" cy="400.032" r="0.8947" stroke-width="0.5" stroke="black" fill="red"/>
  <circle cx="381.508" cy="400.032" r="0.62035" stroke-width="0.5" stroke="red" fill="red"/>
   </g>
   <g id="cell104" type="Red Bacteria" dead="false" >
  <circle cx="400.004" cy="388.527" r="0.8947" stroke-width="0.5" stroke="black" fill="red"/>
  <circle cx="400.004" cy="388.527" r="0.62035" stroke-width="0.5" stroke="red" fill="red"/>
   </g>
   <g id="cell105" type="Red Bacteria" dead="false" >
  <circle cx="-0.057472" cy="386.491" r="0.8947" stroke-width="0.5" stroke="black" fill="red"/>
  <circle cx="-0.057472" cy="386.491" r="0.62035" stroke-width="0.5" stroke="red" fill="red"/>
   </g>
   <g id="cell106" type="Red Bacteria" dead="false" >
  <circle cx="120.409" cy="136.773" r="0.8947" stroke-width="0.5" stroke="black" fill="red"/>
  <circle cx="120.409" cy="136.773" r="0.62035" stroke-width="0.5" stroke="red" fill="red"/>
   </g>
   <g id="cell107" type="Red Bacteria" dead="false" >
  <circle cx="390.185" cy="400.023" r="0.8947" stroke-width="0.5" stroke="black" fill="red"/>
  <circle cx="390.185" cy="400.023" r="0.62035" stroke-width="0.5" stroke="red" fill="red"/>
   </g>
   <g id="cell108" type="Red Bacteria" dead="false" >
  <circle cx="160.705" cy="400.062" r="0.8947" stroke-width="0.5" stroke="black" fill="red"/>
  <circle cx="160.705" cy="400.062" r="0.62035" stroke-width="0.5" stroke="red" fill="red"/>
   </g>
   <g id="cell109" type="Red Bacteria" dead="false" >
  <circle cx="366.271" cy="237.96" r="0.8947" stroke-width="0.5" stroke="black" fill="red"/>
  <circle cx="366.271" cy="237.96" r="0.62035" stroke-width="0.5" stroke="red" fill="red"/>
   </g>
   <g id="cell110" type="Red Bacteria" dead="false" >
  <circle cx="400.052" cy="392.99" r="0.8947" stroke-width="0.5" stroke="black" fill="red"/>
  <circle cx="400.052" cy="392.99" r="0.62035" stroke-width="0.5" stroke="red" fill="red"/>
   </g>
   <g id="cell111" type="Red Bacteria" dead="false" >
  <circle cx="120.109" cy="125.756" r="0.8947" stroke-width="0.5" stroke="black" fill="red"/>
  <circle cx="120.109" cy="125.756" r="0.62035" stroke-width="0.5" stroke="red" fill="red"/>
   </g>
   <g id="cell112" type="Red Bacteria" dead="false" >
  <circle cx="261.733" cy="198.947" r="0.8947" stroke-width="0.5" stroke="black" fill="red"/>
  <circle cx="261.733" cy="198.947" r="0.62035" stroke-width="0.5" stroke="red" fill="red"/>
   </g>
   <g id="cell113" type="Red Bacteria" dead="false" >
  <circle cx="157.875" cy="400.036" r="0.8947" stroke-width="0.5" stroke="black" fill="red"/>
  <circle cx="157.875" cy="400.036" r="0.62035" stroke-width="0.5" stroke="red" fill="red"/>
   </g>
   <g id="cell114" type="Red Bacteria" dead="false" >
  <circle cx="-0.0170762" cy="31.3223" r="0.8947" stroke-width="0.5" stroke="black" fill="red"/>
  <circle cx="-0.0170762" cy="31.3223" r="0.62035" stroke-width="0.5" stroke="red" fill="red"/>
   </g>
   <g id="cell115" type="Red Bacteria" dead="false" >
  <circle cx="117.481" cy="-0.0584107" r="0.8947" stroke-width="0.5" stroke="black" fill="red"/>
  <circle cx="117.481" cy="-0.0584107" r="0.62035" stroke-width="0.5" stroke="red" fill="red"/>
   </g>
   <g id="cell116" type="Red Bacteria" dead="false" >
  <circle cx="15.9457" cy="400.02" r="0.8947" stroke-width="0.5" stroke="black" fill="red"/>
  <circle cx="15.9457" cy="400.02" r="0.62035" stroke-width="0.5" stroke="red" fill="red"/>
   </g>
   <g id="cell117" type="Red Bacteria" dead="false" >
  <circle cx="119.841" cy="131.596" r="0.8947" stroke-width="0.5" stroke="black" fill="red"/>
  <circle cx="119.841" cy="131.596" r="0.62035" stroke-width="0.5" stroke="red" fill="red"/>
   </g>
   <g id="cell118" type="Red Bacteria" dead="true" >
  <circle cx="258.02" cy="198.227" r="0.256291" stroke-width="0.5" stroke="black" fill="red"/>
  <circle cx="258.02" cy="198.227" r="0.245929" stroke-width="0.5" stroke="black" fill="black"/>
   </g>
   <g id="cell119" type="Red Bacteria" dead="false" >
  <circle cx="358.741" cy="237.074" r="0.8947" stroke-width="0.5" stroke="black" fill="red"/>
  <circle cx="358.741" cy="237.074" r="0.62035" stroke-width="0.5" stroke="red" fill="red"/>
   </g>
   <g id="cell120" type="Red Bacteria" dead="false" >
  <circle cx="120.164" cy="119.066" r="0.8947" stroke-width="0.5" stroke="black" fill="red"/>
  <circle cx="120.164" cy="119.066" r="0.62035" stroke-width="0.5" stroke="red" fill="red"/>
   </g>
   <g id="cell121" type="Red Bacteria" dead="false" >
  <circle cx="121.123" cy="139.013" r="0.8947" stroke-width="0.5" stroke="black" fill="red"/>
  <circle cx="121.123" cy="139.013" r="0.62035" stroke-width="0.5" stroke="red" fill="red"/>
   </g>
   <g id="cell122" type="Red Bacteria" dead="false" >
  <circle cx="159.868" cy="389.452" r="0.8947" stroke-width="0.5" stroke="black" fill="red"/>
  <circle cx="159.868" cy="389.452" r="0.62035" stroke-width="0.5" stroke="red" fill="red"/>
   </g>
   <g id="cell123" type="Red Bacteria" dead="false" >
  <circle cx="394.314" cy="400.098" r="0.8947" stroke-width="0.5" stroke="black" fill="red"/>
  <circle cx="394.314" cy="400.098" r="0.62035" stroke-width="0.5" stroke="red" fill="red"/>
   </g>
   <g id="cell124" type="Red Bacteria" dead="false" >
  <circle cx="242.386" cy="200.696" r="0.8947" stroke-width="0.5" stroke="black" fill="red"/>
  <circle cx="242.386" cy="200.696" r="0.62035" stroke-width="0.5" stroke="red" fill="red"/>
   </g>
   <g id="cell125" type="Red Bacteria" dead="false" >
  <circle cx="118.914" cy="120.881" r="0.8947" stroke-width="0.5" stroke="black" fill="red"/>
  <circle cx="118.914" cy="120.881" r="0.62035" stroke-width="0.5" stroke="red" fill="red"/>
   </g>
   <g id="cell126" type="Red Bacteria" dead="false" >
  <circle cx="361.374" cy="400.05" r="0.8947" stroke-width="0.5" stroke="black" fill="red"/>
  <circle cx="361.374" cy="400.05" r="0.62035" stroke-width="0.5" stroke="red" fill="red"/>
   </g>
   <g id="cell127" type="Red Bacteria" dead="false" >
  <circle cx="9.62878" cy="400.04" r="0.8947" stroke-width="0.5" stroke="black" fill="red"/>
  <circle cx="9.62878" cy="400.04" r="0.62035" stroke-width="0.5" stroke="red" fill="red"/>
   </g>
   <g id="cell128" type="Red Bacteria" dead="false" >
  <circle cx="319.782" cy="-0.0109649" r="0.8947" stroke-width="0.5" stroke="black" fill="red"/>
  <circle cx="319.782" cy="-0.0109649" r="0.62035" stroke-width="0.5" stroke="red" fill="red"/>
   </g>
   <g id="cell129" type="Red Bacteria" dead="false" >
  <circle cx="340.603" cy="220.274" r="0.8947" stroke-width="0.5" stroke="black" fill="red"/>
  <circle cx="340.603" cy="220.274" r="0.62035" stroke-width="0.5" stroke="red" fill="red"/>
   </g>
   <g id="cell130" type="Red Bacteria" dead="false" >
  <circle cx="121.712" cy="-0.0296209" r="0.8947" stroke-width="0.5" stroke="black" fill="red"/>
  <circle cx="121.712" cy="-0.0296209" r="0.62035" stroke-width="0.5" stroke="red" fill="red"/>
   </g>
   <g id="cell131" type="Red Bacteria" dead="false" >
  <circle cx="400.029" cy="200.223" r="0.8947" stroke-width="0.5" stroke="black" fill="red"/>
  <circle cx="400.029" cy="200.223" r="0.62035" stroke-width="0.5" stroke="red" fill="red"/>
   </g>
   <g id="cell132" type="Red Bacteria" dead="false" >
  <circle cx="-0.0032313" cy="380.059" r="0.8947" stroke-width="0.5" stroke="black" fill="red"/>
  <circle cx="-0.0032313" cy="380.059" r="0.62035" stroke-width="0.5" stroke="red" fill="red"/>
   </g>
   <g id="cell133" type="Red Bacteria" dead="false" >
  <circle cx="354.257" cy="230.599" r="0.8947" stroke-width="0.5" stroke="black" fill="red"/>
  <circle cx="354.257" cy="230.599" r="0.62035" stroke-width="0.5" stroke="red" fill="red"/>
   </g>
   <g id="cell134" type="Red Bacteria" dead="false" >
  <circle cx="122.106" cy="136.228" r="0.8947" stroke-width="0.5" stroke="black" fill="red"/>
  <circle cx="122.106" cy="136.228" r="0.62035" stroke-width="0.5" stroke="red" fill="red"/>
   </g>
   <g id="cell135" type="Red Bacteria" dead="false" >
  <circle cx="400.084" cy="385.317" r="0.8947" stroke-width="0.5" stroke="black" fill="red"/>
  <circle cx="400.084" cy="385.317" r="0.62035" stroke-width="0.5" stroke="red" fill="red"/>
   </g>
   <g id="cell136" type="Red Bacteria" dead="false" >
  <circle cx="163.634" cy="400.03" r="0.8947" stroke-width="0.5" stroke="black" fill="red"/>
  <circle cx="163.634" cy="400.03" r="0.62035" stroke-width="0.5" stroke="red" fill="red"/>
   </g>
   <g id="cell137" type="Red Bacteria" dead="false" >
  <circle cx="121.947" cy="134.753" r="0.8947" stroke-width="0.5" stroke="black" fill="red"/>
  <circle cx="121.947" cy="134.753" r="0.62035" stroke-width="0.5" stroke="red" fill="red"/>
   </g>
   <g id="cell138" type="Red Bacteria" dead="false" >
  <circle cx="387.306" cy="-0.0726748" r="0.8947" stroke-width="0.5" stroke="black" fill="red"/>
  <circle cx="387.306" cy="-0.0726748" r="0.62035" stroke-width="0.5" stroke="red" fill="red"/>
   </g>
   <g id="cell139" type="Red Bacteria" dead="false" >
  <circle cx="395.779" cy="400.011" r="0.8947" stroke-width="0.5" stroke="black" fill="red"/>
  <circle cx="395.779" cy="400.011" r="0.62035" stroke-width="0.5" stroke="red" fill="red"/>
   </g>
   <g id="cell140" type="Red Bacteria" dead="false" >
  <circle cx="119.696" cy="6.36829" r="0.8947" stroke-width="0.5" stroke="black" fill="red"/>
  <circle cx="119.696" cy="6.36829" r="0.62035" stroke-width="0.5" stroke="red" fill="red"/>
   </g>
   <g id="cell141" type="Red Bacteria" dead="false" >
  <circle cx="162.152" cy="400.082" r="0.8947" stroke-width="0.5" stroke="black" fill="red"/>
  <circle cx="162.152" cy="400.082" r="0.62035" stroke-width="0.5" stroke="red" fill="red"/>
   </g>
   <g id="cell142" type="Red Bacteria" dead="false" >
  <circle cx="119.408" cy="133.531" r="0.8947" stroke-width="0.5" stroke="black" fill="red"/>
  <circle cx="119.408" cy="133.531" r="0.62035" stroke-width="0.5" stroke="red" fill="red"/>
   </g>
   <g id="cell143" type="Red Bacteria" dead="false" >
  <circle cx="156.534" cy="400.053" r="0.8947" stroke-width="0.5" stroke="black" fill="red"/>
  <circle cx="156.534" cy="400.053" r="0.62035" stroke-width="0.5" stroke="red" fill="red"/>
   </g>
   <g id="cell144" type="Red Bacteria" dead="false" >
  <circle cx="318.658" cy="-0.0422299" r="0.8947" stroke-width="0.5" stroke="black" fill="red"/>
  <circle cx="318.658" cy="-0.0422299" r="0.62035" stroke-width="0.5" stroke="red" fill="red"/>
   </g>
   <g id="cell199" type="Red Bacteria" dead="false" >
  <circle cx="120.317" cy="120.709" r="0.8947" stroke-width="0.5" stroke="black" fill="red"/>
  <circle cx="120.317" cy="120.709" r="0.62035" stroke-width="0.5" stroke="red" fill="red"/>
   </g>
   <g id="cell146" type="Red Bacteria" dead="false" >
  <circle cx="123.266" cy="-0.0145849" r="0.8947" stroke-width="0.5" stroke="black" fill="red"/>
  <circle cx="123.266" cy="-0.0145849" r="0.62035" stroke-width="0.5" stroke="red" fill="red"/>
   </g>
   <g id="cell147" type="Red Bacteria" dead="false" >
  <circle cx="385.929" cy="400.017" r="0.8947" stroke-width="0.5" stroke="black" fill="red"/>
  <circle cx="385.929" cy="400.017" r="0.62035" stroke-width="0.5" stroke="red" fill="red"/>
   </g>
   <g id="cell148" type="Red Bacteria" dead="false" >
  <circle cx="-0.0983096" cy="391.835" r="0.8947" stroke-width="0.5" stroke="black" fill="red"/>
  <circle cx="-0.0983096" cy="391.835" r="0.62035" stroke-width="0.5" stroke="red" fill="red"/>
   </g>
   <g id="cell149" type="Red Bacteria" dead="false" >
  <circle cx="114.804" cy="-0.053258" r="0.8947" stroke-width="0.5" stroke="black" fill="red"/>
  <circle cx="114.804" cy="-0.053258" r="0.62035" stroke-width="0.5" stroke="red" fill="red"/>
   </g>
   <g id="cell150" type="Red Bacteria" dead="false" >
  <circle cx="120.805" cy="135.45" r="0.8947" stroke-width="0.5" stroke="black" fill="red"/>
  <circle cx="120.805" cy="135.45" r="0.62035" stroke-width="0.5" stroke="red" fill="red"/>
   </g>
   <g id="cell191" type="Red Bacteria" dead="false" >
  <circle cx="120.105" cy="20.1723" r="0.8947" stroke-width="0.5" stroke="black" fill="red"/>
  <circle cx="120.105" cy="20.1723" r="0.62035" stroke-width="0.5" stroke="red" fill="red"/>
   </g>
   <g id="cell152" type="Red Bacteria" dead="false" >
  <circle cx="7.82376" cy="400.047" r="0.8947" stroke-width="0.5" stroke="black" fill="red"/>
  <circle cx="7.82376" cy="400.047" r="0.62035" stroke-width="0.5" stroke="red" fill="red"/>
   </g>
   <g id="cell153" type="Red Bacteria" dead="false" >
  <circle cx="159.374" cy="400.063" r="0.8947" stroke-width="0.5" stroke="black" fill="red"/>
  <circle cx="159.374" cy="400.063" r="0.62035" stroke-width="0.5" stroke="red" fill="red"/>
   </g>
   <g id="cell196" type="Red Bacteria" dead="false" >
  <circle cx="-0.066081" cy="389.059" r="0.8947" stroke-width="0.5" stroke="black" fill="red"/>
  <circle cx="-0.066081" cy="389.059" r="0.62035" stroke-width="0.5" stroke="red" fill="red"/>
   </g>
   <g id="cell155" type="Red Bacteria" dead="false" >
  <circle cx="18.7074" cy="400.004" r="0.8947" stroke-width="0.5" stroke="black" fill="red"/>
  <circle cx="18.7074" cy="400.004" r="0.62035" stroke-width="0.5" stroke="red" fill="red"/>
   </g>
   <g id="cell177" type="Red Bacteria" dead="false" >
  <circle cx="118.764" cy="-0.0035018" r="0.8947" stroke-width="0.5" stroke="black" fill="red"/>
  <circle cx="118.764" cy="-0.0035018" r="0.62035" stroke-width="0.5" stroke="red" fill="red"/>
   </g>
   <g id="cell157" type="Red Bacteria" dead="false" >
  <circle cx="322.705" cy="-0.0515298" r="0.8947" stroke-width="0.5" stroke="black" fill="red"/>
  <circle cx="322.705" cy="-0.0515298" r="0.62035" stroke-width="0.5" stroke="red" fill="red"/>
   </g>
   <g id="cell158" type="Red Bacteria" dead="false" >
  <circle cx="314.99" cy="-0.0347149" r="0.8947" stroke-width="0.5" stroke="black" fill="red"/>
  <circle cx="314.99" cy="-0.0347149" r="0.62035" stroke-width="0.5" stroke="red" fill="red"/>
   </g>
   <g id="cell159" type="Red Bacteria" dead="false" >
  <circle cx="400.009" cy="396.458" r="0.8947" stroke-width="0.5" stroke="black" fill="red"/>
  <circle cx="400.009" cy="396.458" r="0.62035" stroke-width="0.5" stroke="red" fill="red"/>
   </g>
   <g id="cell160" type="Red Bacteria" dead="false" >
  <circle cx="120.752" cy="129.928" r="0.8947" stroke-width="0.5" stroke="black" fill="red"/>
  <circle cx="120.752" cy="129.928" r="0.62035" stroke-width="0.5" stroke="red" fill="red"/>
   </g>
   <g id="cell161" type="Red Bacteria" dead="false" >
  <circle cx="324.235" cy="-0.0668603" r="0.8947" stroke-width="0.5" stroke="black" fill="red"/>
  <circle cx="324.235" cy="-0.0668603" r="0.62035" stroke-width="0.5" stroke="red" fill="red"/>
   </g>
   <g id="cell162" type="Red Bacteria" dead="false" >
  <circle cx="116.201" cy="-0.0476963" r="0.8947" stroke-width="0.5" stroke="black" fill="red"/>
  <circle cx="116.201" cy="-0.0476963" r="0.62035" stroke-width="0.5" stroke="red" fill="red"/>
   </g>
   <g id="cell163" type="Red Bacteria" dead="false" >
  <circle cx="118.645" cy="136.104" r="0.8947" stroke-width="0.5" stroke="black" fill="red"/>
  <circle cx="118.645" cy="136.104" r="0.62035" stroke-width="0.5" stroke="red" fill="red"/>
   </g>
   <g id="cell164" type="Red Bacteria" dead="false" >
  <circle cx="400.018" cy="383.818" r="0.8947" stroke-width="0.5" stroke="black" fill="red"/>
  <circle cx="400.018" cy="383.818" r="0.62035" stroke-width="0.5" stroke="red" fill="red"/>
   </g>
   <g id="cell165" type="Red Bacteria" dead="false" >
  <circle cx="121.52" cy="126.691" r="0.8947" stroke-width="0.5" stroke="black" fill="red"/>
  <circle cx="121.52" cy="126.691" r="0.62035" stroke-width="0.5" stroke="red" fill="red"/>
   </g>
   <g id="cell166" type="Red Bacteria" dead="false" >
  <circle cx="320.036" cy="12.3388" r="0.8947" stroke-width="0.5" stroke="black" fill="red"/>
  <circle cx="320.036" cy="12.3388" r="0.62035" stroke-width="0.5" stroke="red" fill="red"/>
   </g>
   <g id="cell179" type="Red Bacteria" dead="false" >
  <circle cx="120.002" cy="124.33" r="0.8947" stroke-width="0.5" stroke="black" fill="red"/>
  <circle cx="120.002" cy="124.33" r="0.62035" stroke-width="0.5" stroke="red" fill="red"/>
   </g>
   <g id="cell168" type="Red Bacteria" dead="false" >
  <circle cx="120.069" cy="13.4535" r="0.8947" stroke-width="0.5" stroke="black" fill="red"/>
  <circle cx="120.069" cy="13.4535" r="0.62035" stroke-width="0.5" stroke="red" fill="red"/>
   </g>
   <g id="cell169" type="Red Bacteria" dead="false" >
  <circle cx="120.245" cy="-0.028037" r="0.8947" stroke-width="0.5" stroke="black" fill="red"/>
  <circle cx="120.245" cy="-0.028037" r="0.62035" stroke-width="0.5" stroke="red" fill="red"/>
   </g>
   <g id="cell170" type="Red Bacteria" dead="false" >
  <circle cx="119.607" cy="128.833" r="0.8947" stroke-width="0.5" stroke="black" fill="red"/>
  <circle cx="119.607" cy="128.833" r="0.62035" stroke-width="0.5" stroke="red" fill="red"/>
   </g>
   <g id="cell171" type="Red Bacteria" dead="false" >
  <circle cx="119.962" cy="127.176" r="0.8947" stroke-width="0.5" stroke="black" fill="red"/>
  <circle cx="119.962" cy="127.176" r="0.62035" stroke-width="0.5" stroke="red" fill="red"/>
   </g>
   <g id="cell172" type="Red Bacteria" dead="false" >
  <circle cx="4.65962" cy="400.024" r="0.8947" stroke-width="0.5" stroke="black" fill="red"/>
  <circle cx="4.65962" cy="400.024" r="0.62035" stroke-width="0.5" stroke="red" fill="red"/>
   </g>
   <g id="cell173" type="Red Bacteria" dead="false" >
  <circle cx="392.372" cy="400.035" r="0.8947" stroke-width="0.5" stroke="black" fill="red"/>
  <circle cx="392.372" cy="400.035" r="0.62035" stroke-width="0.5" stroke="red" fill="red"/>
   </g>
   <g id="cell174" type="Red Bacteria" dead="false" >
  <circle cx="320.107" cy="15.6466" r="0.8947" stroke-width="0.5" stroke="black" fill="red"/>
  <circle cx="320.107" cy="15.6466" r="0.62035" stroke-width="0.5" stroke="red" fill="red"/>
   </g>
  </g>
 </g>
  <rect x="190" y="414" width="200" height="4" stroke-width="0.8" stroke="rgb(255,255,255)" fill="rgb(0,0,0)"/>
  <text x="192.5" y="411.5"
   font-family="Arial" font-size="10" fill="black" >
   200 &#956;m
  </text>
  <text x="10" y="418"
   font-family="Arial" font-size="7.5" fill="black" >
   0 days, 0 hours, 0 minutes, and 7.4484 seconds
  </text>
  <rect x="0" y="28" width="400" height="400" stroke-width="0.8" stroke="rgb(0,0,0)" fill="none"/>
</svg>
