<?xml version="1.0" encoding="UTF-8" standalone="no"?>
<!-- Created with PhysiCell (http://PhysiCell.MathCancer.org/) -->
<svg 
 xmlns:dc="http://purl.org/dc/elements/1.1/" 
 xmlns:cc="http://creativecommons.org/ns#" 
 xmlns:rdf="http://www.w3.org/1999/02/22-rdf-syntax-ns#" 
 xmlns:svg="http://www.w3.org/2000/svg" 
 xmlns="http://www.w3.org/2000/svg" 
 version="1.1" 
 width="400" 
 height="428" 
 id="svg2">
  <rect x="0" y="0" width="400" height="428" stroke-width="0.8" stroke="white" fill="white"/>
  <text x="5" y="12"
   font-family="Arial" font-size="10" fill="black" >
   Current time: 2 days, 6 hours, and 0.00 minutes, z = 0.00 &#956;m
  </text>
  <text x="5" y="23"
   font-family="Arial" font-size="9.5" fill="black" >
   182 agents
  </text>
 <g id="tissue" 
    transform="translate(0,428) scale(1,-1)">
  <g id="ECM">
  </g>
  <g id="cells">
   <g id="cell0" type="Blue Bacteria" dead="false" >
  <circle cx="62.7437" cy="400.041" r="0.750869" stroke-width="0.5" stroke="black" fill="grey"/>
  <circle cx="62.7437" cy="400.041" r="2.88283e-34" stroke-width="0.5" stroke="grey" fill="grey"/>
   </g>
   <g id="cell1" type="Blue Bacteria" dead="false" >
  <circle cx="276.895" cy="329.455" r="0.00615167" stroke-width="0.5" stroke="black" fill="grey"/>
  <circle cx="276.895" cy="329.455" r="3.11176e-34" stroke-width="0.5" stroke="grey" fill="grey"/>
   </g>
   <g id="cell190" type="Red Bacteria" dead="false" >
  <circle cx="320.535" cy="6.84448" r="0.8947" stroke-width="0.5" stroke="black" fill="red"/>
  <circle cx="320.535" cy="6.84448" r="0.62035" stroke-width="0.5" stroke="red" fill="red"/>
   </g>
   <g id="cell3" type="Blue Bacteria" dead="false" >
  <circle cx="400.001" cy="147.982" r="0.427104" stroke-width="0.5" stroke="black" fill="grey"/>
  <circle cx="400.001" cy="147.982" r="3.10601e-34" stroke-width="0.5" stroke="grey" fill="grey"/>
   </g>
   <g id="cell4" type="Blue Bacteria" dead="false" >
  <circle cx="323.967" cy="105.851" r="0.00615167" stroke-width="0.5" stroke="black" fill="grey"/>
  <circle cx="323.967" cy="105.851" r="3.11176e-34" stroke-width="0.5" stroke="grey" fill="grey"/>
   </g>
   <g id="cell5" type="Blue Bacteria" dead="false" >
  <circle cx="110.144" cy="300.59" r="0.00615167" stroke-width="0.5" stroke="black" fill="grey"/>
  <circle cx="110.144" cy="300.59" r="3.11176e-34" stroke-width="0.5" stroke="grey" fill="grey"/>
   </g>
   <g id="cell6" type="Blue Bacteria" dead="false" >
  <circle cx="316.127" cy="19.3855" r="0.00615167" stroke-width="0.5" stroke="black" fill="grey"/>
  <circle cx="316.127" cy="19.3855" r="3.11176e-34" stroke-width="0.5" stroke="grey" fill="grey"/>
   </g>
   <g id="cell7" type="Blue Bacteria" dead="false" >
  <circle cx="284.082" cy="218.422" r="0.00615167" stroke-width="0.5" stroke="black" fill="grey"/>
  <circle cx="284.082" cy="218.422" r="3.11176e-34" stroke-width="0.5" stroke="grey" fill="grey"/>
   </g>
   <g id="cell193" type="Red Bacteria" dead="false" >
  <circle cx="341.482" cy="200.79" r="0.8947" stroke-width="0.5" stroke="black" fill="red"/>
  <circle cx="341.482" cy="200.79" r="0.62035" stroke-width="0.5" stroke="red" fill="red"/>
   </g>
   <g id="cell9" type="Blue Bacteria" dead="false" >
  <circle cx="307.414" cy="112.42" r="0.00615167" stroke-width="0.5" stroke="black" fill="grey"/>
  <circle cx="307.414" cy="112.42" r="3.11176e-34" stroke-width="0.5" stroke="grey" fill="grey"/>
   </g>
   <g id="cell10" type="Blue Bacteria" dead="false" >
  <circle cx="-0.0807947" cy="41.6875" r="0.0323703" stroke-width="0.5" stroke="black" fill="grey"/>
  <circle cx="-0.0807947" cy="41.6875" r="3.11176e-34" stroke-width="0.5" stroke="grey" fill="grey"/>
   </g>
   <g id="cell11" type="Blue Bacteria" dead="false" >
  <circle cx="116.509" cy="400.074" r="0.393756" stroke-width="0.5" stroke="black" fill="grey"/>
  <circle cx="116.509" cy="400.074" r="3.10812e-34" stroke-width="0.5" stroke="grey" fill="grey"/>
   </g>
   <g id="cell12" type="Blue Bacteria" dead="false" >
  <circle cx="100.333" cy="351.316" r="0.00615167" stroke-width="0.5" stroke="black" fill="grey"/>
  <circle cx="100.333" cy="351.316" r="3.11176e-34" stroke-width="0.5" stroke="grey" fill="grey"/>
   </g>
   <g id="cell182" type="Red Bacteria" dead="false" >
  <circle cx="-0.00131308" cy="383.429" r="0.8947" stroke-width="0.5" stroke="black" fill="red"/>
  <circle cx="-0.00131308" cy="383.429" r="0.62035" stroke-width="0.5" stroke="red" fill="red"/>
   </g>
   <g id="cell14" type="Blue Bacteria" dead="false" >
  <circle cx="139.539" cy="400.062" r="0.213964" stroke-width="0.5" stroke="black" fill="grey"/>
  <circle cx="139.539" cy="400.062" r="3.11164e-34" stroke-width="0.5" stroke="grey" fill="grey"/>
   </g>
   <g id="cell15" type="Blue Bacteria" dead="false" >
  <circle cx="279.95" cy="157.15" r="0.00615167" stroke-width="0.5" stroke="black" fill="grey"/>
  <circle cx="279.95" cy="157.15" r="3.11176e-34" stroke-width="0.5" stroke="grey" fill="grey"/>
   </g>
   <g id="cell16" type="Blue Bacteria" dead="false" >
  <circle cx="36.7158" cy="267.568" r="0.00615167" stroke-width="0.5" stroke="black" fill="grey"/>
  <circle cx="36.7158" cy="267.568" r="3.11176e-34" stroke-width="0.5" stroke="grey" fill="grey"/>
   </g>
   <g id="cell17" type="Blue Bacteria" dead="false" >
  <circle cx="150.936" cy="-0.0356064" r="0.0433455" stroke-width="0.5" stroke="black" fill="grey"/>
  <circle cx="150.936" cy="-0.0356064" r="3.11176e-34" stroke-width="0.5" stroke="grey" fill="grey"/>
   </g>
   <g id="cell192" type="Red Bacteria" dead="false" >
  <circle cx="121.179" cy="139.097" r="0.8947" stroke-width="0.5" stroke="black" fill="red"/>
  <circle cx="121.179" cy="139.097" r="0.62035" stroke-width="0.5" stroke="red" fill="red"/>
   </g>
   <g id="cell19" type="Blue Bacteria" dead="false" >
  <circle cx="304.799" cy="116.971" r="0.00615167" stroke-width="0.5" stroke="black" fill="grey"/>
  <circle cx="304.799" cy="116.971" r="3.11176e-34" stroke-width="0.5" stroke="grey" fill="grey"/>
   </g>
   <g id="cell20" type="Blue Bacteria" dead="false" >
  <circle cx="400.021" cy="266.216" r="0.252135" stroke-width="0.5" stroke="black" fill="grey"/>
  <circle cx="400.021" cy="266.216" r="3.11145e-34" stroke-width="0.5" stroke="grey" fill="grey"/>
   </g>
   <g id="cell21" type="Blue Bacteria" dead="false" >
  <circle cx="271.838" cy="155.457" r="0.00615167" stroke-width="0.5" stroke="black" fill="grey"/>
  <circle cx="271.838" cy="155.457" r="3.11176e-34" stroke-width="0.5" stroke="grey" fill="grey"/>
   </g>
   <g id="cell22" type="Blue Bacteria" dead="false" >
  <circle cx="-0.038524" cy="50.8087" r="0.0859256" stroke-width="0.5" stroke="black" fill="grey"/>
  <circle cx="-0.038524" cy="50.8087" r="3.11176e-34" stroke-width="0.5" stroke="grey" fill="grey"/>
   </g>
   <g id="cell23" type="Blue Bacteria" dead="false" >
  <circle cx="143.607" cy="290.595" r="0.00615167" stroke-width="0.5" stroke="black" fill="grey"/>
  <circle cx="143.607" cy="290.595" r="3.11176e-34" stroke-width="0.5" stroke="grey" fill="grey"/>
   </g>
   <g id="cell24" type="Blue Bacteria" dead="false" >
  <circle cx="284.432" cy="362.823" r="0.00615167" stroke-width="0.5" stroke="black" fill="grey"/>
  <circle cx="284.432" cy="362.823" r="3.11176e-34" stroke-width="0.5" stroke="grey" fill="grey"/>
   </g>
   <g id="cell25" type="Blue Bacteria" dead="false" >
  <circle cx="-0.0424049" cy="84.7218" r="0.646103" stroke-width="0.5" stroke="black" fill="grey"/>
  <circle cx="-0.0424049" cy="84.7218" r="3.04418e-34" stroke-width="0.5" stroke="grey" fill="grey"/>
   </g>
   <g id="cell187" type="Red Bacteria" dead="false" >
  <circle cx="117.462" cy="136.157" r="0.8947" stroke-width="0.5" stroke="black" fill="red"/>
  <circle cx="117.462" cy="136.157" r="0.62035" stroke-width="0.5" stroke="red" fill="red"/>
   </g>
   <g id="cell27" type="Blue Bacteria" dead="false" >
  <circle cx="316.741" cy="322.867" r="0.00615167" stroke-width="0.5" stroke="black" fill="grey"/>
  <circle cx="316.741" cy="322.867" r="3.11176e-34" stroke-width="0.5" stroke="grey" fill="grey"/>
   </g>
   <g id="cell28" type="Blue Bacteria" dead="false" >
  <circle cx="330.695" cy="57.9754" r="0.00615167" stroke-width="0.5" stroke="black" fill="grey"/>
  <circle cx="330.695" cy="57.9754" r="3.11176e-34" stroke-width="0.5" stroke="grey" fill="grey"/>
   </g>
   <g id="cell29" type="Blue Bacteria" dead="false" >
  <circle cx="178.69" cy="49.7767" r="0.00615167" stroke-width="0.5" stroke="black" fill="grey"/>
  <circle cx="178.69" cy="49.7767" r="3.11176e-34" stroke-width="0.5" stroke="grey" fill="grey"/>
   </g>
   <g id="cell30" type="Blue Bacteria" dead="false" >
  <circle cx="293.408" cy="261.019" r="0.00615167" stroke-width="0.5" stroke="black" fill="grey"/>
  <circle cx="293.408" cy="261.019" r="3.11176e-34" stroke-width="0.5" stroke="grey" fill="grey"/>
   </g>
   <g id="cell31" type="Blue Bacteria" dead="false" >
  <circle cx="133.591" cy="400.077" r="0.750869" stroke-width="0.5" stroke="black" fill="grey"/>
  <circle cx="133.591" cy="400.077" r="2.88283e-34" stroke-width="0.5" stroke="grey" fill="grey"/>
   </g>
   <g id="cell32" type="Blue Bacteria" dead="false" >
  <circle cx="400.093" cy="222.591" r="0.0295477" stroke-width="0.5" stroke="black" fill="grey"/>
  <circle cx="400.093" cy="222.591" r="3.11176e-34" stroke-width="0.5" stroke="grey" fill="grey"/>
   </g>
   <g id="cell33" type="Blue Bacteria" dead="false" >
  <circle cx="275.346" cy="237.315" r="0.00615167" stroke-width="0.5" stroke="black" fill="grey"/>
  <circle cx="275.346" cy="237.315" r="3.11176e-34" stroke-width="0.5" stroke="grey" fill="grey"/>
   </g>
   <g id="cell34" type="Blue Bacteria" dead="false" >
  <circle cx="260.607" cy="-0.0639429" r="0.310924" stroke-width="0.5" stroke="black" fill="grey"/>
  <circle cx="260.607" cy="-0.0639429" r="3.11078e-34" stroke-width="0.5" stroke="grey" fill="grey"/>
   </g>
   <g id="cell35" type="Blue Bacteria" dead="false" >
  <circle cx="281.731" cy="342.843" r="0.00615167" stroke-width="0.5" stroke="black" fill="grey"/>
  <circle cx="281.731" cy="342.843" r="3.11176e-34" stroke-width="0.5" stroke="grey" fill="grey"/>
   </g>
   <g id="cell36" type="Blue Bacteria" dead="false" >
  <circle cx="267.991" cy="144.897" r="0.00615167" stroke-width="0.5" stroke="black" fill="grey"/>
  <circle cx="267.991" cy="144.897" r="3.11176e-34" stroke-width="0.5" stroke="grey" fill="grey"/>
   </g>
   <g id="cell37" type="Blue Bacteria" dead="false" >
  <circle cx="273.786" cy="400.032" r="0.704035" stroke-width="0.5" stroke="black" fill="grey"/>
  <circle cx="273.786" cy="400.032" r="2.98447e-34" stroke-width="0.5" stroke="grey" fill="grey"/>
   </g>
   <g id="cell38" type="Blue Bacteria" dead="false" >
  <circle cx="128.645" cy="288.861" r="0.00615167" stroke-width="0.5" stroke="black" fill="grey"/>
  <circle cx="128.645" cy="288.861" r="3.11176e-34" stroke-width="0.5" stroke="grey" fill="grey"/>
   </g>
   <g id="cell39" type="Blue Bacteria" dead="false" >
  <circle cx="285.518" cy="309.87" r="0.00615167" stroke-width="0.5" stroke="black" fill="grey"/>
  <circle cx="285.518" cy="309.87" r="3.11176e-34" stroke-width="0.5" stroke="grey" fill="grey"/>
   </g>
   <g id="cell40" type="Blue Bacteria" dead="false" >
  <circle cx="400.067" cy="302.273" r="0.366212" stroke-width="0.5" stroke="black" fill="grey"/>
  <circle cx="400.067" cy="302.273" r="3.10933e-34" stroke-width="0.5" stroke="grey" fill="grey"/>
   </g>
   <g id="cell183" type="Red Bacteria" dead="false" >
  <circle cx="361.607" cy="237.743" r="0.8947" stroke-width="0.5" stroke="black" fill="red"/>
  <circle cx="361.607" cy="237.743" r="0.62035" stroke-width="0.5" stroke="red" fill="red"/>
   </g>
   <g id="cell194" type="Red Bacteria" dead="false" >
  <circle cx="239.467" cy="400.017" r="0.8947" stroke-width="0.5" stroke="black" fill="red"/>
  <circle cx="239.467" cy="400.017" r="0.62035" stroke-width="0.5" stroke="red" fill="red"/>
   </g>
   <g id="cell43" type="Blue Bacteria" dead="false" >
  <circle cx="71.9883" cy="247.005" r="0.00615167" stroke-width="0.5" stroke="black" fill="grey"/>
  <circle cx="71.9883" cy="247.005" r="3.11176e-34" stroke-width="0.5" stroke="grey" fill="grey"/>
   </g>
   <g id="cell44" type="Blue Bacteria" dead="false" >
  <circle cx="168.804" cy="-0.0118758" r="0.236544" stroke-width="0.5" stroke="black" fill="grey"/>
  <circle cx="168.804" cy="-0.0118758" r="3.11154e-34" stroke-width="0.5" stroke="grey" fill="grey"/>
   </g>
   <g id="cell45" type="Blue Bacteria" dead="false" >
  <circle cx="379.026" cy="177.728" r="0.00615167" stroke-width="0.5" stroke="black" fill="grey"/>
  <circle cx="379.026" cy="177.728" r="3.11176e-34" stroke-width="0.5" stroke="grey" fill="grey"/>
   </g>
   <g id="cell46" type="Blue Bacteria" dead="false" >
  <circle cx="171.001" cy="234.732" r="0.00615167" stroke-width="0.5" stroke="black" fill="grey"/>
  <circle cx="171.001" cy="234.732" r="3.11176e-34" stroke-width="0.5" stroke="grey" fill="grey"/>
   </g>
   <g id="cell47" type="Blue Bacteria" dead="false" >
  <circle cx="271.864" cy="284.824" r="0.00615167" stroke-width="0.5" stroke="black" fill="grey"/>
  <circle cx="271.864" cy="284.824" r="3.11176e-34" stroke-width="0.5" stroke="grey" fill="grey"/>
   </g>
   <g id="cell48" type="Blue Bacteria" dead="false" >
  <circle cx="103.413" cy="211.587" r="0.00615167" stroke-width="0.5" stroke="black" fill="grey"/>
  <circle cx="103.413" cy="211.587" r="3.11176e-34" stroke-width="0.5" stroke="grey" fill="grey"/>
   </g>
   <g id="cell49" type="Blue Bacteria" dead="false" >
  <circle cx="191.315" cy="153.572" r="0.00615167" stroke-width="0.5" stroke="black" fill="grey"/>
  <circle cx="191.315" cy="153.572" r="3.11176e-34" stroke-width="0.5" stroke="grey" fill="grey"/>
   </g>
   <g id="cell188" type="Red Bacteria" dead="false" >
  <circle cx="246.282" cy="197.097" r="0.8947" stroke-width="0.5" stroke="black" fill="red"/>
  <circle cx="246.282" cy="197.097" r="0.62035" stroke-width="0.5" stroke="red" fill="red"/>
   </g>
   <g id="cell51" type="Blue Bacteria" dead="false" >
  <circle cx="-0.0790557" cy="177.301" r="0.533455" stroke-width="0.5" stroke="black" fill="grey"/>
  <circle cx="-0.0790557" cy="177.301" r="3.09121e-34" stroke-width="0.5" stroke="grey" fill="grey"/>
   </g>
   <g id="cell52" type="Blue Bacteria" dead="false" >
  <circle cx="400.024" cy="61.4948" r="0.675785" stroke-width="0.5" stroke="black" fill="grey"/>
  <circle cx="400.024" cy="61.4948" r="3.01906e-34" stroke-width="0.5" stroke="grey" fill="grey"/>
   </g>
   <g id="cell53" type="Blue Bacteria" dead="false" >
  <circle cx="106.312" cy="205.573" r="0.00615167" stroke-width="0.5" stroke="black" fill="grey"/>
  <circle cx="106.312" cy="205.573" r="3.11176e-34" stroke-width="0.5" stroke="grey" fill="grey"/>
   </g>
   <g id="cell54" type="Blue Bacteria" dead="false" >
  <circle cx="-0.0688068" cy="235.309" r="0.0105384" stroke-width="0.5" stroke="black" fill="grey"/>
  <circle cx="-0.0688068" cy="235.309" r="3.11176e-34" stroke-width="0.5" stroke="grey" fill="grey"/>
   </g>
   <g id="cell55" type="Blue Bacteria" dead="false" >
  <circle cx="354.432" cy="209.184" r="0.00615167" stroke-width="0.5" stroke="black" fill="grey"/>
  <circle cx="354.432" cy="209.184" r="3.11176e-34" stroke-width="0.5" stroke="grey" fill="grey"/>
   </g>
   <g id="cell56" type="Blue Bacteria" dead="false" >
  <circle cx="131.759" cy="122.496" r="0.00615167" stroke-width="0.5" stroke="black" fill="grey"/>
  <circle cx="131.759" cy="122.496" r="3.11176e-34" stroke-width="0.5" stroke="grey" fill="grey"/>
   </g>
   <g id="cell57" type="Blue Bacteria" dead="false" >
  <circle cx="-0.0234335" cy="145.483" r="0.00854356" stroke-width="0.5" stroke="black" fill="grey"/>
  <circle cx="-0.0234335" cy="145.483" r="3.11176e-34" stroke-width="0.5" stroke="grey" fill="grey"/>
   </g>
   <g id="cell58" type="Blue Bacteria" dead="false" >
  <circle cx="300.226" cy="195.378" r="0.00615167" stroke-width="0.5" stroke="black" fill="grey"/>
  <circle cx="300.226" cy="195.378" r="3.11176e-34" stroke-width="0.5" stroke="grey" fill="grey"/>
   </g>
   <g id="cell59" type="Blue Bacteria" dead="false" >
  <circle cx="338.666" cy="356.069" r="0.00615167" stroke-width="0.5" stroke="black" fill="grey"/>
  <circle cx="338.666" cy="356.069" r="3.11176e-34" stroke-width="0.5" stroke="grey" fill="grey"/>
   </g>
   <g id="cell60" type="Blue Bacteria" dead="false" >
  <circle cx="308.574" cy="400.002" r="0.322454" stroke-width="0.5" stroke="black" fill="grey"/>
  <circle cx="308.574" cy="400.002" r="3.11056e-34" stroke-width="0.5" stroke="grey" fill="grey"/>
   </g>
   <g id="cell61" type="Blue Bacteria" dead="false" >
  <circle cx="165.018" cy="400.002" r="0.22807" stroke-width="0.5" stroke="black" fill="grey"/>
  <circle cx="165.018" cy="400.002" r="3.11158e-34" stroke-width="0.5" stroke="grey" fill="grey"/>
   </g>
   <g id="cell62" type="Blue Bacteria" dead="false" >
  <circle cx="298.746" cy="306.401" r="0.00615167" stroke-width="0.5" stroke="black" fill="grey"/>
  <circle cx="298.746" cy="306.401" r="3.11176e-34" stroke-width="0.5" stroke="grey" fill="grey"/>
   </g>
   <g id="cell63" type="Blue Bacteria" dead="false" >
  <circle cx="358.038" cy="245.92" r="0.00615167" stroke-width="0.5" stroke="black" fill="grey"/>
  <circle cx="358.038" cy="245.92" r="3.11176e-34" stroke-width="0.5" stroke="grey" fill="grey"/>
   </g>
   <g id="cell64" type="Blue Bacteria" dead="false" >
  <circle cx="260.734" cy="117.657" r="0.00615167" stroke-width="0.5" stroke="black" fill="grey"/>
  <circle cx="260.734" cy="117.657" r="3.11176e-34" stroke-width="0.5" stroke="grey" fill="grey"/>
   </g>
   <g id="cell65" type="Blue Bacteria" dead="false" >
  <circle cx="320.236" cy="328.518" r="0.00615167" stroke-width="0.5" stroke="black" fill="grey"/>
  <circle cx="320.236" cy="328.518" r="3.11176e-34" stroke-width="0.5" stroke="grey" fill="grey"/>
   </g>
   <g id="cell66" type="Blue Bacteria" dead="false" >
  <circle cx="316.173" cy="303.327" r="0.00615167" stroke-width="0.5" stroke="black" fill="grey"/>
  <circle cx="316.173" cy="303.327" r="3.11176e-34" stroke-width="0.5" stroke="grey" fill="grey"/>
   </g>
   <g id="cell67" type="Blue Bacteria" dead="false" >
  <circle cx="285.789" cy="168.544" r="0.00615167" stroke-width="0.5" stroke="black" fill="grey"/>
  <circle cx="285.789" cy="168.544" r="3.11176e-34" stroke-width="0.5" stroke="grey" fill="grey"/>
   </g>
   <g id="cell68" type="Blue Bacteria" dead="false" >
  <circle cx="274.209" cy="328.212" r="0.00615167" stroke-width="0.5" stroke="black" fill="grey"/>
  <circle cx="274.209" cy="328.212" r="3.11176e-34" stroke-width="0.5" stroke="grey" fill="grey"/>
   </g>
   <g id="cell69" type="Blue Bacteria" dead="false" >
  <circle cx="281.494" cy="110.641" r="0.00615167" stroke-width="0.5" stroke="black" fill="grey"/>
  <circle cx="281.494" cy="110.641" r="3.11176e-34" stroke-width="0.5" stroke="grey" fill="grey"/>
   </g>
   <g id="cell70" type="Blue Bacteria" dead="false" >
  <circle cx="343.697" cy="70.8153" r="0.00615167" stroke-width="0.5" stroke="black" fill="grey"/>
  <circle cx="343.697" cy="70.8153" r="3.11176e-34" stroke-width="0.5" stroke="grey" fill="grey"/>
   </g>
   <g id="cell71" type="Blue Bacteria" dead="false" >
  <circle cx="91.7548" cy="301.434" r="0.00615167" stroke-width="0.5" stroke="black" fill="grey"/>
  <circle cx="91.7548" cy="301.434" r="3.11176e-34" stroke-width="0.5" stroke="grey" fill="grey"/>
   </g>
   <g id="cell72" type="Blue Bacteria" dead="false" >
  <circle cx="380.222" cy="400.005" r="0.591138" stroke-width="0.5" stroke="black" fill="grey"/>
  <circle cx="380.222" cy="400.005" r="3.07365e-34" stroke-width="0.5" stroke="grey" fill="grey"/>
   </g>
   <g id="cell73" type="Blue Bacteria" dead="false" >
  <circle cx="170.44" cy="291.463" r="0.00615167" stroke-width="0.5" stroke="black" fill="grey"/>
  <circle cx="170.44" cy="291.463" r="3.11176e-34" stroke-width="0.5" stroke="grey" fill="grey"/>
   </g>
   <g id="cell74" type="Blue Bacteria" dead="false" >
  <circle cx="-0.00554925" cy="3.07738" r="0.561854" stroke-width="0.5" stroke="black" fill="grey"/>
  <circle cx="-0.00554925" cy="3.07738" r="3.0838e-34" stroke-width="0.5" stroke="grey" fill="grey"/>
   </g>
   <g id="cell75" type="Blue Bacteria" dead="false" >
  <circle cx="281.404" cy="258.185" r="0.00615167" stroke-width="0.5" stroke="black" fill="grey"/>
  <circle cx="281.404" cy="258.185" r="3.11176e-34" stroke-width="0.5" stroke="grey" fill="grey"/>
   </g>
   <g id="cell76" type="Blue Bacteria" dead="false" >
  <circle cx="345.278" cy="318.377" r="0.00615167" stroke-width="0.5" stroke="black" fill="grey"/>
  <circle cx="345.278" cy="318.377" r="3.11176e-34" stroke-width="0.5" stroke="grey" fill="grey"/>
   </g>
   <g id="cell77" type="Blue Bacteria" dead="false" >
  <circle cx="303.458" cy="400.013" r="0.0146359" stroke-width="0.5" stroke="black" fill="grey"/>
  <circle cx="303.458" cy="400.013" r="3.11176e-34" stroke-width="0.5" stroke="grey" fill="grey"/>
   </g>
   <g id="cell78" type="Blue Bacteria" dead="false" >
  <circle cx="270.648" cy="400.005" r="0.221914" stroke-width="0.5" stroke="black" fill="grey"/>
  <circle cx="270.648" cy="400.005" r="3.11161e-34" stroke-width="0.5" stroke="grey" fill="grey"/>
   </g>
   <g id="cell79" type="Blue Bacteria" dead="false" >
  <circle cx="309.935" cy="78.1314" r="0.00615167" stroke-width="0.5" stroke="black" fill="grey"/>
  <circle cx="309.935" cy="78.1314" r="3.11176e-34" stroke-width="0.5" stroke="grey" fill="grey"/>
   </g>
   <g id="cell80" type="Blue Bacteria" dead="false" >
  <circle cx="348.604" cy="141.052" r="0.00615167" stroke-width="0.5" stroke="black" fill="grey"/>
  <circle cx="348.604" cy="141.052" r="3.11176e-34" stroke-width="0.5" stroke="grey" fill="grey"/>
   </g>
   <g id="cell198" type="Red Bacteria" dead="false" >
  <circle cx="121.433" cy="130.999" r="0.8947" stroke-width="0.5" stroke="black" fill="red"/>
  <circle cx="121.433" cy="130.999" r="0.62035" stroke-width="0.5" stroke="red" fill="red"/>
   </g>
   <g id="cell82" type="Blue Bacteria" dead="false" >
  <circle cx="315.617" cy="139.617" r="0.00615167" stroke-width="0.5" stroke="black" fill="grey"/>
  <circle cx="315.617" cy="139.617" r="3.11176e-34" stroke-width="0.5" stroke="grey" fill="grey"/>
   </g>
   <g id="cell83" type="Blue Bacteria" dead="false" >
  <circle cx="287.792" cy="400.001" r="0.02823" stroke-width="0.5" stroke="black" fill="grey"/>
  <circle cx="287.792" cy="400.001" r="3.11176e-34" stroke-width="0.5" stroke="grey" fill="grey"/>
   </g>
   <g id="cell84" type="Blue Bacteria" dead="false" >
  <circle cx="214.276" cy="400.038" r="0.164228" stroke-width="0.5" stroke="black" fill="grey"/>
  <circle cx="214.276" cy="400.038" r="3.11173e-34" stroke-width="0.5" stroke="grey" fill="grey"/>
   </g>
   <g id="cell85" type="Blue Bacteria" dead="false" >
  <circle cx="117.477" cy="80.5511" r="0.00615167" stroke-width="0.5" stroke="black" fill="grey"/>
  <circle cx="117.477" cy="80.5511" r="3.11176e-34" stroke-width="0.5" stroke="grey" fill="grey"/>
   </g>
   <g id="cell189" type="Red Bacteria" dead="false" >
  <circle cx="-0.0446946" cy="59.9989" r="0.8947" stroke-width="0.5" stroke="black" fill="red"/>
  <circle cx="-0.0446946" cy="59.9989" r="0.62035" stroke-width="0.5" stroke="red" fill="red"/>
   </g>
   <g id="cell87" type="Blue Bacteria" dead="false" >
  <circle cx="400.008" cy="251.694" r="0.74295" stroke-width="0.5" stroke="black" fill="grey"/>
  <circle cx="400.008" cy="251.694" r="2.90374e-34" stroke-width="0.5" stroke="grey" fill="grey"/>
   </g>
   <g id="cell88" type="Blue Bacteria" dead="false" >
  <circle cx="264.662" cy="312.998" r="0.00615167" stroke-width="0.5" stroke="black" fill="grey"/>
  <circle cx="264.662" cy="312.998" r="3.11176e-34" stroke-width="0.5" stroke="grey" fill="grey"/>
   </g>
   <g id="cell89" type="Blue Bacteria" dead="false" >
  <circle cx="128.35" cy="186.396" r="0.00615167" stroke-width="0.5" stroke="black" fill="grey"/>
  <circle cx="128.35" cy="186.396" r="3.11176e-34" stroke-width="0.5" stroke="grey" fill="grey"/>
   </g>
   <g id="cell185" type="Red Bacteria" dead="false" >
  <circle cx="17.3851" cy="400.084" r="0.8947" stroke-width="0.5" stroke="black" fill="red"/>
  <circle cx="17.3851" cy="400.084" r="0.62035" stroke-width="0.5" stroke="red" fill="red"/>
   </g>
   <g id="cell91" type="Blue Bacteria" dead="false" >
  <circle cx="269.712" cy="-0.0961623" r="0.626048" stroke-width="0.5" stroke="black" fill="grey"/>
  <circle cx="269.712" cy="-0.0961623" r="3.05694e-34" stroke-width="0.5" stroke="grey" fill="grey"/>
   </g>
   <g id="cell92" type="Blue Bacteria" dead="false" >
  <circle cx="43.5119" cy="112.985" r="0.00615167" stroke-width="0.5" stroke="black" fill="grey"/>
  <circle cx="43.5119" cy="112.985" r="3.11176e-34" stroke-width="0.5" stroke="grey" fill="grey"/>
   </g>
   <g id="cell93" type="Blue Bacteria" dead="false" >
  <circle cx="118.457" cy="195.448" r="0.00615167" stroke-width="0.5" stroke="black" fill="grey"/>
  <circle cx="118.457" cy="195.448" r="3.11176e-34" stroke-width="0.5" stroke="grey" fill="grey"/>
   </g>
   <g id="cell94" type="Blue Bacteria" dead="false" >
  <circle cx="400.034" cy="293.845" r="0.454837" stroke-width="0.5" stroke="black" fill="grey"/>
  <circle cx="400.034" cy="293.845" r="3.10355e-34" stroke-width="0.5" stroke="grey" fill="grey"/>
   </g>
   <g id="cell95" type="Blue Bacteria" dead="false" >
  <circle cx="335.078" cy="193.686" r="0.00615167" stroke-width="0.5" stroke="black" fill="grey"/>
  <circle cx="335.078" cy="193.686" r="3.11176e-34" stroke-width="0.5" stroke="grey" fill="grey"/>
   </g>
   <g id="cell96" type="Blue Bacteria" dead="false" >
  <circle cx="364.287" cy="400.053" r="0.0312103" stroke-width="0.5" stroke="black" fill="grey"/>
  <circle cx="364.287" cy="400.053" r="3.11176e-34" stroke-width="0.5" stroke="grey" fill="grey"/>
   </g>
   <g id="cell97" type="Blue Bacteria" dead="false" >
  <circle cx="331.16" cy="144.922" r="0.00615167" stroke-width="0.5" stroke="black" fill="grey"/>
  <circle cx="331.16" cy="144.922" r="3.11176e-34" stroke-width="0.5" stroke="grey" fill="grey"/>
   </g>
   <g id="cell98" type="Blue Bacteria" dead="false" >
  <circle cx="356.211" cy="400.103" r="0.103126" stroke-width="0.5" stroke="black" fill="grey"/>
  <circle cx="356.211" cy="400.103" r="3.11176e-34" stroke-width="0.5" stroke="grey" fill="grey"/>
   </g>
   <g id="cell99" type="Blue Bacteria" dead="false" >
  <circle cx="400.033" cy="95.4626" r="0.561854" stroke-width="0.5" stroke="black" fill="grey"/>
  <circle cx="400.033" cy="95.4626" r="3.0838e-34" stroke-width="0.5" stroke="grey" fill="grey"/>
   </g>
   <g id="cell100" type="Red Bacteria" dead="false" >
  <circle cx="340.373" cy="202.126" r="0.8947" stroke-width="0.5" stroke="black" fill="red"/>
  <circle cx="340.373" cy="202.126" r="0.62035" stroke-width="0.5" stroke="red" fill="red"/>
   </g>
   <g id="cell101" type="Red Bacteria" dead="false" >
  <circle cx="119.14" cy="133.34" r="0.8947" stroke-width="0.5" stroke="black" fill="red"/>
  <circle cx="119.14" cy="133.34" r="0.62035" stroke-width="0.5" stroke="red" fill="red"/>
   </g>
   <g id="cell102" type="Red Bacteria" dead="true" >
  <circle cx="262.003" cy="189.879" r="0.193572" stroke-width="0.5" stroke="black" fill="red"/>
  <circle cx="262.003" cy="189.879" r="0.191645" stroke-width="0.5" stroke="black" fill="black"/>
   </g>
   <g id="cell103" type="Red Bacteria" dead="false" >
  <circle cx="381.508" cy="400.032" r="0.8947" stroke-width="0.5" stroke="black" fill="red"/>
  <circle cx="381.508" cy="400.032" r="0.62035" stroke-width="0.5" stroke="red" fill="red"/>
   </g>
   <g id="cell104" type="Red Bacteria" dead="false" >
  <circle cx="400.004" cy="388.527" r="0.8947" stroke-width="0.5" stroke="black" fill="red"/>
  <circle cx="400.004" cy="388.527" r="0.62035" stroke-width="0.5" stroke="red" fill="red"/>
   </g>
   <g id="cell105" type="Red Bacteria" dead="false" >
  <circle cx="-0.057472" cy="386.491" r="0.8947" stroke-width="0.5" stroke="black" fill="red"/>
  <circle cx="-0.057472" cy="386.491" r="0.62035" stroke-width="0.5" stroke="red" fill="red"/>
   </g>
   <g id="cell106" type="Red Bacteria" dead="false" >
  <circle cx="120.975" cy="124.607" r="0.8947" stroke-width="0.5" stroke="black" fill="red"/>
  <circle cx="120.975" cy="124.607" r="0.62035" stroke-width="0.5" stroke="red" fill="red"/>
   </g>
   <g id="cell107" type="Red Bacteria" dead="false" >
  <circle cx="390.185" cy="400.023" r="0.8947" stroke-width="0.5" stroke="black" fill="red"/>
  <circle cx="390.185" cy="400.023" r="0.62035" stroke-width="0.5" stroke="red" fill="red"/>
   </g>
   <g id="cell108" type="Red Bacteria" dead="false" >
  <circle cx="160.705" cy="400.062" r="0.8947" stroke-width="0.5" stroke="black" fill="red"/>
  <circle cx="160.705" cy="400.062" r="0.62035" stroke-width="0.5" stroke="red" fill="red"/>
   </g>
   <g id="cell109" type="Red Bacteria" dead="false" >
  <circle cx="360.083" cy="240.475" r="0.8947" stroke-width="0.5" stroke="black" fill="red"/>
  <circle cx="360.083" cy="240.475" r="0.62035" stroke-width="0.5" stroke="red" fill="red"/>
   </g>
   <g id="cell110" type="Red Bacteria" dead="false" >
  <circle cx="400.052" cy="392.99" r="0.8947" stroke-width="0.5" stroke="black" fill="red"/>
  <circle cx="400.052" cy="392.99" r="0.62035" stroke-width="0.5" stroke="red" fill="red"/>
   </g>
   <g id="cell111" type="Red Bacteria" dead="false" >
  <circle cx="119.834" cy="124.101" r="0.8947" stroke-width="0.5" stroke="black" fill="red"/>
  <circle cx="119.834" cy="124.101" r="0.62035" stroke-width="0.5" stroke="red" fill="red"/>
   </g>
   <g id="cell112" type="Red Bacteria" dead="false" >
  <circle cx="259.371" cy="175.842" r="0.8947" stroke-width="0.5" stroke="black" fill="red"/>
  <circle cx="259.371" cy="175.842" r="0.62035" stroke-width="0.5" stroke="red" fill="red"/>
   </g>
   <g id="cell113" type="Red Bacteria" dead="false" >
  <circle cx="157.875" cy="400.036" r="0.8947" stroke-width="0.5" stroke="black" fill="red"/>
  <circle cx="157.875" cy="400.036" r="0.62035" stroke-width="0.5" stroke="red" fill="red"/>
   </g>
   <g id="cell114" type="Red Bacteria" dead="false" >
  <circle cx="-0.0170762" cy="31.3223" r="0.8947" stroke-width="0.5" stroke="black" fill="red"/>
  <circle cx="-0.0170762" cy="31.3223" r="0.62035" stroke-width="0.5" stroke="red" fill="red"/>
   </g>
   <g id="cell115" type="Red Bacteria" dead="false" >
  <circle cx="117.481" cy="-0.0584107" r="0.8947" stroke-width="0.5" stroke="black" fill="red"/>
  <circle cx="117.481" cy="-0.0584107" r="0.62035" stroke-width="0.5" stroke="red" fill="red"/>
   </g>
   <g id="cell116" type="Red Bacteria" dead="false" >
  <circle cx="15.9457" cy="400.02" r="0.8947" stroke-width="0.5" stroke="black" fill="red"/>
  <circle cx="15.9457" cy="400.02" r="0.62035" stroke-width="0.5" stroke="red" fill="red"/>
   </g>
   <g id="cell117" type="Red Bacteria" dead="false" >
  <circle cx="120.706" cy="129.031" r="0.8947" stroke-width="0.5" stroke="black" fill="red"/>
  <circle cx="120.706" cy="129.031" r="0.62035" stroke-width="0.5" stroke="red" fill="red"/>
   </g>
   <g id="cell118" type="Red Bacteria" dead="false" >
  <circle cx="253.897" cy="197.204" r="0.8947" stroke-width="0.5" stroke="black" fill="red"/>
  <circle cx="253.897" cy="197.204" r="0.62035" stroke-width="0.5" stroke="red" fill="red"/>
   </g>
   <g id="cell119" type="Red Bacteria" dead="false" >
  <circle cx="361.067" cy="239.258" r="0.8947" stroke-width="0.5" stroke="black" fill="red"/>
  <circle cx="361.067" cy="239.258" r="0.62035" stroke-width="0.5" stroke="red" fill="red"/>
   </g>
   <g id="cell120" type="Red Bacteria" dead="false" >
  <circle cx="117.011" cy="124.698" r="0.8947" stroke-width="0.5" stroke="black" fill="red"/>
  <circle cx="117.011" cy="124.698" r="0.62035" stroke-width="0.5" stroke="red" fill="red"/>
   </g>
   <g id="cell121" type="Red Bacteria" dead="false" >
  <circle cx="118.712" cy="134.96" r="0.8947" stroke-width="0.5" stroke="black" fill="red"/>
  <circle cx="118.712" cy="134.96" r="0.62035" stroke-width="0.5" stroke="red" fill="red"/>
   </g>
   <g id="cell122" type="Red Bacteria" dead="false" >
  <circle cx="161.368" cy="393.446" r="0.8947" stroke-width="0.5" stroke="black" fill="red"/>
  <circle cx="161.368" cy="393.446" r="0.62035" stroke-width="0.5" stroke="red" fill="red"/>
   </g>
   <g id="cell123" type="Red Bacteria" dead="false" >
  <circle cx="394.314" cy="400.098" r="0.8947" stroke-width="0.5" stroke="black" fill="red"/>
  <circle cx="394.314" cy="400.098" r="0.62035" stroke-width="0.5" stroke="red" fill="red"/>
   </g>
   <g id="cell124" type="Red Bacteria" dead="false" >
  <circle cx="260.512" cy="181.512" r="0.8947" stroke-width="0.5" stroke="black" fill="red"/>
  <circle cx="260.512" cy="181.512" r="0.62035" stroke-width="0.5" stroke="red" fill="red"/>
   </g>
   <g id="cell125" type="Red Bacteria" dead="false" >
  <circle cx="119.957" cy="135.954" r="0.8947" stroke-width="0.5" stroke="black" fill="red"/>
  <circle cx="119.957" cy="135.954" r="0.62035" stroke-width="0.5" stroke="red" fill="red"/>
   </g>
   <g id="cell126" type="Red Bacteria" dead="false" >
  <circle cx="361.374" cy="400.05" r="0.8947" stroke-width="0.5" stroke="black" fill="red"/>
  <circle cx="361.374" cy="400.05" r="0.62035" stroke-width="0.5" stroke="red" fill="red"/>
   </g>
   <g id="cell127" type="Red Bacteria" dead="false" >
  <circle cx="9.62878" cy="400.04" r="0.8947" stroke-width="0.5" stroke="black" fill="red"/>
  <circle cx="9.62878" cy="400.04" r="0.62035" stroke-width="0.5" stroke="red" fill="red"/>
   </g>
   <g id="cell128" type="Red Bacteria" dead="false" >
  <circle cx="319.782" cy="-0.0109649" r="0.8947" stroke-width="0.5" stroke="black" fill="red"/>
  <circle cx="319.782" cy="-0.0109649" r="0.62035" stroke-width="0.5" stroke="red" fill="red"/>
   </g>
   <g id="cell129" type="Red Bacteria" dead="false" >
  <circle cx="339.761" cy="217.071" r="0.8947" stroke-width="0.5" stroke="black" fill="red"/>
  <circle cx="339.761" cy="217.071" r="0.62035" stroke-width="0.5" stroke="red" fill="red"/>
   </g>
   <g id="cell130" type="Red Bacteria" dead="false" >
  <circle cx="121.712" cy="-0.0296209" r="0.8947" stroke-width="0.5" stroke="black" fill="red"/>
  <circle cx="121.712" cy="-0.0296209" r="0.62035" stroke-width="0.5" stroke="red" fill="red"/>
   </g>
   <g id="cell131" type="Red Bacteria" dead="false" >
  <circle cx="400.029" cy="200.223" r="0.8947" stroke-width="0.5" stroke="black" fill="red"/>
  <circle cx="400.029" cy="200.223" r="0.62035" stroke-width="0.5" stroke="red" fill="red"/>
   </g>
   <g id="cell132" type="Red Bacteria" dead="false" >
  <circle cx="-0.0032313" cy="380.059" r="0.8947" stroke-width="0.5" stroke="black" fill="red"/>
  <circle cx="-0.0032313" cy="380.059" r="0.62035" stroke-width="0.5" stroke="red" fill="red"/>
   </g>
   <g id="cell133" type="Red Bacteria" dead="false" >
  <circle cx="358.642" cy="236.978" r="0.8947" stroke-width="0.5" stroke="black" fill="red"/>
  <circle cx="358.642" cy="236.978" r="0.62035" stroke-width="0.5" stroke="red" fill="red"/>
   </g>
   <g id="cell134" type="Red Bacteria" dead="false" >
  <circle cx="120.166" cy="130.078" r="0.8947" stroke-width="0.5" stroke="black" fill="red"/>
  <circle cx="120.166" cy="130.078" r="0.62035" stroke-width="0.5" stroke="red" fill="red"/>
   </g>
   <g id="cell135" type="Red Bacteria" dead="false" >
  <circle cx="400.084" cy="385.317" r="0.8947" stroke-width="0.5" stroke="black" fill="red"/>
  <circle cx="400.084" cy="385.317" r="0.62035" stroke-width="0.5" stroke="red" fill="red"/>
   </g>
   <g id="cell136" type="Red Bacteria" dead="false" >
  <circle cx="163.634" cy="400.03" r="0.8947" stroke-width="0.5" stroke="black" fill="red"/>
  <circle cx="163.634" cy="400.03" r="0.62035" stroke-width="0.5" stroke="red" fill="red"/>
   </g>
   <g id="cell137" type="Red Bacteria" dead="false" >
  <circle cx="120.047" cy="122.622" r="0.8947" stroke-width="0.5" stroke="black" fill="red"/>
  <circle cx="120.047" cy="122.622" r="0.62035" stroke-width="0.5" stroke="red" fill="red"/>
   </g>
   <g id="cell138" type="Red Bacteria" dead="false" >
  <circle cx="387.306" cy="-0.0726748" r="0.8947" stroke-width="0.5" stroke="black" fill="red"/>
  <circle cx="387.306" cy="-0.0726748" r="0.62035" stroke-width="0.5" stroke="red" fill="red"/>
   </g>
   <g id="cell139" type="Red Bacteria" dead="false" >
  <circle cx="395.779" cy="400.011" r="0.8947" stroke-width="0.5" stroke="black" fill="red"/>
  <circle cx="395.779" cy="400.011" r="0.62035" stroke-width="0.5" stroke="red" fill="red"/>
   </g>
   <g id="cell140" type="Red Bacteria" dead="false" >
  <circle cx="120.259" cy="15.214" r="0.8947" stroke-width="0.5" stroke="black" fill="red"/>
  <circle cx="120.259" cy="15.214" r="0.62035" stroke-width="0.5" stroke="red" fill="red"/>
   </g>
   <g id="cell141" type="Red Bacteria" dead="false" >
  <circle cx="162.152" cy="400.082" r="0.8947" stroke-width="0.5" stroke="black" fill="red"/>
  <circle cx="162.152" cy="400.082" r="0.62035" stroke-width="0.5" stroke="red" fill="red"/>
   </g>
   <g id="cell142" type="Red Bacteria" dead="false" >
  <circle cx="120.527" cy="120.039" r="0.8947" stroke-width="0.5" stroke="black" fill="red"/>
  <circle cx="120.527" cy="120.039" r="0.62035" stroke-width="0.5" stroke="red" fill="red"/>
   </g>
   <g id="cell143" type="Red Bacteria" dead="false" >
  <circle cx="156.534" cy="400.053" r="0.8947" stroke-width="0.5" stroke="black" fill="red"/>
  <circle cx="156.534" cy="400.053" r="0.62035" stroke-width="0.5" stroke="red" fill="red"/>
   </g>
   <g id="cell144" type="Red Bacteria" dead="false" >
  <circle cx="318.658" cy="-0.0422299" r="0.8947" stroke-width="0.5" stroke="black" fill="red"/>
  <circle cx="318.658" cy="-0.0422299" r="0.62035" stroke-width="0.5" stroke="red" fill="red"/>
   </g>
   <g id="cell199" type="Red Bacteria" dead="false" >
  <circle cx="118.881" cy="130.47" r="0.8947" stroke-width="0.5" stroke="black" fill="red"/>
  <circle cx="118.881" cy="130.47" r="0.62035" stroke-width="0.5" stroke="red" fill="red"/>
   </g>
   <g id="cell146" type="Red Bacteria" dead="false" >
  <circle cx="123.266" cy="-0.0145849" r="0.8947" stroke-width="0.5" stroke="black" fill="red"/>
  <circle cx="123.266" cy="-0.0145849" r="0.62035" stroke-width="0.5" stroke="red" fill="red"/>
   </g>
   <g id="cell147" type="Red Bacteria" dead="false" >
  <circle cx="391.093" cy="395.487" r="0.8947" stroke-width="0.5" stroke="black" fill="red"/>
  <circle cx="391.093" cy="395.487" r="0.62035" stroke-width="0.5" stroke="red" fill="red"/>
   </g>
   <g id="cell148" type="Red Bacteria" dead="false" >
  <circle cx="-0.0983096" cy="391.835" r="0.8947" stroke-width="0.5" stroke="black" fill="red"/>
  <circle cx="-0.0983096" cy="391.835" r="0.62035" stroke-width="0.5" stroke="red" fill="red"/>
   </g>
   <g id="cell149" type="Red Bacteria" dead="false" >
  <circle cx="114.804" cy="-0.053258" r="0.8947" stroke-width="0.5" stroke="black" fill="red"/>
  <circle cx="114.804" cy="-0.053258" r="0.62035" stroke-width="0.5" stroke="red" fill="red"/>
   </g>
   <g id="cell150" type="Red Bacteria" dead="false" >
  <circle cx="119.327" cy="137.383" r="0.8947" stroke-width="0.5" stroke="black" fill="red"/>
  <circle cx="119.327" cy="137.383" r="0.62035" stroke-width="0.5" stroke="red" fill="red"/>
   </g>
   <g id="cell191" type="Red Bacteria" dead="false" >
  <circle cx="118.996" cy="14.9592" r="0.8947" stroke-width="0.5" stroke="black" fill="red"/>
  <circle cx="118.996" cy="14.9592" r="0.62035" stroke-width="0.5" stroke="red" fill="red"/>
   </g>
   <g id="cell152" type="Red Bacteria" dead="false" >
  <circle cx="7.82376" cy="400.047" r="0.8947" stroke-width="0.5" stroke="black" fill="red"/>
  <circle cx="7.82376" cy="400.047" r="0.62035" stroke-width="0.5" stroke="red" fill="red"/>
   </g>
   <g id="cell153" type="Red Bacteria" dead="false" >
  <circle cx="159.374" cy="400.063" r="0.8947" stroke-width="0.5" stroke="black" fill="red"/>
  <circle cx="159.374" cy="400.063" r="0.62035" stroke-width="0.5" stroke="red" fill="red"/>
   </g>
   <g id="cell196" type="Red Bacteria" dead="false" >
  <circle cx="-0.066081" cy="389.059" r="0.8947" stroke-width="0.5" stroke="black" fill="red"/>
  <circle cx="-0.066081" cy="389.059" r="0.62035" stroke-width="0.5" stroke="red" fill="red"/>
   </g>
   <g id="cell155" type="Red Bacteria" dead="false" >
  <circle cx="18.7074" cy="400.004" r="0.8947" stroke-width="0.5" stroke="black" fill="red"/>
  <circle cx="18.7074" cy="400.004" r="0.62035" stroke-width="0.5" stroke="red" fill="red"/>
   </g>
   <g id="cell156" type="Red Bacteria" dead="false" >
  <circle cx="117.698" cy="133.812" r="0.8947" stroke-width="0.5" stroke="black" fill="red"/>
  <circle cx="117.698" cy="133.812" r="0.62035" stroke-width="0.5" stroke="red" fill="red"/>
   </g>
   <g id="cell157" type="Red Bacteria" dead="false" >
  <circle cx="322.705" cy="-0.0515298" r="0.8947" stroke-width="0.5" stroke="black" fill="red"/>
  <circle cx="322.705" cy="-0.0515298" r="0.62035" stroke-width="0.5" stroke="red" fill="red"/>
   </g>
   <g id="cell158" type="Red Bacteria" dead="false" >
  <circle cx="314.99" cy="-0.0347149" r="0.8947" stroke-width="0.5" stroke="black" fill="red"/>
  <circle cx="314.99" cy="-0.0347149" r="0.62035" stroke-width="0.5" stroke="red" fill="red"/>
   </g>
   <g id="cell159" type="Red Bacteria" dead="false" >
  <circle cx="400.009" cy="396.458" r="0.8947" stroke-width="0.5" stroke="black" fill="red"/>
  <circle cx="400.009" cy="396.458" r="0.62035" stroke-width="0.5" stroke="red" fill="red"/>
   </g>
   <g id="cell160" type="Red Bacteria" dead="false" >
  <circle cx="120.214" cy="133.194" r="0.8947" stroke-width="0.5" stroke="black" fill="red"/>
  <circle cx="120.214" cy="133.194" r="0.62035" stroke-width="0.5" stroke="red" fill="red"/>
   </g>
   <g id="cell161" type="Red Bacteria" dead="false" >
  <circle cx="319.499" cy="13.3968" r="0.8947" stroke-width="0.5" stroke="black" fill="red"/>
  <circle cx="319.499" cy="13.3968" r="0.62035" stroke-width="0.5" stroke="red" fill="red"/>
   </g>
   <g id="cell162" type="Red Bacteria" dead="false" >
  <circle cx="116.201" cy="-0.0476963" r="0.8947" stroke-width="0.5" stroke="black" fill="red"/>
  <circle cx="116.201" cy="-0.0476963" r="0.62035" stroke-width="0.5" stroke="red" fill="red"/>
   </g>
   <g id="cell163" type="Red Bacteria" dead="false" >
  <circle cx="119.875" cy="131.565" r="0.8947" stroke-width="0.5" stroke="black" fill="red"/>
  <circle cx="119.875" cy="131.565" r="0.62035" stroke-width="0.5" stroke="red" fill="red"/>
   </g>
   <g id="cell164" type="Red Bacteria" dead="false" >
  <circle cx="400.018" cy="383.818" r="0.8947" stroke-width="0.5" stroke="black" fill="red"/>
  <circle cx="400.018" cy="383.818" r="0.62035" stroke-width="0.5" stroke="red" fill="red"/>
   </g>
   <g id="cell165" type="Red Bacteria" dead="false" >
  <circle cx="120.017" cy="134.607" r="0.8947" stroke-width="0.5" stroke="black" fill="red"/>
  <circle cx="120.017" cy="134.607" r="0.62035" stroke-width="0.5" stroke="red" fill="red"/>
   </g>
   <g id="cell166" type="Red Bacteria" dead="false" >
  <circle cx="320.853" cy="20.2057" r="0.8947" stroke-width="0.5" stroke="black" fill="red"/>
  <circle cx="320.853" cy="20.2057" r="0.62035" stroke-width="0.5" stroke="red" fill="red"/>
   </g>
   <g id="cell167" type="Red Bacteria" dead="false" >
  <circle cx="118.937" cy="118.934" r="0.8947" stroke-width="0.5" stroke="black" fill="red"/>
  <circle cx="118.937" cy="118.934" r="0.62035" stroke-width="0.5" stroke="red" fill="red"/>
   </g>
   <g id="cell168" type="Red Bacteria" dead="false" >
  <circle cx="120.433" cy="5.12607" r="0.8947" stroke-width="0.5" stroke="black" fill="red"/>
  <circle cx="120.433" cy="5.12607" r="0.62035" stroke-width="0.5" stroke="red" fill="red"/>
   </g>
   <g id="cell169" type="Red Bacteria" dead="false" >
  <circle cx="120.245" cy="-0.028037" r="0.8947" stroke-width="0.5" stroke="black" fill="red"/>
  <circle cx="120.245" cy="-0.028037" r="0.62035" stroke-width="0.5" stroke="red" fill="red"/>
   </g>
   <g id="cell170" type="Red Bacteria" dead="false" >
  <circle cx="119.576" cy="128.054" r="0.8947" stroke-width="0.5" stroke="black" fill="red"/>
  <circle cx="119.576" cy="128.054" r="0.62035" stroke-width="0.5" stroke="red" fill="red"/>
   </g>
   <g id="cell171" type="Red Bacteria" dead="false" >
  <circle cx="117.931" cy="139.462" r="0.8947" stroke-width="0.5" stroke="black" fill="red"/>
  <circle cx="117.931" cy="139.462" r="0.62035" stroke-width="0.5" stroke="red" fill="red"/>
   </g>
   <g id="cell172" type="Red Bacteria" dead="false" >
  <circle cx="4.65962" cy="400.024" r="0.8947" stroke-width="0.5" stroke="black" fill="red"/>
  <circle cx="4.65962" cy="400.024" r="0.62035" stroke-width="0.5" stroke="red" fill="red"/>
   </g>
   <g id="cell173" type="Red Bacteria" dead="false" >
  <circle cx="392.372" cy="400.035" r="0.8947" stroke-width="0.5" stroke="black" fill="red"/>
  <circle cx="392.372" cy="400.035" r="0.62035" stroke-width="0.5" stroke="red" fill="red"/>
   </g>
   <g id="cell174" type="Red Bacteria" dead="false" >
  <circle cx="319.848" cy="8.14957" r="0.8947" stroke-width="0.5" stroke="black" fill="red"/>
  <circle cx="319.848" cy="8.14957" r="0.62035" stroke-width="0.5" stroke="red" fill="red"/>
   </g>
   <g id="cell175" type="Red Bacteria" dead="false" >
  <circle cx="317.16" cy="-0.0310332" r="0.8947" stroke-width="0.5" stroke="black" fill="red"/>
  <circle cx="317.16" cy="-0.0310332" r="0.62035" stroke-width="0.5" stroke="red" fill="red"/>
   </g>
   <g id="cell176" type="Red Bacteria" dead="false" >
  <circle cx="-0.0568013" cy="295.467" r="0.8947" stroke-width="0.5" stroke="black" fill="red"/>
  <circle cx="-0.0568013" cy="295.467" r="0.62035" stroke-width="0.5" stroke="red" fill="red"/>
   </g>
   <g id="cell177" type="Red Bacteria" dead="false" >
  <circle cx="118.764" cy="-0.0035018" r="0.8947" stroke-width="0.5" stroke="black" fill="red"/>
  <circle cx="118.764" cy="-0.0035018" r="0.62035" stroke-width="0.5" stroke="red" fill="red"/>
   </g>
   <g id="cell178" type="Red Bacteria" dead="false" >
  <circle cx="118.103" cy="137.708" r="0.8947" stroke-width="0.5" stroke="black" fill="red"/>
  <circle cx="118.103" cy="137.708" r="0.62035" stroke-width="0.5" stroke="red" fill="red"/>
   </g>
   <g id="cell179" type="Red Bacteria" dead="false" >
  <circle cx="119.731" cy="125.501" r="0.8947" stroke-width="0.5" stroke="black" fill="red"/>
  <circle cx="119.731" cy="125.501" r="0.62035" stroke-width="0.5" stroke="red" fill="red"/>
   </g>
   <g id="cell184" type="Red Bacteria" dead="false" >
  <circle cx="400.023" cy="7.65816" r="0.8947" stroke-width="0.5" stroke="black" fill="red"/>
  <circle cx="400.023" cy="7.65816" r="0.62035" stroke-width="0.5" stroke="red" fill="red"/>
   </g>
   <g id="cell186" type="Red Bacteria" dead="false" >
  <circle cx="321.01" cy="-0.0929578" r="0.8947" stroke-width="0.5" stroke="black" fill="red"/>
  <circle cx="321.01" cy="-0.0929578" r="0.62035" stroke-width="0.5" stroke="red" fill="red"/>
   </g>
  </g>
 </g>
  <rect x="190" y="414" width="200" height="4" stroke-width="0.8" stroke="rgb(255,255,255)" fill="rgb(0,0,0)"/>
  <text x="192.5" y="411.5"
   font-family="Arial" font-size="10" fill="black" >
   200 &#956;m
  </text>
  <text x="10" y="418"
   font-family="Arial" font-size="7.5" fill="black" >
   0 days, 0 hours, 0 minutes, and 4.7401 seconds
  </text>
  <rect x="0" y="28" width="400" height="400" stroke-width="0.8" stroke="rgb(0,0,0)" fill="none"/>
</svg>
